<svg xmlns="http://www.w3.org/2000/svg" xmlns:xlink="http://www.w3.org/1999/xlink" viewBox="0 0 890.55 1080"><defs><style>.cls-1{fill:none;}.cls-2{clip-path:url(#clip-path);}.cls-3{fill:#bdccd4;}.cls-4{fill:#7fbeff;}.cls-5{fill:#0c36bc;}.cls-6{fill:#f9ba8a;}.cls-7{fill:#d7a268;}.cls-8{fill:#cadde2;}</style><clipPath id="clip-path"><rect class="cls-1" x="-3.95" y="4.19" width="903.03" height="1077.06"/></clipPath></defs><title>darligbilled4</title><g id="farver_darlig"><g id="billed4-2" data-name="billed4"><g class="cls-2"><rect class="cls-3" x="-4.7" y="2.13" width="896.17" height="1076.94"/><polygon class="cls-4" points="-4.7 166.55 -4.19 155.83 890.96 105.28 890.96 114.98 -4.7 166.55"/><rect class="cls-4" x="38.28" y="-4.01" width="10" height="1130.76" transform="translate(-14.71 1.33) rotate(-1.5)"/><rect class="cls-4" x="289.51" y="-19.33" width="10" height="1130.76" transform="matrix(1, -0.03, 0.03, 1, -14.22, 7.91)"/><rect class="cls-4" x="582.11" y="-33.12" width="10" height="1130.76" transform="matrix(1, -0.03, 0.03, 1, -13.76, 15.58)"/><rect class="cls-4" x="831.81" y="-34.65" width="10" height="1130.76" transform="matrix(1, -0.03, 0.03, 1, -13.63, 22.13)"/><polygon class="cls-4" points="-4.19 354.98 -4.7 343.75 890.96 292.68 890.45 302.38 -4.19 354.98"/><polygon class="cls-4" points="-4.7 521.96 -4.19 511.75 891.47 461.7 891.98 470.89 -4.7 521.96"/><polygon class="cls-4" points="-4.19 684.85 -4.7 675.15 890.96 624.6 890.96 635.32 -4.19 684.85"/><polygon class="cls-4" points="-5.21 875.83 -3.68 865.11 891.47 814.04 890.96 824.77 -5.21 875.83"/><polygon class="cls-4" points="-4.7 1049.45 -4.19 1038.72 891.47 988.68 890.96 997.87 -4.7 1049.45"/><rect class="cls-1" x="130.09" y="1086.84" width="23.99" height="9.08" transform="translate(-956.95 1032.93) rotate(-79.54)"/><rect class="cls-5" x="137.54" y="1079.39" width="9.08" height="23.99" transform="translate(200.53 -7.66) rotate(10.46)"/><rect class="cls-1" x="138.89" y="1039.68" width="23.99" height="9.08" transform="translate(-903.37 1002.99) rotate(-79.54)"/><rect class="cls-5" x="146.35" y="1032.23" width="9.08" height="23.99" transform="translate(192.12 -10.04) rotate(10.46)"/><rect class="cls-1" x="147.7" y="992.52" width="23.99" height="9.08" transform="translate(-849.79 973.06) rotate(-79.54)"/><rect class="cls-5" x="155.15" y="985.07" width="9.08" height="23.99" transform="translate(183.7 -12.42) rotate(10.46)"/><rect class="cls-1" x="156.5" y="945.36" width="23.99" height="9.08" transform="translate(-796.21 943.12) rotate(-79.54)"/><rect class="cls-5" x="163.96" y="937.91" width="9.08" height="23.99" transform="translate(175.28 -14.8) rotate(10.46)"/><rect class="cls-1" x="165.31" y="898.2" width="23.99" height="9.08" transform="translate(-742.63 913.18) rotate(-79.54)"/><rect class="cls-5" x="172.76" y="890.75" width="9.08" height="23.99" transform="translate(166.87 -17.19) rotate(10.46)"/><rect class="cls-1" x="174.11" y="851.05" width="23.99" height="9.08" transform="translate(-689.05 883.24) rotate(-79.54)"/><rect class="cls-5" x="181.56" y="843.59" width="9.08" height="23.99" transform="translate(158.45 -19.57) rotate(10.46)"/><rect class="cls-1" x="182.91" y="803.89" width="23.99" height="9.08" transform="translate(-635.47 853.3) rotate(-79.54)"/><rect class="cls-5" x="190.37" y="796.43" width="9.08" height="23.99" transform="translate(150.03 -21.95) rotate(10.46)"/><rect class="cls-1" x="191.72" y="756.73" width="23.99" height="9.08" transform="translate(-581.89 823.36) rotate(-79.54)"/><rect class="cls-5" x="199.17" y="749.27" width="9.08" height="23.99" transform="translate(141.62 -24.33) rotate(10.46)"/><rect class="cls-1" x="200.52" y="709.57" width="23.99" height="9.08" transform="translate(-528.31 793.43) rotate(-79.54)"/><rect class="cls-5" x="207.98" y="702.11" width="9.08" height="23.99" transform="translate(133.2 -26.72) rotate(10.46)"/><rect class="cls-1" x="209.33" y="662.41" width="23.99" height="9.08" transform="translate(-474.73 763.49) rotate(-79.54)"/><rect class="cls-5" x="216.78" y="654.96" width="9.08" height="23.99" transform="translate(124.78 -29.1) rotate(10.46)"/><rect class="cls-1" x="218.13" y="615.25" width="23.99" height="9.08" transform="translate(-421.15 733.55) rotate(-79.54)"/><rect class="cls-5" x="225.58" y="607.8" width="9.08" height="23.99" transform="translate(116.37 -31.48) rotate(10.46)"/><rect class="cls-1" x="226.93" y="568.09" width="23.99" height="9.08" transform="translate(-367.57 703.61) rotate(-79.54)"/><rect class="cls-5" x="234.39" y="560.64" width="9.08" height="23.99" transform="translate(107.95 -33.86) rotate(10.46)"/><rect class="cls-1" x="235.74" y="520.93" width="23.99" height="9.08" transform="translate(-313.99 673.67) rotate(-79.54)"/><rect class="cls-5" x="243.19" y="513.48" width="9.08" height="23.99" transform="translate(99.53 -36.25) rotate(10.46)"/><rect class="cls-1" x="244.54" y="473.77" width="23.99" height="9.08" transform="translate(-260.41 643.73) rotate(-79.54)"/><rect class="cls-5" x="252" y="466.32" width="9.08" height="23.99" transform="translate(91.12 -38.63) rotate(10.46)"/><rect class="cls-1" x="253.35" y="426.61" width="23.99" height="9.08" transform="translate(-206.83 613.79) rotate(-79.54)"/><rect class="cls-5" x="260.8" y="419.16" width="9.08" height="23.99" transform="translate(82.7 -41.01) rotate(10.46)"/><rect class="cls-1" x="262.15" y="379.46" width="23.99" height="9.08" transform="translate(-153.25 583.86) rotate(-79.54)"/><rect class="cls-5" x="269.6" y="372" width="9.08" height="23.99" transform="translate(74.28 -43.39) rotate(10.46)"/><rect class="cls-1" x="270.95" y="332.3" width="23.99" height="9.08" transform="translate(-99.67 553.92) rotate(-79.54)"/><rect class="cls-5" x="278.41" y="324.84" width="9.08" height="23.99" transform="translate(65.87 -45.78) rotate(10.46)"/><rect class="cls-1" x="279.76" y="285.14" width="23.99" height="9.08" transform="translate(-46.09 523.98) rotate(-79.54)"/><rect class="cls-5" x="287.21" y="277.68" width="9.08" height="23.99" transform="translate(57.45 -48.16) rotate(10.46)"/><rect class="cls-1" x="288.56" y="237.98" width="23.99" height="9.08" transform="translate(7.49 494.04) rotate(-79.54)"/><rect class="cls-5" x="296.02" y="230.52" width="9.08" height="23.99" transform="translate(49.03 -50.54) rotate(10.46)"/><rect class="cls-1" x="297.37" y="190.82" width="23.99" height="9.08" transform="translate(61.07 464.1) rotate(-79.54)"/><rect class="cls-5" x="304.82" y="183.37" width="9.08" height="23.99" transform="translate(40.62 -52.92) rotate(10.46)"/><rect class="cls-1" x="306.17" y="143.66" width="23.99" height="9.08" transform="translate(114.65 434.16) rotate(-79.54)"/><rect class="cls-5" x="313.62" y="136.21" width="9.08" height="23.99" transform="translate(32.2 -55.31) rotate(10.46)"/><rect class="cls-1" x="314.97" y="96.5" width="23.99" height="9.08" transform="translate(168.24 404.23) rotate(-79.54)"/><rect class="cls-5" x="322.43" y="89.05" width="9.08" height="23.99" transform="translate(23.78 -57.69) rotate(10.46)"/><rect class="cls-1" x="323.78" y="49.34" width="23.99" height="9.08" transform="translate(221.82 374.29) rotate(-79.54)"/><rect class="cls-5" x="331.23" y="41.89" width="9.08" height="23.99" transform="translate(15.37 -60.07) rotate(10.46)"/><rect class="cls-1" x="332.58" y="2.18" width="23.99" height="9.08" transform="translate(275.4 344.35) rotate(-79.54)"/><rect class="cls-5" x="340.03" y="-5.27" width="9.08" height="23.99" transform="translate(6.95 -62.46) rotate(10.46)"/><rect class="cls-1" x="179.74" y="1084.35" width="23.99" height="9.08" transform="translate(-913.87 1079.72) rotate(-79.54)"/><rect class="cls-5" x="187.2" y="1076.9" width="9.08" height="23.99" transform="translate(200.91 -16.71) rotate(10.46)"/><rect class="cls-1" x="188.55" y="1037.19" width="23.99" height="9.08" transform="translate(-860.29 1049.78) rotate(-79.54)"/><rect class="cls-5" x="196" y="1029.74" width="9.08" height="23.99" transform="translate(192.49 -19.1) rotate(10.46)"/><rect class="cls-1" x="197.35" y="990.04" width="23.99" height="9.08" transform="translate(-806.71 1019.85) rotate(-79.54)"/><rect class="cls-5" x="204.8" y="982.58" width="9.08" height="23.99" transform="translate(184.07 -21.48) rotate(10.46)"/><rect class="cls-1" x="206.15" y="942.88" width="23.99" height="9.08" transform="translate(-753.13 989.91) rotate(-79.54)"/><rect class="cls-5" x="213.61" y="935.42" width="9.08" height="23.99" transform="translate(175.66 -23.86) rotate(10.46)"/><rect class="cls-1" x="214.96" y="895.72" width="23.99" height="9.08" transform="translate(-699.55 959.97) rotate(-79.54)"/><rect class="cls-5" x="222.41" y="888.26" width="9.08" height="23.99" transform="translate(167.24 -26.24) rotate(10.46)"/><rect class="cls-1" x="223.76" y="848.56" width="23.99" height="9.08" transform="translate(-645.97 930.03) rotate(-79.54)"/><rect class="cls-5" x="231.22" y="841.1" width="9.08" height="23.99" transform="translate(158.82 -28.63) rotate(10.46)"/><rect class="cls-1" x="232.57" y="801.4" width="23.99" height="9.08" transform="translate(-592.39 900.09) rotate(-79.54)"/><rect class="cls-5" x="240.02" y="793.95" width="9.08" height="23.99" transform="translate(150.41 -31.01) rotate(10.46)"/><rect class="cls-1" x="241.37" y="754.24" width="23.99" height="9.08" transform="translate(-538.81 870.15) rotate(-79.54)"/><rect class="cls-5" x="248.82" y="746.79" width="9.08" height="23.99" transform="translate(141.99 -33.39) rotate(10.46)"/><rect class="cls-1" x="250.17" y="707.08" width="23.99" height="9.08" transform="translate(-485.23 840.22) rotate(-79.54)"/><rect class="cls-5" x="257.63" y="699.63" width="9.08" height="23.99" transform="translate(133.57 -35.77) rotate(10.46)"/><rect class="cls-1" x="258.98" y="659.92" width="23.99" height="9.08" transform="translate(-431.65 810.28) rotate(-79.54)"/><rect class="cls-5" x="266.43" y="652.47" width="9.08" height="23.99" transform="translate(125.16 -38.16) rotate(10.46)"/><rect class="cls-1" x="267.78" y="612.76" width="23.99" height="9.08" transform="translate(-378.07 780.34) rotate(-79.54)"/><rect class="cls-5" x="275.23" y="605.31" width="9.08" height="23.99" transform="translate(116.74 -40.54) rotate(10.46)"/><rect class="cls-1" x="276.59" y="565.6" width="23.99" height="9.08" transform="translate(-324.49 750.4) rotate(-79.54)"/><rect class="cls-5" x="284.04" y="558.15" width="9.08" height="23.99" transform="translate(108.32 -42.92) rotate(10.46)"/><rect class="cls-1" x="285.39" y="518.45" width="23.99" height="9.08" transform="translate(-270.91 720.46) rotate(-79.54)"/><rect class="cls-5" x="292.84" y="510.99" width="9.08" height="23.99" transform="translate(99.91 -45.3) rotate(10.46)"/><rect class="cls-1" x="294.19" y="471.29" width="23.99" height="9.08" transform="translate(-217.33 690.52) rotate(-79.54)"/><rect class="cls-5" x="301.65" y="463.83" width="9.08" height="23.99" transform="translate(91.49 -47.69) rotate(10.46)"/><rect class="cls-1" x="303" y="424.13" width="23.99" height="9.08" transform="translate(-163.75 660.59) rotate(-79.54)"/><rect class="cls-5" x="310.45" y="416.67" width="9.08" height="23.99" transform="translate(83.07 -50.07) rotate(10.46)"/><rect class="cls-1" x="311.8" y="376.97" width="23.99" height="9.08" transform="translate(-110.17 630.65) rotate(-79.54)"/><rect class="cls-5" x="319.25" y="369.51" width="9.08" height="23.99" transform="translate(74.66 -52.45) rotate(10.46)"/><rect class="cls-1" x="320.6" y="329.81" width="23.99" height="9.08" transform="translate(-56.59 600.71) rotate(-79.54)"/><rect class="cls-5" x="328.06" y="322.36" width="9.08" height="23.99" transform="translate(66.24 -54.83) rotate(10.46)"/><rect class="cls-1" x="329.41" y="282.65" width="23.99" height="9.08" transform="translate(-3 570.77) rotate(-79.54)"/><rect class="cls-5" x="336.86" y="275.2" width="9.08" height="23.99" transform="translate(57.82 -57.22) rotate(10.46)"/><rect class="cls-1" x="338.21" y="235.49" width="23.99" height="9.08" transform="translate(50.58 540.83) rotate(-79.54)"/><rect class="cls-5" x="345.67" y="228.04" width="9.08" height="23.99" transform="translate(49.41 -59.6) rotate(10.46)"/><rect class="cls-1" x="347.02" y="188.33" width="23.99" height="9.08" transform="translate(104.16 510.89) rotate(-79.54)"/><rect class="cls-5" x="354.47" y="180.88" width="9.08" height="23.99" transform="translate(40.99 -61.98) rotate(10.46)"/><rect class="cls-1" x="355.82" y="141.17" width="23.99" height="9.08" transform="translate(157.74 480.95) rotate(-79.54)"/><rect class="cls-5" x="363.27" y="133.72" width="9.08" height="23.99" transform="translate(32.57 -64.36) rotate(10.46)"/><rect class="cls-1" x="364.62" y="94.01" width="23.99" height="9.08" transform="translate(211.32 451.02) rotate(-79.54)"/><rect class="cls-5" x="372.08" y="86.56" width="9.08" height="23.99" transform="translate(24.16 -66.75) rotate(10.46)"/><rect class="cls-1" x="373.43" y="46.86" width="23.99" height="9.08" transform="translate(264.9 421.08) rotate(-79.54)"/><rect class="cls-5" x="380.88" y="39.4" width="9.08" height="23.99" transform="translate(15.74 -69.13) rotate(10.46)"/><rect class="cls-1" x="382.23" y="-0.3" width="23.99" height="9.08" transform="translate(318.48 391.14) rotate(-79.54)"/><rect class="cls-5" x="389.69" y="-7.76" width="9.08" height="23.99" transform="translate(7.32 -71.51) rotate(10.46)"/><rect class="cls-1" x="231.83" y="1082.82" width="23.99" height="9.08" transform="translate(-869.74 1129.69) rotate(-79.54)"/><rect class="cls-5" x="239.28" y="1075.37" width="9.08" height="23.99" transform="translate(201.49 -26.2) rotate(10.46)"/><rect class="cls-1" x="240.63" y="1035.66" width="23.99" height="9.08" transform="translate(-816.16 1099.75) rotate(-79.54)"/><rect class="cls-5" x="248.08" y="1028.21" width="9.08" height="23.99" transform="translate(193.08 -28.58) rotate(10.46)"/><rect class="cls-1" x="249.44" y="988.5" width="23.99" height="9.08" transform="translate(-762.58 1069.81) rotate(-79.54)"/><rect class="cls-5" x="256.89" y="981.05" width="9.08" height="23.99" transform="translate(184.66 -30.96) rotate(10.46)"/><rect class="cls-1" x="258.24" y="941.34" width="23.99" height="9.08" transform="translate(-709 1039.87) rotate(-79.54)"/><rect class="cls-5" x="265.69" y="933.89" width="9.08" height="23.99" transform="translate(176.24 -33.34) rotate(10.46)"/><rect class="cls-1" x="267.04" y="894.19" width="23.99" height="9.08" transform="translate(-655.42 1009.94) rotate(-79.54)"/><rect class="cls-5" x="274.5" y="886.73" width="9.08" height="23.99" transform="translate(167.83 -35.73) rotate(10.46)"/><rect class="cls-1" x="275.85" y="847.03" width="23.99" height="9.08" transform="translate(-601.84 980) rotate(-79.54)"/><rect class="cls-5" x="283.3" y="839.57" width="9.08" height="23.99" transform="translate(159.41 -38.11) rotate(10.46)"/><rect class="cls-1" x="284.65" y="799.87" width="23.99" height="9.08" transform="translate(-548.25 950.06) rotate(-79.54)"/><rect class="cls-5" x="292.1" y="792.41" width="9.08" height="23.99" transform="translate(150.99 -40.49) rotate(10.46)"/><rect class="cls-1" x="293.45" y="752.71" width="23.99" height="9.08" transform="translate(-494.67 920.12) rotate(-79.54)"/><rect class="cls-5" x="300.91" y="745.25" width="9.08" height="23.99" transform="translate(142.58 -42.87) rotate(10.46)"/><rect class="cls-1" x="302.26" y="705.55" width="23.99" height="9.08" transform="translate(-441.09 890.18) rotate(-79.54)"/><rect class="cls-5" x="309.71" y="698.1" width="9.08" height="23.99" transform="translate(134.16 -45.26) rotate(10.46)"/><rect class="cls-1" x="311.06" y="658.39" width="23.99" height="9.08" transform="translate(-387.51 860.24) rotate(-79.54)"/><rect class="cls-5" x="318.52" y="650.94" width="9.08" height="23.99" transform="translate(125.74 -47.64) rotate(10.46)"/><rect class="cls-1" x="319.87" y="611.23" width="23.99" height="9.08" transform="translate(-333.93 830.3) rotate(-79.54)"/><rect class="cls-5" x="327.32" y="603.78" width="9.08" height="23.99" transform="translate(117.33 -50.02) rotate(10.46)"/><rect class="cls-1" x="328.67" y="564.07" width="23.99" height="9.08" transform="translate(-280.35 800.37) rotate(-79.54)"/><rect class="cls-5" x="336.12" y="556.62" width="9.08" height="23.99" transform="translate(108.91 -52.4) rotate(10.46)"/><rect class="cls-1" x="337.47" y="516.91" width="23.99" height="9.08" transform="translate(-226.77 770.43) rotate(-79.54)"/><rect class="cls-5" x="344.93" y="509.46" width="9.08" height="23.99" transform="translate(100.49 -54.79) rotate(10.46)"/><rect class="cls-1" x="346.28" y="469.75" width="23.99" height="9.08" transform="translate(-173.19 740.49) rotate(-79.54)"/><rect class="cls-5" x="353.73" y="462.3" width="9.08" height="23.99" transform="translate(92.08 -57.17) rotate(10.46)"/><rect class="cls-1" x="355.08" y="422.6" width="23.99" height="9.08" transform="translate(-119.61 710.55) rotate(-79.54)"/><rect class="cls-5" x="362.54" y="415.14" width="9.08" height="23.99" transform="translate(83.66 -59.55) rotate(10.46)"/><rect class="cls-1" x="363.89" y="375.44" width="23.99" height="9.08" transform="translate(-66.03 680.61) rotate(-79.54)"/><rect class="cls-5" x="371.34" y="367.98" width="9.08" height="23.99" transform="translate(75.24 -61.93) rotate(10.46)"/><rect class="cls-1" x="372.69" y="328.28" width="23.99" height="9.08" transform="translate(-12.45 650.67) rotate(-79.54)"/><rect class="cls-5" x="380.14" y="320.82" width="9.08" height="23.99" transform="translate(66.83 -64.32) rotate(10.46)"/><rect class="cls-1" x="381.49" y="281.12" width="23.99" height="9.08" transform="translate(41.13 620.74) rotate(-79.54)"/><rect class="cls-5" x="388.95" y="273.66" width="9.08" height="23.99" transform="translate(58.41 -66.7) rotate(10.46)"/><rect class="cls-1" x="390.3" y="233.96" width="23.99" height="9.08" transform="translate(94.71 590.8) rotate(-79.54)"/><rect class="cls-5" x="397.75" y="226.51" width="9.08" height="23.99" transform="translate(49.99 -69.08) rotate(10.46)"/><rect class="cls-1" x="399.1" y="186.8" width="23.99" height="9.08" transform="translate(148.29 560.86) rotate(-79.54)"/><rect class="cls-5" x="406.56" y="179.35" width="9.08" height="23.99" transform="translate(41.58 -71.46) rotate(10.46)"/><rect class="cls-1" x="407.91" y="139.64" width="23.99" height="9.08" transform="translate(201.87 530.92) rotate(-79.54)"/><rect class="cls-5" x="415.36" y="132.19" width="9.08" height="23.99" transform="translate(33.16 -73.85) rotate(10.46)"/><rect class="cls-1" x="416.71" y="92.48" width="23.99" height="9.08" transform="translate(255.45 500.98) rotate(-79.54)"/><rect class="cls-5" x="424.16" y="85.03" width="9.08" height="23.99" transform="translate(24.74 -76.23) rotate(10.46)"/><rect class="cls-1" x="425.51" y="45.32" width="23.99" height="9.08" transform="translate(309.03 471.04) rotate(-79.54)"/><rect class="cls-5" x="432.97" y="37.87" width="9.08" height="23.99" transform="translate(16.33 -78.61) rotate(10.46)"/><rect class="cls-1" x="434.32" y="-1.84" width="23.99" height="9.08" transform="translate(362.61 441.1) rotate(-79.54)"/><rect class="cls-5" x="441.77" y="-9.29" width="9.08" height="23.99" transform="translate(7.91 -80.99) rotate(10.46)"/><rect class="cls-1" x="604.54" y="1042.95" width="9.08" height="23.99" transform="translate(-181.43 128.13) rotate(-10.46)"/><rect class="cls-5" x="604.54" y="1042.95" width="9.08" height="23.99" transform="translate(1399.59 1981.76) rotate(169.54)"/><rect class="cls-1" x="595.74" y="995.79" width="9.08" height="23.99" transform="translate(-173.01 125.75) rotate(-10.46)"/><rect class="cls-5" x="595.74" y="995.79" width="9.08" height="23.99" transform="translate(1373.57 1889.82) rotate(169.54)"/><rect class="cls-1" x="586.93" y="948.63" width="9.08" height="23.99" transform="translate(-164.6 123.37) rotate(-10.46)"/><rect class="cls-5" x="586.93" y="948.63" width="9.08" height="23.99" transform="translate(1347.54 1797.89) rotate(169.54)"/><rect class="cls-1" x="578.13" y="901.47" width="9.08" height="23.99" transform="translate(-156.18 120.98) rotate(-10.46)"/><rect class="cls-5" x="578.13" y="901.47" width="9.08" height="23.99" transform="translate(1321.52 1705.95) rotate(169.54)"/><rect class="cls-1" x="569.33" y="854.32" width="9.08" height="23.99" transform="translate(-147.76 118.6) rotate(-10.46)"/><rect class="cls-5" x="569.33" y="854.32" width="9.08" height="23.99" transform="translate(1295.49 1614.02) rotate(169.54)"/><rect class="cls-1" x="560.52" y="807.16" width="9.08" height="23.99" transform="translate(-139.35 116.22) rotate(-10.46)"/><rect class="cls-5" x="560.52" y="807.16" width="9.08" height="23.99" transform="translate(1269.47 1522.08) rotate(169.54)"/><rect class="cls-1" x="551.72" y="760" width="9.08" height="23.99" transform="translate(-130.93 113.84) rotate(-10.46)"/><rect class="cls-5" x="551.72" y="760" width="9.08" height="23.99" transform="translate(1243.44 1430.14) rotate(169.54)"/><rect class="cls-1" x="542.91" y="712.84" width="9.08" height="23.99" transform="translate(-122.51 111.45) rotate(-10.46)"/><rect class="cls-5" x="542.91" y="712.84" width="9.08" height="23.99" transform="translate(1217.42 1338.21) rotate(169.54)"/><rect class="cls-1" x="534.11" y="665.68" width="9.08" height="23.99" transform="translate(-114.1 109.07) rotate(-10.46)"/><rect class="cls-5" x="534.11" y="665.68" width="9.08" height="23.99" transform="translate(1191.4 1246.27) rotate(169.54)"/><rect class="cls-1" x="525.31" y="618.52" width="9.08" height="23.99" transform="translate(-105.68 106.69) rotate(-10.46)"/><rect class="cls-5" x="525.31" y="618.52" width="9.08" height="23.99" transform="translate(1165.37 1154.34) rotate(169.54)"/><rect class="cls-1" x="516.5" y="571.36" width="9.08" height="23.99" transform="translate(-97.26 104.31) rotate(-10.46)"/><rect class="cls-5" x="516.5" y="571.36" width="9.08" height="23.99" transform="translate(1139.35 1062.4) rotate(169.54)"/><rect class="cls-1" x="507.7" y="524.2" width="9.08" height="23.99" transform="translate(-88.85 101.92) rotate(-10.46)"/><rect class="cls-5" x="507.7" y="524.2" width="9.08" height="23.99" transform="translate(1113.32 970.47) rotate(169.54)"/><rect class="cls-1" x="498.89" y="477.04" width="9.08" height="23.99" transform="translate(-80.43 99.54) rotate(-10.46)"/><rect class="cls-5" x="498.89" y="477.04" width="9.08" height="23.99" transform="translate(1087.3 878.53) rotate(169.54)"/><rect class="cls-1" x="490.09" y="429.88" width="9.08" height="23.99" transform="translate(-72.01 97.16) rotate(-10.46)"/><rect class="cls-5" x="490.09" y="429.88" width="9.08" height="23.99" transform="translate(1061.27 786.6) rotate(169.54)"/><rect class="cls-1" x="481.29" y="382.73" width="9.08" height="23.99" transform="translate(-63.6 94.78) rotate(-10.46)"/><rect class="cls-5" x="481.29" y="382.73" width="9.08" height="23.99" transform="translate(1035.25 694.66) rotate(169.54)"/><rect class="cls-1" x="472.48" y="335.57" width="9.08" height="23.99" transform="translate(-55.18 92.39) rotate(-10.46)"/><rect class="cls-5" x="472.48" y="335.57" width="9.08" height="23.99" transform="translate(1009.22 602.73) rotate(169.54)"/><rect class="cls-1" x="463.68" y="288.41" width="9.08" height="23.99" transform="translate(-46.76 90.01) rotate(-10.46)"/><rect class="cls-5" x="463.68" y="288.41" width="9.08" height="23.99" transform="translate(983.2 510.79) rotate(169.54)"/><rect class="cls-1" x="454.87" y="241.25" width="9.08" height="23.99" transform="translate(-38.35 87.63) rotate(-10.46)"/><rect class="cls-5" x="454.87" y="241.25" width="9.08" height="23.99" transform="translate(957.18 418.85) rotate(169.54)"/><rect class="cls-1" x="446.07" y="194.09" width="9.08" height="23.99" transform="translate(-29.93 85.25) rotate(-10.46)"/><rect class="cls-5" x="446.07" y="194.09" width="9.08" height="23.99" transform="translate(931.15 326.92) rotate(169.54)"/><rect class="cls-1" x="437.27" y="146.93" width="9.08" height="23.99" transform="translate(-21.51 82.86) rotate(-10.46)"/><rect class="cls-5" x="437.27" y="146.93" width="9.08" height="23.99" transform="translate(905.13 234.98) rotate(169.54)"/><rect class="cls-1" x="428.46" y="99.77" width="9.08" height="23.99" transform="translate(-13.1 80.48) rotate(-10.46)"/><rect class="cls-5" x="428.46" y="99.77" width="9.08" height="23.99" transform="translate(879.1 143.05) rotate(169.54)"/><rect class="cls-1" x="419.66" y="52.61" width="9.08" height="23.99" transform="translate(-4.68 78.1) rotate(-10.46)"/><rect class="cls-5" x="419.66" y="52.61" width="9.08" height="23.99" transform="translate(853.08 51.11) rotate(169.54)"/><rect class="cls-1" x="410.86" y="5.45" width="9.08" height="23.99" transform="translate(3.74 75.72) rotate(-10.46)"/><rect class="cls-5" x="410.86" y="5.45" width="9.08" height="23.99" transform="translate(827.05 -40.82) rotate(169.54)"/><rect class="cls-1" x="554.89" y="1040.46" width="9.08" height="23.99" transform="translate(-181.8 119.08) rotate(-10.46)"/><rect class="cls-5" x="554.89" y="1040.46" width="9.08" height="23.99" transform="translate(1300.66 1985.84) rotate(169.54)"/><rect class="cls-1" x="546.09" y="993.3" width="9.08" height="23.99" transform="translate(-173.39 116.69) rotate(-10.46)"/><rect class="cls-5" x="546.09" y="993.3" width="9.08" height="23.99" transform="translate(1274.64 1893.9) rotate(169.54)"/><rect class="cls-1" x="537.28" y="946.15" width="9.08" height="23.99" transform="translate(-164.97 114.31) rotate(-10.46)"/><rect class="cls-5" x="537.28" y="946.15" width="9.08" height="23.99" transform="translate(1248.61 1801.97) rotate(169.54)"/><rect class="cls-1" x="528.48" y="898.99" width="9.08" height="23.99" transform="translate(-156.55 111.93) rotate(-10.46)"/><rect class="cls-5" x="528.48" y="898.99" width="9.08" height="23.99" transform="translate(1222.59 1710.03) rotate(169.54)"/><rect class="cls-1" x="519.67" y="851.83" width="9.08" height="23.99" transform="translate(-148.14 109.54) rotate(-10.46)"/><rect class="cls-5" x="519.67" y="851.83" width="9.08" height="23.99" transform="translate(1196.57 1618.1) rotate(169.54)"/><rect class="cls-1" x="510.87" y="804.67" width="9.08" height="23.99" transform="translate(-139.72 107.16) rotate(-10.46)"/><rect class="cls-5" x="510.87" y="804.67" width="9.08" height="23.99" transform="translate(1170.54 1526.16) rotate(169.54)"/><rect class="cls-1" x="502.07" y="757.51" width="9.08" height="23.99" transform="translate(-131.3 104.78) rotate(-10.46)"/><rect class="cls-5" x="502.07" y="757.51" width="9.08" height="23.99" transform="matrix(-0.98, 0.18, -0.18, -0.98, 1144.52, 1434.23)"/><rect class="cls-1" x="493.26" y="710.35" width="9.08" height="23.99" transform="translate(-122.89 102.4) rotate(-10.46)"/><rect class="cls-5" x="493.26" y="710.35" width="9.08" height="23.99" transform="matrix(-0.98, 0.18, -0.18, -0.98, 1118.49, 1342.29)"/><rect class="cls-1" x="484.46" y="663.19" width="9.08" height="23.99" transform="translate(-114.47 100.01) rotate(-10.46)"/><rect class="cls-5" x="484.46" y="663.19" width="9.08" height="23.99" transform="translate(1092.47 1250.36) rotate(169.54)"/><rect class="cls-1" x="475.66" y="616.03" width="9.08" height="23.99" transform="translate(-106.05 97.63) rotate(-10.46)"/><rect class="cls-5" x="475.66" y="616.03" width="9.08" height="23.99" transform="translate(1066.44 1158.42) rotate(169.54)"/><rect class="cls-1" x="466.85" y="568.87" width="9.08" height="23.99" transform="translate(-97.64 95.25) rotate(-10.46)"/><rect class="cls-5" x="466.85" y="568.87" width="9.08" height="23.99" transform="translate(1040.42 1066.49) rotate(169.54)"/><rect class="cls-1" x="458.05" y="521.72" width="9.08" height="23.99" transform="translate(-89.22 92.87) rotate(-10.46)"/><rect class="cls-5" x="458.05" y="521.72" width="9.08" height="23.99" transform="matrix(-0.98, 0.18, -0.18, -0.98, 1014.39, 974.55)"/><rect class="cls-1" x="449.24" y="474.56" width="9.08" height="23.99" transform="translate(-80.8 90.48) rotate(-10.46)"/><rect class="cls-5" x="449.24" y="474.56" width="9.08" height="23.99" transform="matrix(-0.98, 0.18, -0.18, -0.98, 988.37, 882.61)"/><rect class="cls-1" x="440.44" y="427.4" width="9.08" height="23.99" transform="translate(-72.39 88.1) rotate(-10.46)"/><rect class="cls-5" x="440.44" y="427.4" width="9.08" height="23.99" transform="matrix(-0.98, 0.18, -0.18, -0.98, 962.34, 790.68)"/><rect class="cls-1" x="431.64" y="380.24" width="9.08" height="23.99" transform="translate(-63.97 85.72) rotate(-10.46)"/><rect class="cls-5" x="431.64" y="380.24" width="9.08" height="23.99" transform="translate(936.32 698.74) rotate(169.54)"/><rect class="cls-1" x="422.83" y="333.08" width="9.08" height="23.99" transform="translate(-55.55 83.34) rotate(-10.46)"/><rect class="cls-5" x="422.83" y="333.08" width="9.08" height="23.99" transform="translate(910.3 606.81) rotate(169.54)"/><rect class="cls-1" x="414.03" y="285.92" width="9.08" height="23.99" transform="translate(-47.14 80.95) rotate(-10.46)"/><rect class="cls-5" x="414.03" y="285.92" width="9.08" height="23.99" transform="matrix(-0.98, 0.18, -0.18, -0.98, 884.27, 514.87)"/><rect class="cls-1" x="405.22" y="238.76" width="9.08" height="23.99" transform="translate(-38.72 78.57) rotate(-10.46)"/><rect class="cls-5" x="405.22" y="238.76" width="9.08" height="23.99" transform="translate(858.25 422.94) rotate(169.54)"/><rect class="cls-1" x="396.42" y="191.6" width="9.08" height="23.99" transform="translate(-30.3 76.19) rotate(-10.46)"/><rect class="cls-5" x="396.42" y="191.6" width="9.08" height="23.99" transform="translate(832.22 331) rotate(169.54)"/><rect class="cls-1" x="387.62" y="144.44" width="9.08" height="23.99" transform="translate(-21.89 73.81) rotate(-10.46)"/><rect class="cls-5" x="387.62" y="144.44" width="9.08" height="23.99" transform="translate(806.2 239.07) rotate(169.54)"/><rect class="cls-1" x="378.81" y="97.28" width="9.08" height="23.99" transform="translate(-13.47 71.42) rotate(-10.46)"/><rect class="cls-5" x="378.81" y="97.28" width="9.08" height="23.99" transform="translate(780.17 147.13) rotate(169.54)"/><rect class="cls-1" x="370.01" y="50.13" width="9.08" height="23.99" transform="translate(-5.05 69.04) rotate(-10.46)"/><rect class="cls-5" x="370.01" y="50.13" width="9.08" height="23.99" transform="translate(754.15 55.2) rotate(169.54)"/><rect class="cls-1" x="361.2" y="2.97" width="9.08" height="23.99" transform="translate(3.36 66.66) rotate(-10.46)"/><rect class="cls-5" x="361.2" y="2.97" width="9.08" height="23.99" transform="translate(728.12 -36.74) rotate(169.54)"/><rect class="cls-1" x="502.81" y="1038.93" width="9.08" height="23.99" transform="translate(-182.39 109.59) rotate(-10.46)"/><rect class="cls-5" x="502.81" y="1038.93" width="9.08" height="23.99" transform="translate(1197.08 1992.26) rotate(169.54)"/><rect class="cls-1" x="494" y="991.77" width="9.08" height="23.99" transform="translate(-173.97 107.21) rotate(-10.46)"/><rect class="cls-5" x="494" y="991.77" width="9.08" height="23.99" transform="matrix(-0.98, 0.18, -0.18, -0.98, 1171.06, 1900.32)"/><rect class="cls-1" x="485.2" y="944.61" width="9.08" height="23.99" transform="translate(-165.56 104.83) rotate(-10.46)"/><rect class="cls-5" x="485.2" y="944.61" width="9.08" height="23.99" transform="translate(1145.03 1808.39) rotate(169.54)"/><rect class="cls-1" x="476.39" y="897.46" width="9.08" height="23.99" transform="translate(-157.14 102.44) rotate(-10.46)"/><rect class="cls-5" x="476.39" y="897.46" width="9.08" height="23.99" transform="translate(1119.01 1716.45) rotate(169.54)"/><rect class="cls-1" x="467.59" y="850.3" width="9.08" height="23.99" transform="translate(-148.72 100.06) rotate(-10.46)"/><rect class="cls-5" x="467.59" y="850.3" width="9.08" height="23.99" transform="matrix(-0.98, 0.18, -0.18, -0.98, 1092.98, 1624.52)"/><rect class="cls-1" x="458.79" y="803.14" width="9.08" height="23.99" transform="translate(-140.31 97.68) rotate(-10.46)"/><rect class="cls-5" x="458.79" y="803.14" width="9.08" height="23.99" transform="matrix(-0.98, 0.18, -0.18, -0.98, 1066.96, 1532.58)"/><rect class="cls-1" x="449.98" y="755.98" width="9.08" height="23.99" transform="translate(-131.89 95.3) rotate(-10.46)"/><rect class="cls-5" x="449.98" y="755.98" width="9.08" height="23.99" transform="matrix(-0.98, 0.18, -0.18, -0.98, 1040.93, 1440.65)"/><rect class="cls-1" x="441.18" y="708.82" width="9.08" height="23.99" transform="translate(-123.47 92.91) rotate(-10.46)"/><rect class="cls-5" x="441.18" y="708.82" width="9.08" height="23.99" transform="translate(1014.91 1348.71) rotate(169.54)"/><rect class="cls-1" x="432.37" y="661.66" width="9.08" height="23.99" transform="translate(-115.06 90.53) rotate(-10.46)"/><rect class="cls-5" x="432.37" y="661.66" width="9.08" height="23.99" transform="translate(988.88 1256.78) rotate(169.54)"/><rect class="cls-1" x="423.57" y="614.5" width="9.08" height="23.99" transform="translate(-106.64 88.15) rotate(-10.46)"/><rect class="cls-5" x="423.57" y="614.5" width="9.08" height="23.99" transform="translate(962.86 1164.84) rotate(169.54)"/><rect class="cls-1" x="414.77" y="567.34" width="9.08" height="23.99" transform="translate(-98.22 85.77) rotate(-10.46)"/><rect class="cls-5" x="414.77" y="567.34" width="9.08" height="23.99" transform="translate(936.84 1072.9) rotate(169.54)"/><rect class="cls-1" x="405.96" y="520.18" width="9.08" height="23.99" transform="translate(-89.81 83.38) rotate(-10.46)"/><rect class="cls-5" x="405.96" y="520.18" width="9.08" height="23.99" transform="matrix(-0.98, 0.18, -0.18, -0.98, 910.81, 980.97)"/><rect class="cls-1" x="397.16" y="473.02" width="9.08" height="23.99" transform="translate(-81.39 81) rotate(-10.46)"/><rect class="cls-5" x="397.16" y="473.02" width="9.08" height="23.99" transform="translate(884.79 889.03) rotate(169.54)"/><rect class="cls-1" x="388.35" y="425.87" width="9.08" height="23.99" transform="translate(-72.97 78.62) rotate(-10.46)"/><rect class="cls-5" x="388.35" y="425.87" width="9.08" height="23.99" transform="matrix(-0.98, 0.18, -0.18, -0.98, 858.76, 797.1)"/><rect class="cls-1" x="379.55" y="378.71" width="9.08" height="23.99" transform="translate(-64.56 76.24) rotate(-10.46)"/><rect class="cls-5" x="379.55" y="378.71" width="9.08" height="23.99" transform="translate(832.74 705.16) rotate(169.54)"/><rect class="cls-1" x="370.75" y="331.55" width="9.08" height="23.99" transform="translate(-56.14 73.85) rotate(-10.46)"/><rect class="cls-5" x="370.75" y="331.55" width="9.08" height="23.99" transform="translate(806.71 613.23) rotate(169.54)"/><rect class="cls-1" x="361.94" y="284.39" width="9.08" height="23.99" transform="translate(-47.72 71.47) rotate(-10.46)"/><rect class="cls-5" x="361.94" y="284.39" width="9.08" height="23.99" transform="translate(780.69 521.29) rotate(169.54)"/><rect class="cls-1" x="353.14" y="237.23" width="9.08" height="23.99" transform="translate(-39.31 69.09) rotate(-10.46)"/><rect class="cls-5" x="353.14" y="237.23" width="9.08" height="23.99" transform="translate(754.66 429.36) rotate(169.54)"/><rect class="cls-1" x="344.33" y="190.07" width="9.08" height="23.99" transform="translate(-30.89 66.71) rotate(-10.46)"/><rect class="cls-5" x="344.33" y="190.07" width="9.08" height="23.99" transform="translate(728.64 337.42) rotate(169.54)"/><rect class="cls-1" x="335.53" y="142.91" width="9.08" height="23.99" transform="translate(-22.47 64.32) rotate(-10.46)"/><rect class="cls-5" x="335.53" y="142.91" width="9.08" height="23.99" transform="translate(702.62 245.49) rotate(169.54)"/><rect class="cls-1" x="326.73" y="95.75" width="9.08" height="23.99" transform="translate(-14.06 61.94) rotate(-10.46)"/><rect class="cls-5" x="326.73" y="95.75" width="9.08" height="23.99" transform="translate(676.59 153.55) rotate(169.54)"/><rect class="cls-1" x="317.92" y="48.59" width="9.08" height="23.99" transform="translate(-5.64 59.56) rotate(-10.46)"/><rect class="cls-5" x="317.92" y="48.59" width="9.08" height="23.99" transform="translate(650.57 61.61) rotate(169.54)"/><rect class="cls-1" x="309.12" y="1.43" width="9.08" height="23.99" transform="translate(2.78 57.18) rotate(-10.46)"/><rect class="cls-5" x="309.12" y="1.43" width="9.08" height="23.99" transform="translate(624.54 -30.32) rotate(169.54)"/><path class="cls-6" d="M540.09,325.86c0,42.14-33,86.82-34.94,92.32-1.18,3.3-10,69.87,30,69.87,38.49,0-9,177.73-34.94,254.53-1.71,5.08-8.33,24.84-1.88,35.72a122.17,122.17,0,0,1,14,35.74c4.09,19.41-8.51,43.58-8.17,46.64,6.48,58.29,7,140,1.11,219.11-.11,1.46-34.18.42-95.89.42-1.89,0,3.19-135.9-2.66-168.89-2.44-13.73-28.25,168.89-31.4,168.89-43.53,0-80.88.28-81,0-2.31-8.41,52.61-339.85,51.19-360.09-4.93-70.44,4.76-219,2.5-229.57-5.71-26.65,58.67-20,64.88-20,1.66,0,18.3-51.68,7.49-51.78-35.06-.34-34.94-66.14-34.94-92.95,0-56.51,34.63-102.31,77.35-102.31S540.09,269.35,540.09,325.86Z"/><path class="cls-6" d="M490.07,479.44c0-9.32,132.17-90.61,124.89-94.33-32.94-16.85-80-74.21-90.68-80-83.07-44.79-64.8-68.1-4.89-66.78,11.78.26,15.25,7.73,21.18,17.92,52.74,90.62,112.69,62.19,121.88,125,3.48,23.81-97.08,157.85-116.87,157.85S490.07,503.5,490.07,479.44Z"/><path class="cls-6" d="M415.31,474.54c0-9.31-108.66-98.73-101.37-102.45,32.93-16.86,56.48-66.08,67.16-71.84,83.07-44.79,64.8-68.11,4.89-66.78-11.78.26-15.25,7.73-21.18,17.91-52.74,90.62-112.69,62.19-121.88,125C239.45,400.19,340,534.24,359.8,534.24S415.31,498.61,415.31,474.54Z"/><path class="cls-7" d="M448.78,659.45c-3.94-11.89,26.66-94.22,29.56-94.78.35-.07-30.51,83.3-26.22,94,12.64,31.67,6.87,75.47,6.86,74.83C458.49,707.16,453.76,674.49,448.78,659.45Z"/><path class="cls-7" d="M493.2,594.88c-4.21-4.63-11.81-43.92-10.86-44.52.11-.08,7.86,39.7,11.93,43.78,12,12,20,31.62,19.8,31.34C507.8,614.19,498.52,600.72,493.2,594.88Z"/><path class="cls-7" d="M443.44,586.07c-1.68,6-30.88,33.38-31.9,32.9-.12-.06,29.41-27.8,30.7-33.41,3.8-16.57,16.14-33.73,16-33.45C452,563.42,445.55,578.45,443.44,586.07Z"/><path class="cls-7" d="M513.94,822.21c0,12.53-3.39,39.49-19.75,47.66-4.32,2.16-14.09,10.93-17,10.56-.36,0,10.33-8.83,15-12.26,12.54-9.25,19.75-33.4,19.06-44.94-2-34-23.78-58.89-23.15-58.89C502.21,764.34,513.94,806.37,513.94,822.21Z"/><path class="cls-7" d="M468,828c0,12.53-27.89,40.16-44.26,48.34-4.32,2.16-14.09,31.36-17,31-.35-.05,11.22-29.09,15.87-32.52,12.54-9.24,43.38-34.24,42.69-45.78-2.05-34-23.79-58.89-23.15-58.89C456.25,770.13,468,812.16,468,828Z"/><path id="hair" class="cls-7" d="M547,316.68c0,32.41-15.85,71.25-31,91.23-2.58,3.41,1.52-9.65-1.36-6.8-1.92,1.89-1.36,10.29-3.41,11.91-3.52,2.81-9.77-7.72-13.61-5.79-3.11,1.57-3.77,15.77-7.05,16.72-4.57,1.32-6.16-12.63-11-12.63-3.19,0-9.47,14.34-12.55,13.75-4-.76-4.09-17.18-7.87-18.86-2.53-1.12-8.83,12.74-11.24,11.24-2.62-1.64-4.35-15.64-6.8-17.71-4.29-3.59-6.81,9.47-10.56,5.45-3.35-3.6,6.22-44.6,3.41-48.68-10.46-15.15-31.11-13.7-31.11-39.66,0-5.14-17.77-18.79-29.15-27.06s16.61-16.88,14-20.09c-5.35-6.48-21.7-1.31-21.11-4.42,2.8-14.8,22.52-8.21,28.94-19.75,5.47-9.84-20.39-4.39-12.94-10.89,10.94-9.55,80.69-15,94.3-15C517.48,219.66,547,256.42,547,316.68Z"/><path class="cls-8" d="M500,423.23c-13,7.51,7.87-32.88-4.63-54.31-5.59-9.58-11.63,30-43.37,15.17-15.32-7.15,13.84-40.52,7.41-36.94-11.76,6.53-24.48,17.66-30.81,6.68-8.2-14.24-2.49-24.36,3.7-34.73,4.16-7-17.69-7.88-37.11-49-11.22-23.76,42.48,6.78,38.83-3.16-4.57-12.48-8.18-23.66-.1-28.31,9.12-5.26,21.44,5.16,33.88,16.23,7.84,7-5.08-37.58,2.58-34.49,29,11.69,33,56.29,38.57,56.5,10,.38,18.73.05,27.32,15,7.44,12.91,2.11,18.87-3.58,25.67-4,4.77,11.73,8.1,12.24,16.23,1.68,26.51-13.45,21.82-11.23,30C539.22,384,511.19,416.78,500,423.23Z"/><path class="cls-8" d="M411.86,474.9c6.94.55-11.63,10.5-12.47,22-.38,5.12,12.3-8.41,20.54,5.57,4,6.75-15.91,11.85-12.51,12.17,6.2.59,14-.33,13.51,5.53-.59,7.58-5.43,10-10.51,12.29-3.41,1.57,4.69,7.65,1.32,28.46-1.94,12-14.45-13.73-15.66-9-1.52,6-3.07,11.18-7.38,10.84-4.86-.38-6.84-7.59-8.69-15.08-1.17-4.72-7.91,15.69-10,12.5-8-12.07,2.17-30.15.08-31.7-3.73-2.77-7.14-4.92-6.51-12.87.54-6.88,4.14-7.76,8.09-8.87,2.78-.78-2.35-6.17-.42-9.41,6.31-10.56,10.86-4.81,12.15-8.5C386.58,479.61,405.88,474.43,411.86,474.9Z"/><path class="cls-8" d="M413.9,708.43c7,.55-11.63,10.5-12.47,22-.38,5.12,12.3-8.4,20.54,5.58,4,6.74-15.9,11.84-12.51,12.16,6.2.59,14-.33,13.52,5.53-.6,7.59-5.44,10-10.52,12.29-3.41,1.57,4.69,7.65,1.33,28.46-2,12-14.45-13.72-15.67-9-1.52,6-3.07,11.18-7.38,10.84-4.86-.38-6.84-7.59-8.69-15.08-1.16-4.72-7.91,15.69-10,12.5-8-12.06,2.16-30.15.07-31.7-3.73-2.77-7.14-4.92-6.51-12.87.54-6.88,4.14-7.76,8.1-8.87,2.77-.77-2.36-6.17-.43-9.41,6.31-10.56,10.86-4.81,12.15-8.5C388.62,713.14,407.92,708,413.9,708.43Z"/><path class="cls-8" d="M447.8,906.22c-6.95.54,11.63,10.5,12.47,22,.38,5.12-12.3-8.41-20.54,5.57-4,6.75,15.91,11.85,12.51,12.17-6.2.59-14-.33-13.51,5.52.59,7.59,5.43,10,10.51,12.3,3.41,1.57-4.69,7.65-1.32,28.46,1.94,12,14.44-13.73,15.66-9,1.52,6,3.07,11.18,7.38,10.84,4.86-.39,6.84-7.6,8.69-15.08,1.17-4.72,7.91,15.68,10,12.49,8-12.06-2.16-30.14-.07-31.69,3.73-2.77,7.14-4.93,6.51-12.88-.54-6.87-4.14-7.76-8.1-8.86-2.77-.78,2.36-6.17.43-9.41-6.31-10.57-10.86-4.81-12.15-8.5C473.08,910.92,453.78,905.74,447.8,906.22Z"/></g></g></g></svg>
