<svg xmlns="http://www.w3.org/2000/svg" viewBox="0 0 890.55 1080"><defs><style>.cls-1{fill:#337a8e;}.cls-2{fill:#33668e;}.cls-3{fill:#f9ba8a;}.cls-4{fill:#d7a268;}.cls-5{fill:#4d4d4d;}</style></defs><title>darligbilled3</title><g id="farver_darlig"><g id="billed3-2" data-name="billed3"><g id="Layer_53" data-name="Layer 53"><rect class="cls-1" x="-2.15" y="3.28" width="892.6" height="1074.38"/></g><rect class="cls-2" x="-2.15" y="2.26" width="892.6" height="391.15"/><path class="cls-3" d="M494.7,319.36c32.17,39.83,97.06-9.48,102.64-15.32,67.4-70.47,274.4-2.29,295.49,1.89,0,3.25,1.08,257.82-.6,259.34-53.65,52.46-106.46,94.18-106.46,103.37,0,1.53-186.22,6.3-209.88,23-13.27-10.22-140.93,23.49-143,21.44-41-8.93-55.2-36.09-50-116.42,2.5-38.88-413.18,37.55-372.25-105.7,18.38-64.34,234-134.84,231.32-144-17.63-60.29,8.17-98.7,38.88-120.35C331.41,190.92,413.27,218.54,494.7,319.36Z"/><path class="cls-4" d="M236.31,455.56c-82.86-1.21-160.31,11.37-159,8.34,2.89-6.61,75.51-17.67,158.37-16.47s204.37,11.83,198.68,17.63C431,468.49,319.16,456.76,236.31,455.56Z"/><g id="Layer_49" data-name="Layer 49"><path class="cls-5" d="M482.28,243.1c0,6,148.4,117,21.66,85.58-3.51-.87-47.84-41.16-49.69-37.84-29.63,53.25-82.12,113.74-53.91-34.38C402,247.81,276.46,430.5,279.71,476c-62.36-14.17-14.65-100.74-23.83-100.74-52,54.16-47.83,163.34-53.08,156-37.92-53.08-3.55-156.24-11.92-153.82-24.6,7.11-7.74,126.49-19.5,100.74C148.63,428.34,39.22,203,342.91,154.24,394.39,146,482.28,196.61,482.28,243.1Z"/></g><ellipse class="cls-4" cx="697.34" cy="475.19" rx="25.62" ry="28.68"/><path class="cls-4" d="M359.35,404.39c-8,8.65-15.19,19.6-16.3,18.47-7.63-7.76-.36-16.89,7.6-25.54s23-14.53,27.17-4.89C378.38,393.72,367.31,395.74,359.35,404.39Z"/><path class="cls-4" d="M728.35,558.58c-56.76,60.37-99.7,126-101.05,123-2.92-6.59,37.88-67.67,94.64-128s146.55-142.93,147-134.83C869.21,423.53,785.12,498.21,728.35,558.58Z"/><path class="cls-4" d="M787.63,460.71c0,54.71-30.72,79.56-87.92,99.06.09,4.09,80.63-45.33,80.63-100s-76.88-97.39-80.63-98.08C751.78,379.18,787.63,406,787.63,460.71Z"/><path class="cls-4" d="M408.06,702.08C367.83,665,370,625.77,394.1,570.37c-3.08-2.69-24.6,94.73,19.6,127,24.32,17.75,71.33,5.75,74.36,3.45C440,727.47,415.55,709,408.06,702.08Z"/><path class="cls-4" d="M451.57,442.89c-18.31,16.11-110.29,31.6-156-7.33-3.18,2.09,101.79,30.61,145,3.67S455.93,306.55,454.5,303C468.22,355.85,489.79,409.26,451.57,442.89Z"/><ellipse class="cls-4" cx="448.15" cy="681.49" rx="25.62" ry="28.68"/><path class="cls-2" d="M607.09,880.81c0,.91-98.07-27.3-281.23-30C133,847.9,39.77,881.26,39.77,880.81c0-24.13,127-43.68,283.66-43.68S607.09,856.68,607.09,880.81Z"/><path class="cls-2" d="M578.87,789.15c0,.91-98.06-27.3-281.23-30-192.88-2.88-286.09,30.48-286.09,30,0-24.13,127-43.68,283.66-43.68S578.87,765,578.87,789.15Z"/><path class="cls-2" d="M892.4,840.21c0,.91-98.06-27.3-281.22-30-192.89-2.87-286.09,30.49-286.09,30,0-24.12,127-43.68,283.65-43.68S892.4,816.09,892.4,840.21Z"/><path class="cls-2" d="M891.35,681.48c.11.9-100.74-14.64-282.77,5.91-191.68,21.63-279.9,66.55-280,66.1-3.06-23.93,120.43-59.45,275.82-79.34S888.29,657.55,891.35,681.48Z"/></g></g></svg>
