<svg xmlns="http://www.w3.org/2000/svg" viewBox="0 0 890.55 1080"><defs><style>.cls-1{fill:#003c54;}.cls-2{fill:#f9ba8a;}.cls-3{fill:#d7a268;}.cls-4{fill:#f4e9d9;}.cls-5{fill:#803b32;}.cls-6{fill:#a63b32;}</style></defs><title>darligbilled2</title><g id="farver_darlig"><g id="billed2-2" data-name="billed2"><rect class="cls-1" x="-3.17" y="0.91" width="896.17" height="1078.47"/><path class="cls-2" d="M862.3,155.16c-.62,41.38-30.25,97.16-77.69,141.26-7.73,7.18-11.15,120.08-7.07,120.08,61.28-16.34,120.63,35.87,116.55,31.78-.56,25.82,0,160.1,0,303.72,0,1.18-38.38-1.29-38.85,22.37-4.71,235.44-107.13,306.07-107.13,306.07-67.1,0-720.79,3.89-720.45,2.36,14.13-63.57,68.23-714.74,444.06-673.89,36.72,4,30.48-95,17.41-131.32C450,168.92,416.56,58.29,456.17.94,459,.92,852.75,1,851.71-.24,879.23,40.31,863.17,97.15,862.3,155.16Z"/><g id="Layer_50" data-name="Layer 50"><path class="cls-3" d="M123,860.3c18.84,144.8,129.64,134.42,220.14,64.75-187.17,171.87-236.62-25.2-236.62-73,0-108.3,23.55-204.83,211.9-281.35C313.21,571.41,96.42,655.85,123,860.3Z"/><path class="cls-3" d="M387.89,886.2c36.49,153,174.22,156.57,237.79,150.69-200.12,78.87-254-146.32-254.27-176.59-.66-68.59,68.31-197.33,223-244.65C590.07,616.06,349.61,725.7,387.89,886.2Z"/><path class="cls-3" d="M781.51,954.62c40.37-40,15-235.48,14-237.28,40.86,41.29,40.85,186,7.39,231.85-43.53,59.7-108.84,78.62-139.14,81.68C726.36,1015.21,741.14,994.57,781.51,954.62Z"/><ellipse class="cls-3" cx="171.47" cy="848.57" rx="35.74" ry="64.85"/><ellipse class="cls-3" cx="570.28" cy="962.96" rx="48.51" ry="56.68"/><path class="cls-3" d="M781.17,290.45c0,54.14-69.32,124.08-143.49,124.08S505.43,327.74,505.43,273.6c3.57,1.53,43.78,93.44,118,93.44S781.17,295,781.17,290.45Z"/><path class="cls-4" d="M678.53,219.75c0,13.66-19.89,24.74-44.42,24.74s-44.43-11.08-44.43-24.74,18.29-7.64,42.82-7.64S678.53,206.09,678.53,219.75Z"/><path class="cls-3" d="M683.13,218.29c0,17.85-22,32.33-49,32.33s-49-14.48-49-32.33c0,0,19.36,20.09,46.44,20.09S683.13,215.67,683.13,218.29Z"/><path class="cls-3" d="M695.38,218.45c-1.32.66-46.25-4.7-67.4-4.7s-47.7,6-49,4.7c0-13.5,31.85-22.52,51-13.94C650.43,197.91,695.38,205,695.38,218.45Z"/><path class="cls-3" d="M607.58,174.59c2.4-13.28,38.43-25.92,54.86-.28C616.14,182.49,608.64,176.13,607.58,174.59Z"/><path class="cls-3" d="M190.87,1060.85c0,6.63-1,13.36.78,19.36.31,1-11.19,1-11.47,0-1.5-5.51-.54-11.61-.54-17.68,0-46.81,11.2-84.76,25-84.76C206.19,977.77,190.87,1014,190.87,1060.85Z"/></g><g id="Layer_51" data-name="Layer 51"><path class="cls-5" d="M369.48,286.35c-17.14-88-58.91-150.8.88-162.44S480.92,189.2,498.07,277.23s-8.14,186.36-88.58,137.45C357.44,383,386.63,374.38,369.48,286.35Z"/><path class="cls-6" d="M767.38,20.83s-1.31,2.07-4.08,5.71c-15.71,20.58-78.28,91.27-215,119.91,3.06,1.53-171.58,81.19-33.7,352.34,1.53,1.53-179.24-15.32-171.58-223.66,1.53,3.06-59.74,82.72-19.91,176.17,1.53,0-242-203.75-15.32-450.39H894.53l-3.06,453.45S889.94,523.3,847,426.79c1.53,0-27.57,42.89,6.13,99.57,3.06-1.53-206.37,11.81-87.1-503.46Z"/></g></g></g></svg>
