<svg xmlns="http://www.w3.org/2000/svg" viewBox="0 0 890.55 1080"><defs><style>.cls-1{fill:#2e3192;}.cls-2{fill:#1b1464;}.cls-3{fill:#c4c4c4;opacity:0.45;}.cls-4{fill:#eba268;}.cls-5{fill:#8c6239;}.cls-6{fill:#666;opacity:0.69;}.cls-7{fill:#4d4d4d;}.cls-8{fill:#f9ba8a;}</style></defs><title>darligbilled1</title><g id="farver_darlig"><g id="billed1-2" data-name="billed1"><g id="Layer_48" data-name="Layer 48"><polygon class="cls-1" points="675.66 1084.79 183.91 1086.3 183.91 1.68 689.45 0.17 675.66 1084.79"/><path class="cls-2" d="M180.85,1067.91c-48.3-25.18-70-195.57,72-519.31C363.56,296.22,251.34-5.95,251.34-5.95c-2.82-1.47,130.08,366.2,3.79,608.39C170.23,765.24,178,1066.44,180.85,1067.91Z"/><path class="cls-2" d="M668.56,1077.62c48.42-24.95,71-195.23-69.48-519.66-109.49-252.91,4.2-554.53,4.2-554.53C606.11,2,471.43,369,596.54,611.79,680.65,775,671.39,1076.17,668.56,1077.62Z"/><path class="cls-2" d="M411.46,4.56c-48.76,24.29-73.62,194.25,62.41,520.56,106,254.38-11.74,554.42-11.74,554.42-2.85,1.42,136.81-363.74,15-608.21C395.26,307,408.61,6,411.46,4.56Z"/><rect class="cls-3" x="202.3" y="1.7" width="454.98" height="1076.94"/><rect class="cls-4" x="-4.51" y="0.17" width="176.17" height="1080.02"/><rect class="cls-4" x="666.47" y="1.68" width="223.66" height="1080.02"/><rect class="cls-5" x="167.06" y="-4.43" width="33.7" height="1098.38"/><rect class="cls-5" x="641.96" y="-7.49" width="33.7" height="1098.38"/><rect class="cls-6" x="-4.51" y="861.11" width="894.64" height="120.51"/></g><g id="Body"><path class="cls-7" d="M399,248.48c-21.3,17.77,3.92,163.89,9.83,40,.42-8.8,16.42,93.6,25,100.35,6.67,5.24,13.08-71.91,19-64.86,6.15,7.37-4.61,86.69-.41,94.69,4.74,9,26.56-68,30.06-60,10.3,23.46-17.79,81,3.94,62.84,35.69-29.79,71.11-114.39,37.71-154.42S434.72,218.7,399,248.48Z"/><path class="cls-8" d="M521.92,334.51c0,42.15-7.41,76.66-34.94,92.33-3,1.73-10,69.87,29.95,69.87,38.49,0-9,177.73-34.94,254.53-9.13,27.08,17.47,167.19,5,334.37-.11,1.46-34.36-1.11-96.07-.83-15.39.07-17.46-200-8.31-234.56,3.57-13.48-12.19,235.81-25,235.81H276.13c-7.36,0,52.57-337,51.15-357.25-4.93-70.44,4.76-219,2.5-229.57-5.71-26.65,58.67-20,64.88-20,1.66,0,16.43-46.33,7.48-52.4-15.06-10.22-34.93-65.51-34.93-92.33,0-56.5,34.63-102.3,77.35-102.3S521.92,278,521.92,334.51Z"/><path class="cls-8" d="M207.51,611.5c0,27.32,1.27,45.19,29.94,59.89,18.33,9.39,98.21,52.54,114.79,34.93,39.92-42.42-99.45-82.77-79.86-94.82,24.19-14.88,97.32-59.89,109.8-84.84,20-40.06,37.06-44.92-24.95-44.92S207.51,566.71,207.51,611.5Z"/><path class="cls-8" d="M578.81,689.89c26.82,5.23,20.51-42.13,12.43-63.68-10-26.59-37.85-110.47-62.24-124-20.39-11.31-44.09-8.6-48.87,15.89C468.26,579,534.85,681.31,578.81,689.89Z"/><rect class="cls-7" x="494" y="373.11" width="61.08" height="99.36"/><path class="cls-8" d="M528,630.82c0-9.32,34.07-37,38.28-44,17.1-28.51,6.6-124.56-4.08-130.31-83.07-44.8-64.79-68.11-4.88-66.79,11.78.26,15.25,7.74,21.17,17.92,52.75,90.62,56.2,231,56.2,239.45,0,24.06-31.4,43.41-51.19,43.41S528,654.88,528,630.82Z"/><path class="cls-4" d="M510.54,416.3c1-1.89,2.25-4.51,16.48,1.91,11.09,5,24.16,3.49,24.16,3.49"/><path class="cls-4" d="M508.36,406c1-1.88,6.56-1.95,16.48,1.92,11.35,4.42,24.16,3.49,24.16,3.49s-15.51,4.42-26.19-1.19A37.34,37.34,0,0,0,508.36,406Z"/><path class="cls-4" d="M513.59,397.21c-.66-.24-.4-1.86,16.48,1.91A171.46,171.46,0,0,0,547.79,402c1,.12.94,1.69-.1,1.82-5.49.7-13.41.88-19.66-2.4A37.19,37.19,0,0,0,513.59,397.21Z"/><path class="cls-4" d="M405.54,429.84c-1.37-.2,19.16,8,44.09,7.49,14.8-.31,38.73-10.69,35.92-8.83-14.83,9.86-7.83,34.09-46.14,34C424.12,462.46,405.83,429.3,405.54,429.84Z"/><path class="cls-4" d="M451.91,360.7c.91.17-1.18,2.85-10.24,2.69-9.84-.19-8.73-4.2-8.39-4.54,4.71-4.7,4.19-5.7,8.05-5.7C451.5,353.15,451.7,361.05,451.91,360.7Z"/><path class="cls-4" d="M459.23,383.48c-.12.14-2.82-2.13-19.27-2-17.86.1-17.42,2.26-17,1.84,5.33-5.88,7.3-5.4,14.25-5.53C455.5,377.42,453.68,379.35,459.23,383.48Z"/><path class="cls-4" d="M375.14,875c0-.11,14.05,2.35,23.79-4.61,10.57-7.56-.38-19.66-.43-19.33-.8,4.61,7.14,10.91.1,16.51C388.27,875.78,380.1,874.31,375.14,875Z"/><path class="cls-4" d="M240.77,602.28c10.54,9.08,26.15,19.46,60.45-16.57,31.29-32.87,31-35.54,31-35.35,0,5-3.6,20.38-4.16,25,0,.27-17.74,11.09-26.61,17.74-14.18,10.63-24,17.92-31.47,20.24C254,618.25,247.71,613.85,240.77,602.28Z"/><path class="cls-4" d="M633.38,656c-15.39,17-59.3,42.47-89.5-3-27.57-41.46-21.13-43.45-20.94-43.55s-6.51,20.67-7,25.29c0,.27,15.38,21.64,23.82,30.8,13.49,14.65,24.84,19.23,32.77,23.76C589.5,699,626.72,676.38,633.38,656Z"/><path class="cls-4" d="M324.79,708c-8.74-18.29-63-15.33-93.25-60.78-27.56-41.47-18.4-56.82-18.21-56.91s-12.06,20-3.75,47.83c.08.26,2.5,17.46,17.06,25.78,17.28,9.88,25.66,15.07,33.6,19.6C277.17,693.18,324.79,708.82,324.79,708Z"/><path class="cls-4" d="M564.34,458.87c27.45,19.54,17.47,99,12.06,116.86-32,34.52-13.2,68.39-13.31,68.21-23.29-37.43.42-54.07,8.74-71.12.65-1.35,1.92-20.39,2.07-29.53C574.32,518.34,575.57,485.07,564.34,458.87Z"/><ellipse class="cls-4" cx="351.4" cy="612.33" rx="5.82" ry="4.99"/><ellipse class="cls-4" cx="477.83" cy="627.3" rx="5.82" ry="4.99"/><path class="cls-4" d="M394.77,745.23c-1.86,4.54-6.14,7.08-9.55,5.68s2.54-3.65,4.4-8.18-1.09-9.65,2.33-8.25S396.63,740.7,394.77,745.23Z"/><path class="cls-4" d="M328.45,606.11c-.92,28.52,11.31,55,11.72,55.29-12.1-.38-18.38-25.55-17.46-54.06s-.73-58.94,11.37-58.55C333.64,549.29,329.36,577.6,328.45,606.11Z"/><path class="cls-4" d="M514.26,620.35c9.39-26.93,5.65-55.88,5.33-56.27,11.44,4,9.91,29.88.51,56.82s-16.9,58-16.48,58.8C504.19,679.35,504.87,647.29,514.26,620.35Z"/><path class="cls-4" d="M326.49,725.54c1.09-28.5,1.63-80.51,1.21-80.77,12.11.13,6.22,51,4.5,79.43C331,743.75,323.75,785.63,321,787,323,768.27,325.37,754.81,326.49,725.54Z"/><path class="cls-4" d="M379,949.44c-.05,47.79,12.31,135.52,12.77,135.92-12,1.16-15-84.95-18.21-133-2.21-33,5.33-74.09,7.78-76.71C381,876.55,379.05,900.78,379,949.44Z"/><path class="cls-4" d="M489.06,728c-10.18,26.64-7.65,78.41-7.25,78.7-12.07-.94-2.78-51.26.85-79.55,2.5-19.43,20.51-54.77,23.3-56C505.5,671.63,499.88,699.67,489.06,728Z"/><path class="cls-4" d="M355.59,855.44c-12.06,23.71-1.58,34.83-1.17,35-12.07-.94-5-22.34-2.67-34.45,1.62-8.31,18-22.83,20.74-23.22C372.05,832.93,362.46,841.94,355.59,855.44Z"/><path class="cls-4" d="M374.08,875.49c2-26.53,18.64-36.87,18.21-37,12.11-.35-12.54,4.54-15.23,38.26-.68,8.45-16.31,16.24-19,16.92C358.5,893.47,373,889.66,374.08,875.49Z"/><path class="cls-7" d="M535.64,306.4c0,27.74-128.35,102-37,18.05,6.49-6-82.38,47.36-93.08,45.08-8.29-1.76,46.84-56.11,37.65-56.11-9.6,0-63.6,59.08-72.44,61-9.94,2.13,35.17-63.93,26.81-61.51C373,320,346.83,378.41,346.83,350.11c0-46.49,42.27-127.89,94.41-127.89S535.64,259.91,535.64,306.4Z"/><path class="cls-7" d="M404.19,836.1c0,15.42-7.16,16.87-17.33,25.89-1.81,1.6,18.72-23.8,6.7-18-12.27,5.89-13.25,13.12-16.25,12.48-4.61-1,13.22-12.88,8.12-12.88-5.34,0-20.16,18.3-25.07,19.35-5.52,1.18,16.59-21.45,11.94-20.11-13.67,4-11.17-2.58-20.41,8.4,0-12.67.84-4,10-18.33,4.18-6.55-16.3,6.21-10.86,1.61,3.49-3,15.54-11,19.41-12.71s-8.77-5.54-4.62-5.54c8.17,0,12.57,3.85,19.41,6,5.13,1.62,26.91-21.52,26.91,4.74,0,.08.43-19.19-15-4.15-4.33,4.23,4.29,2,5.4,2,12.48,0,.46,35.74,1.38,30.73C406.27,843,404.19,831.25,404.19,836.1Z"/></g></g></g></svg>
