<svg xmlns="http://www.w3.org/2000/svg" xmlns:xlink="http://www.w3.org/1999/xlink" viewBox="0 0 890.55 1080"><defs><style>.cls-1{fill:none;}.cls-2{clip-path:url(#clip-path);}.cls-3{fill:#f27457;}.cls-4{fill:#a63b32;}.cls-5{fill:#f9ba8a;}.cls-6{fill:#d7a268;}.cls-7{fill:#4d4d4d;}</style><clipPath id="clip-path"><rect class="cls-1" x="-0.67" y="3.48" width="889.89" height="1080.35"/></clipPath></defs><title>darligbilled5</title><g id="farver_darlig"><g id="Layer_64" data-name="Layer 64"><g class="cls-2"><rect class="cls-3" x="-4.7" y="-0.49" width="1266.89" height="1080"/><path class="cls-4" d="M-22.57,848.19c275.24,0,498.38,36.21,498.38,80.89,0,1.68-172.3-50.56-494.11-55.61"/><path class="cls-4" d="M622.87,913.14c-275.25,0-498.38,38.57-498.38,86.16,0,1.79,172.3-53.85,494.11-59.24"/><path class="cls-4" d="M745.43,774.66c275.24,0,498.38,36.21,498.38,80.88,0,1.69-172.3-50.55-494.11-55.6"/><path class="cls-4" d="M358.68,500c534,0,966.83,41.39,966.83,92.43,0,1.93-334.25-57.77-958.54-63.54"/><path class="cls-5" d="M1047.72,482.57c-.4,35.28,23.49,534.13-4.08,597.45-.82,1.87-417.7-1-440.17,1-8.17-127.66-25.53-326.81-39.83-323.74-192,41.13-499.91,58-568.34,58-2.3,0-1.53-354.64,0-419.75.69-29.59,216.29-37.07,333.44-21.19,15.07,2,18.13-53.87,171.58-171.58C513.68,192.49,477.85,5.64,487,1c2.06-1,608.85-3.7,608.94.77C1099,161.13,1050,280.62,1047.72,482.57Z"/><path class="cls-6" d="M663.72,620c0,69.94,2.6,138.29,55.15,166.89-45.43,0-70.55-97.53-70.55-167.48s36.83-126.64,82.25-126.64C729.09,492.79,663.72,550.07,663.72,620Z"/><path class="cls-6" d="M409.31,500.52C418.9,529.11,442.55,561,458,594.07c2.39,5.13-12-32.7-34.23-99s-75.21-108.35-118.28-93.89C306.86,400.7,387.05,434.21,409.31,500.52Z"/><path class="cls-6" d="M592.88,257.54c91-5.48,180.22-4,219.42,47.12-1.67-45.4-129.64-65.83-220.75-62.49s-106,18.53-121.87,37.68C503.13,253,561.6,259.43,592.88,257.54Z"/><path class="cls-6" d="M821.13,364.77c91-5.48,169,37.81,208.21,89-1.67-45.39-118.43-107.66-209.53-104.31s-106,18.53-121.87,37.68C731.38,360.28,789.85,366.66,821.13,364.77Z"/><path class="cls-6" d="M580,817.76c25.22,99.24,22.26,202.7,22.48,267.37-17.4-163-4.45-170.55-29-268.92-23.54-94.3-12.07-172.76-8.32-197.3C559.91,660.63,571.75,785.39,580,817.76Z"/><path class="cls-6" d="M690.9,208.51c-52.92-3.75-104.29-11.37-123-43.85-2.48,26.31,69.8,47.83,122.61,52.82s62.59-2.63,73.18-12.48C742.33,217.93,709.09,209.8,690.9,208.51Z"/><path class="cls-6" d="M585.09,31.68c-52.93-3.75-97.29-27.56-116-60C466.59-2,531.5,32.05,584.32,37S654.27,21.83,664.86,12C643.53,24.91,603.28,33,585.09,31.68Z"/><path class="cls-6" d="M882.28,51.6c-53,2.3-97.29-27.56-116-60C763.78,17.87,828.69,52,881.51,57s124.22-52.2,134.81-62C995,7.84,935.13,49.3,882.28,51.6Z"/><path class="cls-6" d="M743.38,372.28c91.88-16.9,193-8.46,252.16,101.9C976.9,372.81,838.47,340.3,746.6,357.2S593.33,484.32,575.89,576.53C575.28,573.21,651.51,389.17,743.38,372.28Z"/><path class="cls-7" d="M600.4,497.89c0,50.77-54.12,97-38.8,257.37,2,21.08-110.3-217.84-110.3-268.6s52.35-53.11,73.53-53.11S600.4,447.13,600.4,497.89Z"/></g></g></g></svg>
