<svg xmlns="http://www.w3.org/2000/svg" width="1920" height="1080" viewBox="0 0 1920 1080"><defs><style>.cls-1{fill:#003c54;}.cls-2{fill:#f2eeb3;}.cls-3{fill:#f27457;}.cls-4{fill:#a63b32;}.cls-5{fill:#f29727;}.cls-6{opacity:0.55;}.cls-7{fill:#fff;}.cls-8{opacity:0.7;}</style></defs><title>end_game</title><g id="Slutskærm"><g id="bg_copy" data-name="bg copy"><rect class="cls-1" width="1920" height="1080"/></g><g id="planet_and_stars_copy_2" data-name="planet and stars copy 2"><polygon id="star2-2" class="cls-2" points="347.23 971.31 282.21 964.49 240.2 1019 226.06 949.49 165.52 922.77 221.81 886.63 226.4 815.6 275.31 862.78 338.69 845.61 312.65 910.9 347.23 971.31"/><polygon id="star1-2" class="cls-2" points="1883 350 1819.28 352.68 1785.18 411.42 1763.16 346.17 1701.38 328.96 1751.49 285.97 1747.4 216.6 1800.4 255.26 1859.66 229.6 1842.29 296.49 1883 350"/><g id="planet_copy_2" data-name="planet copy 2"><path class="cls-3" d="M246.69,140c1,42.5-31.62,77-70.61,77s-70.6-34.46-70.6-77,31.62-75.84,70.6-77C214.12,61.92,245.64,96.29,246.69,140Z"/><path class="cls-4" d="M163.83,160.82S182.92,114,153.14,67.14c2.05,0,16.51-7.93,41-1.57C194.17,65.57,204.73,119.91,163.83,160.82Z"/><path class="cls-4" d="M211.85,128.9s-13.3,59.34-60.86,83c5.84,2.54,10.5,5.09,22.17,5.09C177.83,217,227.85,186.84,211.85,128.9Z"/><path class="cls-4" d="M145.81,138.3C143,156.82,131.75,172.53,116,180.08a75.82,75.82,0,0,0,7,10.18C125.64,190.26,154.92,171.31,145.81,138.3Z"/><path class="cls-5" d="M310.29,76c4.25,10.94-46.55,55.37-122,90.1S41.47,212.67,37.22,201.71c-3-7.77,25.18-28.66,68.76-52.56-.5.4,3,13.12,3,13.12,10.5,1.27,14,2.54,73.52-20.36,14.8-6.81,56-29.26,56-36.9,0,0-7-12.72-7.38-13.19C275.5,75.33,307.37,68.42,310.29,76Z"/><path class="cls-4" d="M282.26,88c2.46,5.34-40.85,35.2-22.39,25.1s31.37-22.62,28.91-28S269.39,83.63,251,93.73,279.79,82.65,282.26,88Z"/><path class="cls-4" d="M66.62,186.61c-1.9-5.61,44.25-29.84,24.89-22.11S58,183,59.83,188.67s19.11,3.89,38.52-3.82S68.49,192.22,66.62,186.61Z"/></g></g><g id="gennemsigtig_lag" data-name="gennemsigtig lag" class="cls-6"><rect x="0.5" y="0.5" width="1919" height="1079"/><path class="cls-7" d="M1919,1V1079H1V1H1919m1-1H0V1080H1920V0Z"/></g><g class="cls-8"><rect x="159.5" y="103.5" width="1600" height="872"/><path class="cls-7" d="M1759,104V975H160V104H1759m1-1H159V976H1760V103Z"/></g></g></svg>
