<svg xmlns="http://www.w3.org/2000/svg" width="1920" height="1080" viewBox="0 0 1920 1080"><defs><style>.cls-1{fill:#003c54;}.cls-2{fill:#f2eeb3;}.cls-3{fill:#f27457;}.cls-4{fill:#a63b32;}.cls-5{fill:#f29727;}.cls-6{opacity:0.5;}.cls-7{fill:#fff;}.cls-8{opacity:0.7;}</style></defs><title>Gameover</title><g id="Slutskærm"><g id="bg_copy" data-name="bg copy"><rect class="cls-1" width="1920" height="1080"/></g><g id="planet_and_stars_copy_2" data-name="planet and stars copy 2"><polygon id="star2-2" class="cls-2" points="347.23 971.31 282.21 964.49 240.2 1019 226.06 949.49 165.52 922.77 221.81 886.63 226.4 815.6 275.31 862.78 338.69 845.61 312.65 910.9 347.23 971.31"/><polygon id="star1-2" class="cls-2" points="1883 350 1819.28 352.68 1785.18 411.42 1763.16 346.17 1701.38 328.96 1751.49 285.97 1747.4 216.6 1800.4 255.26 1859.66 229.6 1842.29 296.49 1883 350"/><g id="planet_copy_2" data-name="planet copy 2"><path class="cls-3" d="M246.69,140c1,42.5-31.62,77-70.61,77s-70.6-34.46-70.6-77,31.62-75.84,70.6-77C214.12,61.92,245.64,96.29,246.69,140Z"/><path class="cls-4" d="M163.83,160.82S182.92,114,153.14,67.14c2.05,0,16.51-7.93,41-1.57C194.17,65.57,204.73,119.91,163.83,160.82Z"/><path class="cls-4" d="M211.85,128.9s-13.3,59.34-60.86,83c5.84,2.54,10.5,5.09,22.17,5.09C177.83,217,227.85,186.84,211.85,128.9Z"/><path class="cls-4" d="M145.81,138.3C143,156.82,131.75,172.53,116,180.08a75.82,75.82,0,0,0,7,10.18C125.64,190.26,154.92,171.31,145.81,138.3Z"/><path class="cls-5" d="M310.29,76c4.25,10.94-46.55,55.37-122,90.1S41.47,212.67,37.22,201.71c-3-7.77,25.18-28.66,68.76-52.56-.5.4,3,13.12,3,13.12,10.5,1.27,14,2.54,73.52-20.36,14.8-6.81,56-29.26,56-36.9,0,0-7-12.72-7.38-13.19C275.5,75.33,307.37,68.42,310.29,76Z"/><path class="cls-4" d="M282.26,88c2.46,5.34-40.85,35.2-22.39,25.1s31.37-22.62,28.91-28S269.39,83.63,251,93.73,279.79,82.65,282.26,88Z"/><path class="cls-4" d="M66.62,186.61c-1.9-5.61,44.25-29.84,24.89-22.11S58,183,59.83,188.67s19.11,3.89,38.52-3.82S68.49,192.22,66.62,186.61Z"/></g></g><g id="gennemsigtig_lag" data-name="gennemsigtig lag" class="cls-6"><rect x="0.5" y="0.5" width="1919" height="1079"/><path class="cls-7" d="M1919,1V1079H1V1H1919m1-1H0V1080H1920V0Z"/></g><g class="cls-8"><rect x="174.5" y="115.5" width="1600" height="872"/><path class="cls-7" d="M1774,116V987H175V116H1774m1-1H174V988H1775V115Z"/></g><path class="cls-5" d="M329.32,205.62c.64,0,1.28,0,1.94.07a5.74,5.74,0,0,1,1.77.41,3.06,3.06,0,0,1,1.29,1,3.16,3.16,0,0,1,.5,1.9,2.85,2.85,0,0,1-1.79,2.92,5.47,5.47,0,0,1-1.77.4c-.66,0-1.3.08-1.94.08h-5.7v6.5h3q1,0,1.92.06a5.11,5.11,0,0,1,1.73.39,2.88,2.88,0,0,1,1.23,1,3.75,3.75,0,0,1,0,3.67,3,3,0,0,1-1.23,1,5.36,5.36,0,0,1-1.73.38q-1,.06-1.92.06h-3v6.89h5.7c.64,0,1.28,0,1.94.07a5.74,5.74,0,0,1,1.77.4,3,3,0,0,1,1.29,1,3.15,3.15,0,0,1,.5,1.88,2.89,2.89,0,0,1-1.82,3,5.35,5.35,0,0,1-1.77.4c-.65.05-1.29.08-1.91.08h-9.38a3.75,3.75,0,0,1-2.07-.48,2.84,2.84,0,0,1-1.07-1.26,5.29,5.29,0,0,1-.39-1.76q-.06-1-.06-2V211.12q0-1,.06-2a5.34,5.34,0,0,1,.39-1.76,2.87,2.87,0,0,1,1.07-1.25,3.75,3.75,0,0,1,2.07-.48Z"/><path class="cls-5" d="M340.8,220.55a18.56,18.56,0,0,1,.11-2,4.86,4.86,0,0,1,.49-1.72,3,3,0,0,1,1.11-1.2,3.87,3.87,0,0,1,2-.44,3.67,3.67,0,0,1,1.91.44,2.93,2.93,0,0,1,1.09,1.2,5.07,5.07,0,0,1,.48,1.72,18.56,18.56,0,0,1,.11,2V238.4c0,1.48-.06,2.85-.17,4.11a8.54,8.54,0,0,1-.89,3.26,5.09,5.09,0,0,1-2.17,2.14,8.73,8.73,0,0,1-4.05.78,9.38,9.38,0,0,1-2-.22,5.22,5.22,0,0,1-1.67-.67,3.51,3.51,0,0,1-1.15-1.15,3,3,0,0,1-.43-1.65,5,5,0,0,1,.18-1.46,2,2,0,0,1,.57-.92,2.33,2.33,0,0,1,1-.49,6.92,6.92,0,0,1,1.49-.14,1.9,1.9,0,0,0,1.15-.3,1.79,1.79,0,0,0,.6-.8,4,4,0,0,0,.23-1.15c0-.43,0-.88,0-1.34Zm7.28-11.34a3.54,3.54,0,0,1-.95,2.69,3.67,3.67,0,0,1-2.64.9,3.87,3.87,0,0,1-2.71-.9,3.48,3.48,0,0,1-1-2.69,3.53,3.53,0,0,1,1-2.75,3.92,3.92,0,0,1,2.71-.89,3.67,3.67,0,0,1,2.71.89A3.78,3.78,0,0,1,348.08,209.21Z"/><path class="cls-5" d="M363.67,224.57a11.91,11.91,0,0,1-.08,1.48,3.61,3.61,0,0,1-.37,1.28,2.27,2.27,0,0,1-.83.91,2.62,2.62,0,0,1-1.44.35,2.66,2.66,0,0,1-1.45-.35,2.35,2.35,0,0,1-.83-.91,3.83,3.83,0,0,1-.37-1.28,14.21,14.21,0,0,1-.08-1.48L357,216.82V211a11.52,11.52,0,0,1,.16-2,5,5,0,0,1,.6-1.7,3.32,3.32,0,0,1,1.21-1.2,4,4,0,0,1,2-.45,3.77,3.77,0,0,1,2,.46,3.5,3.5,0,0,1,1.2,1.22,5.22,5.22,0,0,1,.59,1.72,12.55,12.55,0,0,1,.15,2v5.88Zm1.2,10.62a4,4,0,0,1-1,3,4.07,4.07,0,0,1-2.89,1,4.17,4.17,0,0,1-2.95-1,4,4,0,0,1-1-3,3.88,3.88,0,0,1,1-3,4.26,4.26,0,0,1,2.95-.93,4.11,4.11,0,0,1,2.95.93A4,4,0,0,1,364.87,235.19Z"/><path class="cls-5" d="M326.78,264.42a14.33,14.33,0,0,1,4.06.55,9.67,9.67,0,0,1,3.27,1.64,7.68,7.68,0,0,1,2.21,2.71,8.62,8.62,0,0,1,.8,3.81V288a12,12,0,0,1-.41,3.29,9.83,9.83,0,0,1-1.06,2.47,8.16,8.16,0,0,1-1.5,1.77,9,9,0,0,1-1.7,1.18,11,11,0,0,1-4.66,1.25h-8a3.94,3.94,0,0,1-2.1-.47,2.7,2.7,0,0,1-1.08-1.24,5.34,5.34,0,0,1-.39-1.76c0-.66-.06-1.33-.06-2V269.88q0-1,.06-2a5.17,5.17,0,0,1,.39-1.75,2.67,2.67,0,0,1,1.08-1.23,3.94,3.94,0,0,1,2.1-.47Zm-3.3,5.6v22.2h3.11a4.21,4.21,0,0,0,1.84-.48,3,3,0,0,0,.67-.45,3.29,3.29,0,0,0,.6-.68,3.18,3.18,0,0,0,.42-.95,4.86,4.86,0,0,0,.15-1.27V274.28a5.83,5.83,0,0,0-.15-1.4,4,4,0,0,0-.42-1.07,3.1,3.1,0,0,0-.6-.76,3.4,3.4,0,0,0-.67-.51,4.38,4.38,0,0,0-1.84-.52Z"/><path class="cls-5" d="M361.57,284.28c0,.25,0,.55-.05.9a2,2,0,0,1-.37,1,2.53,2.53,0,0,1-1,.8,4.65,4.65,0,0,1-2,.33h-9.52v2.3a5.75,5.75,0,0,0,.14,1.2,3.61,3.61,0,0,0,.49,1.14,2.74,2.74,0,0,0,.92.87,2.84,2.84,0,0,0,1.42.33,3.64,3.64,0,0,0,1.47-.23,2.37,2.37,0,0,0,.81-.56,4.83,4.83,0,0,0,.54-.72,3.19,3.19,0,0,1,.63-.71,3.32,3.32,0,0,1,1.1-.57,6.7,6.7,0,0,1,1.95-.22,7.27,7.27,0,0,1,1.16.09,3,3,0,0,1,1,.36,2,2,0,0,1,.69.73,2.39,2.39,0,0,1,.26,1.21,3.59,3.59,0,0,1-1,2.59,7,7,0,0,1-2.46,1.67,13.49,13.49,0,0,1-3.22.88,21.21,21.21,0,0,1-3.24.27,15.46,15.46,0,0,1-3.78-.51,9,9,0,0,1-3.17-1.53,7.39,7.39,0,0,1-2.19-2.75,9.61,9.61,0,0,1-.81-4.16v-5.6a12.25,12.25,0,0,1,.53-3.85,8.56,8.56,0,0,1,1.4-2.64,6.59,6.59,0,0,1,1.94-1.63,9.77,9.77,0,0,1,2.18-.88,11.9,11.9,0,0,1,2.09-.36c.66,0,1.23-.07,1.71-.07a17.52,17.52,0,0,1,4.13.43,10.72,10.72,0,0,1,2.86,1.13,6.09,6.09,0,0,1,1.82,1.6,7.13,7.13,0,0,1,1,1.88,7.91,7.91,0,0,1,.43,2,17.58,17.58,0,0,1,.1,1.85Zm-12.92-.58h6c0-.75,0-1.41-.06-2a3.88,3.88,0,0,0-.36-1.48,2,2,0,0,0-.93-.9,4.16,4.16,0,0,0-1.81-.32,3.15,3.15,0,0,0-1.54.32,2.13,2.13,0,0,0-.85.77,2.62,2.62,0,0,0-.36,1,6.59,6.59,0,0,0-.07.93Z"/><path class="cls-5" d="M369.75,274v-4.21a18,18,0,0,1,.11-2,4.8,4.8,0,0,1,.49-1.71,3,3,0,0,1,1.1-1.22,3.55,3.55,0,0,1,1.94-.47,3.46,3.46,0,0,1,1.91.47,3,3,0,0,1,1.09,1.22,5,5,0,0,1,.48,1.71,18,18,0,0,1,.11,2V274h2c.41,0,.83,0,1.24.06a2.73,2.73,0,0,1,1.12.35,2.13,2.13,0,0,1,.79.86,3.52,3.52,0,0,1,.29,1.6,3.42,3.42,0,0,1-.29,1.56,2.13,2.13,0,0,1-.79.86,3.08,3.08,0,0,1-1.12.37,8.61,8.61,0,0,1-1.24.08h-2v8.38c0,.32,0,.65,0,1a3,3,0,0,0,.25,1,2,2,0,0,0,.65.75,2.11,2.11,0,0,0,1.22.3,6.85,6.85,0,0,1,1.47.13,2.25,2.25,0,0,1,1,.47,1.91,1.91,0,0,1,.58.93,5.06,5.06,0,0,1,.19,1.53,3,3,0,0,1-.44,1.65,3.61,3.61,0,0,1-1.18,1.15,5.61,5.61,0,0,1-1.72.67,9.85,9.85,0,0,1-2.06.22,10.28,10.28,0,0,1-2.91-.36,5.76,5.76,0,0,1-2-1,4.87,4.87,0,0,1-1.27-1.58,7.87,7.87,0,0,1-.69-2.07,16.73,16.73,0,0,1-.29-2.47q-.06-1.34-.06-2.79v-7.9h-1.34a8.47,8.47,0,0,1-1.23-.08,2.93,2.93,0,0,1-1.09-.37,2.11,2.11,0,0,1-.78-.86,3.41,3.41,0,0,1-.3-1.56,3.51,3.51,0,0,1,.3-1.6,2.11,2.11,0,0,1,.78-.86,2.6,2.6,0,0,1,1.09-.35q.61-.06,1.23-.06Z"/><path class="cls-5" d="M417.79,294.18a13.31,13.31,0,0,1-1,2.15,4.33,4.33,0,0,1-.88,1.11,1.76,1.76,0,0,1-.86.42,6.62,6.62,0,0,1-.91.06,7.47,7.47,0,0,1-1-.06,1.9,1.9,0,0,1-.91-.41,4.14,4.14,0,0,1-.94-1.1,12.68,12.68,0,0,1-1-2.17L404.92,280q-.21-.57-.39-1.23a5,5,0,0,1-.18-1.31,4.78,4.78,0,0,1,.18-1.32,2.92,2.92,0,0,1,.58-1.12,3,3,0,0,1,1.06-.76,3.88,3.88,0,0,1,1.58-.29,2.72,2.72,0,0,1,1.23.29,3.49,3.49,0,0,1,1,.76,5.19,5.19,0,0,1,.78,1.1,7,7,0,0,1,.53,1.3l2.68,8.7h.38l2.49-8.7a6.78,6.78,0,0,1,.48-1.23,4.71,4.71,0,0,1,.75-1.11,4,4,0,0,1,1.05-.8,3,3,0,0,1,1.4-.31,3.22,3.22,0,0,1,1.46.3,2.74,2.74,0,0,1,1,.79,3.05,3.05,0,0,1,.55,1.13,5.25,5.25,0,0,1,0,2.57,10.66,10.66,0,0,1-.42,1.24Z"/><path class="cls-5" d="M446.27,292.51c0,.67,0,1.33-.08,2a4.74,4.74,0,0,1-.43,1.74,2.89,2.89,0,0,1-1.07,1.23,3.69,3.69,0,0,1-2,.47,4,4,0,0,1-2.06-.45,3,3,0,0,1-1.1-1.07,3.48,3.48,0,0,1-.44-1.33,9.28,9.28,0,0,1-.09-1.17,7.08,7.08,0,0,1-.61,1.41,5,5,0,0,1-1,1.29,5.15,5.15,0,0,1-3.54,1.32,8.68,8.68,0,0,1-2.64-.43,6.36,6.36,0,0,1-2.37-1.44,7.45,7.45,0,0,1-1.71-2.62,10.76,10.76,0,0,1-.65-4v-6.94a10.86,10.86,0,0,1,.65-4,7.32,7.32,0,0,1,1.71-2.61,6.44,6.44,0,0,1,2.37-1.42,8.38,8.38,0,0,1,2.64-.43,5.31,5.31,0,0,1,2,.36,5.14,5.14,0,0,1,1.5.93,5,5,0,0,1,1,1.29,6.83,6.83,0,0,1,.61,1.44,5,5,0,0,1,.34-2,3.34,3.34,0,0,1,.86-1.25,2.87,2.87,0,0,1,1.18-.65,5,5,0,0,1,1.31-.18,3.46,3.46,0,0,1,1.91.47,3,3,0,0,1,1.09,1.22,5.06,5.06,0,0,1,.48,1.74,19.42,19.42,0,0,1,.11,2Zm-12.44-3.69c0,.43,0,.86,0,1.27a3.35,3.35,0,0,0,.27,1.13,1.85,1.85,0,0,0,.63.8,2,2,0,0,0,1.16.3,2.55,2.55,0,0,0,1.52-.42,2.72,2.72,0,0,0,.92-1.29,9,9,0,0,0,.47-2.2c.09-.89.14-2,.15-3.17a12.6,12.6,0,0,0-.13-1.72,8.46,8.46,0,0,0-.46-1.83,4.32,4.32,0,0,0-.94-1.46,2.1,2.1,0,0,0-1.53-.59,2,2,0,0,0-1.16.3,1.82,1.82,0,0,0-.63.77,3.12,3.12,0,0,0-.27,1.09c0,.41,0,.82,0,1.23Z"/><path class="cls-5" d="M467.27,277.58a3.58,3.58,0,0,1-.92,2.73,3.71,3.71,0,0,1-2.62.86l-.68,0a4.41,4.41,0,0,0-.94.2,4.54,4.54,0,0,0-1,.45,3.76,3.76,0,0,0-.95.81,4.05,4.05,0,0,0-.69,1.31,5.83,5.83,0,0,0-.26,1.89v6.84a17,17,0,0,1-.11,1.91,4.79,4.79,0,0,1-.49,1.67,3.11,3.11,0,0,1-1.1,1.18,3.64,3.64,0,0,1-1.94.46,3.43,3.43,0,0,1-1.89-.46,3.11,3.11,0,0,1-1.07-1.18,5,5,0,0,1-.47-1.67,15,15,0,0,1-.11-1.91V279.3a15.5,15.5,0,0,1,.11-1.95,5.07,5.07,0,0,1,.47-1.68,3,3,0,0,1,1.07-1.19,3.52,3.52,0,0,1,1.89-.44,2.9,2.9,0,0,1,1.88.54,3.18,3.18,0,0,1,1,1.38,6.89,6.89,0,0,1,.36,1.89c0,.7,0,1.37,0,2h.39a11,11,0,0,1,.88-2.43,8.77,8.77,0,0,1,1.22-1.84,5.11,5.11,0,0,1,1.44-1.16,3.14,3.14,0,0,1,1.53-.41,4.91,4.91,0,0,1,1.52.2,1.94,1.94,0,0,1,.92.64,2.45,2.45,0,0,1,.45,1.1A9.16,9.16,0,0,1,467.27,277.58Z"/><path class="cls-5" d="M509.29,284.28c0,.25,0,.55-.05.9a2.08,2.08,0,0,1-.37,1,2.68,2.68,0,0,1-1,.8,4.68,4.68,0,0,1-2,.33h-9.52v2.3a5.75,5.75,0,0,0,.14,1.2,3.61,3.61,0,0,0,.49,1.14,2.74,2.74,0,0,0,.92.87,2.83,2.83,0,0,0,1.41.33,3.67,3.67,0,0,0,1.48-.23,2.37,2.37,0,0,0,.81-.56,4.83,4.83,0,0,0,.54-.72,3.19,3.19,0,0,1,.63-.71,3.22,3.22,0,0,1,1.1-.57,6.7,6.7,0,0,1,1.95-.22,7.27,7.27,0,0,1,1.16.09,3,3,0,0,1,1,.36,2.11,2.11,0,0,1,.69.73,2.5,2.5,0,0,1,.26,1.21,3.63,3.63,0,0,1-1,2.59,7,7,0,0,1-2.46,1.67,13.49,13.49,0,0,1-3.22.88,21.21,21.21,0,0,1-3.24.27,15.4,15.4,0,0,1-3.78-.51,8.9,8.9,0,0,1-3.17-1.53,7.39,7.39,0,0,1-2.19-2.75,9.46,9.46,0,0,1-.82-4.16v-5.6a12,12,0,0,1,.54-3.85,8.56,8.56,0,0,1,1.4-2.64,6.59,6.59,0,0,1,1.94-1.63,9.58,9.58,0,0,1,2.18-.88,11.9,11.9,0,0,1,2.09-.36c.66,0,1.23-.07,1.71-.07a17.52,17.52,0,0,1,4.13.43,10.72,10.72,0,0,1,2.86,1.13,6.22,6.22,0,0,1,1.82,1.6,7.13,7.13,0,0,1,1,1.88,8.39,8.39,0,0,1,.43,2c.06.66.1,1.28.1,1.85Zm-12.92-.58h6c0-.75,0-1.41-.06-2a3.88,3.88,0,0,0-.36-1.48,2,2,0,0,0-.93-.9,4.19,4.19,0,0,0-1.81-.32,3.15,3.15,0,0,0-1.54.32,2.13,2.13,0,0,0-.85.77,2.62,2.62,0,0,0-.36,1,6.59,6.59,0,0,0-.07.93Z"/><path class="cls-5" d="M517.47,274v-4.21a18,18,0,0,1,.11-2,4.8,4.8,0,0,1,.49-1.71,3,3,0,0,1,1.1-1.22,3.52,3.52,0,0,1,1.94-.47,3.48,3.48,0,0,1,1.91.47,3,3,0,0,1,1.09,1.22,5,5,0,0,1,.48,1.71,18,18,0,0,1,.11,2V274h2c.41,0,.83,0,1.24.06a2.64,2.64,0,0,1,1.11.35,2.07,2.07,0,0,1,.79.86,3.51,3.51,0,0,1,.3,1.6,3.41,3.41,0,0,1-.3,1.56,2.07,2.07,0,0,1-.79.86,3,3,0,0,1-1.11.37,8.61,8.61,0,0,1-1.24.08h-2v8.38c0,.32,0,.65,0,1a2.78,2.78,0,0,0,.25,1,2,2,0,0,0,.65.75,2.11,2.11,0,0,0,1.22.3,7,7,0,0,1,1.47.13,2.25,2.25,0,0,1,1,.47,2,2,0,0,1,.58.93,5.06,5.06,0,0,1,.19,1.53,3,3,0,0,1-.44,1.65,3.71,3.71,0,0,1-1.18,1.15,5.57,5.57,0,0,1-1.73.67,9.76,9.76,0,0,1-2,.22,10.23,10.23,0,0,1-2.91-.36,5.59,5.59,0,0,1-2-1,4.75,4.75,0,0,1-1.27-1.58,7.87,7.87,0,0,1-.69-2.07,16.73,16.73,0,0,1-.29-2.47q-.06-1.34-.06-2.79v-7.9h-1.34a8.29,8.29,0,0,1-1.23-.08,2.93,2.93,0,0,1-1.09-.37,2.11,2.11,0,0,1-.78-.86,3.41,3.41,0,0,1-.3-1.56,3.51,3.51,0,0,1,.3-1.6,2.11,2.11,0,0,1,.78-.86,2.6,2.6,0,0,1,1.09-.35q.6-.06,1.23-.06Z"/><path class="cls-5" d="M564.7,274a10.21,10.21,0,0,1,1.22.07,2.85,2.85,0,0,1,1.11.36,2.05,2.05,0,0,1,.8.89,3.56,3.56,0,0,1,.31,1.65,3.16,3.16,0,0,1-.31,1.54,2.15,2.15,0,0,1-.8.86,2.71,2.71,0,0,1-1.11.38,8.56,8.56,0,0,1-1.22.09h-1.44v12.68a18.84,18.84,0,0,1-.1,2,4.81,4.81,0,0,1-.51,1.72,2.91,2.91,0,0,1-1.15,1.21,3.9,3.9,0,0,1-2,.46,3.54,3.54,0,0,1-1.92-.46,2.85,2.85,0,0,1-1.07-1.21,5,5,0,0,1-.45-1.72,18.84,18.84,0,0,1-.1-2V279.83H554.6a8.87,8.87,0,0,1-1.28-.09,2.54,2.54,0,0,1-1.07-.38,2.07,2.07,0,0,1-.76-.86,3.45,3.45,0,0,1-.28-1.54,3.89,3.89,0,0,1,.28-1.65,2,2,0,0,1,.76-.89,2.66,2.66,0,0,1,1.07-.36,10.63,10.63,0,0,1,1.28-.07h1.34a38.47,38.47,0,0,1,.19-3.88,7.36,7.36,0,0,1,.94-3,4.91,4.91,0,0,1,2.2-2,9.29,9.29,0,0,1,4-.71,10.24,10.24,0,0,1,2,.19,5.67,5.67,0,0,1,1.67.6,3.23,3.23,0,0,1,1.14,1.06,2.91,2.91,0,0,1,.42,1.6,3.06,3.06,0,0,1-.3,1.43,3,3,0,0,1-.73.93,2.58,2.58,0,0,1-1,.51,3.69,3.69,0,0,1-.94.14,1.42,1.42,0,0,1-.67-.17,1.53,1.53,0,0,0-.72-.17.64.64,0,0,0-.51.22,1.61,1.61,0,0,0-.29.57,3.26,3.26,0,0,0-.13.79q0,.44,0,.87v1Z"/><path class="cls-5" d="M571,283a10.3,10.3,0,0,1,.59-3.74,8.18,8.18,0,0,1,1.55-2.56,7.24,7.24,0,0,1,2.1-1.6,11.94,11.94,0,0,1,2.29-.86,12.56,12.56,0,0,1,2.09-.36c.65-.05,1.15-.07,1.52-.07s.87,0,1.51.07a11.55,11.55,0,0,1,2,.36,10.76,10.76,0,0,1,2.2.86,6.64,6.64,0,0,1,2,1.6,8.45,8.45,0,0,1,1.48,2.56A10.78,10.78,0,0,1,591,283v5.93a10.72,10.72,0,0,1-.57,3.73,8.33,8.33,0,0,1-1.48,2.56,6.68,6.68,0,0,1-2,1.61,10.76,10.76,0,0,1-2.2.86,11.55,11.55,0,0,1-2,.36c-.64,0-1.14.07-1.51.07s-.87,0-1.52-.07a12.56,12.56,0,0,1-2.09-.36,11.94,11.94,0,0,1-2.29-.86,7.28,7.28,0,0,1-2.1-1.61,8.06,8.06,0,0,1-1.55-2.56,10.24,10.24,0,0,1-.59-3.73Zm7.36,7.6a2.52,2.52,0,0,0,.34,1.22,2.45,2.45,0,0,0,.82.85,2.94,2.94,0,0,0,1.62.38,2.67,2.67,0,0,0,1.54-.38,2.38,2.38,0,0,0,.8-.85,2.76,2.76,0,0,0,.34-1.22v-8.66a3.39,3.39,0,0,0-.34-1.31,2.89,2.89,0,0,0-.8-.9,2.46,2.46,0,0,0-1.54-.42,2.69,2.69,0,0,0-1.62.42,3,3,0,0,0-.82.9,3.07,3.07,0,0,0-.34,1.31Z"/><path class="cls-5" d="M611.26,277.58a3.61,3.61,0,0,1-.92,2.73,3.73,3.73,0,0,1-2.62.86l-.68,0a4.49,4.49,0,0,0-.95.2,5,5,0,0,0-1,.45,3.72,3.72,0,0,0-.94.81,3.87,3.87,0,0,0-.69,1.31,5.81,5.81,0,0,0-.27,1.89v6.84a15,15,0,0,1-.11,1.91,4.59,4.59,0,0,1-.49,1.67,3,3,0,0,1-1.1,1.18,3.6,3.6,0,0,1-1.93.46,3.43,3.43,0,0,1-1.89-.46,3,3,0,0,1-1.07-1.18,4.79,4.79,0,0,1-.48-1.67,17,17,0,0,1-.11-1.91V279.3a17.64,17.64,0,0,1,.11-1.95,4.84,4.84,0,0,1,.48-1.68,2.93,2.93,0,0,1,1.07-1.19,3.52,3.52,0,0,1,1.89-.44,2.87,2.87,0,0,1,1.87.54,3.18,3.18,0,0,1,1,1.38,6.22,6.22,0,0,1,.36,1.89c0,.7,0,1.37,0,2h.38a11.57,11.57,0,0,1,.89-2.43,8.06,8.06,0,0,1,1.22-1.84,4.94,4.94,0,0,1,1.43-1.16,3.14,3.14,0,0,1,1.53-.41,4.86,4.86,0,0,1,1.52.2,1.94,1.94,0,0,1,.92.64,2.35,2.35,0,0,1,.46,1.1A9.16,9.16,0,0,1,611.26,277.58Z"/><path class="cls-5" d="M615.37,269.73c0-.67,0-1.32.08-2a4.94,4.94,0,0,1,.4-1.7,2.87,2.87,0,0,1,1-1.19,3.34,3.34,0,0,1,1.9-.46,3.42,3.42,0,0,1,1.93.46,2.69,2.69,0,0,1,1,1.19,5.17,5.17,0,0,1,.4,1.7c0,.64.07,1.29.07,2v9.43h.38l4.93-5.79a2.47,2.47,0,0,1,1-.73,3.23,3.23,0,0,1,1.19-.23,3.5,3.5,0,0,1,1.21.23,3.43,3.43,0,0,1,1.08.64,3.49,3.49,0,0,1,.76,1,2.86,2.86,0,0,1,.3,1.33,2.72,2.72,0,0,1-.67,1.77l-4.31,5.07,4.69,9a15.33,15.33,0,0,1,.75,1.73,5.2,5.2,0,0,1,.31,1.67,2.67,2.67,0,0,1-.34,1.36,3,3,0,0,1-.87,1,4,4,0,0,1-1.2.6,4.16,4.16,0,0,1-1.28.2,2.62,2.62,0,0,1-1.41-.38,4.45,4.45,0,0,1-1.09-.94,8.3,8.3,0,0,1-.82-1.21,13.39,13.39,0,0,1-.6-1.2l-2.68-5.69h-1.34v4c0,.67,0,1.32-.07,2a5.24,5.24,0,0,1-.4,1.72,2.64,2.64,0,0,1-1,1.21,3.51,3.51,0,0,1-1.93.46,3.42,3.42,0,0,1-1.9-.46,2.81,2.81,0,0,1-1-1.21,5,5,0,0,1-.4-1.72c-.05-.65-.08-1.3-.08-2Z"/><path class="cls-5" d="M658.44,284.28c0,.25,0,.55-.05.9a2,2,0,0,1-.37,1,2.53,2.53,0,0,1-1,.8,4.65,4.65,0,0,1-2,.33h-9.52v2.3a5.75,5.75,0,0,0,.14,1.2,3.61,3.61,0,0,0,.49,1.14,2.64,2.64,0,0,0,2.34,1.2,3.61,3.61,0,0,0,1.47-.23,2.37,2.37,0,0,0,.81-.56,4.83,4.83,0,0,0,.54-.72,3.19,3.19,0,0,1,.63-.71,3.32,3.32,0,0,1,1.1-.57,6.82,6.82,0,0,1,2-.22,7.46,7.46,0,0,1,1.16.09,3.07,3.07,0,0,1,1,.36,1.94,1.94,0,0,1,.69.73,2.38,2.38,0,0,1,.27,1.21,3.59,3.59,0,0,1-1,2.59,7,7,0,0,1-2.46,1.67,13.49,13.49,0,0,1-3.22.88,21,21,0,0,1-3.24.27,15.53,15.53,0,0,1-3.78-.51,9,9,0,0,1-3.17-1.53,7.39,7.39,0,0,1-2.19-2.75,9.61,9.61,0,0,1-.81-4.16v-5.6a12,12,0,0,1,.54-3.85,8.16,8.16,0,0,1,1.4-2.64,6.56,6.56,0,0,1,1.93-1.63,9.77,9.77,0,0,1,2.18-.88,11.9,11.9,0,0,1,2.09-.36c.67,0,1.24-.07,1.71-.07a17.46,17.46,0,0,1,4.13.43,10.59,10.59,0,0,1,2.86,1.13,6.09,6.09,0,0,1,1.82,1.6,6.85,6.85,0,0,1,1,1.88,7.91,7.91,0,0,1,.43,2,17.58,17.58,0,0,1,.1,1.85Zm-12.92-.58h6c0-.75,0-1.41-.06-2a3.88,3.88,0,0,0-.36-1.48,2,2,0,0,0-.93-.9,4.16,4.16,0,0,0-1.81-.32,3.18,3.18,0,0,0-1.54.32,2.2,2.2,0,0,0-.85.77,2.62,2.62,0,0,0-.36,1,6.59,6.59,0,0,0-.07.93Z"/><path class="cls-5" d="M678.87,277.58a3.58,3.58,0,0,1-.92,2.73,3.71,3.71,0,0,1-2.62.86l-.68,0a4.28,4.28,0,0,0-.94.2,4.54,4.54,0,0,0-1,.45,3.76,3.76,0,0,0-1,.81,4.05,4.05,0,0,0-.69,1.31,5.83,5.83,0,0,0-.26,1.89v6.84a17,17,0,0,1-.11,1.91,4.79,4.79,0,0,1-.49,1.67,3.11,3.11,0,0,1-1.1,1.18,3.64,3.64,0,0,1-1.94.46,3.43,3.43,0,0,1-1.89-.46,3.11,3.11,0,0,1-1.07-1.18,5,5,0,0,1-.47-1.67,15,15,0,0,1-.11-1.91V279.3a15.5,15.5,0,0,1,.11-1.95,5.07,5.07,0,0,1,.47-1.68,3,3,0,0,1,1.07-1.19,3.52,3.52,0,0,1,1.89-.44,2.9,2.9,0,0,1,1.88.54,3.18,3.18,0,0,1,1,1.38,6.89,6.89,0,0,1,.36,1.89c0,.7,0,1.37,0,2h.39a11,11,0,0,1,.88-2.43,8.4,8.4,0,0,1,1.22-1.84,5.11,5.11,0,0,1,1.44-1.16,3.14,3.14,0,0,1,1.53-.41,4.91,4.91,0,0,1,1.52.2,1.94,1.94,0,0,1,.92.64,2.45,2.45,0,0,1,.45,1.1A9.16,9.16,0,0,1,678.87,277.58Z"/><path class="cls-5" d="M685.57,274v-4.21a18,18,0,0,1,.11-2,5,5,0,0,1,.49-1.71,3.08,3.08,0,0,1,1.1-1.22,3.55,3.55,0,0,1,1.94-.47,3.46,3.46,0,0,1,1.91.47,3,3,0,0,1,1.09,1.22,5,5,0,0,1,.48,1.71,18,18,0,0,1,.11,2V274h2c.41,0,.83,0,1.24.06a2.73,2.73,0,0,1,1.12.35,2.13,2.13,0,0,1,.79.86,3.51,3.51,0,0,1,.3,1.6,3.41,3.41,0,0,1-.3,1.56,2.13,2.13,0,0,1-.79.86,3.08,3.08,0,0,1-1.12.37,8.61,8.61,0,0,1-1.24.08h-2v8.38c0,.32,0,.65,0,1a3,3,0,0,0,.25,1,2,2,0,0,0,.65.75,2.11,2.11,0,0,0,1.22.3,6.85,6.85,0,0,1,1.47.13,2.25,2.25,0,0,1,1,.47,1.91,1.91,0,0,1,.58.93,5,5,0,0,1,.2,1.53,3,3,0,0,1-.45,1.65,3.61,3.61,0,0,1-1.18,1.15,5.61,5.61,0,0,1-1.72.67,9.85,9.85,0,0,1-2.06.22,10.33,10.33,0,0,1-2.91-.36,5.76,5.76,0,0,1-2-1,4.87,4.87,0,0,1-1.27-1.58,7.87,7.87,0,0,1-.69-2.07,16.73,16.73,0,0,1-.29-2.47q-.06-1.34-.06-2.79v-7.9h-1.34a8.47,8.47,0,0,1-1.23-.08,2.93,2.93,0,0,1-1.09-.37,2.11,2.11,0,0,1-.78-.86,3.41,3.41,0,0,1-.3-1.56,3.51,3.51,0,0,1,.3-1.6,2.11,2.11,0,0,1,.78-.86,2.6,2.6,0,0,1,1.09-.35q.62-.06,1.23-.06Z"/><path class="cls-5" d="M728.54,280.26a1.45,1.45,0,0,0,.31.88,3.6,3.6,0,0,0,.85.78,10.88,10.88,0,0,0,1.25.73l1.47.72c.78.38,1.58.79,2.39,1.23a12.1,12.1,0,0,1,2.23,1.54,7.72,7.72,0,0,1,1.64,2.05,5.66,5.66,0,0,1,.63,2.74,7.12,7.12,0,0,1-.42,2.54,6.47,6.47,0,0,1-1.11,1.9,6.33,6.33,0,0,1-1.62,1.33,9.14,9.14,0,0,1-1.93.83,12.33,12.33,0,0,1-2.07.45,17.91,17.91,0,0,1-2,.13,15.05,15.05,0,0,1-3.21-.31,9.81,9.81,0,0,1-2.34-.83A6.2,6.2,0,0,1,723,295.8a5.7,5.7,0,0,1-1-1.38,5.49,5.49,0,0,1-.5-1.42,6.27,6.27,0,0,1-.14-1.3,2.58,2.58,0,0,1,.8-2.11,3.73,3.73,0,0,1,2.45-.67,2.88,2.88,0,0,1,2,.65,2.69,2.69,0,0,1,.81,2.08,1.21,1.21,0,0,0,.28.76,1.88,1.88,0,0,0,.65.47,2.93,2.93,0,0,0,.87.24,7.5,7.5,0,0,0,.93.06,2.28,2.28,0,0,0,1.52-.49,1.61,1.61,0,0,0,.59-1.28,2.17,2.17,0,0,0-.4-1.26,4.83,4.83,0,0,0-1-1.09,13.88,13.88,0,0,0-1.47-1l-1.69-.94c-.71-.38-1.44-.79-2.16-1.22a12.27,12.27,0,0,1-2-1.44,6.75,6.75,0,0,1-1.43-1.78,4.53,4.53,0,0,1-.55-2.26,7.08,7.08,0,0,1,.61-3.12,5.09,5.09,0,0,1,1.78-2,8.22,8.22,0,0,1,2.86-1.11,22.57,22.57,0,0,1,3.84-.38H731a14,14,0,0,1,3.29.33,8.45,8.45,0,0,1,2.25.88,5,5,0,0,1,1.41,1.2,5.17,5.17,0,0,1,1.08,2.66q.06.63.06,1.05a2.05,2.05,0,0,1-1.09,1.93,3.55,3.55,0,0,1-1.11.38,9.09,9.09,0,0,1-1.29.13,2.64,2.64,0,0,1-1-.19,2.94,2.94,0,0,1-.81-.48,2.06,2.06,0,0,1-.51-.64,1.55,1.55,0,0,1-.18-.7,1.68,1.68,0,0,0-.73-1.38,2.81,2.81,0,0,0-1.66-.48,4,4,0,0,0-.78.08,1.92,1.92,0,0,0-.67.29,1.48,1.48,0,0,0-.48.54A1.8,1.8,0,0,0,728.54,280.26Z"/><path class="cls-5" d="M755.39,294.18a14.25,14.25,0,0,1-1,2.15,4.56,4.56,0,0,1-.89,1.11,1.72,1.72,0,0,1-.86.42,6.62,6.62,0,0,1-.91.06,7.47,7.47,0,0,1-1-.06,1.94,1.94,0,0,1-.91-.41,4.32,4.32,0,0,1-.93-1.1,11.88,11.88,0,0,1-1-2.17L742.52,280a11.84,11.84,0,0,1-.4-1.23,5,5,0,0,1-.18-1.31,4.78,4.78,0,0,1,.18-1.32,2.94,2.94,0,0,1,.59-1.12,2.85,2.85,0,0,1,1-.76,3.91,3.91,0,0,1,1.58-.29,2.66,2.66,0,0,1,1.23.29,3.53,3.53,0,0,1,1,.76,5.53,5.53,0,0,1,.77,1.1,6.34,6.34,0,0,1,.53,1.3l2.68,8.7h.38l2.49-8.7a6.78,6.78,0,0,1,.48-1.23,5.41,5.41,0,0,1,.75-1.11,3.84,3.84,0,0,1,1.06-.8,3,3,0,0,1,1.4-.31,3.17,3.17,0,0,1,1.45.3,2.86,2.86,0,0,1,1,.79,3.4,3.4,0,0,1,.55,1.13,5.4,5.4,0,0,1,0,2.57,10.66,10.66,0,0,1-.42,1.24Z"/><path class="cls-5" d="M783.86,292.51c0,.67,0,1.33-.07,2a5,5,0,0,1-.43,1.74,2.92,2.92,0,0,1-1.08,1.23,3.69,3.69,0,0,1-2,.47,4,4,0,0,1-2.06-.45,3,3,0,0,1-1.1-1.07,3.66,3.66,0,0,1-.44-1.33,9,9,0,0,1-.08-1.17,8.47,8.47,0,0,1-.61,1.41,5.28,5.28,0,0,1-1,1.29,5,5,0,0,1-1.5.94,5.12,5.12,0,0,1-2,.38,8.57,8.57,0,0,1-2.63-.43,6.21,6.21,0,0,1-2.37-1.44,7.45,7.45,0,0,1-1.71-2.62,10.55,10.55,0,0,1-.66-4v-6.94a10.64,10.64,0,0,1,.66-4,7.32,7.32,0,0,1,1.71-2.61,6.28,6.28,0,0,1,2.37-1.42,8.28,8.28,0,0,1,2.63-.43,5.31,5.31,0,0,1,2,.36,5,5,0,0,1,1.5.93,5.28,5.28,0,0,1,1,1.29,8.06,8.06,0,0,1,.61,1.44,5.2,5.2,0,0,1,.33-2,3.34,3.34,0,0,1,.86-1.25,2.84,2.84,0,0,1,1.19-.65,4.91,4.91,0,0,1,1.3-.18,3.44,3.44,0,0,1,1.91.47,2.92,2.92,0,0,1,1.09,1.22,5.06,5.06,0,0,1,.48,1.74,19.42,19.42,0,0,1,.11,2Zm-12.44-3.69c0,.43,0,.86.05,1.27a3.6,3.6,0,0,0,.26,1.13,1.85,1.85,0,0,0,.63.8,2,2,0,0,0,1.16.3,2.53,2.53,0,0,0,1.52-.42,2.72,2.72,0,0,0,.92-1.29,8.52,8.52,0,0,0,.47-2.2c.09-.89.14-2,.16-3.17a12.76,12.76,0,0,0-.14-1.72,7.92,7.92,0,0,0-.46-1.83,4.32,4.32,0,0,0-.94-1.46,2.07,2.07,0,0,0-1.53-.59,2,2,0,0,0-1.16.3,1.82,1.82,0,0,0-.63.77,3.35,3.35,0,0,0-.26,1.09c0,.41-.05.82-.05,1.23Z"/><path class="cls-5" d="M804.87,277.58a3.61,3.61,0,0,1-.92,2.73,3.73,3.73,0,0,1-2.62.86l-.69,0a4.41,4.41,0,0,0-.94.2,4.54,4.54,0,0,0-1,.45,3.56,3.56,0,0,0-.94.81A4.07,4.07,0,0,0,797,284a6.12,6.12,0,0,0-.26,1.89v6.84a17,17,0,0,1-.11,1.91,4.59,4.59,0,0,1-.49,1.67,3,3,0,0,1-1.1,1.18,3.61,3.61,0,0,1-1.94.46,3.43,3.43,0,0,1-1.89-.46,3.08,3.08,0,0,1-1.06-1.18,4.79,4.79,0,0,1-.48-1.67,17,17,0,0,1-.11-1.91V279.3a17.64,17.64,0,0,1,.11-1.95,4.84,4.84,0,0,1,.48-1.68,3,3,0,0,1,1.06-1.19,3.52,3.52,0,0,1,1.89-.44,2.89,2.89,0,0,1,1.88.54,3.18,3.18,0,0,1,1,1.38,6.22,6.22,0,0,1,.36,1.89c0,.7,0,1.37,0,2h.38a11.56,11.56,0,0,1,.88-2.43,8.77,8.77,0,0,1,1.22-1.84,5.11,5.11,0,0,1,1.44-1.16,3.14,3.14,0,0,1,1.53-.41,4.91,4.91,0,0,1,1.52.2,1.94,1.94,0,0,1,.92.64,2.35,2.35,0,0,1,.46,1.1A9.16,9.16,0,0,1,804.87,277.58Z"/><path class="cls-5" d="M816.49,293.94a4,4,0,0,1-1,3,4.88,4.88,0,0,1-5.84,0,4,4,0,0,1-1-3,3.86,3.86,0,0,1,1-3,4.22,4.22,0,0,1,2.94-.93,4.15,4.15,0,0,1,3,.93A4,4,0,0,1,816.49,293.94Z"/><path class="cls-5" d="M849.46,284.71v7.75q0,1-.06,2a5,5,0,0,1-.4,1.75,2.81,2.81,0,0,1-1.09,1.23,4.05,4.05,0,0,1-2.13.47,3.87,3.87,0,0,1-2.07-.47,2.69,2.69,0,0,1-1.06-1.23,5,5,0,0,1-.4-1.75q-.06-1-.06-2V269.88q0-1,.06-2a4.94,4.94,0,0,1,.4-1.75,2.69,2.69,0,0,1,1.06-1.23,3.87,3.87,0,0,1,2.07-.47h7.89a14.19,14.19,0,0,1,5.32,1.24,11.14,11.14,0,0,1,2,1.2,8.11,8.11,0,0,1,1.69,1.76,8.31,8.31,0,0,1,1.21,2.46,10.63,10.63,0,0,1,.46,3.29,11.69,11.69,0,0,1-.8,4.49,8.61,8.61,0,0,1-2.32,3.23,10.12,10.12,0,0,1-3.71,2,17.12,17.12,0,0,1-4.94.66Zm3.26-5.7a5,5,0,0,0,2.15-.57,4,4,0,0,0,.79-.55,3.35,3.35,0,0,0,.69-.83,3.72,3.72,0,0,0,.49-1.16,5.84,5.84,0,0,0,.18-1.53,5.05,5.05,0,0,0-.18-1.42,3.62,3.62,0,0,0-.46-1.05,3.47,3.47,0,0,0-.65-.76,4.51,4.51,0,0,0-.74-.52,5.35,5.35,0,0,0-2-.55h-3.5V279Z"/><path class="cls-5" d="M883.1,277.58a3.58,3.58,0,0,1-.92,2.73,3.71,3.71,0,0,1-2.62.86l-.68,0a4.41,4.41,0,0,0-.94.2,4.54,4.54,0,0,0-1,.45,3.76,3.76,0,0,0-.95.81,4.26,4.26,0,0,0-.69,1.31,5.83,5.83,0,0,0-.26,1.89v6.84a17,17,0,0,1-.11,1.91,4.79,4.79,0,0,1-.49,1.67,3.11,3.11,0,0,1-1.1,1.18,3.64,3.64,0,0,1-1.94.46,3.43,3.43,0,0,1-1.89-.46,3.11,3.11,0,0,1-1.07-1.18,5,5,0,0,1-.47-1.67,17,17,0,0,1-.11-1.91V279.3a17.64,17.64,0,0,1,.11-1.95,5.07,5.07,0,0,1,.47-1.68,3,3,0,0,1,1.07-1.19,3.52,3.52,0,0,1,1.89-.44,2.9,2.9,0,0,1,1.88.54,3.18,3.18,0,0,1,1,1.38,6.89,6.89,0,0,1,.36,1.89c0,.7,0,1.37,0,2H875a11,11,0,0,1,.88-2.43,8.77,8.77,0,0,1,1.22-1.84,5.11,5.11,0,0,1,1.44-1.16,3.14,3.14,0,0,1,1.53-.41,4.91,4.91,0,0,1,1.52.2,1.94,1.94,0,0,1,.92.64A2.45,2.45,0,0,1,883,276,9.16,9.16,0,0,1,883.1,277.58Z"/><path class="cls-5" d="M885.54,283a10.29,10.29,0,0,1,.6-3.74,8.18,8.18,0,0,1,1.55-2.56,7.24,7.24,0,0,1,2.1-1.6,11.7,11.7,0,0,1,2.29-.86,12.39,12.39,0,0,1,2.09-.36c.65-.05,1.15-.07,1.52-.07s.89,0,1.52.07a11.6,11.6,0,0,1,2,.36,10.76,10.76,0,0,1,2.2.86,6.89,6.89,0,0,1,2,1.6,8.23,8.23,0,0,1,1.47,2.56,10.53,10.53,0,0,1,.58,3.74v5.93a10.48,10.48,0,0,1-.58,3.73,8.12,8.12,0,0,1-1.47,2.56,6.93,6.93,0,0,1-2,1.61,10.76,10.76,0,0,1-2.2.86,11.71,11.71,0,0,1-2,.36c-.64,0-1.14.07-1.51.07s-.87,0-1.52-.07a12.39,12.39,0,0,1-2.09-.36,11.7,11.7,0,0,1-2.29-.86,7.28,7.28,0,0,1-2.1-1.61,8.06,8.06,0,0,1-1.55-2.56,10.23,10.23,0,0,1-.6-3.73Zm12-3a2.38,2.38,0,0,0-.72-.48,3.08,3.08,0,0,0-1.14-.19,2.69,2.69,0,0,0-1.62.42,2.85,2.85,0,0,0-.82.9,3.07,3.07,0,0,0-.34,1.31v5.94Zm-3.92,12.3a2.93,2.93,0,0,0,.79.53,3,3,0,0,0,1.27.24,2.67,2.67,0,0,0,1.54-.38,2.38,2.38,0,0,0,.8-.85,2.9,2.9,0,0,0,.34-1.22v-6.46Z"/><path class="cls-5" d="M921.86,294.18a13.31,13.31,0,0,1-1,2.15,4.55,4.55,0,0,1-.88,1.11,1.76,1.76,0,0,1-.86.42,6.62,6.62,0,0,1-.91.06,7.47,7.47,0,0,1-1-.06,1.9,1.9,0,0,1-.91-.41,4.14,4.14,0,0,1-.94-1.1,12,12,0,0,1-1-2.17L909,280q-.21-.57-.39-1.23a5,5,0,0,1-.18-1.31,4.78,4.78,0,0,1,.18-1.32,2.92,2.92,0,0,1,.58-1.12,2.81,2.81,0,0,1,1.06-.76,3.86,3.86,0,0,1,1.57-.29,2.73,2.73,0,0,1,1.24.29,3.49,3.49,0,0,1,1,.76,5.19,5.19,0,0,1,.78,1.1,7,7,0,0,1,.53,1.3l2.68,8.7h.38l2.49-8.7a7.52,7.52,0,0,1,.47-1.23,5.07,5.07,0,0,1,.76-1.11,3.65,3.65,0,0,1,1.05-.8,3,3,0,0,1,1.4-.31,3.22,3.22,0,0,1,1.46.3,2.74,2.74,0,0,1,1,.79,3.05,3.05,0,0,1,.55,1.13,5.37,5.37,0,0,1,.17,1.32,4.87,4.87,0,0,1-.16,1.25,7.88,7.88,0,0,1-.42,1.24Z"/><path class="cls-5" d="M951.29,279.35a18,18,0,0,1,.11-2,4.8,4.8,0,0,1,.49-1.71,3.08,3.08,0,0,1,1.1-1.22,4.24,4.24,0,0,1,3.88,0,3.08,3.08,0,0,1,1.1,1.22,5,5,0,0,1,.49,1.71,18,18,0,0,1,.11,2v13.21a18.29,18.29,0,0,1-.11,2,5,5,0,0,1-.49,1.72,3,3,0,0,1-1.1,1.21,4.32,4.32,0,0,1-3.88,0,3,3,0,0,1-1.1-1.21,4.8,4.8,0,0,1-.49-1.72,18.29,18.29,0,0,1-.11-2Zm7.32-11.29a3.62,3.62,0,0,1-1,2.74,4.48,4.48,0,0,1-5.36,0,4.45,4.45,0,0,1,0-5.52,4.7,4.7,0,0,1,5.42,0A3.76,3.76,0,0,1,958.61,268.06Z"/><path class="cls-5" d="M984.64,298.63a10,10,0,0,1-.58,3.64,7.64,7.64,0,0,1-1.5,2.46,6.87,6.87,0,0,1-2,1.54,11.47,11.47,0,0,1-2.18.82,11.12,11.12,0,0,1-2,.34c-.59,0-1,.06-1.34.06a24.15,24.15,0,0,1-3.39-.24,11,11,0,0,1-3.1-.89,6.57,6.57,0,0,1-2.32-1.74,4.78,4.78,0,0,1-1-2.83,2.59,2.59,0,0,1,.09-.64,1.62,1.62,0,0,1,.43-.69,3,3,0,0,1,1-.55,5.88,5.88,0,0,1,1.82-.22,7.83,7.83,0,0,1,2.13.22,3.2,3.2,0,0,1,1.1.55,1.5,1.5,0,0,1,.46.7c.07.25.15.47.23.68a1.23,1.23,0,0,0,.75.71,4.9,4.9,0,0,0,1.55.2,2.22,2.22,0,0,0,1.4-.41,2.57,2.57,0,0,0,.77-1,3.62,3.62,0,0,0,.34-1.15,7.69,7.69,0,0,0,.07-1V293.9a7.32,7.32,0,0,1-.61,1.43,4.84,4.84,0,0,1-1,1.29,4.79,4.79,0,0,1-1.49.94,5.36,5.36,0,0,1-2,.36,8.67,8.67,0,0,1-2.63-.43,6.42,6.42,0,0,1-2.38-1.43,7.18,7.18,0,0,1-1.73-2.62,10.56,10.56,0,0,1-.67-4v-6.94a10.31,10.31,0,0,1,.67-4,7.35,7.35,0,0,1,1.73-2.62,6.32,6.32,0,0,1,2.38-1.44,8.37,8.37,0,0,1,2.63-.43,5.18,5.18,0,0,1,2,.37,5,5,0,0,1,1.49.95,4.84,4.84,0,0,1,1,1.29,7.71,7.71,0,0,1,.61,1.41,9.28,9.28,0,0,1,.09-1.17,3.43,3.43,0,0,1,.44-1.33,3,3,0,0,1,1.1-1.08,4.07,4.07,0,0,1,2.06-.44,3.69,3.69,0,0,1,2,.47,3,3,0,0,1,1.07,1.23,4.94,4.94,0,0,1,.43,1.73c0,.65.07,1.31.07,2Zm-12.44-9.76c0,.42,0,.83,0,1.25a3.48,3.48,0,0,0,.26,1.11,1.92,1.92,0,0,0,.64.79,2,2,0,0,0,1.16.3,2.07,2.07,0,0,0,1.53-.6,4.11,4.11,0,0,0,.93-1.47,8,8,0,0,0,.47-1.84,12.76,12.76,0,0,0,.13-1.74c0-1.21-.07-2.26-.15-3.16a8.84,8.84,0,0,0-.47-2.21,2.72,2.72,0,0,0-.92-1.29,2.55,2.55,0,0,0-1.52-.42,2,2,0,0,0-1.16.3,1.89,1.89,0,0,0-.64.8,3.54,3.54,0,0,0-.26,1.12c0,.42,0,.84,0,1.27Z"/><path class="cls-5" d="M1009.91,284.28c0,.25,0,.55,0,.9a2,2,0,0,1-.37,1,2.53,2.53,0,0,1-1,.8,4.65,4.65,0,0,1-2,.33H997v2.3a5.75,5.75,0,0,0,.14,1.2,3.61,3.61,0,0,0,.49,1.14,2.6,2.6,0,0,0,2.34,1.2,3.64,3.64,0,0,0,1.47-.23,2.37,2.37,0,0,0,.81-.56,4.83,4.83,0,0,0,.54-.72,3.19,3.19,0,0,1,.63-.71,3.32,3.32,0,0,1,1.1-.57,6.79,6.79,0,0,1,2-.22,7.27,7.27,0,0,1,1.16.09,3,3,0,0,1,1,.36,1.94,1.94,0,0,1,.69.73,2.38,2.38,0,0,1,.27,1.21,3.59,3.59,0,0,1-1,2.59,7,7,0,0,1-2.46,1.67,13.49,13.49,0,0,1-3.22.88,21.21,21.21,0,0,1-3.24.27,15.53,15.53,0,0,1-3.78-.51,9,9,0,0,1-3.17-1.53,7.39,7.39,0,0,1-2.19-2.75,9.61,9.61,0,0,1-.81-4.16v-5.6a12.25,12.25,0,0,1,.53-3.85,8.56,8.56,0,0,1,1.4-2.64,6.72,6.72,0,0,1,1.94-1.63,9.77,9.77,0,0,1,2.18-.88,11.9,11.9,0,0,1,2.09-.36c.67,0,1.24-.07,1.71-.07a17.46,17.46,0,0,1,4.13.43,10.72,10.72,0,0,1,2.86,1.13,6.09,6.09,0,0,1,1.82,1.6,6.85,6.85,0,0,1,1,1.88,7.91,7.91,0,0,1,.43,2,17.58,17.58,0,0,1,.1,1.85ZM997,283.7h6c0-.75,0-1.41-.06-2a3.88,3.88,0,0,0-.36-1.48,2,2,0,0,0-.93-.9,4.16,4.16,0,0,0-1.81-.32,3.15,3.15,0,0,0-1.54.32,2.2,2.2,0,0,0-.85.77,2.62,2.62,0,0,0-.36,1,6.59,6.59,0,0,0-.07.93Z"/><path class="cls-5" d="M1035,292.46a16.45,16.45,0,0,1-.12,2,5.26,5.26,0,0,1-.51,1.75,3.18,3.18,0,0,1-1.13,1.23,3.61,3.61,0,0,1-2,.47,3.55,3.55,0,0,1-1.94-.47,3.11,3.11,0,0,1-1.1-1.23,5.25,5.25,0,0,1-.49-1.75,18.75,18.75,0,0,1-.11-2v-9.33q0-.67-.06-1.32a3.68,3.68,0,0,0-.27-1.13,1.92,1.92,0,0,0-.64-.79,1.87,1.87,0,0,0-1.13-.3,2,2,0,0,0-1.58.64,4.62,4.62,0,0,0-1,1.78,12.31,12.31,0,0,0-.46,2.64q-.12,1.52-.12,3.27v4.54a16.45,16.45,0,0,1-.12,2,5,5,0,0,1-.52,1.75,3.16,3.16,0,0,1-1.12,1.23,3.67,3.67,0,0,1-2,.47,3.51,3.51,0,0,1-1.93-.47,3,3,0,0,1-1.1-1.23,5,5,0,0,1-.49-1.75,16.47,16.47,0,0,1-.11-2V279.4c0-.69,0-1.35.07-2a4.78,4.78,0,0,1,.43-1.72,2.85,2.85,0,0,1,1.09-1.22,3.8,3.8,0,0,1,2-.47,4.07,4.07,0,0,1,2.06.44,3,3,0,0,1,1.11,1.07,3.34,3.34,0,0,1,.47,1.31,8.15,8.15,0,0,1,.1,1.2,6.43,6.43,0,0,1,.59-1.41,5.17,5.17,0,0,1,4.62-2.61,8.28,8.28,0,0,1,2.63.43,6.21,6.21,0,0,1,2.37,1.44,7.15,7.15,0,0,1,1.71,2.63,10.7,10.7,0,0,1,.66,4Z"/><path class="cls-5" d="M1062,273.8a5.74,5.74,0,0,1-.44,2.27,8.2,8.2,0,0,1-1.14,1.89,11.5,11.5,0,0,1-1.54,1.58q-.86.72-1.65,1.32l-1.49,1.11a5,5,0,0,0-1,1,3.71,3.71,0,0,0-.34.58,2,2,0,0,0-.19.9,3,3,0,0,1-.8,2.13,3.33,3.33,0,0,1-2.5.84,3.92,3.92,0,0,1-1.69-.32,3.13,3.13,0,0,1-1-.81,2.75,2.75,0,0,1-.55-1,4,4,0,0,1-.16-1,6.2,6.2,0,0,1,.55-2.73,7,7,0,0,1,1.39-1.9,11.45,11.45,0,0,1,1.8-1.4c.63-.4,1.23-.81,1.79-1.24a6.55,6.55,0,0,0,1.39-1.45,3.49,3.49,0,0,0,.55-2,3.88,3.88,0,0,0-.42-2,2.77,2.77,0,0,0-1-1.06,3.38,3.38,0,0,0-1.27-.44,10.28,10.28,0,0,0-1.11-.08,4.4,4.4,0,0,0-1.91.35,2.7,2.7,0,0,0-1.09.87,2.76,2.76,0,0,0-.48,1.16,7.45,7.45,0,0,0-.11,1.21,3.28,3.28,0,0,1-.36,1.59,3.33,3.33,0,0,1-.89,1.06,3.38,3.38,0,0,1-1.18.6,4,4,0,0,1-1.16.19,3.79,3.79,0,0,1-2.63-.89,3,3,0,0,1-1-2.31,10.69,10.69,0,0,1,.14-1.6,10.82,10.82,0,0,1,.55-2.09,10.34,10.34,0,0,1,1.15-2.2,8.07,8.07,0,0,1,1.94-2,10,10,0,0,1,2.92-1.44,13.45,13.45,0,0,1,4.11-.55,14,14,0,0,1,4.75.73,9.54,9.54,0,0,1,3.41,2,8.39,8.39,0,0,1,2.06,3.11A11,11,0,0,1,1062,273.8Zm-7,20.14a4,4,0,0,1-1,3,4.07,4.07,0,0,1-2.89,1,4.13,4.13,0,0,1-2.94-1,4,4,0,0,1-1-3,3.86,3.86,0,0,1,1-3,4.22,4.22,0,0,1,2.94-.93,4.15,4.15,0,0,1,3,.93A4,4,0,0,1,1055,293.94Z"/><path class="cls-5" d="M329.32,382a18.27,18.27,0,0,1,1.94.1,5.48,5.48,0,0,1,1.77.45,3,3,0,0,1,1.79,3,3.3,3.3,0,0,1-.5,1.93,3.24,3.24,0,0,1-1.29,1.06,5.76,5.76,0,0,1-1.77.46c-.66.06-1.3.09-1.94.09h-5.7v6.22h3c.62,0,1.26,0,1.91.08a5.35,5.35,0,0,1,1.77.4,3.19,3.19,0,0,1,1.31,1.05,3.43,3.43,0,0,1,.51,2,3.47,3.47,0,0,1-.5,2,3.08,3.08,0,0,1-1.29,1.06,5.47,5.47,0,0,1-1.77.4c-.66.05-1.3.08-1.94.08h-3V410c0,.71,0,1.38-.06,2a5.11,5.11,0,0,1-.4,1.76,2.84,2.84,0,0,1-1.09,1.24,3.93,3.93,0,0,1-2.08.47,4,4,0,0,1-2.11-.47,2.81,2.81,0,0,1-1.08-1.24,5.34,5.34,0,0,1-.39-1.76c0-.66-.06-1.33-.06-2V387.52q0-1,.06-2a5.34,5.34,0,0,1,.39-1.76,2.89,2.89,0,0,1,1.08-1.25A3.9,3.9,0,0,1,320,382Z"/><path class="cls-5" d="M337.31,400.59a10.33,10.33,0,0,1,.6-3.74,8.16,8.16,0,0,1,1.54-2.56,7.15,7.15,0,0,1,2.11-1.6,11.62,11.62,0,0,1,2.28-.86,12.56,12.56,0,0,1,2.09-.36c.65-.05,1.16-.07,1.52-.07s.87,0,1.51.07a11.81,11.81,0,0,1,2.05.36,11,11,0,0,1,2.2.86,6.89,6.89,0,0,1,2,1.6,8.23,8.23,0,0,1,1.47,2.56,10.82,10.82,0,0,1,.57,3.74v5.93a10.72,10.72,0,0,1-.57,3.73,8.12,8.12,0,0,1-1.47,2.56,6.93,6.93,0,0,1-2,1.61,11,11,0,0,1-2.2.86,11.81,11.81,0,0,1-2.05.36c-.64,0-1.14.07-1.51.07s-.87,0-1.52-.07a12.56,12.56,0,0,1-2.09-.36,11.62,11.62,0,0,1-2.28-.86,7.19,7.19,0,0,1-2.11-1.61,8,8,0,0,1-1.54-2.56,10.23,10.23,0,0,1-.6-3.73Zm7.37,7.61a2.58,2.58,0,0,0,.33,1.22,2.46,2.46,0,0,0,.83.84,2.88,2.88,0,0,0,1.61.38,2.71,2.71,0,0,0,1.55-.38,2.54,2.54,0,0,0,.8-.84,3,3,0,0,0,.33-1.22v-8.67a3.56,3.56,0,0,0-.33-1.31,3,3,0,0,0-.8-.9,2.49,2.49,0,0,0-1.55-.42,2.64,2.64,0,0,0-1.61.42,2.89,2.89,0,0,0-.83.9,3.06,3.06,0,0,0-.33,1.31Z"/><path class="cls-5" d="M377.55,395.18a3.61,3.61,0,0,1-.92,2.73,3.71,3.71,0,0,1-2.62.86l-.68,0a4.49,4.49,0,0,0-.95.2,4.68,4.68,0,0,0-1,.45,3.6,3.6,0,0,0-.95.81,3.87,3.87,0,0,0-.69,1.31,5.81,5.81,0,0,0-.27,1.89v6.84a17,17,0,0,1-.1,1.91,4.79,4.79,0,0,1-.49,1.67,3.19,3.19,0,0,1-1.1,1.18,3.55,3.55,0,0,1-1.94.46,3.35,3.35,0,0,1-1.89-.46,3.11,3.11,0,0,1-1.07-1.18,5.26,5.26,0,0,1-.48-1.67,17,17,0,0,1-.1-1.91V396.9a17.67,17.67,0,0,1,.1-1.95,5.32,5.32,0,0,1,.48-1.68,3,3,0,0,1,1.07-1.19,3.52,3.52,0,0,1,1.89-.44,2.9,2.9,0,0,1,1.88.54,3.18,3.18,0,0,1,1,1.38,6.55,6.55,0,0,1,.35,1.9c0,.69.05,1.36.05,2h.38a11.57,11.57,0,0,1,.89-2.43,8.4,8.4,0,0,1,1.22-1.84,5.11,5.11,0,0,1,1.44-1.16,3.14,3.14,0,0,1,1.53-.41,4.91,4.91,0,0,1,1.52.2,2,2,0,0,1,.92.64,2.45,2.45,0,0,1,.45,1.1A9.16,9.16,0,0,1,377.55,395.18Z"/><path class="cls-5" d="M419,410.11c0,.67,0,1.33-.07,2a5,5,0,0,1-.43,1.74,2.92,2.92,0,0,1-1.08,1.23,3.69,3.69,0,0,1-2,.47,4,4,0,0,1-2.06-.45,3,3,0,0,1-1.1-1.07,3.6,3.6,0,0,1-.44-1.33,11.28,11.28,0,0,1-.08-1.17,8.47,8.47,0,0,1-.61,1.41,5.05,5.05,0,0,1-1,1.29,5.21,5.21,0,0,1-1.49.95,5.4,5.4,0,0,1-2.05.37,8.57,8.57,0,0,1-2.63-.43,6.21,6.21,0,0,1-2.37-1.44,7.45,7.45,0,0,1-1.71-2.62,10.55,10.55,0,0,1-.66-4v-6.94a10.64,10.64,0,0,1,.66-4,7.41,7.41,0,0,1,1.71-2.61,6.28,6.28,0,0,1,2.37-1.42,8.28,8.28,0,0,1,2.63-.43,5.4,5.4,0,0,1,2.05.36,5,5,0,0,1,1.49.93,5.05,5.05,0,0,1,1,1.29,8.06,8.06,0,0,1,.61,1.44,5.2,5.2,0,0,1,.33-2,3.55,3.55,0,0,1,.86-1.25,3,3,0,0,1,1.19-.65,4.91,4.91,0,0,1,1.3-.18,3.5,3.5,0,0,1,1.92.47,3.12,3.12,0,0,1,1.09,1.22,5.29,5.29,0,0,1,.47,1.74,17,17,0,0,1,.11,2Zm-12.44-3.69c0,.44,0,.86.05,1.27a3.6,3.6,0,0,0,.26,1.13,1.87,1.87,0,0,0,.64.8,1.93,1.93,0,0,0,1.16.3,2.52,2.52,0,0,0,1.51-.42,2.74,2.74,0,0,0,.93-1.29,9,9,0,0,0,.46-2.2c.09-.89.14-1.95.16-3.17a14.43,14.43,0,0,0-.13-1.72,8.47,8.47,0,0,0-.47-1.83,4.3,4.3,0,0,0-.93-1.46,2.1,2.1,0,0,0-1.53-.59,1.93,1.93,0,0,0-1.16.3,1.91,1.91,0,0,0-.64.77,3.35,3.35,0,0,0-.26,1.09c0,.41-.05.82-.05,1.23Z"/><path class="cls-5" d="M427.75,391.59v-4.21a15.76,15.76,0,0,1,.11-2,4.8,4.8,0,0,1,.49-1.71,3.07,3.07,0,0,1,1.1-1.22,4.18,4.18,0,0,1,3.85,0,3,3,0,0,1,1.09,1.22,5.51,5.51,0,0,1,.48,1.71,18,18,0,0,1,.1,2v4.21h2c.41,0,.82,0,1.24.06a2.68,2.68,0,0,1,1.11.35,2.07,2.07,0,0,1,.79.86,3.51,3.51,0,0,1,.3,1.6,3.41,3.41,0,0,1-.3,1.56,2.07,2.07,0,0,1-.79.86,3,3,0,0,1-1.11.37,8.7,8.7,0,0,1-1.24.08h-2v8.38c0,.32,0,.66,0,1a2.78,2.78,0,0,0,.25,1,1.87,1.87,0,0,0,.65.75,2.09,2.09,0,0,0,1.22.3,7,7,0,0,1,1.47.13,2.22,2.22,0,0,1,1,.47,1.92,1.92,0,0,1,.59.93,5.06,5.06,0,0,1,.19,1.53,3,3,0,0,1-.44,1.65,3.54,3.54,0,0,1-1.19,1.15,5.42,5.42,0,0,1-1.72.67,9.78,9.78,0,0,1-2.06.22,10.2,10.2,0,0,1-2.9-.36,5.59,5.59,0,0,1-2-1,4.75,4.75,0,0,1-1.27-1.58,8.26,8.26,0,0,1-.7-2.07,16.78,16.78,0,0,1-.28-2.47q-.06-1.33-.06-2.79v-7.9h-1.34a8.29,8.29,0,0,1-1.23-.08,2.93,2.93,0,0,1-1.09-.37,2.11,2.11,0,0,1-.78-.86,3.41,3.41,0,0,1-.3-1.56,3.51,3.51,0,0,1,.3-1.6,2.11,2.11,0,0,1,.78-.86,2.6,2.6,0,0,1,1.09-.35q.6-.06,1.23-.06Z"/><path class="cls-5" d="M475.79,411.78a14.25,14.25,0,0,1-1,2.15,4.33,4.33,0,0,1-.89,1.11,1.69,1.69,0,0,1-.86.42,6.52,6.52,0,0,1-.91.06,7.59,7.59,0,0,1-1-.06,2,2,0,0,1-.91-.41,4.32,4.32,0,0,1-.93-1.1,11.64,11.64,0,0,1-1-2.17l-5.41-14.16c-.14-.38-.28-.79-.4-1.23a5,5,0,0,1-.18-1.31,4.78,4.78,0,0,1,.18-1.32,2.94,2.94,0,0,1,.59-1.12,2.85,2.85,0,0,1,1.05-.76,3.91,3.91,0,0,1,1.58-.29,2.66,2.66,0,0,1,1.23.29,3.53,3.53,0,0,1,1,.76,6,6,0,0,1,.78,1.1,6.3,6.3,0,0,1,.52,1.3l2.68,8.71h.39l2.48-8.71a7.16,7.16,0,0,1,.48-1.22,4.91,4.91,0,0,1,.76-1.12,3.65,3.65,0,0,1,1.05-.8,3,3,0,0,1,1.4-.31,3.25,3.25,0,0,1,1.46.3,2.83,2.83,0,0,1,1,.79,3.18,3.18,0,0,1,.55,1.14,5.29,5.29,0,0,1,.17,1.31,5.36,5.36,0,0,1-.16,1.25,7.55,7.55,0,0,1-.42,1.24Z"/><path class="cls-5" d="M486.13,397a18,18,0,0,1,.1-2,5,5,0,0,1,.5-1.71,3.07,3.07,0,0,1,1.1-1.22,3.49,3.49,0,0,1,1.93-.47,3.52,3.52,0,0,1,1.94.47,3.07,3.07,0,0,1,1.1,1.22,4.8,4.8,0,0,1,.49,1.71,18,18,0,0,1,.11,2v13.21a18.14,18.14,0,0,1-.11,2,4.8,4.8,0,0,1-.49,1.72,2.92,2.92,0,0,1-1.1,1.21,3.53,3.53,0,0,1-1.94.46,3.49,3.49,0,0,1-1.93-.46,2.92,2.92,0,0,1-1.1-1.21,5,5,0,0,1-.5-1.72,18.17,18.17,0,0,1-.1-2Zm7.32-11.29a3.58,3.58,0,0,1-1,2.74,4.48,4.48,0,0,1-5.36,0,4.45,4.45,0,0,1,0-5.52,3.89,3.89,0,0,1,2.68-.86,3.85,3.85,0,0,1,2.74.86A3.72,3.72,0,0,1,493.45,385.66Z"/><path class="cls-5" d="M520.53,410.06a16.45,16.45,0,0,1-.12,2,5.19,5.19,0,0,1-.51,1.75,3.18,3.18,0,0,1-1.13,1.23,3.61,3.61,0,0,1-2,.47,3.55,3.55,0,0,1-1.94-.47,3.11,3.11,0,0,1-1.1-1.23,5.18,5.18,0,0,1-.49-1.75,18.75,18.75,0,0,1-.11-2v-9.33c0-.45,0-.89-.06-1.31a3.74,3.74,0,0,0-.27-1.14,1.92,1.92,0,0,0-.64-.79,1.87,1.87,0,0,0-1.13-.3,2.08,2.08,0,0,0-1.58.64,4.62,4.62,0,0,0-1,1.78,12.43,12.43,0,0,0-.46,2.64q-.12,1.51-.12,3.27v4.54a16.45,16.45,0,0,1-.12,2,5,5,0,0,1-.52,1.75,3.08,3.08,0,0,1-1.12,1.23,3.67,3.67,0,0,1-2,.47,3.51,3.51,0,0,1-1.93-.47,3,3,0,0,1-1.1-1.23,5,5,0,0,1-.49-1.75,16.47,16.47,0,0,1-.11-2V397c0-.69,0-1.35.07-2a4.78,4.78,0,0,1,.43-1.72,2.91,2.91,0,0,1,1.09-1.22,3.8,3.8,0,0,1,2-.47,4.07,4.07,0,0,1,2.06.44,3,3,0,0,1,1.11,1.07,3.34,3.34,0,0,1,.47,1.31,8.26,8.26,0,0,1,.1,1.2,5.63,5.63,0,0,1,.6-1.41,4.92,4.92,0,0,1,1-1.29,5.13,5.13,0,0,1,3.57-1.32,8.28,8.28,0,0,1,2.63.43,6.21,6.21,0,0,1,2.37,1.44,7.15,7.15,0,0,1,1.71,2.63,10.7,10.7,0,0,1,.66,4Z"/><path class="cls-5" d="M545.08,410.11c0,.67,0,1.33-.07,2a5,5,0,0,1-.43,1.74,2.92,2.92,0,0,1-1.08,1.23,3.69,3.69,0,0,1-2,.47,4,4,0,0,1-2.06-.45,3,3,0,0,1-1.1-1.07,3.6,3.6,0,0,1-.44-1.33,9,9,0,0,1-.08-1.17,8.47,8.47,0,0,1-.61,1.41,5,5,0,0,1-4.56,2.61,8.57,8.57,0,0,1-2.63-.43,6.21,6.21,0,0,1-2.37-1.44,7.45,7.45,0,0,1-1.71-2.62,10.55,10.55,0,0,1-.66-4v-6.94a10.64,10.64,0,0,1,.66-4,7.41,7.41,0,0,1,1.71-2.61,6.28,6.28,0,0,1,2.37-1.42,8.28,8.28,0,0,1,2.63-.43,5.31,5.31,0,0,1,2,.36,5,5,0,0,1,1.5.93,5.28,5.28,0,0,1,1,1.29,8.06,8.06,0,0,1,.61,1.44v-8.18a19.43,19.43,0,0,1,.1-2,5.54,5.54,0,0,1,.48-1.74,3.07,3.07,0,0,1,1.1-1.22,3.72,3.72,0,0,1,2-.47,3.5,3.5,0,0,1,1.92.47,3,3,0,0,1,1.08,1.22,5.06,5.06,0,0,1,.48,1.74,19.42,19.42,0,0,1,.11,2Zm-12.44-3.69c0,.44,0,.86.05,1.27a3.6,3.6,0,0,0,.26,1.13,1.85,1.85,0,0,0,.63.8,2,2,0,0,0,1.16.3,2.53,2.53,0,0,0,1.52-.42,2.72,2.72,0,0,0,.92-1.29,8.52,8.52,0,0,0,.47-2.2c.09-.89.14-1.95.16-3.17a12.76,12.76,0,0,0-.14-1.72,7.92,7.92,0,0,0-.46-1.83,4.45,4.45,0,0,0-.93-1.46,2.11,2.11,0,0,0-1.54-.59,2,2,0,0,0-1.16.3,1.89,1.89,0,0,0-.63.77,3.35,3.35,0,0,0-.26,1.09c0,.41-.05.82-.05,1.23Z"/><path class="cls-5" d="M570.11,401.88c0,.25,0,.55-.05.9a2.08,2.08,0,0,1-.37,1,2.68,2.68,0,0,1-1,.8,4.68,4.68,0,0,1-2,.33h-9.52v2.3a5.15,5.15,0,0,0,.14,1.2,3.77,3.77,0,0,0,.49,1.15,2.82,2.82,0,0,0,.92.86,2.78,2.78,0,0,0,1.41.33,3.58,3.58,0,0,0,1.47-.23,2.2,2.2,0,0,0,.82-.56,4.83,4.83,0,0,0,.54-.72,3.19,3.19,0,0,1,.63-.71,3.22,3.22,0,0,1,1.1-.57,6.7,6.7,0,0,1,1.95-.22,7.27,7.27,0,0,1,1.16.09,2.91,2.91,0,0,1,1,.36,2,2,0,0,1,.7.73,2.52,2.52,0,0,1,.26,1.21,3.67,3.67,0,0,1-1,2.6,7.26,7.26,0,0,1-2.46,1.66,13.62,13.62,0,0,1-3.22.88,21.21,21.21,0,0,1-3.24.27,15.4,15.4,0,0,1-3.78-.51,8.74,8.74,0,0,1-3.17-1.53,7.39,7.39,0,0,1-2.19-2.75,9.46,9.46,0,0,1-.82-4.16V401a12,12,0,0,1,.54-3.85,8.5,8.5,0,0,1,1.4-2.63,6.48,6.48,0,0,1,1.94-1.64A10.06,10.06,0,0,1,556,392a11.9,11.9,0,0,1,2.09-.36c.66,0,1.23-.07,1.71-.07a17.52,17.52,0,0,1,4.13.43,10.72,10.72,0,0,1,2.86,1.13,6.22,6.22,0,0,1,1.82,1.6,7.13,7.13,0,0,1,1,1.88,8.5,8.5,0,0,1,.43,2c.06.66.1,1.28.1,1.86Zm-12.92-.58h6c0-.75,0-1.41-.06-2a3.88,3.88,0,0,0-.36-1.48,2,2,0,0,0-.93-.9,4.21,4.21,0,0,0-1.81-.31,3.16,3.16,0,0,0-1.54.31,2.13,2.13,0,0,0-.85.77,2.62,2.62,0,0,0-.36,1,6.59,6.59,0,0,0-.07.93Z"/><path class="cls-5" d="M614.32,410.06a16.45,16.45,0,0,1-.12,2,5.19,5.19,0,0,1-.51,1.75,3.18,3.18,0,0,1-1.13,1.23,3.61,3.61,0,0,1-2,.47,3.55,3.55,0,0,1-1.94-.47,3.11,3.11,0,0,1-1.1-1.23,5,5,0,0,1-.49-1.75,18.75,18.75,0,0,1-.11-2v-9.33c0-.45,0-.89-.06-1.31a3.74,3.74,0,0,0-.27-1.14,1.92,1.92,0,0,0-.64-.79,1.89,1.89,0,0,0-1.13-.3,2.08,2.08,0,0,0-1.58.64,4.62,4.62,0,0,0-.95,1.78,12.43,12.43,0,0,0-.46,2.64q-.12,1.51-.12,3.27v4.54a16.45,16.45,0,0,1-.12,2,5,5,0,0,1-.52,1.75,3.16,3.16,0,0,1-1.12,1.23,3.67,3.67,0,0,1-2,.47,3.49,3.49,0,0,1-1.93-.47,3,3,0,0,1-1.1-1.23,5.19,5.19,0,0,1-.5-1.75,18.79,18.79,0,0,1-.1-2V397c0-.69,0-1.35.07-2a4.78,4.78,0,0,1,.43-1.72,2.91,2.91,0,0,1,1.09-1.22,3.78,3.78,0,0,1,2-.47,4.07,4.07,0,0,1,2.06.44,3,3,0,0,1,1.11,1.07,3.34,3.34,0,0,1,.47,1.31,10,10,0,0,1,.1,1.2,6,6,0,0,1,.59-1.41,5.17,5.17,0,0,1,1-1.29,5.11,5.11,0,0,1,1.51-1,5.26,5.26,0,0,1,2.06-.37,8.28,8.28,0,0,1,2.63.43,6.21,6.21,0,0,1,2.37,1.44,7.41,7.41,0,0,1,1.71,2.63,10.7,10.7,0,0,1,.66,4Z"/><path class="cls-5" d="M617.62,409.54a6,6,0,0,1,1-3.43,8.35,8.35,0,0,1,2.6-2.4,14.3,14.3,0,0,1,3.65-1.53,28.62,28.62,0,0,1,4.16-.83l1.34-.14v-2.92a2.07,2.07,0,0,0-.52-1.44,2.5,2.5,0,0,0-1.87-.57,3.38,3.38,0,0,0-2.11.51,1.87,1.87,0,0,0-.62,1.5,2.43,2.43,0,0,1-.11.72,1.53,1.53,0,0,1-.51.73,3.17,3.17,0,0,1-1.21.57,8.36,8.36,0,0,1-2.19.23,5.34,5.34,0,0,1-1.86-.26,2.58,2.58,0,0,1-1-.64,1.54,1.54,0,0,1-.38-.78,5,5,0,0,1-.06-.71,5.5,5.5,0,0,1,1-3.33,6.6,6.6,0,0,1,2.39-2,10.24,10.24,0,0,1,3.16-1,20.86,20.86,0,0,1,3.26-.27c.59,0,1.25,0,2,.11a11,11,0,0,1,2.09.4,7.29,7.29,0,0,1,1.85.8,3.74,3.74,0,0,1,1.33,1.32A4.14,4.14,0,0,1,636,393a8.18,8.18,0,0,1,1.52-.81,10.32,10.32,0,0,1,1.65-.49,8,8,0,0,1,1.54-.17,17.05,17.05,0,0,1,3.67.35,10.76,10.76,0,0,1,2.63.92,6.11,6.11,0,0,1,1.75,1.31,6.23,6.23,0,0,1,1,1.51,6.49,6.49,0,0,1,.5,1.57,8.32,8.32,0,0,1,.13,1.42v1.11a3.51,3.51,0,0,1-.54,1.91,4.45,4.45,0,0,1-2,1.52,16.74,16.74,0,0,1-3.92,1.1,52.61,52.61,0,0,1-6.41.63v2.3a5.18,5.18,0,0,0,.15,1.2,3.54,3.54,0,0,0,.49,1.15,2.82,2.82,0,0,0,.92.86,2.78,2.78,0,0,0,1.41.33,4.17,4.17,0,0,0,1-.12,2.42,2.42,0,0,0,.83-.37,2,2,0,0,0,.58-.62,1.7,1.7,0,0,0,.21-.85,2.86,2.86,0,0,1,.11-.71,1.47,1.47,0,0,1,.52-.74,3.19,3.19,0,0,1,1.2-.57,8.46,8.46,0,0,1,2.19-.23,5.44,5.44,0,0,1,1.87.26,2.46,2.46,0,0,1,1,.64,1.48,1.48,0,0,1,.39.78,6.72,6.72,0,0,1,0,.71,5.35,5.35,0,0,1-.49,2.38,5.94,5.94,0,0,1-1.26,1.76,6.65,6.65,0,0,1-1.76,1.21,13.55,13.55,0,0,1-2,.75,10.75,10.75,0,0,1-1.88.4,13.53,13.53,0,0,1-1.5.11,15.51,15.51,0,0,1-1.9-.12,10.23,10.23,0,0,1-1.9-.42,8.59,8.59,0,0,1-1.8-.83,6.69,6.69,0,0,1-1.58-1.36,4.77,4.77,0,0,1-1.41,1.45,6.42,6.42,0,0,1-1.78.82,9.69,9.69,0,0,1-2.09.37c-.75.06-1.53.09-2.32.09a18.83,18.83,0,0,1-4.32-.43,8.56,8.56,0,0,1-2.87-1.22,4.65,4.65,0,0,1-1.61-1.89A6.08,6.08,0,0,1,617.62,409.54Zm12.73-4.22a9.12,9.12,0,0,0-2,.33,6.52,6.52,0,0,0-1.78.77,4.43,4.43,0,0,0-1.3,1.25,3.1,3.1,0,0,0-.5,1.77,1,1,0,0,0,.53,1,2.94,2.94,0,0,0,1.29.25,5.65,5.65,0,0,0,1.79-.24,2.79,2.79,0,0,0,1.15-.69,2.55,2.55,0,0,0,.61-1.09,5.2,5.2,0,0,0,.18-1.42Zm13.26-6.46a2.47,2.47,0,0,0-.25-1.12,2.49,2.49,0,0,0-.67-.8,3,3,0,0,0-1-.49,3.49,3.49,0,0,0-1-.17,3,3,0,0,0-1.75.43,2.62,2.62,0,0,0-.91,1.08,4.25,4.25,0,0,0-.35,1.38c0,.5-.06.95-.06,1.37V401l2.45-.18a18.82,18.82,0,0,0,1.89-.23,3.72,3.72,0,0,0,1.22-.39.81.81,0,0,0,.43-.73Z"/><path class="cls-5" d="M661,397.86a1.44,1.44,0,0,0,.31.89,3.39,3.39,0,0,0,.85.77,10.7,10.7,0,0,0,1.24.73l1.47.72q1.17.57,2.4,1.23a12.07,12.07,0,0,1,2.22,1.55,7.33,7.33,0,0,1,1.64,2,5.66,5.66,0,0,1,.63,2.74,7.12,7.12,0,0,1-.42,2.54,6.13,6.13,0,0,1-2.72,3.23,9.22,9.22,0,0,1-1.94.83,12.33,12.33,0,0,1-2.07.45,17.61,17.61,0,0,1-2,.13,15,15,0,0,1-3.2-.31,9.63,9.63,0,0,1-2.35-.83,6.14,6.14,0,0,1-1.61-1.17,5.75,5.75,0,0,1-1-1.38,6.35,6.35,0,0,1-.5-1.42,7,7,0,0,1-.14-1.3,2.62,2.62,0,0,1,.8-2.11,3.73,3.73,0,0,1,2.45-.67,2.93,2.93,0,0,1,2,.65,2.69,2.69,0,0,1,.82,2.08,1.2,1.2,0,0,0,.27.76,1.85,1.85,0,0,0,.65.47,2.93,2.93,0,0,0,.87.24,7.54,7.54,0,0,0,.94.06,2.29,2.29,0,0,0,1.52-.49,1.59,1.59,0,0,0,.58-1.28,2.23,2.23,0,0,0-.39-1.26,5.06,5.06,0,0,0-1-1.09,13.53,13.53,0,0,0-1.48-1l-1.68-.95c-.72-.38-1.44-.79-2.17-1.22a12.63,12.63,0,0,1-2-1.44,6.79,6.79,0,0,1-1.44-1.78,4.64,4.64,0,0,1-.55-2.26,7.23,7.23,0,0,1,.61-3.12,5.09,5.09,0,0,1,1.78-2,8.3,8.3,0,0,1,2.86-1.11,22.68,22.68,0,0,1,3.84-.38h.39a14.09,14.09,0,0,1,3.29.33,8.45,8.45,0,0,1,2.25.88,5.15,5.15,0,0,1,1.41,1.21,4.83,4.83,0,0,1,.76,1.35,5.1,5.1,0,0,1,.31,1.3q.06.63.06,1a2,2,0,0,1-1.08,1.93,3.53,3.53,0,0,1-1.12.38A7.62,7.62,0,0,1,668,400a2.68,2.68,0,0,1-1-.19,2.54,2.54,0,0,1-.8-.48,2,2,0,0,1-.52-.64,1.54,1.54,0,0,1-.18-.69,1.71,1.71,0,0,0-.72-1.39,2.84,2.84,0,0,0-1.67-.48,4,4,0,0,0-.78.08,2,2,0,0,0-.67.29,1.55,1.55,0,0,0-.47.54A1.8,1.8,0,0,0,661,397.86Z"/><path class="cls-5" d="M679.69,391.59v-4.21a18,18,0,0,1,.1-2,5.25,5.25,0,0,1,.49-1.71,3.18,3.18,0,0,1,1.11-1.22,4.18,4.18,0,0,1,3.85,0,3,3,0,0,1,1.09,1.22,5.25,5.25,0,0,1,.47,1.71,15.76,15.76,0,0,1,.11,2v4.21h2c.42,0,.83,0,1.25.06a2.73,2.73,0,0,1,1.11.35,2.07,2.07,0,0,1,.79.86,3.51,3.51,0,0,1,.3,1.6A3.41,3.41,0,0,1,692,396a2.07,2.07,0,0,1-.79.86,3.1,3.1,0,0,1-1.11.37,8.75,8.75,0,0,1-1.25.08h-2v8.38c0,.32,0,.66,0,1a2.78,2.78,0,0,0,.25,1,1.87,1.87,0,0,0,.65.75,2.09,2.09,0,0,0,1.22.3,7,7,0,0,1,1.47.13,2.22,2.22,0,0,1,1,.47,2,2,0,0,1,.59.93,5.06,5.06,0,0,1,.19,1.53,3,3,0,0,1-.44,1.65,3.54,3.54,0,0,1-1.19,1.15,5.51,5.51,0,0,1-1.72.67,9.78,9.78,0,0,1-2.06.22,10.33,10.33,0,0,1-2.91-.36,5.63,5.63,0,0,1-2-1,4.75,4.75,0,0,1-1.27-1.58,8.26,8.26,0,0,1-.7-2.07,16.78,16.78,0,0,1-.28-2.47q-.06-1.33-.06-2.79v-7.9h-1.34a8.52,8.52,0,0,1-1.24-.08,2.88,2.88,0,0,1-1.08-.37,2.11,2.11,0,0,1-.78-.86,3.41,3.41,0,0,1-.3-1.56,3.51,3.51,0,0,1,.3-1.6A2.11,2.11,0,0,1,676,392a2.55,2.55,0,0,1,1.08-.35c.41,0,.82-.06,1.24-.06Z"/><path class="cls-5" d="M716.72,401.88c0,.25,0,.55,0,.9a2.09,2.09,0,0,1-.38,1,2.56,2.56,0,0,1-1,.8,4.68,4.68,0,0,1-2,.33H703.8v2.3a5.18,5.18,0,0,0,.15,1.2,3.54,3.54,0,0,0,.49,1.15,2.82,2.82,0,0,0,.92.86,2.78,2.78,0,0,0,1.41.33,3.58,3.58,0,0,0,1.47-.23,2.29,2.29,0,0,0,.82-.56,5.57,5.57,0,0,0,.53-.72,3,3,0,0,1,.64-.71,3.22,3.22,0,0,1,1.1-.57,6.7,6.7,0,0,1,1.95-.22,7.36,7.36,0,0,1,1.16.09,3.07,3.07,0,0,1,1,.36,2,2,0,0,1,.7.73,2.52,2.52,0,0,1,.26,1.21,3.67,3.67,0,0,1-1,2.6,7.3,7.3,0,0,1-2.47,1.66,13.53,13.53,0,0,1-3.21.88,21.23,21.23,0,0,1-3.25.27,15.53,15.53,0,0,1-3.78-.51,8.9,8.9,0,0,1-3.17-1.53,7.6,7.6,0,0,1-2.19-2.75,9.61,9.61,0,0,1-.81-4.16V401a12,12,0,0,1,.54-3.85,8.3,8.3,0,0,1,1.4-2.63,6.36,6.36,0,0,1,1.94-1.64,10,10,0,0,1,2.17-.88,12.16,12.16,0,0,1,2.1-.36c.66,0,1.23-.07,1.71-.07a17.43,17.43,0,0,1,4.12.43,10.46,10.46,0,0,1,2.86,1.13,6,6,0,0,1,1.82,1.6,7.17,7.17,0,0,1,1,1.88,9.06,9.06,0,0,1,.43,2q.09,1,.09,1.86Zm-12.92-.58h6c0-.75,0-1.41-.06-2a3.88,3.88,0,0,0-.36-1.48,2,2,0,0,0-.94-.9,4.13,4.13,0,0,0-1.8-.31,3.2,3.2,0,0,0-1.55.31,2.28,2.28,0,0,0-.85.77,2.45,2.45,0,0,0-.35,1,6.74,6.74,0,0,0-.08.93Z"/><path class="cls-5" d="M759.89,416.23a10,10,0,0,1-.59,3.64,7.64,7.64,0,0,1-1.5,2.46,6.87,6.87,0,0,1-2,1.54,11.65,11.65,0,0,1-2.17.82,10.26,10.26,0,0,1-2,.34c-.6,0-1,.06-1.34.06a24.19,24.19,0,0,1-3.4-.24,11.07,11.07,0,0,1-3.1-.89,6.57,6.57,0,0,1-2.32-1.74,4.78,4.78,0,0,1-1-2.83,2.65,2.65,0,0,1,.09-.64,1.62,1.62,0,0,1,.43-.69,3,3,0,0,1,1-.55,5.93,5.93,0,0,1,1.82-.22,7.83,7.83,0,0,1,2.13.22,3.2,3.2,0,0,1,1.1.55,1.5,1.5,0,0,1,.46.7c.08.25.15.47.23.68a1.2,1.2,0,0,0,.76.71,4.78,4.78,0,0,0,1.54.2,2.22,2.22,0,0,0,1.4-.41,2.7,2.7,0,0,0,.78-1,3.91,3.91,0,0,0,.33-1.14,8,8,0,0,0,.07-1V411.5a6.76,6.76,0,0,1-.61,1.43,4.94,4.94,0,0,1-2.51,2.23,5.33,5.33,0,0,1-2,.36,8.67,8.67,0,0,1-2.63-.43,6.51,6.51,0,0,1-2.38-1.43A7.18,7.18,0,0,1,740.7,411a10.56,10.56,0,0,1-.67-4v-6.94a10.31,10.31,0,0,1,.67-4,7.35,7.35,0,0,1,1.73-2.62,6.4,6.4,0,0,1,2.38-1.44,8.37,8.37,0,0,1,2.63-.43,5,5,0,0,1,3.55,1.32,5,5,0,0,1,1,1.29,7.08,7.08,0,0,1,.61,1.41,9.28,9.28,0,0,1,.09-1.17,3.43,3.43,0,0,1,.44-1.33,3,3,0,0,1,1.1-1.08,4.07,4.07,0,0,1,2.06-.44,3.69,3.69,0,0,1,2,.47,2.89,2.89,0,0,1,1.07,1.23,4.74,4.74,0,0,1,.43,1.73c.05.65.08,1.31.08,2Zm-12.45-9.76c0,.42,0,.83,0,1.25a3.23,3.23,0,0,0,.27,1.11,1.82,1.82,0,0,0,.63.79,2,2,0,0,0,1.16.3,2.07,2.07,0,0,0,1.53-.6,4.11,4.11,0,0,0,.93-1.47,8,8,0,0,0,.47-1.84,12.76,12.76,0,0,0,.13-1.74c0-1.21-.07-2.26-.15-3.16a8.84,8.84,0,0,0-.47-2.21,2.72,2.72,0,0,0-.92-1.29,2.55,2.55,0,0,0-1.52-.42,2,2,0,0,0-1.16.3,1.85,1.85,0,0,0-.63.8,3.29,3.29,0,0,0-.27,1.13c0,.41,0,.83,0,1.26Z"/><path class="cls-5" d="M784.58,410.11c0,.67,0,1.33-.07,2a5,5,0,0,1-.44,1.74,2.83,2.83,0,0,1-1.07,1.23,3.69,3.69,0,0,1-2,.47,4,4,0,0,1-2.06-.45,3,3,0,0,1-1.1-1.07,3.43,3.43,0,0,1-.44-1.33,9.28,9.28,0,0,1-.09-1.17,7.08,7.08,0,0,1-.61,1.41,5,5,0,0,1-1,1.29,5.41,5.41,0,0,1-1.5.95,5.31,5.31,0,0,1-2,.37,8.68,8.68,0,0,1-2.64-.43,6.25,6.25,0,0,1-2.36-1.44,7.33,7.33,0,0,1-1.72-2.62,10.76,10.76,0,0,1-.65-4v-6.94a10.86,10.86,0,0,1,.65-4,7.29,7.29,0,0,1,1.72-2.61,6.32,6.32,0,0,1,2.36-1.42,8.38,8.38,0,0,1,2.64-.43,5.31,5.31,0,0,1,2,.36,5.14,5.14,0,0,1,1.5.93,5,5,0,0,1,1,1.29,6.83,6.83,0,0,1,.61,1.44,5.19,5.19,0,0,1,.34-2,3.43,3.43,0,0,1,.86-1.25,3,3,0,0,1,1.18-.65,5,5,0,0,1,1.31-.18,3.46,3.46,0,0,1,1.91.47,3,3,0,0,1,1.09,1.22,5.06,5.06,0,0,1,.48,1.74,19.42,19.42,0,0,1,.11,2Zm-12.44-3.69c0,.44,0,.86,0,1.27a3.6,3.6,0,0,0,.27,1.13,1.85,1.85,0,0,0,.63.8,2,2,0,0,0,1.16.3,2.55,2.55,0,0,0,1.52-.42,2.72,2.72,0,0,0,.92-1.29,9,9,0,0,0,.47-2.2c.09-.89.14-1.95.15-3.17a12.6,12.6,0,0,0-.13-1.72,8.46,8.46,0,0,0-.46-1.83,4.32,4.32,0,0,0-.94-1.46,2.1,2.1,0,0,0-1.53-.59,2,2,0,0,0-1.16.3,1.89,1.89,0,0,0-.63.77,3.36,3.36,0,0,0-.27,1.09c0,.41,0,.82,0,1.23Z"/><path class="cls-5" d="M810.27,410.06a16.45,16.45,0,0,1-.12,2,5.19,5.19,0,0,1-.51,1.75,3.11,3.11,0,0,1-1.13,1.23,3.61,3.61,0,0,1-2,.47,3.55,3.55,0,0,1-1.94-.47,3.11,3.11,0,0,1-1.1-1.23,5.18,5.18,0,0,1-.49-1.75,18.75,18.75,0,0,1-.11-2v-9.33c0-.45,0-.89-.06-1.31a3.74,3.74,0,0,0-.27-1.14,1.9,1.9,0,0,0-.63-.79,1.93,1.93,0,0,0-1.14-.3,2.08,2.08,0,0,0-1.58.64,4.75,4.75,0,0,0-1,1.78,12.43,12.43,0,0,0-.46,2.64q-.12,1.51-.12,3.27v4.54a16.45,16.45,0,0,1-.12,2,5,5,0,0,1-.52,1.75,3.08,3.08,0,0,1-1.12,1.23,3.63,3.63,0,0,1-2,.47,3.52,3.52,0,0,1-1.94-.47,3,3,0,0,1-1.1-1.23,5,5,0,0,1-.49-1.75,18.75,18.75,0,0,1-.11-2V397c0-.69,0-1.35.07-2a4.78,4.78,0,0,1,.43-1.72,2.91,2.91,0,0,1,1.09-1.22,3.82,3.82,0,0,1,2.05-.47,4.05,4.05,0,0,1,2,.44,3.12,3.12,0,0,1,1.12,1.07,3.48,3.48,0,0,1,.46,1.31,8.26,8.26,0,0,1,.1,1.2,6.48,6.48,0,0,1,.6-1.41,4.92,4.92,0,0,1,1-1.29,5.13,5.13,0,0,1,3.57-1.32,8.38,8.38,0,0,1,2.64.43,6.25,6.25,0,0,1,2.36,1.44,7.29,7.29,0,0,1,1.72,2.63,10.92,10.92,0,0,1,.65,4Z"/><path class="cls-5" d="M835.11,416.23a10,10,0,0,1-.59,3.64,7.8,7.8,0,0,1-1.49,2.46,6.91,6.91,0,0,1-2,1.54,11.39,11.39,0,0,1-2.17.82,10.26,10.26,0,0,1-2,.34c-.59,0-1,.06-1.34.06a24.29,24.29,0,0,1-3.4-.24A11.17,11.17,0,0,1,819,424a6.66,6.66,0,0,1-2.32-1.74,4.85,4.85,0,0,1-1-2.83,2.28,2.28,0,0,1,.1-.64,1.45,1.45,0,0,1,.43-.69,2.89,2.89,0,0,1,1-.55,5.93,5.93,0,0,1,1.82-.22,7.73,7.73,0,0,1,2.13.22,3.2,3.2,0,0,1,1.1.55,1.53,1.53,0,0,1,.47.7c.07.25.14.47.22.68a1.2,1.2,0,0,0,.76.71,4.83,4.83,0,0,0,1.54.2,2.2,2.2,0,0,0,1.4-.41,2.7,2.7,0,0,0,.78-1,3.62,3.62,0,0,0,.33-1.14,8,8,0,0,0,.07-1V411.5a6.76,6.76,0,0,1-.61,1.43,4.94,4.94,0,0,1-2.51,2.23,5.31,5.31,0,0,1-2,.36,8.57,8.57,0,0,1-2.63-.43,6.46,6.46,0,0,1-2.39-1.43,7.31,7.31,0,0,1-1.73-2.62,10.56,10.56,0,0,1-.67-4v-6.94a10.31,10.31,0,0,1,.67-4,7.49,7.49,0,0,1,1.73-2.62A6.36,6.36,0,0,1,820,392a8.28,8.28,0,0,1,2.63-.43,5.12,5.12,0,0,1,2,.37,5.19,5.19,0,0,1,1.5,1,5,5,0,0,1,1,1.29,7.08,7.08,0,0,1,.61,1.41,9.28,9.28,0,0,1,.09-1.17,3.43,3.43,0,0,1,.44-1.33,3.08,3.08,0,0,1,1.1-1.08,4.09,4.09,0,0,1,2.06-.44,3.69,3.69,0,0,1,2,.47,2.92,2.92,0,0,1,1.08,1.23A4.94,4.94,0,0,1,835,395c0,.65.07,1.31.07,2Zm-12.44-9.76c0,.42,0,.83,0,1.25a3.48,3.48,0,0,0,.27,1.11,1.82,1.82,0,0,0,.63.79,2,2,0,0,0,1.16.3,2.07,2.07,0,0,0,1.53-.6,4.27,4.27,0,0,0,.94-1.47,8,8,0,0,0,.46-1.84,12.76,12.76,0,0,0,.13-1.74c0-1.21-.06-2.26-.15-3.16a8.42,8.42,0,0,0-.47-2.21,2.72,2.72,0,0,0-.92-1.29,2.55,2.55,0,0,0-1.52-.42,2,2,0,0,0-1.16.3,1.85,1.85,0,0,0-.63.8,3.54,3.54,0,0,0-.27,1.13c0,.41,0,.83,0,1.26Z"/><path class="cls-5" d="M849.08,411.54a14,14,0,0,1-.26,2.55,11.42,11.42,0,0,1-.8,2.56,6.57,6.57,0,0,1-1.37,2,2.69,2.69,0,0,1-1.92.8,1.28,1.28,0,0,1-.78-.29,1.06,1.06,0,0,1-.37-.91v-.19a1.35,1.35,0,0,1,.14-.49c.08-.17.17-.33.26-.49s.18-.32.26-.48a1.21,1.21,0,0,0,.1-.5.51.51,0,0,0-.24-.43c-.16-.11-.35-.23-.58-.36l-.76-.44a3.12,3.12,0,0,1-.75-.67,3.74,3.74,0,0,1-.59-1.05,4.88,4.88,0,0,1-.23-1.6,3.89,3.89,0,0,1,1-3,4.26,4.26,0,0,1,2.95-.93,4.11,4.11,0,0,1,3,.93A4,4,0,0,1,849.08,411.54Z"/><path class="cls-5" d="M874.73,387.33a18,18,0,0,1,.11-2,4.75,4.75,0,0,1,.49-1.7,3,3,0,0,1,1.1-1.19,3.53,3.53,0,0,1,1.94-.46,3.58,3.58,0,0,1,2,.46,3,3,0,0,1,1.09,1.19,5.44,5.44,0,0,1,.48,1.7,18,18,0,0,1,.1,2v22.83a18.17,18.17,0,0,1-.1,2,5.49,5.49,0,0,1-.48,1.72,2.9,2.9,0,0,1-1.09,1.21,3.58,3.58,0,0,1-2,.46,3.53,3.53,0,0,1-1.94-.46,2.92,2.92,0,0,1-1.1-1.21,4.8,4.8,0,0,1-.49-1.72,18.14,18.14,0,0,1-.11-2Z"/><path class="cls-5" d="M885.93,409.54a5.89,5.89,0,0,1,1-3.43,8.31,8.31,0,0,1,2.59-2.4,14.46,14.46,0,0,1,3.65-1.53,29,29,0,0,1,4.17-.83l1.34-.14v-2.92a2.08,2.08,0,0,0-.53-1.44,2.47,2.47,0,0,0-1.87-.57,3.33,3.33,0,0,0-2.1.51,1.84,1.84,0,0,0-.62,1.5,2.8,2.8,0,0,1-.11.72,1.56,1.56,0,0,1-.52.73,3.19,3.19,0,0,1-1.2.57,8.46,8.46,0,0,1-2.19.23,5.44,5.44,0,0,1-1.87-.26,2.46,2.46,0,0,1-1-.64,1.48,1.48,0,0,1-.39-.78,5,5,0,0,1-.06-.71,5.5,5.5,0,0,1,.95-3.33,6.68,6.68,0,0,1,2.39-2,10.33,10.33,0,0,1,3.16-1,21,21,0,0,1,3.27-.27c.59,0,1.24,0,2,.11a10.93,10.93,0,0,1,2.08.4,7.14,7.14,0,0,1,1.85.8,3.74,3.74,0,0,1,1.33,1.32,4.33,4.33,0,0,1,1.14-1.16,7.88,7.88,0,0,1,1.52-.81,9.74,9.74,0,0,1,1.65-.49,8,8,0,0,1,1.53-.17,17,17,0,0,1,3.67.35,10.61,10.61,0,0,1,2.63.92,6.11,6.11,0,0,1,1.75,1.31,6.23,6.23,0,0,1,1,1.51,6.08,6.08,0,0,1,.5,1.57,8.32,8.32,0,0,1,.13,1.42v1.11a3.51,3.51,0,0,1-.54,1.91,4.39,4.39,0,0,1-2,1.52,16.6,16.6,0,0,1-3.92,1.1,52.42,52.42,0,0,1-6.4.63v2.3a5.75,5.75,0,0,0,.14,1.2,3.77,3.77,0,0,0,.49,1.15,2.63,2.63,0,0,0,2.34,1.19,4.09,4.09,0,0,0,1-.12,2.47,2.47,0,0,0,.84-.37,1.87,1.87,0,0,0,.57-.62,1.61,1.61,0,0,0,.22-.85,2.81,2.81,0,0,1,.1-.71,1.6,1.6,0,0,1,.52-.74,3.17,3.17,0,0,1,1.21-.57,8.36,8.36,0,0,1,2.19-.23,5.37,5.37,0,0,1,1.86.26,2.58,2.58,0,0,1,1,.64,1.54,1.54,0,0,1,.38.78,5,5,0,0,1,.06.71,5.49,5.49,0,0,1-.49,2.38,6,6,0,0,1-1.27,1.76,6.49,6.49,0,0,1-1.76,1.21,13.12,13.12,0,0,1-2,.75,10.56,10.56,0,0,1-1.88.4,13.54,13.54,0,0,1-1.49.11,15.55,15.55,0,0,1-1.91-.12,10.41,10.41,0,0,1-1.9-.42,8.29,8.29,0,0,1-1.79-.83,6.49,6.49,0,0,1-1.58-1.36,5,5,0,0,1-1.41,1.45,6.62,6.62,0,0,1-1.79.82,9.58,9.58,0,0,1-2.09.37c-.75.06-1.52.09-2.32.09a18.83,18.83,0,0,1-4.32-.43,8.56,8.56,0,0,1-2.87-1.22,4.62,4.62,0,0,1-1.6-1.89A5.91,5.91,0,0,1,885.93,409.54Zm12.73-4.22a9.1,9.1,0,0,0-2,.33,6.66,6.66,0,0,0-1.78.77,4.28,4.28,0,0,0-1.29,1.25,3,3,0,0,0-.51,1.77,1,1,0,0,0,.53,1,2.94,2.94,0,0,0,1.29.25,5.77,5.77,0,0,0,1.8-.24,2.79,2.79,0,0,0,1.15-.69,2.66,2.66,0,0,0,.61-1.09,5.2,5.2,0,0,0,.18-1.42Zm13.25-6.46a2.34,2.34,0,0,0-.25-1.12,2.37,2.37,0,0,0-.67-.8,3,3,0,0,0-1-.49,3.49,3.49,0,0,0-1-.17,3,3,0,0,0-1.75.43,2.59,2.59,0,0,0-.9,1.08,4,4,0,0,0-.35,1.38c0,.5-.06.95-.06,1.37V401l2.44-.18a18.82,18.82,0,0,0,1.89-.23,3.64,3.64,0,0,0,1.22-.39.79.79,0,0,0,.43-.73Z"/><path class="cls-5" d="M929.28,397.86a1.44,1.44,0,0,0,.31.89,3.58,3.58,0,0,0,.85.77,10.7,10.7,0,0,0,1.24.73l1.48.72c.78.38,1.58.79,2.39,1.23a12.07,12.07,0,0,1,2.22,1.55,7.33,7.33,0,0,1,1.64,2,5.66,5.66,0,0,1,.64,2.74,7.12,7.12,0,0,1-.42,2.54,6.09,6.09,0,0,1-2.73,3.23,9,9,0,0,1-1.94.83,12.33,12.33,0,0,1-2.07.45,17.59,17.59,0,0,1-2,.13,15.05,15.05,0,0,1-3.21-.31,9.4,9.4,0,0,1-2.34-.83,6,6,0,0,1-1.62-1.17,5.7,5.7,0,0,1-1-1.38,5.49,5.49,0,0,1-.5-1.42,6.33,6.33,0,0,1-.15-1.3,2.62,2.62,0,0,1,.8-2.11,3.78,3.78,0,0,1,2.46-.67,3,3,0,0,1,2,.65,2.69,2.69,0,0,1,.81,2.08,1.21,1.21,0,0,0,.28.76,1.72,1.72,0,0,0,.64.47,3.09,3.09,0,0,0,.88.24,7.5,7.5,0,0,0,.93.06,2.28,2.28,0,0,0,1.52-.49A1.59,1.59,0,0,0,933,409a2.23,2.23,0,0,0-.39-1.26,4.83,4.83,0,0,0-1-1.09,12.47,12.47,0,0,0-1.47-1c-.55-.32-1.11-.63-1.69-.95s-1.44-.79-2.16-1.22a12.27,12.27,0,0,1-2-1.44,6.56,6.56,0,0,1-1.43-1.78,4.53,4.53,0,0,1-.55-2.26,7.08,7.08,0,0,1,.61-3.12,5,5,0,0,1,1.78-2,8.14,8.14,0,0,1,2.86-1.11,22.47,22.47,0,0,1,3.84-.38h.38a14.09,14.09,0,0,1,3.29.33,8.45,8.45,0,0,1,2.25.88,4.87,4.87,0,0,1,1.41,1.21,5.13,5.13,0,0,1,.77,1.35,5.55,5.55,0,0,1,.31,1.3q.06.63.06,1a2.05,2.05,0,0,1-1.09,1.93,3.55,3.55,0,0,1-1.11.38,7.85,7.85,0,0,1-1.3.13,2.78,2.78,0,0,1-1.84-.67,2.06,2.06,0,0,1-.51-.64,1.54,1.54,0,0,1-.18-.69,1.72,1.72,0,0,0-.73-1.39,2.83,2.83,0,0,0-1.66-.48,3.89,3.89,0,0,0-.78.08,1.92,1.92,0,0,0-.67.29,1.48,1.48,0,0,0-.48.54A1.8,1.8,0,0,0,929.28,397.86Z"/><path class="cls-5" d="M980.24,415.52a3.55,3.55,0,0,1-1.94-.47,3.19,3.19,0,0,1-1.1-1.23,5.43,5.43,0,0,1-.49-1.74,18.17,18.17,0,0,1-.1-2v-9.48c0-.43,0-.85-.06-1.26a3.48,3.48,0,0,0-.28-1.1,1.85,1.85,0,0,0-.63-.78,1.93,1.93,0,0,0-1.14-.3,2,2,0,0,0-1.55.64,4.6,4.6,0,0,0-1,1.76,12.92,12.92,0,0,0-.48,2.62c-.09,1-.13,2.09-.13,3.26v4.64a18.14,18.14,0,0,1-.11,2,5.19,5.19,0,0,1-.48,1.74,2.94,2.94,0,0,1-1.09,1.23,4.32,4.32,0,0,1-3.92,0,3,3,0,0,1-1.09-1.23,5.7,5.7,0,0,1-.48-1.74,18.17,18.17,0,0,1-.1-2V397c0-.67,0-1.33.08-2a5.18,5.18,0,0,1,.44-1.73,2.88,2.88,0,0,1,1.09-1.23,3.75,3.75,0,0,1,2-.47,4,4,0,0,1,2,.44,3,3,0,0,1,1.09,1.08,3.41,3.41,0,0,1,.43,1.33,10.94,10.94,0,0,1,.07,1.17,5.67,5.67,0,0,1,.68-1.41,5.36,5.36,0,0,1,1.19-1.29,6.19,6.19,0,0,1,1.65-1,5.51,5.51,0,0,1,2.08-.37,6.44,6.44,0,0,1,5.6,3.25,4.14,4.14,0,0,1,1-1.42,6.59,6.59,0,0,1,1.58-1,8.89,8.89,0,0,1,1.89-.61,10.39,10.39,0,0,1,2-.2,8.38,8.38,0,0,1,2.64.43,6.36,6.36,0,0,1,2.37,1.44,7.45,7.45,0,0,1,1.71,2.62,10.73,10.73,0,0,1,.65,4v10.05a15.91,15.91,0,0,1-.12,2,5.2,5.2,0,0,1-.5,1.74,3,3,0,0,1-1.11,1.23,4.32,4.32,0,0,1-3.92,0,3.08,3.08,0,0,1-1.12-1.23,5.19,5.19,0,0,1-.49-1.74,18.14,18.14,0,0,1-.11-2v-9.48a10.41,10.41,0,0,0-.07-1.26,3.77,3.77,0,0,0-.28-1.1,1.9,1.9,0,0,0-.65-.78,2,2,0,0,0-1.15-.3,1.88,1.88,0,0,0-1.3.48,3.71,3.71,0,0,0-.9,1.31,8.86,8.86,0,0,0-.55,2,21,21,0,0,0-.26,2.53v6.6a18.14,18.14,0,0,1-.11,2,5.19,5.19,0,0,1-.49,1.74,3.13,3.13,0,0,1-1.11,1.23A3.67,3.67,0,0,1,980.24,415.52Z"/><path class="cls-5" d="M1021.68,401.88a7.82,7.82,0,0,1,0,.9,2,2,0,0,1-.37,1,2.56,2.56,0,0,1-1,.8,4.73,4.73,0,0,1-2,.33h-9.52v2.3a5.18,5.18,0,0,0,.15,1.2,3.33,3.33,0,0,0,.49,1.15,2.72,2.72,0,0,0,.92.86,2.78,2.78,0,0,0,1.41.33,3.58,3.58,0,0,0,1.47-.23,2.24,2.24,0,0,0,.81-.56,4.83,4.83,0,0,0,.54-.72,3,3,0,0,1,.64-.71,3.22,3.22,0,0,1,1.1-.57,6.7,6.7,0,0,1,2-.22,7.46,7.46,0,0,1,1.16.09,3.07,3.07,0,0,1,1,.36,1.94,1.94,0,0,1,.69.73,2.41,2.41,0,0,1,.27,1.21,3.67,3.67,0,0,1-1,2.6,7.3,7.3,0,0,1-2.47,1.66,13.49,13.49,0,0,1-3.22.88,21,21,0,0,1-3.24.27,15.53,15.53,0,0,1-3.78-.51,8.82,8.82,0,0,1-3.17-1.53,7.39,7.39,0,0,1-2.19-2.75,9.61,9.61,0,0,1-.81-4.16V401a12,12,0,0,1,.54-3.85,8.3,8.3,0,0,1,1.4-2.63,6.45,6.45,0,0,1,1.93-1.64,10.27,10.27,0,0,1,2.18-.88,12.06,12.06,0,0,1,2.09-.36c.67,0,1.24-.07,1.72-.07a17.43,17.43,0,0,1,4.12.43,10.59,10.59,0,0,1,2.86,1.13,6.09,6.09,0,0,1,1.82,1.6,7.17,7.17,0,0,1,1,1.88,9.06,9.06,0,0,1,.43,2q.09,1,.09,1.86Zm-12.92-.58h6c0-.75,0-1.41-.06-2a3.88,3.88,0,0,0-.36-1.48,2,2,0,0,0-.93-.9,4.15,4.15,0,0,0-1.81-.31,3.19,3.19,0,0,0-1.54.31,2.2,2.2,0,0,0-.85.77,2.62,2.62,0,0,0-.36,1,8.53,8.53,0,0,0-.07.93Z"/><path class="cls-5" d="M1042.11,395.18a3.58,3.58,0,0,1-.92,2.73,3.69,3.69,0,0,1-2.62.86l-.68,0a4.41,4.41,0,0,0-.94.2,4.54,4.54,0,0,0-1,.45,3.76,3.76,0,0,0-1,.81,4.26,4.26,0,0,0-.69,1.31,6.12,6.12,0,0,0-.26,1.89v6.84a16.91,16.91,0,0,1-.11,1.91,4.79,4.79,0,0,1-.49,1.67,3.11,3.11,0,0,1-1.1,1.18,3.55,3.55,0,0,1-1.94.46,3.35,3.35,0,0,1-1.89-.46,3,3,0,0,1-1.06-1.18,4.79,4.79,0,0,1-.48-1.67,16.91,16.91,0,0,1-.11-1.91V396.9A17.64,17.64,0,0,1,1027,395a4.84,4.84,0,0,1,.48-1.68,2.9,2.9,0,0,1,1.06-1.19,3.52,3.52,0,0,1,1.89-.44,2.9,2.9,0,0,1,1.88.54,3.18,3.18,0,0,1,1,1.38,6.55,6.55,0,0,1,.36,1.9c0,.69,0,1.36,0,2h.39a11.56,11.56,0,0,1,.88-2.43,8.77,8.77,0,0,1,1.22-1.84,5.11,5.11,0,0,1,1.44-1.16,3.14,3.14,0,0,1,1.53-.41,4.91,4.91,0,0,1,1.52.2,1.94,1.94,0,0,1,.92.64,2.35,2.35,0,0,1,.45,1.1A9.16,9.16,0,0,1,1042.11,395.18Z"/><path class="cls-5" d="M1065,401.88c0,.25,0,.55,0,.9a2.08,2.08,0,0,1-.37,1,2.68,2.68,0,0,1-1,.8,4.68,4.68,0,0,1-2,.33h-9.52v2.3a5.15,5.15,0,0,0,.14,1.2,3.54,3.54,0,0,0,.49,1.15,2.82,2.82,0,0,0,.92.86,2.78,2.78,0,0,0,1.41.33,3.58,3.58,0,0,0,1.47-.23,2.2,2.2,0,0,0,.82-.56,4.83,4.83,0,0,0,.54-.72,3,3,0,0,1,.63-.71,3.22,3.22,0,0,1,1.1-.57,6.7,6.7,0,0,1,1.95-.22,7.27,7.27,0,0,1,1.16.09,3,3,0,0,1,1,.36,2,2,0,0,1,.7.73,2.52,2.52,0,0,1,.26,1.21,3.67,3.67,0,0,1-1,2.6,7.21,7.21,0,0,1-2.47,1.66,13.41,13.41,0,0,1-3.21.88,21.23,21.23,0,0,1-3.25.27A15.53,15.53,0,0,1,1051,415a8.9,8.9,0,0,1-3.17-1.53,7.47,7.47,0,0,1-2.18-2.75,9.46,9.46,0,0,1-.82-4.16V401a12,12,0,0,1,.54-3.85,8.5,8.5,0,0,1,1.4-2.63,6.36,6.36,0,0,1,1.94-1.64,10.19,10.19,0,0,1,2.17-.88,12.16,12.16,0,0,1,2.1-.36c.66,0,1.23-.07,1.71-.07a17.52,17.52,0,0,1,4.13.43,10.72,10.72,0,0,1,2.86,1.13,6,6,0,0,1,1.81,1.6,6.89,6.89,0,0,1,1,1.88,8.5,8.5,0,0,1,.43,2c.06.66.1,1.28.1,1.86Zm-12.92-.58h6c0-.75,0-1.41-.06-2a3.88,3.88,0,0,0-.36-1.48,2,2,0,0,0-.93-.9,4.21,4.21,0,0,0-1.81-.31,3.14,3.14,0,0,0-1.54.31,2.13,2.13,0,0,0-.85.77,2.33,2.33,0,0,0-.36,1,6.59,6.59,0,0,0-.07.93Z"/><path class="cls-5" d="M1089.3,397c0-.67,0-1.33.07-2a4.94,4.94,0,0,1,.43-1.73,2.92,2.92,0,0,1,1.08-1.23,3.63,3.63,0,0,1,2-.47,4.07,4.07,0,0,1,2.06.44,3,3,0,0,1,1.1,1.08,3.62,3.62,0,0,1,.45,1.33,11.28,11.28,0,0,1,.08,1.17,7.71,7.71,0,0,1,.61-1.41,4.84,4.84,0,0,1,1-1.29,5,5,0,0,1,1.49-1,5.18,5.18,0,0,1,2-.37,8.37,8.37,0,0,1,2.63.43,6.21,6.21,0,0,1,2.37,1.44,7.45,7.45,0,0,1,1.71,2.62,10.51,10.51,0,0,1,.66,4V407a10.68,10.68,0,0,1-.66,4,7.36,7.36,0,0,1-1.71,2.6,6.18,6.18,0,0,1-2.37,1.43,8.37,8.37,0,0,1-2.63.43,5.36,5.36,0,0,1-2-.36,5,5,0,0,1-1.49-.93,5,5,0,0,1-1-1.3,7.07,7.07,0,0,1-.61-1.43v8.18a19.32,19.32,0,0,1-.11,2,5.06,5.06,0,0,1-.48,1.73,2.89,2.89,0,0,1-1.11,1.22,3.71,3.71,0,0,1-2,.47,3.48,3.48,0,0,1-1.91-.47,3,3,0,0,1-1.09-1.22,5.3,5.3,0,0,1-.48-1.73,19.36,19.36,0,0,1-.1-2Zm12.44,3.68c0-.43,0-.85,0-1.26a3.54,3.54,0,0,0-.26-1.13,1.76,1.76,0,0,0-1.8-1.1,2.55,2.55,0,0,0-1.52.42,2.79,2.79,0,0,0-.92,1.29,8.84,8.84,0,0,0-.47,2.21c-.08.9-.14,1.95-.15,3.16a12.76,12.76,0,0,0,.13,1.74,7.93,7.93,0,0,0,.47,1.83,4,4,0,0,0,.93,1.44,2.1,2.1,0,0,0,1.53.59,1.78,1.78,0,0,0,1.8-1.08,3.29,3.29,0,0,0,.26-1.08c0-.41,0-.82,0-1.24Z"/><path class="cls-5" d="M1133.37,410.11c0,.67,0,1.33-.08,2a4.94,4.94,0,0,1-.42,1.74,3,3,0,0,1-1.08,1.23,3.69,3.69,0,0,1-2,.47,4,4,0,0,1-2.06-.45,3,3,0,0,1-1.1-1.07,3.43,3.43,0,0,1-.44-1.33,9.28,9.28,0,0,1-.09-1.17,7.08,7.08,0,0,1-.61,1.41,5,5,0,0,1-1,1.29,5.41,5.41,0,0,1-1.5.95,5.31,5.31,0,0,1-2,.37,8.68,8.68,0,0,1-2.64-.43,6.25,6.25,0,0,1-2.36-1.44,7.33,7.33,0,0,1-1.72-2.62,10.76,10.76,0,0,1-.65-4v-6.94a10.86,10.86,0,0,1,.65-4,7.29,7.29,0,0,1,1.72-2.61,6.32,6.32,0,0,1,2.36-1.42,8.38,8.38,0,0,1,2.64-.43,5.31,5.31,0,0,1,2,.36,5.14,5.14,0,0,1,1.5.93,5,5,0,0,1,1,1.29,6.83,6.83,0,0,1,.61,1.44,5.19,5.19,0,0,1,.34-2,3.43,3.43,0,0,1,.86-1.25,3,3,0,0,1,1.18-.65,5,5,0,0,1,1.31-.18,3.46,3.46,0,0,1,1.91.47,3,3,0,0,1,1.09,1.22,5.06,5.06,0,0,1,.48,1.74,19.42,19.42,0,0,1,.11,2Zm-4.21-26.41a5.47,5.47,0,0,1-1.42,4.16,5.64,5.64,0,0,1-4,1.34,5.77,5.77,0,0,1-4.07-1.34,5.47,5.47,0,0,1-1.43-4.16,5.4,5.4,0,0,1,1.43-4.16,5.85,5.85,0,0,1,4.07-1.3,5.72,5.72,0,0,1,4.12,1.3A5.62,5.62,0,0,1,1129.16,383.7Zm-8.23,22.72c0,.44,0,.86,0,1.27a3.6,3.6,0,0,0,.27,1.13,1.85,1.85,0,0,0,.63.8,2,2,0,0,0,1.16.3,2.55,2.55,0,0,0,1.52-.42,2.72,2.72,0,0,0,.92-1.29,8.52,8.52,0,0,0,.47-2.2c.09-.89.14-1.95.15-3.17a12.6,12.6,0,0,0-.13-1.72,8.46,8.46,0,0,0-.46-1.83,4.32,4.32,0,0,0-.94-1.46,2.1,2.1,0,0,0-1.53-.59,2,2,0,0,0-1.16.3,1.89,1.89,0,0,0-.63.77,3.36,3.36,0,0,0-.27,1.09c0,.41,0,.82,0,1.23Zm5.5-22.72a2.79,2.79,0,0,0-.68-2.09,3.54,3.54,0,0,0-4.06,0,3.32,3.32,0,0,0,0,4.13,3.31,3.31,0,0,0,4,0A2.68,2.68,0,0,0,1126.43,383.7Z"/></g></svg>
