<svg id="farver_god" xmlns="http://www.w3.org/2000/svg" viewBox="0 0 896.68 1080"><defs><style>.cls-1{fill:#f27457;}.cls-2{fill:#4d4d4d;}.cls-3{fill:#337a8e;}.cls-4{fill:#f9ba8a;}.cls-5{fill:#eba268;}.cls-6{fill:#95bac4;}.cls-7{fill:#f4e9d9;}.cls-8{fill:#333;}.cls-10,.cls-9{fill:#666;}.cls-10{opacity:0.69;}.cls-11{fill:#ccc;}</style></defs><title>godbilled5</title><g id="billed5"><g id="Layer_63" data-name="Layer 63"><rect class="cls-1" x="-6.49" y="1.04" width="896.17" height="1080"/></g><g id="Layer_35_copy" data-name="Layer 35 copy"><path class="cls-2" d="M712.49,539.77c-.16,1-71.47-147.15-56.17-126.64C758.05,549.5,641.74,648,642,647c43.92-152.17-92.4,109.28-124.59,109.28-34.55,0-223.66-240-190,20.42.71,5.53-90.9-164.42-67.41-256.34,6-23.44,11.24,170.55,43.92,259.41,7.71,21-201.19-124.6-106.21-350.3C249.32,307,396.91,133.3,492.91,181.3,549.09,143.51,746.19,331.43,712.49,539.77Z"/></g><g id="bodies-2" data-name="bodies"><path class="cls-3" d="M822.28,1078c.76.76-248.44,3.06-379.15,3.06s-389.87,1.53-391.41.77c7.66-246.64,185.11-251.49,235.53-284.08,41.44-26.79,95.37-43,154.35-43,59.33,0,113.57,16.4,155.11,43.48C646.68,830.8,820.74,793,822.28,1078Z"/><path class="cls-3" d="M822.28,1080.28c.76.76-248.44,3.06-379.15,3.06s-389.87,1.53-391.41.77C59.38,837.47,236.83,832.61,287.25,800c41.44-26.78,95.37-43,154.35-43,59.33,0,113.57,16.4,155.11,43.48C646.68,833.1,820.74,795.34,822.28,1080.28Z"/></g><g id="heads"><path class="cls-4" d="M647.64,423.75c0,80.89-13.54,164.66-58.27,214.13-41.91,46.35-23.83,128.62,10.78,164.35,2.65,2.74,154.72,174.64-139.41,212.94-48.84,6.36-314-81.19-163.91-220.6,3.1-2.87,49.47-129.71,36.77-148.59-34.74-51.63-79.42-155.66-79.42-236.12,0-156.68,89.93-265.33,191.1-265.33S647.64,267.06,647.64,423.75Z"/><path class="cls-5" d="M587.89,613.87c0,47.38-70.77,81.19-136.34,81.19S321.34,620,329,613.87c1.2-1,69.91-18.07,135.48-18.07S587.89,613.87,587.89,613.87Z"/><path class="cls-5" d="M435.75,433.14c.34-10.06,15.62-16.73,29.55-16.26s27.11,16.89,25.44,18.14c-.26.19-14.74.47-28.67,0S435.75,433.14,435.75,433.14Z"/><path class="cls-6" d="M504.45,348c.64-18.61,2.24-31.92,20.59-31.92,28.72,0,54,32.05,51.8,34.39-.34.36-21-6.29-39.32-6.92A102.08,102.08,0,0,0,504.45,348Z"/><path class="cls-6" d="M407.17,347.4c-.64-18.61-2.24-31.91-20.59-31.91-28.72,0-54,32.05-51.81,34.38.35.37,21-6.29,39.32-6.91A102,102,0,0,1,407.17,347.4Z"/><path class="cls-5" d="M490.22,434c-5.46,1.29-16.93-29.75-24-59.37s-5.32-60.87-3.79-57.58c.24.51,7.95,31.15,15,60.77S490.22,434,490.22,434Z"/><path class="cls-1" d="M526.15,482.36c10.73,6.78-37.81,18.09-62.34,18.09s-77.5-12.41-68.36-21.21c12.05-11.6,45.5-22.3,67.81-16.95C496.26,457.38,509.2,471.66,526.15,482.36Z"/><ellipse class="cls-7" cx="461.92" cy="478.35" rx="15.61" ry="4.01"/><path class="cls-8" d="M412.66,353.57c0,.63-17-7.49-40-7.49s-42.46,7.49-43.08,7.49c-13.1,0,17.65-12.48,40.58-12.48S412.66,340.47,412.66,353.57Z"/><path class="cls-8" d="M495.06,353.57c0,.63,17-7.49,39.95-7.49s42.46,7.49,43.08,7.49c13.1,0-17.65-12.48-40.58-12.48S495.06,340.47,495.06,353.57Z"/><path class="cls-8" d="M496.13,280.65c-.16.61,18.37-2.93,40.55,2.87s39.18,18,39.78,18.15c12.68,3.32-13.91-16.54-36.1-22.35S499.45,268,496.13,280.65Z"/><path class="cls-8" d="M400.57,283.78c.15.6-18.37-2.94-40.56,2.86s-39.17,18-39.77,18.16c-12.68,3.31,13.91-16.55,36.09-22.36S397.25,271.1,400.57,283.78Z"/></g><g id="Layer_35" data-name="Layer 35"><path class="cls-9" d="M701.26,384.53c-.13,1-71.48-147.15-56.17-126.64,101.72,136.38-14.59,234.86-14.3,233.88C674.7,339.6,499.58,217,467.38,217c-34.55,0-233.87,19.41-151.15,404.43,1.17,5.44-90.89-164.43-67.4-256.34,6-23.45-10.21,170.55,22.47,259.4C279,645.5,113,519.34,208,293.64,259.53,171.13,374.45,96.53,470.45,144.53,526.62,106.74,724.74,191.51,701.26,384.53Z"/></g><g id="Layer_39" data-name="Layer 39"><rect class="cls-10" x="-9.21" y="903.11" width="894.64" height="120.51"/><path class="cls-11" d="M151.13,942.13v13.2h17.38v3.07H151.13v14.26h-3.55v-33.6h23v3.07Z"/><path class="cls-11" d="M180.12,971.24a12.07,12.07,0,0,1-4.61-4.58,13.9,13.9,0,0,1,0-13.25,12,12,0,0,1,4.61-4.56,14.08,14.08,0,0,1,13.15,0,11.77,11.77,0,0,1,4.59,4.56,14.13,14.13,0,0,1,0,13.25,11.88,11.88,0,0,1-4.59,4.58,13.85,13.85,0,0,1-13.15,0Zm16-27.09h2.25l-21.21,31.92h-2.31Zm-4.59,24.5a8.55,8.55,0,0,0,3.34-3.48,11.59,11.59,0,0,0,0-10.27,8.43,8.43,0,0,0-3.34-3.48,10.08,10.08,0,0,0-9.65,0,8.67,8.67,0,0,0-3.36,3.48,11.42,11.42,0,0,0,0,10.27,8.8,8.8,0,0,0,3.36,3.48,10.15,10.15,0,0,0,9.65,0Z"/><path class="cls-11" d="M206.48,937h3.4v35.62h-3.4Z"/><path class="cls-11" d="M241.37,961.09H220.25a9,9,0,0,0,3,6.36,10,10,0,0,0,6.91,2.42,11,11,0,0,0,4.32-.84,9.4,9.4,0,0,0,3.4-2.47l1.93,2.21a10.88,10.88,0,0,1-4.2,3.07,14.15,14.15,0,0,1-5.55,1.06,14,14,0,0,1-6.89-1.66,11.92,11.92,0,0,1-4.68-4.58,13.07,13.07,0,0,1-1.68-6.63,13.54,13.54,0,0,1,1.61-6.62,11.68,11.68,0,0,1,4.42-4.56,13,13,0,0,1,12.6,0,11.64,11.64,0,0,1,4.37,4.54,13.69,13.69,0,0,1,1.58,6.64Zm-18.31-8.62a9.15,9.15,0,0,0-2.81,6.08h17.91a9.19,9.19,0,0,0-2.81-6.08,9.3,9.3,0,0,0-12.29,0Z"/><path class="cls-11" d="M255.22,948.51a12.18,12.18,0,0,1,5.88-1.29v3.31l-.82,0a8.09,8.09,0,0,0-6.24,2.45,9.76,9.76,0,0,0-2.25,6.86v12.87h-3.41V947.41h3.26v4.94A8.29,8.29,0,0,1,255.22,948.51Z"/><path class="cls-11" d="M319.15,950q2.72,2.74,2.71,8.07v14.64h-3.4V958.35a8.6,8.6,0,0,0-1.9-6,6.92,6.92,0,0,0-5.35-2.06,8,8,0,0,0-6.19,2.42,9.43,9.43,0,0,0-2.26,6.7v13.25h-3.41V958.35a8.6,8.6,0,0,0-1.89-6,7,7,0,0,0-5.4-2.06,8.07,8.07,0,0,0-6.17,2.42,9.4,9.4,0,0,0-2.28,6.7v13.25H280.2V947.41h3.26V952a9.1,9.1,0,0,1,3.75-3.55,11.7,11.7,0,0,1,5.52-1.25,10.84,10.84,0,0,1,5.49,1.34,8.22,8.22,0,0,1,3.48,4,9.9,9.9,0,0,1,4-3.92,12.43,12.43,0,0,1,6-1.41A10,10,0,0,1,319.15,950Z"/><path class="cls-11" d="M331.08,941.17a2.36,2.36,0,0,1-.72-1.73,2.3,2.3,0,0,1,.72-1.68,2.57,2.57,0,0,1,3.55,0,2.21,2.21,0,0,1,.72,1.65,2.51,2.51,0,0,1-4.27,1.78Zm.05,6.24h3.41v25.25h-3.41Z"/><path class="cls-11" d="M367.42,947.41v22.18q0,6.42-3.15,9.52t-9.48,3.1a21.18,21.18,0,0,1-6.65-1,13.67,13.67,0,0,1-5.11-2.86l1.73-2.59a12.88,12.88,0,0,0,4.44,2.54,16.53,16.53,0,0,0,5.5.92q4.8,0,7.05-2.24c1.51-1.48,2.26-3.8,2.26-6.93V966.8a10.3,10.3,0,0,1-4.15,3.65,12.9,12.9,0,0,1-5.69,1.25,13.44,13.44,0,0,1-6.46-1.56,11.62,11.62,0,0,1-4.56-4.37,13,13,0,0,1,0-12.7,11.58,11.58,0,0,1,4.54-4.32,13.6,13.6,0,0,1,6.48-1.53,12.88,12.88,0,0,1,5.81,1.29,10.54,10.54,0,0,1,4.17,3.75v-4.85Zm-8,20.09a8.56,8.56,0,0,0,3.43-3.29,9.36,9.36,0,0,0,1.22-4.8,9.27,9.27,0,0,0-1.22-4.78,8.57,8.57,0,0,0-3.41-3.26,11,11,0,0,0-9.89,0,8.28,8.28,0,0,0-3.4,3.26,10,10,0,0,0,0,9.6,8.54,8.54,0,0,0,3.4,3.29,10.27,10.27,0,0,0,4.92,1.17A10.39,10.39,0,0,0,359.45,967.5Z"/><path class="cls-11" d="M390.43,972a12.76,12.76,0,0,1-4.39-2.23l1.54-2.69a12.93,12.93,0,0,0,4,2,15.75,15.75,0,0,0,5,.79,9.5,9.5,0,0,0,5.11-1.08,3.42,3.42,0,0,0,1.66-3.05,2.74,2.74,0,0,0-.91-2.18,6,6,0,0,0-2.31-1.2,34.61,34.61,0,0,0-3.69-.79,43.67,43.67,0,0,1-5-1.18,7.3,7.3,0,0,1-3.19-2,5.67,5.67,0,0,1-1.32-4,6.26,6.26,0,0,1,2.64-5.19q2.64-2,7.35-2a18.68,18.68,0,0,1,4.89.65,13.46,13.46,0,0,1,4,1.7l-1.48,2.74a12.77,12.77,0,0,0-7.44-2.16A8.6,8.6,0,0,0,392,951.3a3.51,3.51,0,0,0-1.66,3,3,3,0,0,0,.94,2.31,5.73,5.73,0,0,0,2.32,1.27,39,39,0,0,0,3.84.84,43.73,43.73,0,0,1,4.85,1.15,7,7,0,0,1,3.12,2,5.4,5.4,0,0,1,1.3,3.84A6.09,6.09,0,0,1,404,971q-2.76,1.95-7.66,1.95A19.43,19.43,0,0,1,390.43,972Z"/><path class="cls-11" d="M452,950q2.71,2.74,2.71,8.07v14.64h-3.41V958.35a8.6,8.6,0,0,0-1.89-6,6.94,6.94,0,0,0-5.36-2.06,8.07,8.07,0,0,0-6.19,2.42,9.48,9.48,0,0,0-2.25,6.7v13.25h-3.41V958.35a8.56,8.56,0,0,0-1.9-6,7,7,0,0,0-5.4-2.06,8.09,8.09,0,0,0-6.17,2.42,9.4,9.4,0,0,0-2.28,6.7v13.25H413V947.41h3.26V952a9.08,9.08,0,0,1,3.74-3.55,11.7,11.7,0,0,1,5.52-1.25,10.85,10.85,0,0,1,5.5,1.34,8.32,8.32,0,0,1,3.48,4,9.84,9.84,0,0,1,4-3.92,12.36,12.36,0,0,1,6-1.41A10.06,10.06,0,0,1,452,950Z"/><path class="cls-11" d="M486.7,947.41v25.25h-3.27v-4.61a9.34,9.34,0,0,1-3.69,3.58,11.22,11.22,0,0,1-5.38,1.27,10.74,10.74,0,0,1-7.8-2.76c-1.9-1.84-2.86-4.54-2.86-8.09V947.41h3.41v14.3q0,4,2,6a7.38,7.38,0,0,0,5.62,2.07A8.23,8.23,0,0,0,481,967.4a9.36,9.36,0,0,0,2.31-6.74V947.41Z"/><path class="cls-11" d="M505.61,960l-5.95,5.47v7.2h-3.41V937h3.41v24.15l15.07-13.78H519l-10.8,10.32L520,972.66h-4.18Z"/><path class="cls-11" d="M537.62,941.17a2.36,2.36,0,0,1-.72-1.73,2.3,2.3,0,0,1,.72-1.68,2.57,2.57,0,0,1,3.55,0,2.21,2.21,0,0,1,.72,1.65,2.51,2.51,0,0,1-4.27,1.78Zm0,6.24h3.41v25.25h-3.41Z"/><path class="cls-11" d="M586.2,937v35.62h-3.27v-5a10.33,10.33,0,0,1-4,3.88,11.87,11.87,0,0,1-5.69,1.35,12.88,12.88,0,0,1-6.43-1.63,11.63,11.63,0,0,1-4.51-4.56,14.4,14.4,0,0,1,0-13.35,11.43,11.43,0,0,1,4.51-4.53,12.87,12.87,0,0,1,6.43-1.61,11.87,11.87,0,0,1,5.54,1.27,10.56,10.56,0,0,1,4.06,3.72V937Zm-8,31.61a8.66,8.66,0,0,0,3.36-3.48,11.33,11.33,0,0,0,0-10.27,8.54,8.54,0,0,0-3.36-3.48,9.36,9.36,0,0,0-4.77-1.23,9.51,9.51,0,0,0-4.83,1.23,8.67,8.67,0,0,0-3.36,3.48,11.42,11.42,0,0,0,0,10.27,8.8,8.8,0,0,0,3.36,3.48,9.5,9.5,0,0,0,4.83,1.22A9.36,9.36,0,0,0,578.25,968.65Z"/><path class="cls-11" d="M612.12,949.69q2.64,2.47,2.64,7.32v15.65h-3.27v-3.94a7.66,7.66,0,0,1-3.38,3.07,11.8,11.8,0,0,1-5.3,1.11,10.34,10.34,0,0,1-6.72-2,6.93,6.93,0,0,1-.17-10.51q2.33-2,7.41-2h8v-1.53a6.48,6.48,0,0,0-1.82-5,7.54,7.54,0,0,0-5.33-1.71,13.51,13.51,0,0,0-4.61.8,11.38,11.38,0,0,0-3.79,2.18l-1.54-2.54a13.58,13.58,0,0,1,4.61-2.52,17.7,17.7,0,0,1,5.66-.89Q609.48,947.22,612.12,949.69Zm-3.84,19.2a7.88,7.88,0,0,0,3.07-3.82V961h-7.92q-6.48,0-6.48,4.51a4.13,4.13,0,0,0,1.68,3.48,7.63,7.63,0,0,0,4.7,1.27A9,9,0,0,0,608.28,968.89Z"/><path class="cls-11" d="M647.49,947.41v22.18q0,6.42-3.14,9.52t-9.48,3.1a21.14,21.14,0,0,1-6.65-1,13.59,13.59,0,0,1-5.11-2.86l1.73-2.59a12.69,12.69,0,0,0,4.44,2.54,16.48,16.48,0,0,0,5.49.92q4.8,0,7.06-2.24c1.5-1.48,2.25-3.8,2.25-6.93V966.8a10.23,10.23,0,0,1-4.15,3.65,12.87,12.87,0,0,1-5.69,1.25,13.4,13.4,0,0,1-6.45-1.56,11.49,11.49,0,0,1-4.56-4.37,13,13,0,0,1,0-12.7,11.51,11.51,0,0,1,4.54-4.32,13.55,13.55,0,0,1,6.47-1.53,12.85,12.85,0,0,1,5.81,1.29,10.57,10.57,0,0,1,4.18,3.75v-4.85Zm-8,20.09a8.52,8.52,0,0,0,3.44-3.29,9.46,9.46,0,0,0,1.22-4.8,9.36,9.36,0,0,0-1.22-4.78,8.63,8.63,0,0,0-3.41-3.26,11,11,0,0,0-9.89,0,8.3,8.3,0,0,0-3.41,3.26,10.05,10.05,0,0,0,0,9.6,8.57,8.57,0,0,0,3.41,3.29,10.27,10.27,0,0,0,4.92,1.17A10.38,10.38,0,0,0,639.52,967.5Z"/><path class="cls-11" d="M668.23,948.9h20.88v2.83H668.23Zm0,11.09h20.88v2.83H668.23Z"/><path class="cls-11" d="M694.39,982a38.21,38.21,0,0,0,4.17-10.39,54.68,54.68,0,0,0,0-24.15A38.21,38.21,0,0,0,694.39,937h3.26a35.36,35.36,0,0,1,4.15,10.11,50,50,0,0,1,1.47,12.36,50.71,50.71,0,0,1-1.44,12.33A34.71,34.71,0,0,1,697.65,982Z"/></g></g></svg>
