<svg id="farver_god" xmlns="http://www.w3.org/2000/svg" viewBox="0 0 896.68 1080"><defs><style>.cls-1{fill:#337a8e;}.cls-2{fill:#33668e;}.cls-3{fill:#666;opacity:0.69;}.cls-4{fill:#e6e6e6;}.cls-5{fill:#d3bdb6;}.cls-6{fill:#d39784;}.cls-7{fill:#a37675;}</style></defs><title>godbilled3</title><g id="billed3"><g id="Layer_31" data-name="Layer 31"><rect class="cls-1" x="-6.49" y="2.26" width="896.17" height="1081.53"/><path class="cls-2" d="M815.64,729.91c0,47.1-170,.52-377.87.52S63,777,63,729.91s168.49-85.27,376.34-85.27S815.64,682.82,815.64,729.91Z"/><path class="cls-2" d="M428.06,771.77c0,.91-74.77-27.31-214.43-30-147.08-2.87-218.15,30.49-218.15,30,0-24.13,96.84-43.69,216.29-43.69S428.06,747.64,428.06,771.77Z"/><path class="cls-2" d="M730.36,834.57c0,.91-74.77-27.3-214.44-30-147.07-2.87-218.14,30.49-218.14,30,0-24.12,96.84-43.68,216.29-43.68S730.36,810.45,730.36,834.57Z"/><path class="cls-2" d="M476.57,873.89c0,.91-74.77-27.3-214.43-30C115.06,841,44,874.35,44,873.89c0-24.12,96.84-43.68,216.29-43.68S476.57,849.77,476.57,873.89Z"/><path class="cls-2" d="M885.6,909.13c0,.91-98.07-27.3-281.23-30-192.88-2.88-286.09,30.48-286.09,30,0-24.13,127-43.69,283.66-43.69S885.6,885,885.6,909.13Z"/><path class="cls-2" d="M560.06,949.72c0,.91-98.06-27.3-281.22-30C86,916.82-7.26,950.18-7.26,949.72c0-24.12,127-43.68,283.66-43.68S560.06,925.6,560.06,949.72Z"/><path class="cls-2" d="M884.83,987.26c0,.91-98.07-27.31-281.23-30-192.88-2.87-286.09,30.49-286.09,30,0-24.13,127-43.69,283.66-43.69S884.83,963.13,884.83,987.26Z"/><path class="cls-2" d="M559.3,1027.85c0,.91-98.07-27.3-281.23-30C85.19,994.94-8,1028.31-8,1027.85c0-24.12,127-43.68,283.66-43.68S559.3,1003.73,559.3,1027.85Z"/><path class="cls-2" d="M880.23,487.08c0,.91-98.06-27.3-281.22-30-192.89-2.87-286.1,30.49-286.1,30,0-24.12,127-43.68,283.66-43.68S880.23,463,880.23,487.08Z"/><path class="cls-2" d="M562.36,408.19c0,.91-98.06-27.3-281.23-30C88.25,375.28-5,408.65-5,408.19c0-24.12,127-43.68,283.66-43.68S562.36,384.07,562.36,408.19Z"/><path class="cls-2" d="M884.06,369.89c0,.91-98.06-27.3-281.22-30-192.89-2.87-286.1,30.49-286.1,30,0-24.12,127-43.68,283.66-43.68S884.06,345.77,884.06,369.89Z"/><path class="cls-2" d="M582.28,292.53c0,.91-98.07-27.3-281.23-30C108.17,259.62,15,293,15,292.53c0-24.12,127-43.68,283.66-43.68S582.28,268.41,582.28,292.53Z"/><path class="cls-2" d="M888.28,257.3c0,.91-98.07-27.3-281.23-30C414.17,224.39,321,257.75,321,257.3c0-24.13,127-43.68,283.66-43.68S888.28,233.17,888.28,257.3Z"/><path class="cls-2" d="M570.4,178.4c0,.91-98.06-27.3-281.22-30C96.29,145.5,3.09,178.86,3.09,178.4c0-24.12,127-43.68,283.65-43.68S570.4,154.28,570.4,178.4Z"/><path class="cls-2" d="M884.45,147.77c0,.91-98.07-27.31-281.23-30-192.88-2.87-286.09,30.49-286.09,30,0-24.13,127-43.69,283.66-43.69S884.45,123.64,884.45,147.77Z"/><path class="cls-2" d="M566.57,68.87c0,.91-98.06-27.3-281.22-30C92.46,36-.74,69.33-.74,68.87c0-24.12,127-43.68,283.65-43.68S566.57,44.75,566.57,68.87Z"/></g><g id="Layer_37" data-name="Layer 37"><rect class="cls-3" x="-1.74" y="840.57" width="894.64" height="120.51"/><path class="cls-4" d="M231.89,869.8v42h-4.26V878.2l-16.5,28.26H209l-16.5-28.08V911.8h-4.26v-42h3.66l18.24,31.14,18.06-31.14Z"/><path class="cls-4" d="M244.6,872.44a3,3,0,0,1-.9-2.16,2.88,2.88,0,0,1,.9-2.1,3.23,3.23,0,0,1,4.44,0,2.79,2.79,0,0,1,.91,2.07,3,3,0,0,1-.91,2.22,3.19,3.19,0,0,1-4.44,0Zm.06,7.8h4.27V911.8h-4.27Z"/><path class="cls-4" d="M286.33,883.45q3.51,3.45,3.51,10v18.3h-4.26V893.92q0-4.92-2.46-7.5t-7-2.58a10.78,10.78,0,0,0-8.07,3q-3,3-3,8.37V911.8H260.8V880.24h4.08v5.82a11.85,11.85,0,0,1,4.83-4.47,15.46,15.46,0,0,1,7.17-1.59Q282.82,880,286.33,883.45Z"/><path class="cls-4" d="M317.14,867.28h4.26V911.8h-4.26Z"/><path class="cls-4" d="M333.22,872.44a3,3,0,0,1-.9-2.16,2.88,2.88,0,0,1,.9-2.1,3,3,0,0,1,2.22-.9,3.07,3.07,0,0,1,2.22.87,2.78,2.78,0,0,1,.9,2.07,3.14,3.14,0,0,1-5.34,2.22Zm.06,7.8h4.26V911.8h-4.26Z"/><path class="cls-4" d="M349.42,867.28h4.26V911.8h-4.26Z"/><path class="cls-4" d="M365.56,867.28h4.26V911.8h-4.26Z"/><path class="cls-4" d="M409.18,897.34h-26.4a11.28,11.28,0,0,0,3.78,7.95,12.55,12.55,0,0,0,8.64,3,13.61,13.61,0,0,0,5.4-1.05,11.8,11.8,0,0,0,4.26-3.09l2.4,2.76a13.51,13.51,0,0,1-5.25,3.84,17.76,17.76,0,0,1-6.93,1.32,17.52,17.52,0,0,1-8.61-2.07,14.92,14.92,0,0,1-5.85-5.73,16.34,16.34,0,0,1-2.1-8.28,16.91,16.91,0,0,1,2-8.28,14.55,14.55,0,0,1,5.52-5.7,15.41,15.41,0,0,1,7.89-2,15.25,15.25,0,0,1,7.86,2,14.46,14.46,0,0,1,5.46,5.67,17.07,17.07,0,0,1,2,8.31Zm-22.89-10.77a11.43,11.43,0,0,0-3.51,7.59h22.38a11.43,11.43,0,0,0-3.51-7.59,11.59,11.59,0,0,0-15.36,0Z"/><path class="cls-4" d="M459.19,883.45q3.51,3.45,3.51,10v18.3h-4.26V893.92q0-4.92-2.46-7.5t-7-2.58a10.78,10.78,0,0,0-8.07,3q-3,3-3,8.37V911.8h-4.26V880.24h4.08v5.82a11.85,11.85,0,0,1,4.83-4.47,15.46,15.46,0,0,1,7.17-1.59Q455.68,880,459.19,883.45Z"/><path class="cls-4" d="M502.72,880.24V911.8h-4.08V906a11.68,11.68,0,0,1-4.62,4.47,13.9,13.9,0,0,1-6.72,1.59q-6.18,0-9.75-3.45T474,898.54v-18.3h4.26v17.88q0,5,2.46,7.56t7,2.58a10.33,10.33,0,0,0,7.86-3q2.88-3,2.88-8.43V880.24Z"/><path class="cls-4" d="M515.77,911a15.81,15.81,0,0,1-5.49-2.79l1.92-3.36a16.17,16.17,0,0,0,5,2.55,19.78,19.78,0,0,0,6.24,1q4.32,0,6.39-1.35a4.3,4.3,0,0,0,2.07-3.81,3.43,3.43,0,0,0-1.14-2.73,7.57,7.57,0,0,0-2.88-1.5,41.08,41.08,0,0,0-4.62-1,53,53,0,0,1-6.18-1.47,9.08,9.08,0,0,1-4-2.55,7.09,7.09,0,0,1-1.65-5,7.8,7.8,0,0,1,3.3-6.48Q518,880,523.9,880a23.83,23.83,0,0,1,6.12.81,16.84,16.84,0,0,1,5,2.13l-1.86,3.42a15.93,15.93,0,0,0-9.3-2.7,10.78,10.78,0,0,0-6.15,1.44,4.41,4.41,0,0,0-2.07,3.78,3.73,3.73,0,0,0,1.17,2.88,7.2,7.2,0,0,0,2.91,1.59,47,47,0,0,0,4.8,1,55.22,55.22,0,0,1,6.06,1.44,8.9,8.9,0,0,1,3.9,2.46,6.77,6.77,0,0,1,1.62,4.8,7.63,7.63,0,0,1-3.45,6.57q-3.45,2.43-9.57,2.43A24.23,24.23,0,0,1,515.77,911Z"/><path class="cls-4" d="M571.48,897.34h-26.4a11.28,11.28,0,0,0,3.78,7.95,12.55,12.55,0,0,0,8.64,3,13.61,13.61,0,0,0,5.4-1.05,11.8,11.8,0,0,0,4.26-3.09l2.4,2.76a13.51,13.51,0,0,1-5.25,3.84,17.76,17.76,0,0,1-6.93,1.32,17.52,17.52,0,0,1-8.61-2.07,14.92,14.92,0,0,1-5.85-5.73,16.34,16.34,0,0,1-2.1-8.28,16.91,16.91,0,0,1,2-8.28,14.55,14.55,0,0,1,5.52-5.7,15.41,15.41,0,0,1,7.89-2,15.25,15.25,0,0,1,7.86,2,14.46,14.46,0,0,1,5.46,5.67,17.07,17.07,0,0,1,2,8.31Zm-22.89-10.77a11.43,11.43,0,0,0-3.51,7.59h22.38a11.43,11.43,0,0,0-3.51-7.59,11.59,11.59,0,0,0-15.36,0Z"/><path class="cls-4" d="M588.79,881.62a15.19,15.19,0,0,1,7.35-1.62v4.14l-1-.06a10.08,10.08,0,0,0-7.8,3.06q-2.82,3.06-2.82,8.58V911.8h-4.26V880.24h4.08v6.18A10.32,10.32,0,0,1,588.79,881.62Z"/><path class="cls-4" d="M626.79,892.29H616.13l19.6-12v6.83Zm8.94,12-19.6-12h10.66l8.94,5.12Z"/><path class="cls-4" d="M651.37,912.24l-2.72-1.31a10.72,10.72,0,0,1-4.38-3.78,13.61,13.61,0,0,1-2.1-6h6.1a6.34,6.34,0,0,0,1.14,3,5.3,5.3,0,0,0,2.27,1.74,8.61,8.61,0,0,0,3.27.57,6.35,6.35,0,0,0,4.6-1.58,5.9,5.9,0,0,0,1.64-4.45v-1.29a7.16,7.16,0,0,0-1.56-4.94,5.57,5.57,0,0,0-4.39-1.74h-3v-5.68h3a5,5,0,0,0,3.87-1.5,6,6,0,0,0,1.37-4.22v-1.31a5.12,5.12,0,0,0-1.45-3.9,5.72,5.72,0,0,0-4.11-1.38,6.29,6.29,0,0,0-2.73.57,5.17,5.17,0,0,0-2,1.76,7.89,7.89,0,0,0-1.22,3h-6.06a15.39,15.39,0,0,1,2.21-6,10.77,10.77,0,0,1,4.11-3.78,12.27,12.27,0,0,1,5.72-1.29q5.51,0,8.52,2.9c2,1.93,3,4.66,3,8.17v.71a9.19,9.19,0,0,1-1.73,5.56,9.68,9.68,0,0,1-4.89,3.46,8.65,8.65,0,0,1,5.4,3.43,11.35,11.35,0,0,1,1.92,6.8v.7a13.22,13.22,0,0,1-1.43,6.36,9.54,9.54,0,0,1-4.18,4,14.52,14.52,0,0,1-6.6,1.38Z"/></g><path class="cls-5" d="M745.68,501.66C1043.25,869.71,505.94,796.55,448.49,777.4c-91.92-30.63,112.17-112.29,86.81-110.29,4.59,1.53-10.68-21.56-19.92-22-178.21-7.66-251.74,51.57-270.73,61.31-45.86,18.86-120.93,83.2-156.16,23.45-95-4.59-24.51-76.59,26-88.85-27-17.61-76.59-45.44-76.59-45.95,0-1.54,31-54.42,24.51-68.94-25.84-57.77-41-106.83-24.51-137.87.71-1.36,72,29.1,85.78,38.3,23-19.92,58.22-16.86,65.37-19.92,12.39-5.31,15.13-61.74,29.1-67.4,20.71-8.4,70.47,76.59,70.47,76.59C327.29,407.3,381.75,373,427,373,595.13,373,687.47,429.66,745.68,501.66Z"/><g id="Layer_32" data-name="Layer 32"><path class="cls-6" d="M770.19,768.72c-1.11,15.47-119.56,30.64-183.32,26s-131.72-5.18-134.55-20.43c73.79-51.06,132.33-20.68,196.08-16.08S769.54,768.28,770.19,768.72Z"/><path class="cls-6" d="M131.91,685.72c-13.78,14.56-40.59,34.47-40.59,45.19-26.81,0-50.66-10.63-50.55-25.67.76,2.3,23.17,2.32,39.06,3.46S131.77,685.32,131.91,685.72Z"/><path class="cls-6" d="M213.34,437.32c25.73,14.12,31.4,7.66,30.64,5.36,1.74-26.75-5.23-83.79-20.25-84.66C226,358.93,213,437.15,213.34,437.32Z"/><path class="cls-6" d="M60.15,487.87c27-4.32,27-39.61,25.62-40.59-7.24-16.61-32-46.76-45.36-39.91C42.66,406.81,59.75,488,60.15,487.87Z"/><path class="cls-6" d="M711,559.85c-22.07,16.22-5.91,47.6-4.2,47.82,14.05,11.45,57,34.12,65.72,21.9C770.74,631.11,711.28,559.58,711,559.85Z"/><path class="cls-6" d="M753.57,759.68c17.18,2.5,34.5,17.08,22.75-29.77-3.81-14.5-9.69-93.59-18.38-91.14C759.38,638.82,753.32,759.67,753.57,759.68Z"/><path class="cls-6" d="M197.26,732.21c1.67-15.2,112.85-72.48,164.54-82.65,62.72-12.33,171.66-19.66,177.84-5.43-24.56,0-109.18,4-172.34,13.78S198,732.5,197.26,732.21Z"/><path class="cls-6" d="M429.34,756.72c.94-8.52,0-29.1,37-47.32,139.91-50.72,5.86-69.1,64.08-68.34,59,36,159.27,25.61,165.44,39.83-24.55,0-99.22,6.26-162.38,16.09S430.08,757,429.34,756.72Z"/></g><path class="cls-7" d="M279,544.55c-33.7,42.39-47.52,69.54-115.41,99.07-30.12,13.1-61.44-9.19-125.27-48.51,0,0,66.55,40.17,106.89,37.1C219,626.61,279,544.55,279,544.55Z"/><path class="cls-7" d="M117.09,543.7c.31,0-9.68-5.35-22.93-5.35s-24.77,4.94-25.07,5.35c0-7.05,10.74-12.76,24-12.76S117.09,536.65,117.09,543.7Z"/><path class="cls-7" d="M208.62,507.62c.25-.18-11,1.44-21.63,9.3s-17,18.67-17,19.18c-4.18-5.67,1.08-16.65,11.75-24.51S204.44,502,208.62,507.62Z"/><path class="cls-7" d="M242.13,443.43c.1.57,1.94-19-2.6-43.77s-13.36-45.34-13.87-45.84c6.93-1.27,16.24,17.75,20.79,42.5S249.06,442.16,242.13,443.43Z"/><path class="cls-7" d="M698.5,672.14h0c0,.45,2.84,33.89,14,55.74,5.72,11.21,47.31,38.22,62.3,35.24,5.67-1.13-6.64-103.15-7.66-103.66-2.48,1.26,26,113.36,5.1,110.29-17.39-2.54-55.88-18.59-62.8-32.17C698,715.18,692.24,675.38,698.5,672.14Z"/><path class="cls-7" d="M276.82,604.36h0c-.3-.2-45.74,16.86-95.43,49.47C130.94,687,102.36,710.46,91,731.45c-5.53-16.39,35.6-46.62,86.08-79.74S272.14,597.45,276.82,604.36Z"/><path class="cls-7" d="M486.72,517.35c-.57-.84,21.24,76.71,45.93,112.84s136.35,39.52,137.46,40c-9.26,6.32-118.18.85-142.88-35.28S477.47,523.67,486.72,517.35Z"/><path class="cls-7" d="M699.86,728.61c1.07,0-79.57-18.74-126-19.51s-117.16,59.2-118.24,59.62c.12-7.58,71.05-65.21,117.45-64.45S700,721,699.86,728.61Z"/><path class="cls-7" d="M704.83,483.28c-2,9.7,19.88,62.5-2,91.91-20.94,28.09,61.19,57.75,62.3,58.21-24,1.54-89.37-35.23-73-56.68C720.36,539.58,695.58,489.6,704.83,483.28Z"/><path class="cls-7" d="M82.8,453.87c.28.31-4.88-13.44-17-26.94S39.42,405,38.84,405c5.24-4.72,19.33,2.41,31.47,15.91S88,449.16,82.8,453.87Z"/><path class="cls-7" d="M116.06,573.15c-.3,0,2.58,4.44,15.83,4.08s14.52-2.13,14.81-2.55c.19,7.05-7.68,7.62-13.79,8.17C127.3,583.36,116.25,580.2,116.06,573.15Z"/></g></svg>
