<svg id="farver_god" xmlns="http://www.w3.org/2000/svg" viewBox="0 0 894.64 1080"><defs><style>.cls-1{fill:#cc4a27;}.cls-2{fill:#c1272d;}.cls-3{fill:#eba268;}.cls-4{fill:#c4c4c4;opacity:0.45;}.cls-5{fill:#8c6239;}.cls-6{fill:#fbb03b;}.cls-7{fill:#f9ba8a;}.cls-8{fill:#4d4d4d;}.cls-9{fill:#f15a24;}.cls-10{fill:#337a8e;}.cls-11{fill:#33648e;}.cls-12{fill:#666;opacity:0.69;}.cls-13{fill:#e6e6e6;}</style></defs><title>godbilled1a</title><g id="billed1"><g id="gardin"><polygon class="cls-1" points="679.81 1084 188.06 1085.51 188.06 0.89 693.6 -0.62 679.81 1084"/><path class="cls-2" d="M185,1067.13c-48.3-25.19-70-195.58,72-519.32C367.71,295.43,255.49-6.73,255.49-6.73c-2.82-1.47,130.08,366.2,3.78,608.38C174.38,764.45,182.18,1065.66,185,1067.13Z"/><path class="cls-2" d="M672.71,1076.84c48.42-24.95,71-195.24-69.48-519.67-109.49-252.91,4.2-554.52,4.2-554.52,2.83-1.46-131.85,365.56-6.74,608.36C684.8,774.22,675.54,1075.38,672.71,1076.84Z"/><path class="cls-2" d="M415.61,3.77C366.85,28.06,342,198,478,524.33c106,254.38-11.74,554.42-11.74,554.42-2.85,1.42,136.81-363.74,15-608.21C399.4,306.2,412.76,5.19,415.61,3.77Z"/><rect class="cls-3" x="-0.36" y="-0.62" width="176.17" height="1080.02"/><rect class="cls-3" x="670.62" y="0.89" width="223.66" height="1080.02"/><g id="Layer_22" data-name="Layer 22"><rect class="cls-4" x="206.45" y="0.91" width="454.98" height="1076.94"/></g></g><rect class="cls-5" x="171.21" y="-5.21" width="33.7" height="1098.38"/><rect class="cls-5" x="646.11" y="-8.28" width="33.7" height="1098.38"/><g id="person"><path class="cls-6" d="M450.44,221c-46.06,21-20.39,28-1.29,69.92s28.68,152.82,28.68,152.82c46.06-21,109.69-143,90.59-184.94S496.49,200,450.44,221Z"/><path class="cls-7" d="M516.06,381.14c-5.54,5.09-3,34-4.35,64.18-.57,13.29,44,19.06,50.08,29.68,8,14,2.26,63.43-29,94C508,593.28,437.93,583.22,409.2,588.89c-34,6.71-62.63-5.2-66.41-48.89-.27-3-19,26.17-40,37-9,4.66,39,102,39,102,67,113-14,104.15-23,108-6.36,2.73-15.16-82.2-24.23-100.14-20.25-40-41.85-110-40.77-113.86,7.39-26.53,104.57-147.7,168.71-123.37C450.57,460.27,440.73,403,435.79,400c-25.33-15.39-43-57.11-43-94,0-51.91,34.47-94,77-94,29.37,0,54.91,20.08,67.89,49.61C543.49,274.83,523.54,374.27,516.06,381.14Z"/><path class="cls-3" d="M412.79,376c-4-6.11-9.63-14.33,23.94-39.95,26.18-20,37-57.28,37-57.28-.23-.36-5.72,49.17-33.06,66.94C422.25,357.65,412.56,375.64,412.79,376Z"/><path class="cls-6" d="M519.51,229.31c30.15,40.66,4.29,34.4-32.7,61.82s-99,119.87-99,119.87C357.64,370.34,361,232.74,398,205.32S489.36,188.65,519.51,229.31Z"/><g id="detaljer"><rect class="cls-8" x="468.79" y="240" width="75" height="122"/></g><path class="cls-7" d="M505.79,556c0-11.44,41.83-45.39,47-54,21-35,8.11-152.93-5-160-102-55-79.56-83.62-6-82,14.46.32,18.72,9.5,26,22,64.76,111.26,69,283.56,69,294,0,29.55-38.7,24-63,24S505.79,585.55,505.79,556Z"/><path class="cls-9" d="M468.79,373c0,3-4,8-12,8s-13-1.35-13-7,3-2,11-2S468.79,367.35,468.79,373Z"/><path class="cls-3" d="M514.79,384c0,8.56-19.29,42-40,42s-36.24-16.12-38-24.5c0,.5,16.29,8.5,37,8.5S514.79,384.5,514.79,384Z"/><path class="cls-3" d="M636.79,576c0,8.56.18,30.43-63,24-59-6-67.24-33.12-69-41.5,0,.5,22.91,29.5,72,29.5C609.79,588,636.79,576.5,636.79,576Z"/><path class="cls-3" d="M539.67,562.13c-7.59-4-18.15-9,7.85-67C567.79,450,561.79,397,561.79,397c-.45-.23,17.68,62.85-5,106.38C541.51,532.64,539.22,561.89,539.67,562.13Z"/><path class="cls-3" d="M298.52,595c-3.39-5.22-8.24-12.21,24.17-36.52,25.27-19,37.1-52.51,37.1-52.51-.2-.3-7.7,43.8-33.94,60.86C308.2,578.33,298.32,594.73,298.52,595Z"/><path class="cls-3" d="M481.94,293c1.13-2.15,2.56-5.14,20,2.82,13.59,6.2,29.33,4.92,29.33,4.92s-18.6,4.55-31.71-2.33C490.73,293.81,482,292.9,481.94,293Z"/><path class="cls-3" d="M478.94,281c1.13-2.15,7.85-2,20,2.82,13.87,5.54,29.33,4.92,29.33,4.92s-18.6,4.55-31.71-2.33C487.73,281.81,479,280.9,478.94,281Z"/><path class="cls-3" d="M484.94,271c-.81-.3-.55-2.17,20,2.82a236.71,236.71,0,0,0,29.33,4.92c.06-.12-18.6,4.55-31.71-2.33C493.73,271.81,485,270.9,484.94,271Z"/><path class="cls-7" d="M527.79,1080c-20.07.4-109.43-.11-109.43-.11L358.11,826.11,549.79,839S473.51,961.94,527.79,1080Z"/><path class="cls-3" d="M452.06,1080.91c-7.59-4-54.59-70.23-28.59-128.17,20.27-45.16,19.91-119,19.91-119-.44-.24,9.94,83.11-12.76,126.63C415.36,989.66,451.62,1080.68,452.06,1080.91Z"/></g><g id="kjole"><path class="cls-10" d="M518.79,580.5c.35.36-.48,86.63,18,131.5,49,119,19.29,241.09,9,246-12.14,5.79-185.78,16-201,16-15.49,0-44.21-177.5-10-260,17-41,30-105,30-105-11.22-10.91-22-53.85-22-69,0-17.42,22-40,22-40,8.27-4.25,48.11-47.59,58-50l4,1c-1.27,9.06-6.15,30.37,12,34,36.8,7.36,72.17-18.69,87-27l8,3C500.79,517,491.79,553,518.79,580.5Z"/><path class="cls-11" d="M518.67,582c.36.36-.47,86.63,18,131.5,49,119,20,240.28,9.13,243.7-12.42,3.9-21.94,5.52-38.68,5.68C573,822,458.51,607.34,461.7,572.91c3.88-41.81,53.66-104.18,68.49-112.49l3.48,2.11C500.67,518.53,491.67,554.53,518.67,582Z"/></g><g id="Layer_36" data-name="Layer 36"><rect class="cls-12" x="-0.36" y="860.32" width="894.64" height="120.51"/><path class="cls-13" d="M278.9,922.65l-8.58,8.7v11h-4.44v-42h4.44v25.38L295,900.39h5.1l-18.18,19,19.44,23h-5.28Z"/><path class="cls-13" d="M307.64,897.87h4.26v44.52h-4.26Z"/><path class="cls-13" d="M344.3,913.68q3.3,3.09,3.3,9.15v19.56h-4.08v-4.92a9.77,9.77,0,0,1-4.23,3.84,14.8,14.8,0,0,1-6.63,1.38,13,13,0,0,1-8.4-2.52,8.67,8.67,0,0,1-.21-13.14q2.91-2.46,9.27-2.46h10v-1.92a8.09,8.09,0,0,0-2.28-6.21q-2.28-2.13-6.66-2.13a16.93,16.93,0,0,0-5.76,1A14.52,14.52,0,0,0,323.9,918L322,914.85a17,17,0,0,1,5.76-3.15,22.42,22.42,0,0,1,7.08-1.11Q341,910.59,344.3,913.68Zm-4.8,24a9.85,9.85,0,0,0,3.84-4.77v-5.16h-9.9q-8.1,0-8.1,5.64a5.16,5.16,0,0,0,2.1,4.35,9.56,9.56,0,0,0,5.88,1.59A11.23,11.23,0,0,0,339.5,937.68Z"/><path class="cls-13" d="M367.73,912.21a15.19,15.19,0,0,1,7.35-1.62v4.14l-1-.06a10.08,10.08,0,0,0-7.8,3.06q-2.82,3.06-2.82,8.58v16.08h-4.26V910.83h4.08V917A10.32,10.32,0,0,1,367.73,912.21Z"/><path class="cls-13" d="M415.58,940.47a8.07,8.07,0,0,1-3,1.65,12,12,0,0,1-3.69.57q-4.44,0-6.84-2.4a9.17,9.17,0,0,1-2.4-6.78V914.43H394v-3.6h5.64v-6.9h4.26v6.9h9.6v3.6h-9.6v18.84a6,6,0,0,0,1.41,4.29,5.35,5.35,0,0,0,4,1.47,7.84,7.84,0,0,0,2.55-.42,6.34,6.34,0,0,0,2.13-1.2Z"/><path class="cls-13" d="M423.26,903a3,3,0,0,1-.9-2.16,2.88,2.88,0,0,1,.9-2.1,3,3,0,0,1,2.22-.9,3.07,3.07,0,0,1,2.22.87,2.78,2.78,0,0,1,.9,2.07,3.14,3.14,0,0,1-5.34,2.22Zm.06,7.8h4.26v31.56h-4.26Z"/><path class="cls-13" d="M439.46,897.87h4.26v44.52h-4.26Z"/><path class="cls-13" d="M477.59,902.67a6.26,6.26,0,0,0-1.41,4.44v3.72h9.72v3.6h-9.6v28H472v-28H466.4v-3.6H472v-3.9a9.31,9.31,0,0,1,2.49-6.84q2.49-2.52,7.05-2.52a11.91,11.91,0,0,1,3.48.51,7.86,7.86,0,0,1,2.82,1.47l-1.44,3.18a7,7,0,0,0-4.68-1.56A5.45,5.45,0,0,0,477.59,902.67Z"/><path class="cls-13" d="M518.6,927.93H492.2a11.28,11.28,0,0,0,3.78,8,12.55,12.55,0,0,0,8.64,3,13.61,13.61,0,0,0,5.4-1,11.8,11.8,0,0,0,4.26-3.09l2.4,2.76a13.51,13.51,0,0,1-5.25,3.84,17.76,17.76,0,0,1-6.93,1.32,17.52,17.52,0,0,1-8.61-2.07,14.92,14.92,0,0,1-5.85-5.73,16.34,16.34,0,0,1-2.1-8.28,16.91,16.91,0,0,1,2-8.28,14.55,14.55,0,0,1,5.52-5.7,15.41,15.41,0,0,1,7.89-2,15.25,15.25,0,0,1,7.86,2,14.46,14.46,0,0,1,5.46,5.67,17.07,17.07,0,0,1,2,8.31Zm-22.89-10.77a11.43,11.43,0,0,0-3.51,7.59h22.38a11.43,11.43,0,0,0-3.51-7.59,11.59,11.59,0,0,0-15.36,0Z"/><path class="cls-13" d="M528.47,941.58a15.81,15.81,0,0,1-5.49-2.79l1.92-3.36a16.17,16.17,0,0,0,5,2.55,19.78,19.78,0,0,0,6.24,1q4.32,0,6.39-1.35a4.3,4.3,0,0,0,2.07-3.81,3.43,3.43,0,0,0-1.14-2.73,7.57,7.57,0,0,0-2.88-1.5,41.08,41.08,0,0,0-4.62-1,53,53,0,0,1-6.18-1.47,9.08,9.08,0,0,1-4-2.55,7.09,7.09,0,0,1-1.65-5,7.8,7.8,0,0,1,3.3-6.48q3.3-2.52,9.18-2.52a23.83,23.83,0,0,1,6.12.81,16.84,16.84,0,0,1,5,2.13L545.9,917a15.93,15.93,0,0,0-9.3-2.7,10.78,10.78,0,0,0-6.15,1.44,4.41,4.41,0,0,0-2.07,3.78,3.73,3.73,0,0,0,1.17,2.88,7.2,7.2,0,0,0,2.91,1.59,47,47,0,0,0,4.8,1,55.22,55.22,0,0,1,6.06,1.44,8.9,8.9,0,0,1,3.9,2.46,6.77,6.77,0,0,1,1.62,4.8,7.63,7.63,0,0,1-3.45,6.57q-3.45,2.43-9.57,2.43A24.23,24.23,0,0,1,528.47,941.58Z"/><path class="cls-13" d="M573.32,940.47a8.07,8.07,0,0,1-3,1.65,12,12,0,0,1-3.69.57q-4.44,0-6.84-2.4a9.17,9.17,0,0,1-2.4-6.78V914.43h-5.64v-3.6h5.64v-6.9h4.26v6.9h9.6v3.6h-9.6v18.84a6,6,0,0,0,1.41,4.29,5.35,5.35,0,0,0,4,1.47,7.84,7.84,0,0,0,2.55-.42,6.34,6.34,0,0,0,2.13-1.2Z"/><path class="cls-13" d="M595,916.17a3.24,3.24,0,0,1-.93-2.34,3.14,3.14,0,0,1,.93-2.31,3.06,3.06,0,0,1,2.25-.93,3.17,3.17,0,0,1,2.28.93,3.09,3.09,0,0,1,1,2.31,3.18,3.18,0,0,1-1,2.34,3.11,3.11,0,0,1-2.28,1A3,3,0,0,1,595,916.17Zm0,25.56a3.24,3.24,0,0,1-.93-2.34,3.14,3.14,0,0,1,.93-2.31,3.06,3.06,0,0,1,2.25-.93,3.17,3.17,0,0,1,2.28.93,3.09,3.09,0,0,1,1,2.31,3.18,3.18,0,0,1-1,2.34,3.11,3.11,0,0,1-2.28,1A3,3,0,0,1,595,941.73Z"/><path class="cls-13" d="M606,954a48.05,48.05,0,0,0,5.22-13,68.61,68.61,0,0,0,0-30.18,48.05,48.05,0,0,0-5.22-13H610a44.36,44.36,0,0,1,5.19,12.63,66.54,66.54,0,0,1,0,30.87A43.6,43.6,0,0,1,610,954Z"/></g></g></svg>
