<svg xmlns="http://www.w3.org/2000/svg" xmlns:xlink="http://www.w3.org/1999/xlink" viewBox="0 0 1920 1080"><defs><style>.cls-1{fill:#444;}.cls-2{fill:#d08368;}.cls-3{fill:#f9ba8a;}.cls-4{fill:#337a8e;}.cls-5{fill:#8c6239;}.cls-6{fill:#f4e9d9;}.cls-7{fill:#eba268;}.cls-8{fill:#603813;}.cls-9{fill:#bdccd4;}.cls-10{fill:#8accd4;}.cls-11{fill:#ff1d25;}.cls-12{fill:#666;opacity:0.69;}.cls-13{fill:#e6e6e6;}</style></defs><title>godbilled2</title><g id="skitser_god"><image width="2448" height="1580" transform="translate(123) scale(0.68)" xlink:href="sexogsamfund_2.jpg"/></g><g id="farver_god"><g id="snapchatbg"><rect class="cls-1" y="-0.62" width="1920" height="1081.53"/></g><g id="billed2"><g id="Layer_30" data-name="Layer 30"><rect class="cls-2" x="491.38" y="2.45" width="894.64" height="854.81"/></g><g id="Layer_25" data-name="Layer 25"><path class="cls-3" d="M1254.28,220c20.84,73.23-27.58,202.72-23,292.59,7.9,154.49-77.69,139.08-95,144-9.14,2.61-25-104.19-34.94-106C973.94,527.89,979,402.92,973.94,315c-6.13-105.7,4.59-144,36.76-151.66C1080.66,146.64,1226.48,122.33,1254.28,220Z"/><g id="Layer_27" data-name="Layer 27"><path class="cls-4" d="M1234.36,566.19c74,16.27,119.76,49,151.66,91.92,1.53,4.59,0,300.25,0,298.72-60.49,0-427.4-180.7-427.4-242s-23-160.85,154.72-131.75C1140.91,678,1215.53,562.05,1234.36,566.19Z"/><path class="cls-5" d="M1263.68,209.66c-5,254-46.69,258.5-39.53,193.13,1.29-11.81,40.85-34.22,20.42-101.62-7.52-24.83-36.53,15.55-37.78,14.3-30-30-139.41,57.7-140.94,56.17-23.77-23.78-16.45-70-24-96.25-.51-1.79-35.15,97.55-44.94,87.06-12.14-13-25.13-95-27.57-84.26-10.72,47.26-63.6,58.93-61.28,55.15C913,80.3,1265.77,104.41,1263.68,209.66Z"/><path class="cls-6" d="M1102.43,437c0,14.38-3.81,31.93-38.07,31.93s-41.42-9.56-41.42-23.94c.61,1,4.85-.57,39.12-.57S1102.58,438,1102.43,437Z"/><path class="cls-7" d="M1216.15,486.46c0,14.38-21.78,76.39-100.51,66-42.2-5.56-53.1-11.59-70.34-22.94,19.77,7.15,36.7,12,73.29,9.06C1152.74,535.86,1216.31,487.45,1216.15,486.46Z"/></g><g id="Layer_26" data-name="Layer 26"><g id="Layer_29" data-name="Layer 29"><rect class="cls-8" x="490.87" y="957.85" width="895.66" height="120.51"/></g><polygon class="cls-5" points="1388.57 963.07 490.57 965.6 490.57 699.04 807.09 694.87 1388.79 945.61 1388.57 963.07"/></g><path class="cls-3" d="M1062.79,802.11c0,8.79-66.55-23.92-71.49-21.45C960.66,796,874.84,811.3,839.13,811.3c-49.92,0-30.64-48-30.64-78.9s60.38-65.1,110.3-65.1S1062.79,771.23,1062.79,802.11Z"/><g id="Layer_23" data-name="Layer 23"><path class="cls-9" d="M804.4,622.36c-32.89,16.25-14.29,164.43-61.27,197.11-3.61,30.34,40.5,46.59,59.23,63.32,21.82,19.47-157.27,30.64-210.38,6.12-23.75-11,66.64-24.06,71.49-65.36C604.23,764.32,645.78,658,618.53,622.36c-69.44-90.89-2.32-85.1,14.3-109.27,16.84-24.5,51.78,12.25,77.62,12.25,24.5,0,91.6-22.62,110.29-2C843.9,548.79,858.81,595.5,804.4,622.36Z"/><path class="cls-10" d="M647.34,866.16C643.73,896.5,790,865.77,808.7,882.5c21.82,19.47-157.27,30.64-210.38,6.13-23.75-11,66.64-24.07,71.49-65.37C610.58,764,652.12,657.74,624.87,622.07c-69.44-90.89-2.32-85.1,14.3-109.27,3.75-5.46-42.55,44.59-20.64,59.52,48.89,33.29,47.85,82.24,36.77,167.49C647.87,796.94,697.76,857.75,647.34,866.16Z"/><ellipse class="cls-10" cx="701.26" cy="705.09" rx="9.19" ry="81.7"/><ellipse class="cls-10" cx="752.65" cy="710.38" rx="86.55" ry="13.7" transform="translate(-110.99 1280.69) rotate(-76.78)"/><rect class="cls-11" x="787.04" y="347.13" width="22.98" height="237.45" transform="translate(494.53 -407.22) rotate(40.54)"/><path class="cls-6" d="M635.36,419.22c-35.75.21-15.9,42.07-27,69.19-10.32,25.32-50.5,52.68-36.16,74.88,16.32,25.26,65.16-68.56,84.79,48.64,4.08,24.33,44.5-24.88,67.2-36.55,18.85-9.68,116.84,19.73,128.74,4.92,26-32.29-74.71-79-61.22-110.72,27.07-63.52-118.68-116.53-111.25-65C687.66,454.23,653.63,419.11,635.36,419.22Z"/><path class="cls-11" d="M744.56,439.41c18.82-.69,9.32,21.79,15.76,35.82,6,13.09,27.77,26.58,20.72,38.59-8,13.66-35.84-34.62-43.53,27.52-1.59,12.9-21.64-18.65-33.85-24.28-10.14-4.67-63.4,19.59-70,12.06-14.39-16.41,37.54-43.29,29.72-59.66-15.68-32.82,59.84-64,57.09-36.74C717.83,459,734.94,439.77,744.56,439.41Z"/></g><path class="cls-7" d="M1009.17,397.68c0,25.81,35.23,7.66,35.23,7.66-3.34,10-42.89,24.27-42.89-1.53s22.36-93.45,32.94-93.45C1035.21,310.36,1009.17,371.88,1009.17,397.68Z"/><path class="cls-7" d="M1238.87,319.47c-2.95-11.73-24.46,2.45-24.46,2.45,1.09-5.12,25.93-18.26,28.88-6.53s-4.27,46.26-11.35,48C1231.43,363.56,1241.82,331.2,1238.87,319.47Z"/><path class="cls-7" d="M917.13,682.81c-61.24,18.48-109.87,59-109.87,59"/><path class="cls-7" d="M914.07,713.44c-61.24,18.48-109.87,59-109.87,59"/><path class="cls-7" d="M930.92,748.68c-61.24,18.48-109.87,59-109.87,59"/></g><g id="Layer_28" data-name="Layer 28"><rect class="cls-12" x="492.7" y="840.28" width="894.64" height="120.51"/><path class="cls-13" d="M770.38,876.89H755.62v-3.84h34v3.84H774.82v38.16h-4.44Z"/><path class="cls-13" d="M803.47,884.87a15.19,15.19,0,0,1,7.35-1.62v4.14l-1-.06a10.08,10.08,0,0,0-7.8,3.06q-2.82,3.06-2.82,8.58v16.08h-4.26V883.49H799v6.18A10.32,10.32,0,0,1,803.47,884.87Z"/><path class="cls-13" d="M845.68,900.59h-26.4a11.28,11.28,0,0,0,3.78,7.95,12.55,12.55,0,0,0,8.64,3,13.61,13.61,0,0,0,5.4-1.05,11.8,11.8,0,0,0,4.26-3.09l2.4,2.76a13.51,13.51,0,0,1-5.25,3.84,17.76,17.76,0,0,1-6.93,1.32,17.52,17.52,0,0,1-8.61-2.07,14.92,14.92,0,0,1-5.85-5.73,16.34,16.34,0,0,1-2.1-8.28,16.91,16.91,0,0,1,2-8.28,14.55,14.55,0,0,1,5.52-5.7,15.41,15.41,0,0,1,7.89-2,15.25,15.25,0,0,1,7.86,2,14.46,14.46,0,0,1,5.46,5.67,17.07,17.07,0,0,1,2,8.31Zm-22.89-10.77a11.43,11.43,0,0,0-3.51,7.59h22.38a11.43,11.43,0,0,0-3.51-7.59,11.59,11.59,0,0,0-15.36,0Z"/><path class="cls-13" d="M874.06,886.34q3.3,3.09,3.3,9.15v19.56h-4.08v-4.92a9.77,9.77,0,0,1-4.23,3.84,14.8,14.8,0,0,1-6.63,1.38,13,13,0,0,1-8.4-2.52,8.67,8.67,0,0,1-.21-13.14q2.91-2.46,9.27-2.46h10v-1.92a8.09,8.09,0,0,0-2.28-6.21q-2.28-2.13-6.66-2.13a16.93,16.93,0,0,0-5.76,1,14.52,14.52,0,0,0-4.74,2.73l-1.92-3.18a17,17,0,0,1,5.76-3.15,22.42,22.42,0,0,1,7.08-1.11Q870.76,883.25,874.06,886.34Zm-4.8,24a9.85,9.85,0,0,0,3.84-4.77v-5.16h-9.9q-8.1,0-8.1,5.64a5.16,5.16,0,0,0,2.1,4.35,9.56,9.56,0,0,0,5.88,1.59A11.23,11.23,0,0,0,869.26,910.34Z"/><path class="cls-13" d="M905.56,913.13a8.07,8.07,0,0,1-3,1.65,12,12,0,0,1-3.69.57q-4.44,0-6.84-2.4a9.17,9.17,0,0,1-2.4-6.78V887.09H884v-3.6h5.64v-6.9h4.26v6.9h9.6v3.6h-9.6v18.84a6,6,0,0,0,1.41,4.29,5.35,5.35,0,0,0,4,1.47,7.84,7.84,0,0,0,2.55-.42,6.34,6.34,0,0,0,2.13-1.2Z"/><path class="cls-13" d="M955.54,883.49l-15.78,35.34a15.08,15.08,0,0,1-4.44,6.3,9.92,9.92,0,0,1-6.06,1.86,12.37,12.37,0,0,1-4.26-.72,9.23,9.23,0,0,1-3.42-2.16l2-3.18a7.86,7.86,0,0,0,5.76,2.4,5.8,5.8,0,0,0,3.69-1.2,10.89,10.89,0,0,0,2.85-4.08l1.38-3.06-14.1-31.5h4.44l11.88,26.82,11.88-26.82Z"/><path class="cls-13" d="M965.32,913.28a15.1,15.1,0,0,1-5.76-5.73,17.37,17.37,0,0,1,0-16.56,14.88,14.88,0,0,1,5.76-5.7,17.58,17.58,0,0,1,16.44,0,14.67,14.67,0,0,1,5.73,5.7,17.6,17.6,0,0,1,0,16.56,14.88,14.88,0,0,1-5.73,5.73,17.36,17.36,0,0,1-16.44,0ZM979.57,910a10.67,10.67,0,0,0,4.17-4.35,14.49,14.49,0,0,0,0-12.84,10.67,10.67,0,0,0-4.17-4.35,12.65,12.65,0,0,0-12.06,0,10.87,10.87,0,0,0-4.2,4.35,14.23,14.23,0,0,0,0,12.84,10.87,10.87,0,0,0,4.2,4.35,12.65,12.65,0,0,0,12.06,0Z"/><path class="cls-13" d="M1026.7,883.49v31.56h-4.08v-5.76a11.68,11.68,0,0,1-4.62,4.47,13.9,13.9,0,0,1-6.72,1.59q-6.18,0-9.75-3.45T998,901.79v-18.3h4.26v17.88q0,5,2.46,7.56t7,2.58a10.33,10.33,0,0,0,7.86-3q2.88-3,2.88-8.43V883.49Z"/><path class="cls-13" d="M1047.19,884.87a15.19,15.19,0,0,1,7.35-1.62v4.14l-1-.06a10.08,10.08,0,0,0-7.8,3.06q-2.82,3.06-2.82,8.58v16.08h-4.26V883.49h4.08v6.18A10.32,10.32,0,0,1,1047.19,884.87Z"/><path class="cls-13" d="M1063.57,914.24a15.81,15.81,0,0,1-5.49-2.79l1.92-3.36a16.17,16.17,0,0,0,5,2.55,19.78,19.78,0,0,0,6.24,1q4.32,0,6.39-1.35a4.3,4.3,0,0,0,2.07-3.81,3.43,3.43,0,0,0-1.14-2.73,7.57,7.57,0,0,0-2.88-1.5,41.08,41.08,0,0,0-4.62-1,53,53,0,0,1-6.18-1.47,9.08,9.08,0,0,1-4-2.55,7.09,7.09,0,0,1-1.65-5,7.8,7.8,0,0,1,3.3-6.48q3.3-2.52,9.18-2.52a23.83,23.83,0,0,1,6.12.81,16.84,16.84,0,0,1,5,2.13l-1.86,3.42a15.93,15.93,0,0,0-9.3-2.7,10.78,10.78,0,0,0-6.15,1.44,4.41,4.41,0,0,0-2.07,3.78,3.73,3.73,0,0,0,1.17,2.88,7.2,7.2,0,0,0,2.91,1.59,47,47,0,0,0,4.8,1,55.22,55.22,0,0,1,6.06,1.44,8.9,8.9,0,0,1,3.9,2.46,6.77,6.77,0,0,1,1.62,4.8,7.63,7.63,0,0,1-3.45,6.57q-3.45,2.43-9.57,2.43A24.23,24.23,0,0,1,1063.57,914.24Z"/><path class="cls-13" d="M1119.28,900.59h-26.4a11.28,11.28,0,0,0,3.78,7.95,12.55,12.55,0,0,0,8.64,3,13.61,13.61,0,0,0,5.4-1.05,11.8,11.8,0,0,0,4.26-3.09l2.4,2.76a13.51,13.51,0,0,1-5.25,3.84,17.76,17.76,0,0,1-6.93,1.32,17.52,17.52,0,0,1-8.61-2.07,14.92,14.92,0,0,1-5.85-5.73,16.34,16.34,0,0,1-2.1-8.28,16.91,16.91,0,0,1,2-8.28,14.55,14.55,0,0,1,5.52-5.7,15.41,15.41,0,0,1,7.89-2,15.25,15.25,0,0,1,7.86,2,14.46,14.46,0,0,1,5.46,5.67,17.07,17.07,0,0,1,2,8.31Zm-22.89-10.77a11.43,11.43,0,0,0-3.51,7.59h22.38a11.43,11.43,0,0,0-3.51-7.59,11.59,11.59,0,0,0-15.36,0Z"/><path class="cls-13" d="M1128,870.53h4.26v44.52H1128Z"/><path class="cls-13" d="M1150.45,875.33a6.26,6.26,0,0,0-1.41,4.44v3.72h9.72v3.6h-9.6v28h-4.26v-28h-5.64v-3.6h5.64v-3.9a9.31,9.31,0,0,1,2.49-6.84q2.49-2.52,7-2.52a11.91,11.91,0,0,1,3.48.51,7.86,7.86,0,0,1,2.82,1.47l-1.44,3.18a7,7,0,0,0-4.68-1.56A5.45,5.45,0,0,0,1150.45,875.33Z"/></g></g></g></svg>
