<svg xmlns="http://www.w3.org/2000/svg" xmlns:xlink="http://www.w3.org/1999/xlink" viewBox="0 0 1920 1080"><defs><style>.cls-1{fill:#444;}.cls-2{fill:#cc4a27;}.cls-3{fill:#c1272d;}.cls-4{fill:#c4c4c4;opacity:0.45;}.cls-5{fill:#eba268;}.cls-6{fill:#8c6239;}.cls-7{fill:#fbb03b;}.cls-8{fill:#f9ba8a;}.cls-9{fill:#4d4d4d;}.cls-10{fill:#f15a24;}.cls-11{fill:#337a8e;}.cls-12{fill:#33648e;}.cls-13{fill:#666;opacity:0.69;}.cls-14{fill:#e6e6e6;}</style></defs><title>godbilled1</title><g id="skitser_god"><image width="1872" height="1796" transform="translate(411) scale(0.63)" xlink:href="sexogsamfund_1.jpg"/></g><g id="farver_god"><g id="snapchatbg"><rect class="cls-1" x="1.53" y="-0.62" width="1920" height="1082.06"/></g><g id="billed1"><g id="gardin"><polygon class="cls-2" points="1170.02 1084 678.28 1085.51 678.28 0.89 1183.81 -0.62 1170.02 1084"/><path class="cls-3" d="M675.21,1067.13c-48.29-25.19-70-195.58,72-519.32C857.93,295.43,745.7-6.73,745.7-6.73c-2.82-1.47,130.08,366.2,3.79,608.38C664.59,764.45,672.39,1065.66,675.21,1067.13Z"/><path class="cls-3" d="M1162.92,1076.84c48.42-24.95,71-195.24-69.48-519.67C984,304.26,1097.64,2.65,1097.64,2.65c2.83-1.46-131.85,365.56-6.73,608.36C1175,774.22,1165.75,1075.38,1162.92,1076.84Z"/><path class="cls-3" d="M905.82,3.77C857.07,28.06,832.2,198,968.23,524.33c106,254.38-11.74,554.42-11.74,554.42-2.84,1.42,136.81-363.74,15-608.21C889.62,306.2,903,5.19,905.82,3.77Z"/><g id="Layer_22" data-name="Layer 22"><rect class="cls-4" x="696.66" y="0.91" width="454.98" height="1076.94"/></g><rect class="cls-5" x="489.85" y="-0.62" width="176.17" height="1080.02"/><rect class="cls-5" x="1160.83" y="0.89" width="223.66" height="1080.02"/></g><rect class="cls-6" x="661.43" y="-5.21" width="33.7" height="1098.38"/><rect class="cls-6" x="1136.32" y="-8.28" width="33.7" height="1098.38"/><g id="person"><path class="cls-7" d="M940.65,221c-46.06,21-20.39,28-1.29,69.92S968,443.73,968,443.73c46.06-21,109.69-143,90.59-184.94S986.7,200,940.65,221Z"/><path class="cls-8" d="M1006.28,381.14c-5.54,5.09-3.06,34-4.36,64.18-.57,13.29,44,19.06,50.08,29.68,8,14,2.26,63.43-29,94-24.83,24.28-94.86,14.22-123.59,19.89-34,6.71-62.63-5.2-66.41-48.89-.26-3-19,26.17-40,37-9,4.66,39,102,39,102,67,113-14,104.15-23,108-6.36,2.73-15.16-82.2-24.23-100.14-20.24-40-41.85-110-40.77-113.86,7.39-26.53,104.57-147.7,168.71-123.37C940.78,460.27,930.94,403,926,400c-25.33-15.39-43-57.11-43-94,0-51.91,34.47-94,77-94,29.38,0,54.91,20.08,67.89,49.61C1033.7,274.83,1013.75,374.27,1006.28,381.14Z"/><path class="cls-5" d="M903,376c-4-6.11-9.63-14.33,24-39.95,26.17-20,36.95-57.28,36.95-57.28-.23-.36-5.71,49.17-33,66.94C912.47,357.65,902.77,375.64,903,376Z"/><path class="cls-7" d="M1009.72,229.31c30.15,40.66,4.29,34.4-32.69,61.82S878,411,878,411c-30.15-40.66-26.8-178.26,10.18-205.68S979.58,188.65,1009.72,229.31Z"/><g id="detaljer"><rect class="cls-9" x="959" y="240" width="75" height="122"/></g><path class="cls-8" d="M996,556c0-11.44,41.83-45.39,47-54,21-35,8.11-152.93-5-160-102-55-79.56-83.62-6-82,14.46.32,18.72,9.5,26,22,64.76,111.26,69,283.56,69,294,0,29.55-38.7,24-63,24S996,585.55,996,556Z"/><path class="cls-10" d="M959,373c0,3-4,8-12,8s-13-1.35-13-7,3-2,11-2S959,367.35,959,373Z"/><path class="cls-5" d="M1005,384c0,8.56-19.29,42-40,42s-36.24-16.12-38-24.5c0,.5,16.29,8.5,37,8.5S1005,384.5,1005,384Z"/><path class="cls-5" d="M1127,576c0,8.56.18,30.43-63,24-59-6-67.24-33.12-69-41.5,0,.5,22.91,29.5,72,29.5C1100,588,1127,576.5,1127,576Z"/><path class="cls-5" d="M1029.88,562.13c-7.59-4-18.15-9,7.85-67C1058,450,1052,397,1052,397c-.44-.23,17.68,62.85-5,106.38C1031.73,532.64,1029.44,561.89,1029.88,562.13Z"/><path class="cls-5" d="M788.73,595c-3.39-5.22-8.24-12.21,24.18-36.52C838.18,539.55,850,506,850,506c-.2-.3-7.69,43.8-33.94,60.86C798.41,578.33,788.53,594.73,788.73,595Z"/><path class="cls-5" d="M972.15,293c1.13-2.15,2.56-5.14,20,2.82,13.59,6.2,29.33,4.92,29.33,4.92s-18.59,4.55-31.71-2.33C980.94,293.81,972.22,292.9,972.15,293Z"/><path class="cls-5" d="M969.15,281c1.13-2.15,7.85-2,20,2.82,13.87,5.54,29.33,4.92,29.33,4.92s-18.59,4.55-31.71-2.33C977.94,281.81,969.22,280.9,969.15,281Z"/><path class="cls-5" d="M975.15,271c-.81-.3-.55-2.17,20,2.82a237,237,0,0,0,29.33,4.92c.07-.12-18.59,4.55-31.71-2.33C983.94,271.81,975.22,270.9,975.15,271Z"/><path class="cls-8" d="M1018,1080c-20.06.4-109.43-.11-109.43-.11L848.32,826.11,1040,839S963.72,961.94,1018,1080Z"/><path class="cls-5" d="M942.28,1080.91c-7.59-4-54.6-70.23-28.6-128.17,20.27-45.16,19.92-119,19.92-119-.45-.24,9.93,83.11-12.77,126.63C905.57,989.66,941.83,1080.68,942.28,1080.91Z"/></g><g id="kjole"><path class="cls-11" d="M1009,580.5c.35.36-.48,86.63,18,131.5,49,119,19.29,241.09,9,246-12.14,5.79-185.77,16-201,16-15.49,0-44.21-177.5-10-260,17-41,30-105,30-105-11.22-10.91-22-53.85-22-69,0-17.42,22-40,22-40,8.28-4.25,48.12-47.59,58-50l4,1c-1.27,9.06-6.15,30.37,12,34,36.8,7.36,72.17-18.69,87-27l8,3C991,517,982,553,1009,580.5Z"/><path class="cls-12" d="M1008.89,582c.35.36-.48,86.63,18,131.5,49,119,20,240.28,9.12,243.7-12.42,3.9-21.93,5.52-38.68,5.68,65.88-140.94-48.61-355.57-45.42-390,3.88-41.81,53.66-104.18,68.49-112.49l3.49,2.11C990.89,518.53,981.89,554.53,1008.89,582Z"/></g><g id="Layer_36" data-name="Layer 36"><rect class="cls-13" x="489.85" y="860.32" width="894.64" height="120.51"/><path class="cls-14" d="M769.12,922.65l-8.58,8.7v11H756.1v-42h4.44v25.38l24.66-25.38h5.1l-18.18,19,19.44,23h-5.28Z"/><path class="cls-14" d="M797.86,897.87h4.26v44.52h-4.26Z"/><path class="cls-14" d="M834.52,913.68q3.29,3.09,3.29,9.15v19.56h-4.07v-4.92a9.77,9.77,0,0,1-4.23,3.84,14.83,14.83,0,0,1-6.63,1.38q-5.29,0-8.4-2.52a8.15,8.15,0,0,1-3.13-6.66,8,8,0,0,1,2.92-6.48c1.94-1.64,5-2.46,9.27-2.46h10v-1.92a8.12,8.12,0,0,0-2.28-6.21q-2.29-2.13-6.66-2.13a17,17,0,0,0-5.77,1,14.47,14.47,0,0,0-4.73,2.73l-1.92-3.18A16.84,16.84,0,0,1,818,911.7a22.33,22.33,0,0,1,7.08-1.11Q831.21,910.59,834.52,913.68Zm-4.8,24a9.91,9.91,0,0,0,3.84-4.77v-5.16h-9.9q-8.1,0-8.1,5.64a5.13,5.13,0,0,0,2.1,4.35,9.54,9.54,0,0,0,5.88,1.59A11.25,11.25,0,0,0,829.72,937.68Z"/><path class="cls-14" d="M858,912.21a15.18,15.18,0,0,1,7.34-1.62v4.14l-1-.06a10,10,0,0,0-7.79,3.06c-1.89,2-2.82,4.9-2.82,8.58v16.08H849.4V910.83h4.08V917A10.22,10.22,0,0,1,858,912.21Z"/><path class="cls-14" d="M905.79,940.47a8.07,8.07,0,0,1-3,1.65,12,12,0,0,1-3.69.57q-4.44,0-6.84-2.4a9.17,9.17,0,0,1-2.4-6.78V914.43h-5.64v-3.6h5.64v-6.9h4.26v6.9h9.6v3.6h-9.6v18.84a6,6,0,0,0,1.41,4.29,5.35,5.35,0,0,0,4.05,1.47,7.84,7.84,0,0,0,2.55-.42,6.34,6.34,0,0,0,2.13-1.2Z"/><path class="cls-14" d="M913.47,903a3,3,0,0,1-.9-2.16,2.88,2.88,0,0,1,.9-2.1,3,3,0,0,1,2.22-.9,3.07,3.07,0,0,1,2.22.87,2.78,2.78,0,0,1,.9,2.07,3.14,3.14,0,0,1-5.34,2.22Zm.06,7.8h4.26v31.56h-4.26Z"/><path class="cls-14" d="M929.67,897.87h4.26v44.52h-4.26Z"/><path class="cls-14" d="M967.8,902.67a6.26,6.26,0,0,0-1.41,4.44v3.72h9.72v3.6h-9.6v28h-4.26v-28h-5.64v-3.6h5.64v-3.9a9.31,9.31,0,0,1,2.49-6.84q2.49-2.52,7-2.52a11.91,11.91,0,0,1,3.48.51,7.86,7.86,0,0,1,2.82,1.47l-1.44,3.18a7,7,0,0,0-4.68-1.56A5.45,5.45,0,0,0,967.8,902.67Z"/><path class="cls-14" d="M1008.81,927.93h-26.4a11.28,11.28,0,0,0,3.78,8,12.55,12.55,0,0,0,8.64,3,13.61,13.61,0,0,0,5.4-1,11.8,11.8,0,0,0,4.26-3.09l2.4,2.76a13.51,13.51,0,0,1-5.25,3.84,17.76,17.76,0,0,1-6.93,1.32,17.52,17.52,0,0,1-8.61-2.07,14.92,14.92,0,0,1-5.85-5.73,16.34,16.34,0,0,1-2.1-8.28,16.91,16.91,0,0,1,2-8.28,14.55,14.55,0,0,1,5.52-5.7,15.41,15.41,0,0,1,7.89-2,15.25,15.25,0,0,1,7.86,2,14.46,14.46,0,0,1,5.46,5.67,17.07,17.07,0,0,1,2,8.31Zm-22.89-10.77a11.43,11.43,0,0,0-3.51,7.59h22.38a11.43,11.43,0,0,0-3.51-7.59,11.59,11.59,0,0,0-15.36,0Z"/><path class="cls-14" d="M1018.68,941.58a15.81,15.81,0,0,1-5.49-2.79l1.92-3.36a16.17,16.17,0,0,0,5,2.55,19.78,19.78,0,0,0,6.24,1q4.32,0,6.39-1.35a4.3,4.3,0,0,0,2.07-3.81,3.43,3.43,0,0,0-1.14-2.73,7.57,7.57,0,0,0-2.88-1.5,41.08,41.08,0,0,0-4.62-1,53,53,0,0,1-6.18-1.47,9.08,9.08,0,0,1-4-2.55,7.09,7.09,0,0,1-1.65-5,7.8,7.8,0,0,1,3.3-6.48q3.3-2.52,9.18-2.52a23.83,23.83,0,0,1,6.12.81,16.84,16.84,0,0,1,5,2.13l-1.86,3.42a15.93,15.93,0,0,0-9.3-2.7,10.78,10.78,0,0,0-6.15,1.44,4.41,4.41,0,0,0-2.07,3.78,3.73,3.73,0,0,0,1.17,2.88,7.2,7.2,0,0,0,2.91,1.59,47,47,0,0,0,4.8,1,55.22,55.22,0,0,1,6.06,1.44,8.9,8.9,0,0,1,3.9,2.46,6.77,6.77,0,0,1,1.62,4.8,7.63,7.63,0,0,1-3.45,6.57q-3.45,2.43-9.57,2.43A24.23,24.23,0,0,1,1018.68,941.58Z"/><path class="cls-14" d="M1063.53,940.47a8.07,8.07,0,0,1-3,1.65,12,12,0,0,1-3.69.57q-4.44,0-6.84-2.4a9.17,9.17,0,0,1-2.4-6.78V914.43H1042v-3.6h5.64v-6.9h4.26v6.9h9.6v3.6h-9.6v18.84a6,6,0,0,0,1.41,4.29,5.35,5.35,0,0,0,4,1.47,7.84,7.84,0,0,0,2.55-.42,6.34,6.34,0,0,0,2.13-1.2Z"/><path class="cls-14" d="M1085.16,916.17a3.24,3.24,0,0,1-.93-2.34,3.14,3.14,0,0,1,.93-2.31,3.06,3.06,0,0,1,2.25-.93,3.17,3.17,0,0,1,2.28.93,3.09,3.09,0,0,1,1,2.31,3.18,3.18,0,0,1-1,2.34,3.11,3.11,0,0,1-2.28,1A3,3,0,0,1,1085.16,916.17Zm0,25.56a3.24,3.24,0,0,1-.93-2.34,3.14,3.14,0,0,1,.93-2.31,3.06,3.06,0,0,1,2.25-.93,3.17,3.17,0,0,1,2.28.93,3.09,3.09,0,0,1,1,2.31,3.18,3.18,0,0,1-1,2.34,3.11,3.11,0,0,1-2.28,1A3,3,0,0,1,1085.16,941.73Z"/><path class="cls-14" d="M1096.17,954a48.05,48.05,0,0,0,5.22-13,68.61,68.61,0,0,0,0-30.18,48.05,48.05,0,0,0-5.22-13h4.08a44.36,44.36,0,0,1,5.19,12.63,66.54,66.54,0,0,1,0,30.87,43.6,43.6,0,0,1-5.22,12.66Z"/></g></g></g></svg>
