<svg id="farver_god" xmlns="http://www.w3.org/2000/svg" xmlns:xlink="http://www.w3.org/1999/xlink" viewBox="0 0 798.64 1080"><defs><style>.cls-1{fill:none;}.cls-2{fill:#006837;}.cls-3{clip-path:url(#clip-path);}.cls-4{fill:#6d3007;}.cls-5{fill:#4d4d4d;}.cls-6{fill:#e6e6e6;}.cls-7{fill:#003c54;}.cls-8{fill:#333;}.cls-9{fill:#a67c52;}.cls-10{fill:#70929f;}.cls-11{fill:#f9ba8a;}.cls-12{fill:#c6826d;}.cls-13{fill:#f4e9d9;}.cls-14{fill:#423e38;}.cls-15{fill:#ed1c24;}.cls-16{fill:#eba268;}.cls-17{fill:#754c24;}.cls-18{fill:#603813;}.cls-19{fill:#666;opacity:0.69;}</style><clipPath id="clip-path"><rect class="cls-1" x="-3.43" y="2.13" width="795.06" height="1080"/></clipPath></defs><title>godbilled4</title><g id="billed4"><g id="Layer_33" data-name="Layer 33"><rect class="cls-2" x="-4.45" y="-0.94" width="798.64" height="1083.06"/></g><g id="Layer_62" data-name="Layer 62"><g class="cls-3"><path class="cls-4" d="M822.79,309.53c0,43.15,18.1,142-49,142s-14.3-32.43-14.3-75.58-157-119.48-89.87-119.48S822.79,266.38,822.79,309.53Z"/><path class="cls-5" d="M174.28,948.08c0,52.34-9.52,99.83-25,134.7.46-.65-184.91.88-188.18,1-4.41-45.67-2.85-117.42-2.85-142.64,0-107,87.27-16.85,136.34-16.85S174.28,841.06,174.28,948.08Z"/><path class="cls-5" d="M539.21,941c0,49.27,1.53,108.93-6.12,139.57,1.53,1.53-260.43,0-260.43,1.53-6.13-49-7.13-99.68-7.13-158.84,0-155,82.06-24.4,128.2-24.4S539.21,786.06,539.21,941Z"/><path class="cls-5" d="M820.75,913.62c0,34,1.31,146.46-13.79,165.44,1.53,6.13-206.81,4.6-208.34,1.54-12.8-32.5.42-138.38.42-179.24,0-107,66.48-16.85,103.86-16.85S820.75,806.59,820.75,913.62Z"/><path class="cls-6" d="M537.34,706c0,115.49,49.37,210.64-35.23,210.64-29.93,0-195.86,6.84-223.66-13.79-50.8-37.68-32.17-133.7-32.17-208.34,0-24.43-81.86-43.68-81.19-65.87,1.34-45.2,60.91-84.49,75.06-107.23,11.73-18.86,56.77-30.65,85.79-23,49,65.87,130.21,16.85,131.74,15.32,46.1-10.74,169.74,49.46,179.23,78.12,8.44,25.46,5.12,33.57,3.07,68.94C638.74,682.28,537.34,686.84,537.34,706Z"/><path class="cls-7" d="M815.64,654.21c0,72.78,20.2,230.32-25.53,256.34-14.7,8.37-119.47,12.26-136.34,12.26-69.38,0-88.34-237.28-88.34-333.45,0-17.29-123.13-88.41-124.6-90.89-19.4-32.68,26.95-64.07,32.17-73.53,16.53-30,157.29,60.25,157.79,60.25,12.25,107.24,51.06,54.13,114.38,1,1,2.05,4.59,9.64,26.56,35.74C798.61,553.89,815.64,601.29,815.64,654.21Z"/><path class="cls-8" d="M34.87,389.7C5.65,403.1,70.11,526,47.13,524.51c-36.72-2.45-77.36-109.93-74.56-142,7.66-87.32,94.95-78.12,131.75-78.12S59.38,378.47,34.87,389.7Z"/><path class="cls-9" d="M231,449.45c0,28.41-41.36,117.44-72,115.4,2-2-6.13,65.36-6.13,61.28-22.3,21.11-110.55,1.78-126.89-3.58-1.94-.63,46.64-90.89,5.87-153.19C-41.72,357,21.6,369.28,31.81,389.7c50.55-30.13,44.65-84.25,82.21-84.25C163.66,305.45,231,375,231,449.45Z"/><path class="cls-10" d="M-35.6,742c0,96.17-28,209.87,41.37,209.87,27.08,0,160.85-16.85,162.38-19.91,28.74-57.49,50-226.82,50-285.45,0-17.29,111.89-140.49,113.36-143,19.41-32.68,6.24-90.61,1-100.08-16.52-30-171,162.38-171.48,162.38C148.83,673.11,110,620,46.71,566.89c-4.18-2.55-4.6,9.64-26.56,35.74C-6.73,634.57-35.6,689.12-35.6,742Z"/><path class="cls-11" d="M495.17,354.38c0,38.43-6.64,78.24-28.58,101.74-20.57,22-12.1,65.2,4.88,82.18,2,2-79.66,61.27-151.15-6.13-1.49-1.4,19.59-69.41,13.35-78.38-17-24.53-31.53-67.78-31.53-106,0-74.45,44.12-126.08,93.75-126.08S495.17,279.93,495.17,354.38Z"/><path class="cls-12" d="M781.94,360.6c-.81,1.87,65.36,4.08-15.49,82-23.72,22.84-20.18,56.93-21.28,56.93-18.6,0-72.66,53.11-87.83,53.11-16,0-20.86-63.49-33.89-74.52C596.13,455,577.68,411,577.68,360.6c0-74.46,40.24-134.81,89.87-134.81S814.62,285,781.94,360.6Z"/><path class="cls-13" d="M462.19,395c-.95,19.72-26.84,34.49-57.83,33S349,409.28,350,389.56s27.79,5.68,58.78,7.17S463.14,375.24,462.19,395Z"/><path class="cls-13" d="M695.13,405c0,12.64-22.42,35.22-49.22,35.22S598.06,417.68,598.06,405c.31.53,18.84,11.89,45.64,11.89S695.41,405.57,695.13,405Z"/><path class="cls-13" d="M203.94,486.69c-6.63,13.57-16.59,34.76-37.05,34.76s-37-15.56-37-34.76a136.27,136.27,0,0,0,37.49,5.49C187.8,492.18,204.83,484.86,203.94,486.69Z"/><path class="cls-14" d="M239.64,354.21c0,22.14-59.8,40.09-133.56,40.09S-23.14,364.86-23.14,342.72s55.45-28.59,129.22-28.59S239.64,332.07,239.64,354.21Z"/><ellipse class="cls-15" cx="104.14" cy="340.11" rx="129.7" ry="40.09"/><path class="cls-13" d="M233.36,335.06c-.25,21-48.72,32.17-91.54,32.17S-24,361.52-26.52,340.68c-2.33-19.27,5.7-32,21.77-40.4,24-12.6,65.79-15.77,117.83-17.3C155.88,281.72,233.84,293.7,233.36,335.06Z"/><path class="cls-14" d="M501.6,278c0,23.1-33.44,43.65-94.38,41.56-84.35-2.9-102.73-33.48-102.73-56.58s41.75-27.08,102.73-27.08S501.6,254.94,501.6,278Z"/><path class="cls-15" d="M500.32,265.42c0,21-29.18,37.92-87.53,37.92s-105.66-17-105.66-38,47.31-38,105.66-38S500.32,244.46,500.32,265.42Z"/><path class="cls-13" d="M499.55,259.64c-.19,19.89-54.22,31.43-87.83,31.43S306,279.86,304,260.12c-4.55-45.45,37.54-51.25,105.78-53.67C443.35,205.26,499.93,220.47,499.55,259.64Z"/><ellipse class="cls-15" cx="181.94" cy="338.64" rx="14.81" ry="18.89"/><path class="cls-14" d="M562.7,271.09c-3.85,21.8,51.92,49.86,124.57,62.67s132.36-6.55,136.2-28.36-49.64-37.79-122.28-50.6S566.54,249.29,562.7,271.09Z"/><ellipse class="cls-15" cx="698.58" cy="280.72" rx="40.09" ry="129.7" transform="translate(300.81 919.94) rotate(-80)"/><path class="cls-13" d="M572.21,253.32c-3.41,20.73,42.39,40.14,84.56,47.58S821.06,324.07,827.16,304c14-46.27-42.28-63.45-127.46-81.07C657.77,214.24,578.91,212.5,572.21,253.32Z"/><ellipse class="cls-15" cx="622.23" cy="265.77" rx="18.89" ry="14.81" transform="translate(252.45 832.39) rotate(-80)"/><ellipse class="cls-15" cx="409.68" cy="266.73" rx="14.81" ry="17.89"/><path class="cls-16" d="M423.24,375.5c0,6.56-6.36,0-14.74,0s-15.62,6.56-15.62,0,12.76-13.53,15-13.2C412,362.92,423.24,368.94,423.24,375.5Z"/><path class="cls-16" d="M340,458.06c.35-5.8,23.49,1.41,54.47,3.27s58.06-2.35,57.72,3.46S403,485,394.87,484.17C379.52,482.69,339.7,463.87,340,458.06Z"/><path class="cls-17" d="M182.36,472.51c-6.47,1.11,17.26-10.55,15.84-18.81s-19.8-46.86-19.47-46.53c4.64,4.64,26.32,43.51,26.37,45.74C205.2,457.12,188.82,471.39,182.36,472.51Z"/><path class="cls-18" d="M634.1,400.27c6.41,1.41-16.76-11.33-15-19.52s21.94-45.9,21.59-45.58c-4.85,4.42-28.3,42.25-28.45,44.47C612,383.84,627.69,398.85,634.1,400.27Z"/><path class="cls-17" d="M59.94,485.05c5.12-4.1,8.58,36.29,42.35,53.16,7.5,3.74,51.88,25.91,46.08,25.37-6.53-.61-49.08-20.12-51.23-20.71C77.67,537.56,54.25,489.59,59.94,485.05Z"/><path class="cls-18" d="M763.85,413.56c-5.12-4.1-8.58,36.29-42.35,53.16-7.5,3.74-70,18-64.16,17.45,6.53-.61,67.17-12.2,69.31-12.79C746.12,466.07,769.54,418.1,763.85,413.56Z"/><path class="cls-12" d="M329.09,412.78c-30.56,0-55.33-31.32-55.33-70s63.73-93.31,55.33-70C291.68,376.87,329.87,412.78,329.09,412.78Z"/><path class="cls-12" d="M474.32,399.58c24.09,0,43.62-31,43.62-69.17s-50.23-92.25-43.62-69.17C503.81,364.08,473.71,399.58,474.32,399.58Z"/><path class="cls-12" d="M504.41,292.13c0,29.89-46.31,54.13-103.44,54.13s-84-30.21-103.44-54.13c-.62-.76,37.85,12.25,103.44-54.13C439.41,199.08,504.41,262.23,504.41,292.13Z"/></g></g><g id="Layer_38" data-name="Layer 38"><rect class="cls-19" x="-3.43" y="824" width="796.6" height="120.51"/><path class="cls-6" d="M80.28,909a23,23,0,0,1-7.47-3.51l3.3-7.32a22.38,22.38,0,0,0,6.42,3.17,23.82,23.82,0,0,0,7.44,1.2c2.76,0,4.8-.4,6.12-1.22a3.72,3.72,0,0,0,2-3.28,3.14,3.14,0,0,0-1.17-2.49,9,9,0,0,0-3-1.59q-1.83-.59-5-1.32a66.67,66.67,0,0,1-7.86-2.27,12.86,12.86,0,0,1-5.25-3.66A9.88,9.88,0,0,1,73.65,880a11.67,11.67,0,0,1,2-6.63,13.4,13.4,0,0,1,6-4.72,24.54,24.54,0,0,1,9.75-1.73,32.28,32.28,0,0,1,7.86,1,22.68,22.68,0,0,1,6.72,2.76l-3,7.37a23.51,23.51,0,0,0-11.64-3.29q-4.08,0-6,1.32a4,4,0,0,0-2,3.47,3.38,3.38,0,0,0,2.25,3.21,34.52,34.52,0,0,0,6.87,2.08,66.46,66.46,0,0,1,7.86,2.28,13,13,0,0,1,5.25,3.6,9.65,9.65,0,0,1,2.19,6.66,11.44,11.44,0,0,1-2,6.56,13.45,13.45,0,0,1-6,4.72,24.77,24.77,0,0,1-9.78,1.73A34.73,34.73,0,0,1,80.28,909Z"/><path class="cls-6" d="M134.55,908.07a9.44,9.44,0,0,1-3.39,1.52,17.14,17.14,0,0,1-4.23.52q-5.76,0-8.91-2.94t-3.15-8.64V885.26h-5v-7.19h5v-7.86h9.36v7.86h8v7.19h-8v13.15a4.36,4.36,0,0,0,1,3.14,3.86,3.86,0,0,0,3,1.12,6,6,0,0,0,3.78-1.21Z"/><path class="cls-6" d="M172.35,877.34v32.29h-8.88v-3.84A12.54,12.54,0,0,1,159,909a14.14,14.14,0,0,1-5.58,1.11q-6.36,0-10.08-3.66t-3.72-10.87V877.34H149v16.87q0,7.8,6.54,7.79a7,7,0,0,0,5.4-2.18c1.36-1.46,2-3.64,2-6.52v-16Z"/><path class="cls-6" d="M213.93,865.11v44.52H205v-3.72q-3.48,4.2-10.08,4.2a16.76,16.76,0,0,1-8.25-2,14.67,14.67,0,0,1-5.79-5.82,19.34,19.34,0,0,1,0-17.53,14.64,14.64,0,0,1,5.79-5.81,16.76,16.76,0,0,1,8.25-2q6.18,0,9.66,3.89V865.11ZM202.41,900a10.24,10.24,0,0,0,0-13,8.4,8.4,0,0,0-11.82,0,10.24,10.24,0,0,0,0,13,8.43,8.43,0,0,0,11.82,0Z"/><path class="cls-6" d="M254,896.13H229.58a7.61,7.61,0,0,0,3.12,4.74,10.34,10.34,0,0,0,6.13,1.74,12.37,12.37,0,0,0,4.46-.75,11,11,0,0,0,3.64-2.37l5,5.39q-4.57,5.24-13.33,5.23a20.88,20.88,0,0,1-9.65-2.14,15.47,15.47,0,0,1-6.48-5.9,16.22,16.22,0,0,1-2.29-8.58,16.56,16.56,0,0,1,2.25-8.56A15.77,15.77,0,0,1,228.6,879a19.13,19.13,0,0,1,17.37-.09,15,15,0,0,1,6,5.84,17.61,17.61,0,0,1,2.18,8.86C254.18,893.72,254.12,894.57,254,896.13Zm-21.9-10.38a7.61,7.61,0,0,0-2.63,4.92h15.9a7.7,7.7,0,0,0-7.92-6.72A8,8,0,0,0,232.1,885.75Z"/><path class="cls-6" d="M289.73,880.46q3.69,3.62,3.69,10.68v18.49h-9.36v-17q0-3.83-1.68-5.72a6.13,6.13,0,0,0-4.86-1.9,7.46,7.46,0,0,0-5.64,2.2c-1.4,1.46-2.09,3.63-2.09,6.51v16h-9.37V877.34h8.94v3.79A12.55,12.55,0,0,1,274,878a16.29,16.29,0,0,1,6.06-1.1A13.32,13.32,0,0,1,289.73,880.46Z"/><path class="cls-6" d="M322.7,908.07a9.44,9.44,0,0,1-3.39,1.52,17.14,17.14,0,0,1-4.23.52q-5.76,0-8.91-2.94T303,898.53V885.26h-5v-7.19h5v-7.86h9.36v7.86h8v7.19h-8v13.15a4.36,4.36,0,0,0,1.05,3.14,3.86,3.86,0,0,0,3,1.12,6,6,0,0,0,3.78-1.21Z"/><path class="cls-6" d="M358.4,896.13H334a7.61,7.61,0,0,0,3.12,4.74,10.33,10.33,0,0,0,6.12,1.74,12.39,12.39,0,0,0,4.47-.75,10.83,10.83,0,0,0,3.63-2.37l5,5.39q-4.56,5.24-13.32,5.23a21,21,0,0,1-9.66-2.14,15.59,15.59,0,0,1-6.48-5.9,16.31,16.31,0,0,1-2.28-8.58,16.56,16.56,0,0,1,2.25-8.56A15.81,15.81,0,0,1,333,879a19.13,19.13,0,0,1,17.37-.09,14.87,14.87,0,0,1,6,5.84,17.51,17.51,0,0,1,2.19,8.86C358.58,893.72,358.52,894.57,358.4,896.13Zm-21.9-10.38a7.66,7.66,0,0,0-2.64,4.92h15.9a7.74,7.74,0,0,0-2.64-4.89,7.89,7.89,0,0,0-5.28-1.83A8,8,0,0,0,336.5,885.75Z"/><path class="cls-6" d="M378.29,878.07a16.81,16.81,0,0,1,6.57-1.2v8.63c-1-.07-1.74-.12-2.1-.12a8.58,8.58,0,0,0-6.3,2.25q-2.28,2.25-2.28,6.75v15.25h-9.36V877.34h8.94v4.27A10.34,10.34,0,0,1,378.29,878.07Z"/><path class="cls-6" d="M391,908.51a5.14,5.14,0,0,1-1.65-3.87,5.06,5.06,0,0,1,1.62-3.81,6.37,6.37,0,0,1,8.28,0,5.06,5.06,0,0,1,1.62,3.81,5.14,5.14,0,0,1-1.65,3.87,6.08,6.08,0,0,1-8.22,0Zm-1.47-40.88h11.16L398.78,895h-7.44Z"/><path class="cls-6" d="M408.29,908.51a5.14,5.14,0,0,1-1.65-3.87,5.06,5.06,0,0,1,1.62-3.81,6.37,6.37,0,0,1,8.28,0,5.06,5.06,0,0,1,1.62,3.81,5.14,5.14,0,0,1-1.65,3.87,6.08,6.08,0,0,1-8.22,0Zm-1.47-40.88H418L416.12,895h-7.44Z"/><path class="cls-6" d="M441.74,886.88a5.67,5.67,0,0,1-1.68-4.2,5.51,5.51,0,0,1,1.68-4.17,6.18,6.18,0,0,1,8.28,0,5.51,5.51,0,0,1,1.68,4.17,5.85,5.85,0,0,1-10,4.2Zm0,21.54a5.67,5.67,0,0,1-1.68-4.2,5.51,5.51,0,0,1,1.68-4.17,6.18,6.18,0,0,1,8.28,0,5.51,5.51,0,0,1,1.68,4.17,5.85,5.85,0,0,1-10,4.2Z"/><path class="cls-6" d="M458.72,867.63H477.8a26.82,26.82,0,0,1,12.09,2.61,19.52,19.52,0,0,1,8.16,7.34,22.42,22.42,0,0,1,0,22.09,19.45,19.45,0,0,1-8.16,7.34,26.82,26.82,0,0,1-12.09,2.62H458.72Zm18.6,34q6.3,0,10.05-3.51a13.92,13.92,0,0,0,0-19q-3.75-3.51-10.05-3.51h-8.88v26Z"/><path class="cls-6" d="M508.28,867.63h19.08a26.82,26.82,0,0,1,12.09,2.61,19.52,19.52,0,0,1,8.16,7.34,22.42,22.42,0,0,1,0,22.09,19.45,19.45,0,0,1-8.16,7.34,26.82,26.82,0,0,1-12.09,2.62H508.28Zm18.6,34q6.3,0,10-3.51a13.92,13.92,0,0,0,0-19q-3.75-3.51-10-3.51H518v26Z"/><path class="cls-6" d="M557.84,867.63h19.08A26.82,26.82,0,0,1,589,870.24a19.52,19.52,0,0,1,8.16,7.34,22.42,22.42,0,0,1,0,22.09A19.45,19.45,0,0,1,589,907a26.82,26.82,0,0,1-12.09,2.62H557.84Zm18.6,34q6.3,0,10-3.51a13.92,13.92,0,0,0,0-19q-3.75-3.51-10-3.51h-8.88v26Z"/><path class="cls-6" d="M607.4,867.63h19.08a26.82,26.82,0,0,1,12.09,2.61,19.52,19.52,0,0,1,8.16,7.34,22.42,22.42,0,0,1,0,22.09,19.45,19.45,0,0,1-8.16,7.34,26.82,26.82,0,0,1-12.09,2.62H607.4Zm18.6,34q6.3,0,10-3.51a13.92,13.92,0,0,0,0-19q-3.75-3.51-10-3.51h-8.88v26Z"/></g></g></svg>
