<svg xmlns="http://www.w3.org/2000/svg" width="306" height="247" viewBox="0 0 306 247"><defs><style>.cls-1{fill:#f27457;stroke:#a6290d;stroke-miterlimit:10;stroke-width:5px;}</style></defs><title>Krydset</title><g id="assets"><path id="kryds" class="cls-1" d="M294.77,198.23,187.9,122.41,291.77,39.85a20.82,20.82,0,0,0,5.43-26l-.2-.37A20.5,20.5,0,0,0,266.08,7L152.46,97.28,35.28,14.15A20.51,20.51,0,0,0,4.83,22.23L4.48,23a20.8,20.8,0,0,0,6.75,25.79L118.1,124.59,14.23,207.15a20.82,20.82,0,0,0-5.43,26l.2.37A20.5,20.5,0,0,0,39.92,240l113.62-90.32,117.18,83.13a20.51,20.51,0,0,0,30.45-8.08l.35-.75A20.8,20.8,0,0,0,294.77,198.23Z"/></g></svg>
