<svg xmlns="http://www.w3.org/2000/svg" xmlns:xlink="http://www.w3.org/1999/xlink" width="1920" height="1080" viewBox="0 0 1920 1080"><defs><style>.cls-1{fill:#003c54;}.cls-2{fill:#f2eeb3;}.cls-3{fill:#f27457;}.cls-4{fill:#a63b32;}.cls-5{fill:#f29727;}.cls-6{opacity:0.5;}.cls-7{fill:#fff;}.cls-8{opacity:0.7;}</style></defs><title>Levelcomplete</title><g id="Slutskærm"><g id="bg_copy" data-name="bg copy"><rect class="cls-1" width="1920" height="1080"/></g><g id="planet_and_stars_copy_2" data-name="planet and stars copy 2"><polygon id="star2-2" class="cls-2" points="347.23 971.31 282.21 964.49 240.2 1019 226.06 949.49 165.52 922.77 221.81 886.63 226.4 815.6 275.31 862.78 338.69 845.61 312.65 910.9 347.23 971.31"/><polygon id="star1-2" class="cls-2" points="1883 350 1819.28 352.68 1785.18 411.42 1763.16 346.17 1701.38 328.96 1751.49 285.97 1747.4 216.6 1800.4 255.26 1859.66 229.6 1842.29 296.49 1883 350"/><g id="planet_copy_2" data-name="planet copy 2"><path class="cls-3" d="M246.69,140c1,42.5-31.62,77-70.61,77s-70.6-34.46-70.6-77,31.62-75.84,70.6-77C214.12,61.92,245.64,96.29,246.69,140Z"/><path class="cls-4" d="M163.83,160.82S182.92,114,153.14,67.14c2.05,0,16.51-7.93,41-1.57C194.17,65.57,204.73,119.91,163.83,160.82Z"/><path class="cls-4" d="M211.85,128.9s-13.3,59.34-60.86,83c5.84,2.54,10.5,5.09,22.17,5.09C177.83,217,227.85,186.84,211.85,128.9Z"/><path class="cls-4" d="M145.81,138.3C143,156.82,131.75,172.53,116,180.08a75.82,75.82,0,0,0,7,10.18C125.64,190.26,154.92,171.31,145.81,138.3Z"/><path class="cls-5" d="M310.29,76c4.25,10.94-46.55,55.37-122,90.1S41.47,212.67,37.22,201.71c-3-7.77,25.18-28.66,68.76-52.56-.5.4,3,13.12,3,13.12,10.5,1.27,14,2.54,73.52-20.36,14.8-6.81,56-29.26,56-36.9,0,0-7-12.72-7.38-13.19C275.5,75.33,307.37,68.42,310.29,76Z"/><path class="cls-4" d="M282.26,88c2.46,5.34-40.85,35.2-22.39,25.1s31.37-22.62,28.91-28S269.39,83.63,251,93.73,279.79,82.65,282.26,88Z"/><path class="cls-4" d="M66.62,186.61c-1.9-5.61,44.25-29.84,24.89-22.11S58,183,59.83,188.67s19.11,3.89,38.52-3.82S68.49,192.22,66.62,186.61Z"/></g></g><g id="gennemsigtig_lag" data-name="gennemsigtig lag" class="cls-6"><rect x="0.5" y="0.5" width="1919" height="1079"/><path class="cls-7" d="M1919,1V1079H1V1H1919m1-1H0V1080H1920V0Z"/></g><g class="cls-8"><rect x="174.5" y="115.5" width="1600" height="872"/><path class="cls-7" d="M1774,116V987H175V116H1774m1-1H174V988H1775V115Z"/></g><path class="cls-5" d="M870,236.62c.79,0,1.59,0,2.39.09a6.77,6.77,0,0,1,2.19.51,3.71,3.71,0,0,1,1.6,1.27,4,4,0,0,1,.61,2.36,4,4,0,0,1-.61,2.34,3.71,3.71,0,0,1-1.6,1.27,7,7,0,0,1-2.19.52c-.8.07-1.6.1-2.39.1h-3v26.45c0,.86,0,1.69-.08,2.51a6.34,6.34,0,0,1-.49,2.17,3.36,3.36,0,0,1-1.34,1.53,6.21,6.21,0,0,1-5.24,0,3.36,3.36,0,0,1-1.34-1.53A6.34,6.34,0,0,1,858,274c0-.82-.08-1.65-.08-2.51V245.08h-3c-.8,0-1.6,0-2.4-.1a7,7,0,0,1-2.19-.52,3.62,3.62,0,0,1-1.59-1.27,3.9,3.9,0,0,1-.62-2.34,3.94,3.94,0,0,1,.62-2.36,3.62,3.62,0,0,1,1.59-1.27,6.77,6.77,0,0,1,2.19-.51q1.2-.09,2.4-.09Z"/><path class="cls-5" d="M881.64,255.21a21.62,21.62,0,0,1,.14-2.44,6.09,6.09,0,0,1,.61-2.13,3.86,3.86,0,0,1,1.37-1.52,5.3,5.3,0,0,1,4.82,0,3.78,3.78,0,0,1,1.37,1.52,6.09,6.09,0,0,1,.61,2.13,21.62,21.62,0,0,1,.14,2.44v16.44a22,22,0,0,1-.14,2.46,6.14,6.14,0,0,1-.61,2.14,3.69,3.69,0,0,1-1.37,1.51,5.47,5.47,0,0,1-4.82,0,3.76,3.76,0,0,1-1.37-1.51,6.14,6.14,0,0,1-.61-2.14,22,22,0,0,1-.14-2.46Zm9.12-14.06a4.47,4.47,0,0,1-1.19,3.41,5.54,5.54,0,0,1-6.68,0,5.54,5.54,0,0,1,0-6.86,4.81,4.81,0,0,1,3.34-1.08,4.73,4.73,0,0,1,3.41,1.08A4.57,4.57,0,0,1,890.76,241.15Z"/><path class="cls-5" d="M899.87,243.24a21.8,21.8,0,0,1,.14-2.45,6,6,0,0,1,.61-2.11,3.7,3.7,0,0,1,1.37-1.49,4.43,4.43,0,0,1,2.41-.57,4.49,4.49,0,0,1,2.44.57,3.68,3.68,0,0,1,1.36,1.49,6.49,6.49,0,0,1,.59,2.11,21.8,21.8,0,0,1,.14,2.45v28.41a22,22,0,0,1-.14,2.46,6.6,6.6,0,0,1-.59,2.14,3.67,3.67,0,0,1-1.36,1.51,4.5,4.5,0,0,1-2.44.56,4.43,4.43,0,0,1-2.41-.56,3.69,3.69,0,0,1-1.37-1.51,6.14,6.14,0,0,1-.61-2.14,22,22,0,0,1-.14-2.46Z"/><path class="cls-5" d="M917.33,243.24a21.83,21.83,0,0,1,.13-2.45,6,6,0,0,1,.61-2.11,3.77,3.77,0,0,1,1.37-1.49,4.45,4.45,0,0,1,2.41-.57,4.53,4.53,0,0,1,2.45.57,3.72,3.72,0,0,1,1.35,1.49,6.26,6.26,0,0,1,.6,2.11,21.83,21.83,0,0,1,.13,2.45v28.41a22,22,0,0,1-.13,2.46,6.36,6.36,0,0,1-.6,2.14,3.71,3.71,0,0,1-1.35,1.51,4.54,4.54,0,0,1-2.45.56,4.46,4.46,0,0,1-2.41-.56,3.76,3.76,0,0,1-1.37-1.51,6.14,6.14,0,0,1-.61-2.14,22,22,0,0,1-.13-2.46Z"/><path class="cls-5" d="M937.46,290.24c-2.26,0-3.87-.32-4.82-1a3.2,3.2,0,0,1-1.43-2.84,4.09,4.09,0,0,1,.25-1.55,2.61,2.61,0,0,1,.7-1,2.77,2.77,0,0,1,1-.55,4.46,4.46,0,0,1,1.23-.16q.45,0,.84,0l.65,0a1.42,1.42,0,0,0,1.09-.67,9.79,9.79,0,0,0,1-1.68c.33-.68.66-1.4,1-2.18s.67-1.49,1-2.14l-.47-1.19q-.87-2.18-1.82-4.58t-1.89-4.85c-.63-1.64-1.24-3.27-1.85-4.9s-1.16-3.21-1.65-4.74c-.22-.63-.4-1.26-.55-1.87a7.69,7.69,0,0,1-.23-1.82,3.65,3.65,0,0,1,.36-1.61,4.09,4.09,0,0,1,1-1.28,4.86,4.86,0,0,1,1.45-.85,4.76,4.76,0,0,1,1.74-.31,3.26,3.26,0,0,1,1.53.36,4.06,4.06,0,0,1,1.26,1,7.44,7.44,0,0,1,1,1.43,11.72,11.72,0,0,1,.72,1.7l4,12.57L948.36,253a11.32,11.32,0,0,1,.69-1.67,6.45,6.45,0,0,1,1-1.48,5.09,5.09,0,0,1,1.28-1,3.15,3.15,0,0,1,1.58-.4,4.23,4.23,0,0,1,1.65.33,4.25,4.25,0,0,1,2.3,2.29,4.52,4.52,0,0,1,.34,1.73,7.11,7.11,0,0,1-.23,1.77,13.5,13.5,0,0,1-.55,1.74l-7.14,19c-.42,1.07-.87,2.19-1.36,3.35s-1,2.3-1.59,3.41a34.3,34.3,0,0,1-1.85,3.15,18.41,18.41,0,0,1-2.08,2.63,10.18,10.18,0,0,1-2.34,1.8A5.45,5.45,0,0,1,937.46,290.24Z"/><path class="cls-5" d="M962.36,243.24c0-.84,0-1.65.09-2.45a6.23,6.23,0,0,1,.51-2.11,3.44,3.44,0,0,1,1.26-1.49,4.24,4.24,0,0,1,2.37-.57,4.3,4.3,0,0,1,2.4.57,3.42,3.42,0,0,1,1.25,1.49,6.47,6.47,0,0,1,.49,2.11c.06.8.09,1.61.09,2.45V255h.48l6.13-7.21a3.2,3.2,0,0,1,1.25-.9,4,4,0,0,1,1.49-.29,4.3,4.3,0,0,1,1.51.29,4.05,4.05,0,0,1,1.34.8,4.4,4.4,0,0,1,1,1.25,3.58,3.58,0,0,1,.37,1.65,3.44,3.44,0,0,1-.83,2.21l-5.36,6.31L984,270.22a20.09,20.09,0,0,1,.93,2.16,6.15,6.15,0,0,1,.38,2.07,3.4,3.4,0,0,1-.41,1.7,3.83,3.83,0,0,1-1.09,1.24,5.19,5.19,0,0,1-1.49.74,5.32,5.32,0,0,1-1.59.25,3.36,3.36,0,0,1-1.76-.47,5.26,5.26,0,0,1-1.35-1.18,10.22,10.22,0,0,1-1-1.5c-.3-.54-.55-1-.75-1.49l-3.33-7.09h-1.67v5q0,1.26-.09,2.46a6.59,6.59,0,0,1-.49,2.14,3.42,3.42,0,0,1-1.25,1.51,4.31,4.31,0,0,1-2.4.56,4.24,4.24,0,0,1-2.37-.56,3.44,3.44,0,0,1-1.26-1.51,6.35,6.35,0,0,1-.51-2.14q-.09-1.2-.09-2.46Z"/><path class="cls-5" d="M992.56,243.24c0-.84,0-1.65.09-2.45a6.23,6.23,0,0,1,.51-2.11,3.51,3.51,0,0,1,1.26-1.49,4.24,4.24,0,0,1,2.37-.57,4.3,4.3,0,0,1,2.4.57,3.35,3.35,0,0,1,1.25,1.49,6.47,6.47,0,0,1,.49,2.11c.06.8.09,1.61.09,2.45V255h.48l6.13-7.21a3.2,3.2,0,0,1,1.25-.9,4,4,0,0,1,1.5-.29,4.29,4.29,0,0,1,1.5.29,4.05,4.05,0,0,1,1.34.8,4.22,4.22,0,0,1,.95,1.25,3.58,3.58,0,0,1,.37,1.65,3.38,3.38,0,0,1-.83,2.21l-5.36,6.31,5.84,11.14a22.2,22.2,0,0,1,.92,2.16,6.18,6.18,0,0,1,.39,2.07,3.4,3.4,0,0,1-.42,1.7,3.83,3.83,0,0,1-1.09,1.24,5.07,5.07,0,0,1-1.49.74,5.27,5.27,0,0,1-1.59.25,3.38,3.38,0,0,1-1.76-.47,5.62,5.62,0,0,1-1.35-1.18,10.22,10.22,0,0,1-1-1.5,15.73,15.73,0,0,1-.74-1.49l-3.34-7.09H1001v5q0,1.26-.09,2.46a6.59,6.59,0,0,1-.49,2.14,3.35,3.35,0,0,1-1.25,1.51,4.31,4.31,0,0,1-2.4.56,4.24,4.24,0,0,1-2.37-.56,3.51,3.51,0,0,1-1.26-1.51,6.35,6.35,0,0,1-.51-2.14q-.09-1.2-.09-2.46Z"/><path class="cls-5" d="M1046.18,261.35c0,.31,0,.69-.06,1.11a2.49,2.49,0,0,1-.47,1.22,3.13,3.13,0,0,1-1.26,1,5.72,5.72,0,0,1-2.44.42h-11.86V268a6.58,6.58,0,0,0,.18,1.49,4.42,4.42,0,0,0,.61,1.43A3.48,3.48,0,0,0,1032,272a3.4,3.4,0,0,0,1.76.42,4.66,4.66,0,0,0,1.83-.29,2.84,2.84,0,0,0,1-.7,5.92,5.92,0,0,0,.67-.89,3.83,3.83,0,0,1,.79-.89,4,4,0,0,1,1.37-.7,8.11,8.11,0,0,1,2.43-.29,8.48,8.48,0,0,1,1.44.12,3.46,3.46,0,0,1,1.24.45,2.43,2.43,0,0,1,.86.91,3,3,0,0,1,.33,1.5,4.54,4.54,0,0,1-1.22,3.23,8.75,8.75,0,0,1-3.07,2.07,16.78,16.78,0,0,1-4,1.11,28,28,0,0,1-4,.32,19,19,0,0,1-4.71-.62,11,11,0,0,1-3.94-1.91,9.09,9.09,0,0,1-2.73-3.42,12,12,0,0,1-1-5.19v-7a14.87,14.87,0,0,1,.67-4.79,10.5,10.5,0,0,1,1.74-3.28,8.38,8.38,0,0,1,2.41-2,12.06,12.06,0,0,1,2.71-1.08,14.59,14.59,0,0,1,2.61-.45q1.23-.09,2.13-.09a21.22,21.22,0,0,1,5.14.54,12.77,12.77,0,0,1,3.56,1.4,7.75,7.75,0,0,1,2.26,2,8.87,8.87,0,0,1,1.25,2.34,10.47,10.47,0,0,1,.54,2.44q.12,1.24.12,2.31Zm-16.09-.72h7.45c0-.93,0-1.76-.08-2.49a4.83,4.83,0,0,0-.44-1.83,2.54,2.54,0,0,0-1.16-1.13,5.22,5.22,0,0,0-2.25-.39,3.93,3.93,0,0,0-1.92.39,2.78,2.78,0,0,0-1.06,1,3.16,3.16,0,0,0-.45,1.23,8.77,8.77,0,0,0-.09,1.17Z"/><path class="cls-5" d="M1063.75,260.21a15.72,15.72,0,0,1-.11,1.85,4.46,4.46,0,0,1-.46,1.6,2.91,2.91,0,0,1-1,1.13,4,4,0,0,1-3.61,0,3,3,0,0,1-1-1.13,4.9,4.9,0,0,1-.46-1.6,15.77,15.77,0,0,1-.1-1.85l-1.55-9.65V243.3a14.13,14.13,0,0,1,.21-2.45,6.59,6.59,0,0,1,.74-2.11,4.07,4.07,0,0,1,1.51-1.49,4.82,4.82,0,0,1,2.48-.57,4.69,4.69,0,0,1,2.48.59,4.23,4.23,0,0,1,1.49,1.51,6.31,6.31,0,0,1,.72,2.13,15.19,15.19,0,0,1,.2,2.45v7.32Zm1.49,13.23a4.94,4.94,0,0,1-1.28,3.74,5.09,5.09,0,0,1-3.61,1.2,5.16,5.16,0,0,1-3.66-1.2,4.94,4.94,0,0,1-1.28-3.74,4.8,4.8,0,0,1,1.28-3.72,5.24,5.24,0,0,1,3.66-1.17,5.1,5.1,0,0,1,3.68,1.17A4.94,4.94,0,0,1,1065.24,273.44Z"/><path class="cls-5" d="M549.39,389.82a22.92,22.92,0,0,1,.13-2.51,6.11,6.11,0,0,1,.63-2.17,3.73,3.73,0,0,1,1.47-1.53,5.32,5.32,0,0,1,2.71-.59,5.4,5.4,0,0,1,2.73.59,3.72,3.72,0,0,1,1.49,1.53,5.9,5.9,0,0,1,.61,2.17c.08.82.12,1.65.12,2.51v23.47a7.12,7.12,0,0,0,.53,2.32,4.17,4.17,0,0,0,1.18,1.61,3.22,3.22,0,0,0,1,.52,3.81,3.81,0,0,0,1.27.19,3.91,3.91,0,0,0,1.28-.19,3.1,3.1,0,0,0,1-.52,4.17,4.17,0,0,0,1.18-1.61,6.64,6.64,0,0,0,.5-2.32V389.82c0-.86,0-1.69.12-2.51a5.9,5.9,0,0,1,.61-2.17,3.69,3.69,0,0,1,1.48-1.53,6.59,6.59,0,0,1,5.45,0,3.73,3.73,0,0,1,1.47,1.53,6.11,6.11,0,0,1,.63,2.17,22.92,22.92,0,0,1,.13,2.51v22.69a13.55,13.55,0,0,1-1,5.42,10.39,10.39,0,0,1-2.83,3.89,12.14,12.14,0,0,1-4.38,2.35,18.73,18.73,0,0,1-5.61.79,18.1,18.1,0,0,1-5.63-.82,12.36,12.36,0,0,1-4.36-2.39,10.62,10.62,0,0,1-2.83-3.91,13.3,13.3,0,0,1-1-5.33Z"/><path class="cls-5" d="M600.62,394.94a12.15,12.15,0,0,1,1.82.15,6.19,6.19,0,0,1,1.8.55,3.75,3.75,0,0,1,1.37,1.13,3,3,0,0,1,.55,1.86,3.18,3.18,0,0,1-.16,1,8.83,8.83,0,0,1-.41,1,11,11,0,0,1-.52,1c-.19.34-.36.67-.52,1l-10.36,14.48h6.55a19.63,19.63,0,0,1,2,.1,5.3,5.3,0,0,1,1.77.49,3.12,3.12,0,0,1,1.25,1.14,4.47,4.47,0,0,1,0,4,3.1,3.1,0,0,1-1.25,1.16,4.88,4.88,0,0,1-1.77.52,17.19,17.19,0,0,1-2,.12H589a15.41,15.41,0,0,1-1.87-.12,5.7,5.7,0,0,1-1.82-.5,3.61,3.61,0,0,1-1.37-1.1,3.11,3.11,0,0,1-.54-1.91,4.83,4.83,0,0,1,.53-2.14,14.32,14.32,0,0,1,1.14-2l10.31-14.54h-6.55a19.17,19.17,0,0,1-2-.1,5.14,5.14,0,0,1-1.77-.49,3.13,3.13,0,0,1-1.27-1.12,3.56,3.56,0,0,1-.47-2,3.68,3.68,0,0,1,.47-2,3.2,3.2,0,0,1,1.27-1.15,5.15,5.15,0,0,1,1.77-.52,16.78,16.78,0,0,1,2-.12Z"/><path class="cls-5" d="M613,401.61a24.28,24.28,0,0,1,.13-2.44,6.09,6.09,0,0,1,.62-2.13,3.78,3.78,0,0,1,1.37-1.52,5.3,5.3,0,0,1,4.82,0,3.86,3.86,0,0,1,1.37,1.52,6.09,6.09,0,0,1,.61,2.13,21.62,21.62,0,0,1,.14,2.44v16.44a22,22,0,0,1-.14,2.46,6.14,6.14,0,0,1-.61,2.14,3.76,3.76,0,0,1-1.37,1.51,5.47,5.47,0,0,1-4.82,0,3.69,3.69,0,0,1-1.37-1.51,6.15,6.15,0,0,1-.62-2.14c-.08-.8-.13-1.62-.13-2.46Zm9.11-14.06a4.43,4.43,0,0,1-1.19,3.41,5.53,5.53,0,0,1-6.67,0,5.54,5.54,0,0,1,0-6.86A4.81,4.81,0,0,1,617.6,383,4.75,4.75,0,0,1,621,384.1,4.61,4.61,0,0,1,622.12,387.55Z"/><path class="cls-5" d="M655.31,389.64c0-.84,0-1.65.09-2.45a6,6,0,0,1,.5-2.11,3.47,3.47,0,0,1,1.27-1.49,4.19,4.19,0,0,1,2.37-.57,4.24,4.24,0,0,1,2.39.57,3.29,3.29,0,0,1,1.25,1.49,6.47,6.47,0,0,1,.5,2.11c.05.8.08,1.61.08,2.45v11.73h.48l6.14-7.21a3.06,3.06,0,0,1,1.25-.9,4,4,0,0,1,1.49-.29,4.25,4.25,0,0,1,1.5.29,4,4,0,0,1,1.34.8,4.25,4.25,0,0,1,1,1.25,3.71,3.71,0,0,1,.37,1.65,3.4,3.4,0,0,1-.84,2.21l-5.36,6.31,5.84,11.14a20,20,0,0,1,.92,2.16,6.18,6.18,0,0,1,.39,2.07,3.4,3.4,0,0,1-.42,1.7,3.92,3.92,0,0,1-1.08,1.24,5.32,5.32,0,0,1-1.49.74,5.38,5.38,0,0,1-1.6.25,3.32,3.32,0,0,1-1.75-.47,5.48,5.48,0,0,1-1.36-1.18,10.22,10.22,0,0,1-1-1.5c-.29-.54-.54-1-.74-1.49l-3.34-7.09h-1.67v5c0,.84,0,1.66-.08,2.46a6.59,6.59,0,0,1-.5,2.14,3.29,3.29,0,0,1-1.25,1.51,4.25,4.25,0,0,1-2.39.56,4.2,4.2,0,0,1-2.37-.56,3.46,3.46,0,0,1-1.27-1.51,6.12,6.12,0,0,1-.5-2.14q-.09-1.2-.09-2.46Z"/><path class="cls-5" d="M708.2,418q0,1.26-.09,2.46a5.92,5.92,0,0,1-.53,2.16,3.67,3.67,0,0,1-1.34,1.53,4.56,4.56,0,0,1-2.5.58,5,5,0,0,1-2.57-.55,3.68,3.68,0,0,1-1.37-1.34,4.53,4.53,0,0,1-.55-1.65,12.31,12.31,0,0,1-.1-1.46,9.46,9.46,0,0,1-.76,1.76,6.38,6.38,0,0,1-3.13,2.78,6.4,6.4,0,0,1-2.54.46,10.67,10.67,0,0,1-3.28-.53,7.79,7.79,0,0,1-3-1.79,9.32,9.32,0,0,1-2.13-3.26,13.09,13.09,0,0,1-.82-5v-8.64a13.22,13.22,0,0,1,.82-5,9.14,9.14,0,0,1,2.13-3.24,7.76,7.76,0,0,1,3-1.78,10.67,10.67,0,0,1,3.28-.53,6.78,6.78,0,0,1,2.54.44,6,6,0,0,1,1.86,1.17,6.27,6.27,0,0,1,1.27,1.6,9.41,9.41,0,0,1,.76,1.79,6.3,6.3,0,0,1,.42-2.47,4,4,0,0,1,1.07-1.56,3.68,3.68,0,0,1,1.47-.81,6.15,6.15,0,0,1,1.63-.22,4.3,4.3,0,0,1,2.38.58,3.73,3.73,0,0,1,1.35,1.52,6.4,6.4,0,0,1,.6,2.17,23.36,23.36,0,0,1,.13,2.52Zm-15.48-4.58c0,.53,0,1.06.06,1.57a4.05,4.05,0,0,0,.32,1.4,2.31,2.31,0,0,0,.79,1,2.45,2.45,0,0,0,1.45.37,3.17,3.17,0,0,0,1.89-.52,3.41,3.41,0,0,0,1.15-1.61,11,11,0,0,0,.58-2.74c.1-1.1.17-2.41.19-3.94a17.58,17.58,0,0,0-.16-2.13,9.78,9.78,0,0,0-.59-2.28,5,5,0,0,0-1.16-1.82,2.59,2.59,0,0,0-1.9-.74,2.45,2.45,0,0,0-1.45.37,2.35,2.35,0,0,0-.79,1,3.82,3.82,0,0,0-.32,1.35c0,.51-.06,1-.06,1.54Z"/><path class="cls-5" d="M740.19,417.93a20.35,20.35,0,0,1-.15,2.5,6.38,6.38,0,0,1-.64,2.18,3.82,3.82,0,0,1-1.4,1.53,4.46,4.46,0,0,1-2.45.58,4.38,4.38,0,0,1-2.42-.58,3.89,3.89,0,0,1-1.37-1.53,6.6,6.6,0,0,1-.61-2.18,22.6,22.6,0,0,1-.13-2.5V406.32c0-.56,0-1.11-.07-1.64a4.55,4.55,0,0,0-.35-1.42,2.17,2.17,0,0,0-2.2-1.35,2.58,2.58,0,0,0-2,.8,5.63,5.63,0,0,0-1.17,2.21,14.62,14.62,0,0,0-.58,3.29c-.1,1.26-.15,2.61-.15,4.06v5.66a20.35,20.35,0,0,1-.15,2.5,6.61,6.61,0,0,1-.64,2.18,4,4,0,0,1-1.4,1.53,4.52,4.52,0,0,1-2.46.58,4.34,4.34,0,0,1-2.41-.58,3.74,3.74,0,0,1-1.37-1.53,6.37,6.37,0,0,1-.61-2.18,22.57,22.57,0,0,1-.14-2.5V401.67q0-1.28.09-2.49A5.91,5.91,0,0,1,716,397a3.66,3.66,0,0,1,1.35-1.52,4.72,4.72,0,0,1,2.55-.58,5,5,0,0,1,2.56.55,3.88,3.88,0,0,1,1.39,1.33,4.43,4.43,0,0,1,.58,1.63,11.19,11.19,0,0,1,.12,1.49,7.89,7.89,0,0,1,.74-1.76,6.52,6.52,0,0,1,3.19-2.78,6.54,6.54,0,0,1,2.56-.46,10.76,10.76,0,0,1,3.28.53,7.75,7.75,0,0,1,2.94,1.79,9.14,9.14,0,0,1,2.13,3.28,13.31,13.31,0,0,1,.82,5Z"/><path class="cls-5" d="M796.19,417.93a20.35,20.35,0,0,1-.15,2.5,6.38,6.38,0,0,1-.64,2.18,3.89,3.89,0,0,1-1.4,1.53,4.5,4.5,0,0,1-2.46.58,4.36,4.36,0,0,1-2.41-.58,3.82,3.82,0,0,1-1.37-1.53,6.37,6.37,0,0,1-.61-2.18,22.6,22.6,0,0,1-.13-2.5V406.32c0-.56,0-1.11-.08-1.64a4.55,4.55,0,0,0-.34-1.42,2.18,2.18,0,0,0-2.21-1.35,2.55,2.55,0,0,0-2,.8,5.64,5.64,0,0,0-1.18,2.21,15.2,15.2,0,0,0-.58,3.29c-.1,1.26-.15,2.61-.15,4.06v5.66a20.35,20.35,0,0,1-.15,2.5,6.38,6.38,0,0,1-.64,2.18,3.82,3.82,0,0,1-1.4,1.53,4.46,4.46,0,0,1-2.45.58,4.38,4.38,0,0,1-2.42-.58,3.89,3.89,0,0,1-1.37-1.53,6.6,6.6,0,0,1-.61-2.18,22.6,22.6,0,0,1-.13-2.5V401.67q0-1.28.09-2.49A6.12,6.12,0,0,1,772,397a3.62,3.62,0,0,1,1.36-1.52,4.7,4.7,0,0,1,2.55-.58,5,5,0,0,1,2.56.55,3.92,3.92,0,0,1,1.38,1.33,4.26,4.26,0,0,1,.58,1.63,11.19,11.19,0,0,1,.12,1.49,8,8,0,0,1,.75-1.76,6.35,6.35,0,0,1,1.29-1.6,6.66,6.66,0,0,1,1.89-1.18,6.59,6.59,0,0,1,2.57-.46,10.65,10.65,0,0,1,3.27.53,7.79,7.79,0,0,1,3,1.79,9.42,9.42,0,0,1,2.13,3.28,13.31,13.31,0,0,1,.82,5Z"/><path class="cls-5" d="M803.16,401.73a20.47,20.47,0,0,1,.15-2.5,6.38,6.38,0,0,1,.64-2.18,4,4,0,0,1,1.4-1.53,4.48,4.48,0,0,1,2.46-.58,4.36,4.36,0,0,1,2.41.58,4,4,0,0,1,1.37,1.53,6.37,6.37,0,0,1,.61,2.18,22.73,22.73,0,0,1,.13,2.5v11.62c0,.57,0,1.12.08,1.65a4.49,4.49,0,0,0,.34,1.4,2.31,2.31,0,0,0,.79,1,2.38,2.38,0,0,0,1.41.37,2.56,2.56,0,0,0,2-.8,5.67,5.67,0,0,0,1.19-2.2,15.94,15.94,0,0,0,.58-3.3c.1-1.26.15-2.61.15-4.06v-5.66a20.47,20.47,0,0,1,.15-2.5,6.17,6.17,0,0,1,.64-2.18,3.88,3.88,0,0,1,1.4-1.53,4.46,4.46,0,0,1,2.45-.58,4.38,4.38,0,0,1,2.42.58,4,4,0,0,1,1.37,1.53,6.6,6.6,0,0,1,.61,2.18,22.73,22.73,0,0,1,.13,2.5V418c0,.86,0,1.68-.09,2.49a5.91,5.91,0,0,1-.54,2.14,3.54,3.54,0,0,1-1.35,1.52,4.72,4.72,0,0,1-2.55.58,5,5,0,0,1-2.56-.55,3.82,3.82,0,0,1-1.38-1.32,4.14,4.14,0,0,1-.58-1.64,11.07,11.07,0,0,1-.12-1.49,7.75,7.75,0,0,1-.75,1.76,6.41,6.41,0,0,1-3.19,2.78,6.5,6.5,0,0,1-2.56.46,10.65,10.65,0,0,1-3.27-.53,7.71,7.71,0,0,1-2.95-1.79,9.06,9.06,0,0,1-2.13-3.28,13.28,13.28,0,0,1-.82-5Z"/><path class="cls-5" d="M872.26,394.94a13.17,13.17,0,0,1,1.52.09,3.66,3.66,0,0,1,1.39.44,2.7,2.7,0,0,1,1,1.11,4.45,4.45,0,0,1,.39,2.05,3.93,3.93,0,0,1-.39,1.92,2.78,2.78,0,0,1-1,1.07,3.54,3.54,0,0,1-1.39.48,11.33,11.33,0,0,1-1.52.11h-1.79V418a22.58,22.58,0,0,1-.13,2.52,6,6,0,0,1-.63,2.14,3.71,3.71,0,0,1-1.43,1.51,4.79,4.79,0,0,1-2.51.56,4.37,4.37,0,0,1-2.4-.56,3.6,3.6,0,0,1-1.33-1.51,6.59,6.59,0,0,1-.56-2.14q-.12-1.2-.12-2.52V402.21h-1.67a11.56,11.56,0,0,1-1.59-.11,3.2,3.2,0,0,1-1.34-.48,2.6,2.6,0,0,1-.94-1.07,4.21,4.21,0,0,1-.36-1.92,4.77,4.77,0,0,1,.36-2.05,2.54,2.54,0,0,1,.94-1.11,3.31,3.31,0,0,1,1.34-.44,13.48,13.48,0,0,1,1.59-.09h1.67a44.83,44.83,0,0,1,.24-4.83,9.19,9.19,0,0,1,1.16-3.76,6.2,6.2,0,0,1,2.74-2.45,11.68,11.68,0,0,1,5-.88,12.89,12.89,0,0,1,2.54.24,7,7,0,0,1,2.08.75,3.82,3.82,0,0,1,1.41,1.32,3.61,3.61,0,0,1,.53,2,3.83,3.83,0,0,1-.38,1.79,3.67,3.67,0,0,1-.9,1.16,3.15,3.15,0,0,1-1.18.63,4.4,4.4,0,0,1-1.18.18,1.71,1.71,0,0,1-.83-.21,1.86,1.86,0,0,0-.89-.21.8.8,0,0,0-.65.27,2.14,2.14,0,0,0-.35.71,4.26,4.26,0,0,0-.17,1c0,.35,0,.71,0,1.07v1.25Z"/><path class="cls-5" d="M880.12,406.14a12.73,12.73,0,0,1,.75-4.65,10.12,10.12,0,0,1,1.92-3.19,9,9,0,0,1,2.62-2,13.64,13.64,0,0,1,2.85-1.07,15,15,0,0,1,2.6-.45q1.21-.09,1.89-.09c.46,0,1.08,0,1.88.09a14.29,14.29,0,0,1,2.55.45,13,13,0,0,1,2.74,1.07,8.68,8.68,0,0,1,2.5,2,10.55,10.55,0,0,1,1.83,3.19,13.22,13.22,0,0,1,.71,4.65v7.38a13.22,13.22,0,0,1-.71,4.65,10.55,10.55,0,0,1-1.83,3.19,8.51,8.51,0,0,1-2.5,2,13.65,13.65,0,0,1-2.74,1.08,15.17,15.17,0,0,1-2.55.44c-.8.06-1.42.09-1.88.09s-1.08,0-1.89-.09a15.88,15.88,0,0,1-2.6-.44,14.28,14.28,0,0,1-2.85-1.08,8.84,8.84,0,0,1-2.62-2,10.12,10.12,0,0,1-1.92-3.19,12.73,12.73,0,0,1-.75-4.65Zm9.18,9.47a3.24,3.24,0,0,0,.41,1.52,3.14,3.14,0,0,0,1,1.06,3.74,3.74,0,0,0,2,.46,3.4,3.4,0,0,0,1.92-.46,3.13,3.13,0,0,0,1-1.06,3.64,3.64,0,0,0,.42-1.52V404.83a4.41,4.41,0,0,0-.42-1.64,3.69,3.69,0,0,0-1-1.12,3,3,0,0,0-1.92-.52,3.32,3.32,0,0,0-2,.52,3.69,3.69,0,0,0-1,1.12,3.9,3.9,0,0,0-.41,1.64Z"/><path class="cls-5" d="M930.22,399.41a4.45,4.45,0,0,1-1.14,3.39,4.6,4.6,0,0,1-3.27,1.07c-.19,0-.48,0-.84.05a5.5,5.5,0,0,0-1.18.24,6.09,6.09,0,0,0-1.27.56,4.45,4.45,0,0,0-1.17,1,4.79,4.79,0,0,0-.87,1.62,7.42,7.42,0,0,0-.32,2.35v8.52a20.57,20.57,0,0,1-.14,2.38,5.76,5.76,0,0,1-.61,2.07,3.82,3.82,0,0,1-1.37,1.48,4.46,4.46,0,0,1-2.41.56,4.25,4.25,0,0,1-2.36-.56,3.84,3.84,0,0,1-1.32-1.48,6,6,0,0,1-.6-2.07,20.59,20.59,0,0,1-.13-2.38V401.55a21.47,21.47,0,0,1,.13-2.43,6.26,6.26,0,0,1,.6-2.1,3.74,3.74,0,0,1,1.32-1.47,4.34,4.34,0,0,1,2.36-.55,3.6,3.6,0,0,1,2.34.67,4,4,0,0,1,1.2,1.73,7.73,7.73,0,0,1,.45,2.35q.06,1.29.06,2.52h.48a13.87,13.87,0,0,1,1.1-3,10.24,10.24,0,0,1,1.52-2.29,6.42,6.42,0,0,1,1.78-1.45,4.13,4.13,0,0,1,1.91-.5,5.88,5.88,0,0,1,1.89.25,2.4,2.4,0,0,1,1.15.79,3,3,0,0,1,.56,1.37A11.49,11.49,0,0,1,930.22,399.41Z"/><path class="cls-5" d="M942.38,402.74a1.73,1.73,0,0,0,.38,1.1,4.59,4.59,0,0,0,1.06,1,13.53,13.53,0,0,0,1.55.91c.58.3,1.19.6,1.83.89,1,.48,2,1,3,1.54a14.54,14.54,0,0,1,2.77,1.92,9.32,9.32,0,0,1,2,2.55,7,7,0,0,1,.79,3.41,9,9,0,0,1-.52,3.15,7.68,7.68,0,0,1-1.39,2.37,7.27,7.27,0,0,1-2,1.65,11.73,11.73,0,0,1-2.41,1.05,16.23,16.23,0,0,1-2.58.55,19.77,19.77,0,0,1-2.47.16,18.63,18.63,0,0,1-4-.38,12.42,12.42,0,0,1-2.92-1,8.14,8.14,0,0,1-2-1.46,7.12,7.12,0,0,1-1.24-1.71,7.56,7.56,0,0,1-.62-1.78,8,8,0,0,1-.18-1.62,3.2,3.2,0,0,1,1-2.62,4.65,4.65,0,0,1,3-.84,3.63,3.63,0,0,1,2.44.81,3.34,3.34,0,0,1,1,2.59,1.44,1.44,0,0,0,.34.95,2.3,2.3,0,0,0,.8.58,3.72,3.72,0,0,0,1.09.3,9.3,9.3,0,0,0,1.16.08,2.86,2.86,0,0,0,1.89-.61,2,2,0,0,0,.73-1.6,2.72,2.72,0,0,0-.49-1.56,5.92,5.92,0,0,0-1.3-1.36,14.15,14.15,0,0,0-1.83-1.2l-2.1-1.18c-.89-.48-1.79-1-2.69-1.52a15.24,15.24,0,0,1-2.46-1.79,8.45,8.45,0,0,1-1.79-2.22,5.76,5.76,0,0,1-.68-2.81,8.84,8.84,0,0,1,.76-3.89,6.23,6.23,0,0,1,2.22-2.53,10,10,0,0,1,3.56-1.38,27.66,27.66,0,0,1,4.78-.48h.47a17.18,17.18,0,0,1,4.1.42,10.63,10.63,0,0,1,2.8,1.08,6.32,6.32,0,0,1,1.76,1.51,6.64,6.64,0,0,1,.95,1.68,6.55,6.55,0,0,1,.39,1.62c.05.52.07,1,.07,1.32a2.53,2.53,0,0,1-1.36,2.39,4.17,4.17,0,0,1-1.38.48,11.86,11.86,0,0,1-1.61.16,3.33,3.33,0,0,1-1.29-.24,3.39,3.39,0,0,1-1-.59,2.66,2.66,0,0,1-.64-.8,2,2,0,0,1-.23-.87,2.15,2.15,0,0,0-.9-1.73,3.58,3.58,0,0,0-2.07-.59,4.37,4.37,0,0,0-1,.1,2.43,2.43,0,0,0-.84.36,1.92,1.92,0,0,0-.59.67A2.26,2.26,0,0,0,942.38,402.74Z"/><path class="cls-5" d="M965.67,394.94V389.7a21.83,21.83,0,0,1,.13-2.45,6.22,6.22,0,0,1,.61-2.13,3.9,3.9,0,0,1,1.37-1.51,4.36,4.36,0,0,1,2.41-.59,4.31,4.31,0,0,1,2.39.59,3.78,3.78,0,0,1,1.35,1.51,6.44,6.44,0,0,1,.6,2.13,21.83,21.83,0,0,1,.13,2.45v5.24h2.44c.52,0,1,0,1.55.07a3.49,3.49,0,0,1,1.39.43,2.58,2.58,0,0,1,1,1.08,4.33,4.33,0,0,1,.37,2,4.21,4.21,0,0,1-.37,1.94,2.62,2.62,0,0,1-1,1.07,3.68,3.68,0,0,1-1.39.46,11.42,11.42,0,0,1-1.55.11h-2.44v10.42c0,.4,0,.82.05,1.27A3.33,3.33,0,0,0,975,415a2.42,2.42,0,0,0,.8.94,2.65,2.65,0,0,0,1.52.37,8.63,8.63,0,0,1,1.83.17,2.83,2.83,0,0,1,1.26.58,2.52,2.52,0,0,1,.73,1.16,6.73,6.73,0,0,1,.23,1.91,3.7,3.7,0,0,1-.55,2.05,4.57,4.57,0,0,1-1.47,1.43,6.89,6.89,0,0,1-2.15.84,12.41,12.41,0,0,1-2.56.26,12.8,12.8,0,0,1-3.62-.44,7.09,7.09,0,0,1-2.5-1.27,6.17,6.17,0,0,1-1.58-2,10.21,10.21,0,0,1-.86-2.57,20.49,20.49,0,0,1-.36-3.08c0-1.11-.07-2.26-.07-3.47v-9.83H964a11.28,11.28,0,0,1-1.54-.11,3.54,3.54,0,0,1-1.35-.46,2.66,2.66,0,0,1-1-1.07,4.21,4.21,0,0,1-.37-1.94,4.33,4.33,0,0,1,.37-2,2.63,2.63,0,0,1,1-1.08,3.35,3.35,0,0,1,1.35-.43c.51-.05,1-.07,1.54-.07Z"/><path class="cls-5" d="M1011.06,418q0,1.26-.09,2.46a6.13,6.13,0,0,1-.54,2.16,3.54,3.54,0,0,1-1.34,1.53,4.53,4.53,0,0,1-2.5.58,5,5,0,0,1-2.56-.55,3.6,3.6,0,0,1-1.37-1.34,4.35,4.35,0,0,1-.55-1.65,12.59,12.59,0,0,1-.11-1.46,9.39,9.39,0,0,1-.75,1.76,6.27,6.27,0,0,1-1.27,1.6,6.24,6.24,0,0,1-4.41,1.64,10.76,10.76,0,0,1-3.28-.53,7.75,7.75,0,0,1-2.94-1.79,9.06,9.06,0,0,1-2.13-3.26,13.09,13.09,0,0,1-.82-5v-8.64a13.22,13.22,0,0,1,.82-5,8.88,8.88,0,0,1,2.13-3.24,7.73,7.73,0,0,1,2.94-1.78,10.76,10.76,0,0,1,3.28-.53,6.88,6.88,0,0,1,2.55.44,6.3,6.3,0,0,1,3.13,2.77A9.35,9.35,0,0,1,1002,400a6.3,6.3,0,0,1,.42-2.47,4.27,4.27,0,0,1,1.07-1.56,3.65,3.65,0,0,1,1.48-.81,6.08,6.08,0,0,1,1.62-.22,4.28,4.28,0,0,1,2.38.58,3.76,3.76,0,0,1,1.36,1.52,6.4,6.4,0,0,1,.6,2.17c.08.83.13,1.67.13,2.52Zm-5.24-32.88q0,3.51-1.76,5.18a7,7,0,0,1-5,1.67,7.16,7.16,0,0,1-5.07-1.67q-1.79-1.67-1.78-5.18c0-2.36.59-4.09,1.78-5.17a7.28,7.28,0,0,1,5.07-1.62q3.45,0,5.12,1.62C1005.26,381,1005.82,382.75,1005.82,385.11Zm-10.25,28.3c0,.53,0,1.06.06,1.57a4.29,4.29,0,0,0,.33,1.4,2.31,2.31,0,0,0,.79,1,2.44,2.44,0,0,0,1.44.37,3.13,3.13,0,0,0,1.89-.52,3.34,3.34,0,0,0,1.15-1.61,10.54,10.54,0,0,0,.58-2.74c.11-1.1.17-2.41.19-3.94a15.76,15.76,0,0,0-.16-2.13,9.77,9.77,0,0,0-.58-2.28,5.31,5.31,0,0,0-1.16-1.82,2.61,2.61,0,0,0-1.91-.74,2.44,2.44,0,0,0-1.44.37,2.35,2.35,0,0,0-.79,1,4.06,4.06,0,0,0-.33,1.35c0,.51-.06,1-.06,1.54Zm6.85-28.3a3.41,3.41,0,0,0-.85-2.59,3.54,3.54,0,0,0-2.54-.81,3.61,3.61,0,0,0-2.51.81,3.34,3.34,0,0,0-.89,2.59,3.39,3.39,0,0,0,.89,2.55,4.16,4.16,0,0,0,5,0A3.39,3.39,0,0,0,1002.42,385.11Z"/><path class="cls-5" d="M1066.52,418c0,.84,0,1.66-.13,2.46a6.62,6.62,0,0,1-.6,2.16,3.72,3.72,0,0,1-1.36,1.53,4.4,4.4,0,0,1-2.44.58,4.46,4.46,0,0,1-2.45-.58,3.92,3.92,0,0,1-1.41-1.53,6.64,6.64,0,0,1-.64-2.16,19.84,19.84,0,0,1-.14-2.46V406.26c0-.52,0-1-.06-1.54a4,4,0,0,0-.33-1.35,2.35,2.35,0,0,0-.79-1,2.45,2.45,0,0,0-1.45-.37,2.53,2.53,0,0,0-1.93.79,5.45,5.45,0,0,0-1.18,2.17,15,15,0,0,0-.59,3.28c-.11,1.26-.17,2.61-.17,4.06V418a22,22,0,0,1-.13,2.46,6.38,6.38,0,0,1-.61,2.16,3.82,3.82,0,0,1-1.4,1.53,4.65,4.65,0,0,1-2.5.58,4.44,4.44,0,0,1-2.45-.58,3.77,3.77,0,0,1-1.35-1.53,6.62,6.62,0,0,1-.6-2.16,22,22,0,0,1-.13-2.46V389.76a22,22,0,0,1,.13-2.46,6.48,6.48,0,0,1,.6-2.16,3.7,3.7,0,0,1,1.35-1.53,4.44,4.44,0,0,1,2.45-.59,4.65,4.65,0,0,1,2.5.59,3.75,3.75,0,0,1,1.4,1.53,6.26,6.26,0,0,1,.61,2.16,22,22,0,0,1,.13,2.46v10.18a9.22,9.22,0,0,1,.78-1.76,6,6,0,0,1,1.31-1.6,6.66,6.66,0,0,1,1.89-1.18,6.33,6.33,0,0,1,2.52-.46,10.27,10.27,0,0,1,3.29.55,7.86,7.86,0,0,1,2.95,1.8,9.48,9.48,0,0,1,2.11,3.29,13.46,13.46,0,0,1,.82,5Z"/><path class="cls-5" d="M1086.89,420.08a16,16,0,0,1-1.22,2.66,5.5,5.5,0,0,1-1.1,1.39,2.17,2.17,0,0,1-1.07.52,8.26,8.26,0,0,1-1.13.07,9.49,9.49,0,0,1-1.23-.07,2.42,2.42,0,0,1-1.13-.51,5.06,5.06,0,0,1-1.16-1.37,14.78,14.78,0,0,1-1.25-2.69l-6.73-17.64c-.18-.47-.34-1-.49-1.53a6.15,6.15,0,0,1-.23-1.62,6.05,6.05,0,0,1,.23-1.66,3.67,3.67,0,0,1,.73-1.38,3.39,3.39,0,0,1,1.31-.95,4.77,4.77,0,0,1,2-.36,3.33,3.33,0,0,1,1.54.36,4.36,4.36,0,0,1,1.25.95,6.6,6.6,0,0,1,1,1.37,8.61,8.61,0,0,1,.65,1.61l3.34,10.84h.47l3.1-10.84a8.26,8.26,0,0,1,.6-1.52,5.86,5.86,0,0,1,.94-1.39,4.32,4.32,0,0,1,1.31-1,3.72,3.72,0,0,1,1.74-.39,4,4,0,0,1,1.82.37,3.69,3.69,0,0,1,1.22,1,4,4,0,0,1,.68,1.42,6.47,6.47,0,0,1,.21,1.64,6.38,6.38,0,0,1-.19,1.55,10.4,10.4,0,0,1-.53,1.54Z"/><path class="cls-5" d="M1097.5,406.14a12.74,12.74,0,0,1,.74-4.65,10.31,10.31,0,0,1,1.92-3.19,9.15,9.15,0,0,1,2.62-2,13.85,13.85,0,0,1,2.85-1.07,15,15,0,0,1,2.6-.45q1.21-.09,1.89-.09c.46,0,1.09,0,1.88.09a14.29,14.29,0,0,1,2.55.45,12.82,12.82,0,0,1,2.74,1.07,8.55,8.55,0,0,1,2.5,2,10.15,10.15,0,0,1,1.83,3.19,13.21,13.21,0,0,1,.72,4.65v7.38a13.21,13.21,0,0,1-.72,4.65,10.15,10.15,0,0,1-1.83,3.19,8.39,8.39,0,0,1-2.5,2,13.42,13.42,0,0,1-2.74,1.08,15.17,15.17,0,0,1-2.55.44c-.79.06-1.42.09-1.88.09s-1.08,0-1.89-.09a15.88,15.88,0,0,1-2.6-.44,14.51,14.51,0,0,1-2.85-1.08,9,9,0,0,1-2.62-2,10.31,10.31,0,0,1-1.92-3.19,12.74,12.74,0,0,1-.74-4.65Zm9.17,9.47a3.13,3.13,0,0,0,.42,1.52,3,3,0,0,0,1,1.06,3.74,3.74,0,0,0,2,.46,3.46,3.46,0,0,0,1.93-.46,3.09,3.09,0,0,0,1-1.06,3.64,3.64,0,0,0,.42-1.52V404.83a4.41,4.41,0,0,0-.42-1.64,3.65,3.65,0,0,0-1-1.12,3.08,3.08,0,0,0-1.93-.52,3.32,3.32,0,0,0-2,.52,3.53,3.53,0,0,0-1,1.12,3.76,3.76,0,0,0-.42,1.64Z"/><path class="cls-5" d="M1147.59,399.41a4.45,4.45,0,0,1-1.14,3.39,4.58,4.58,0,0,1-3.26,1.07c-.2,0-.48,0-.85.05a5.5,5.5,0,0,0-1.18.24,5.8,5.8,0,0,0-1.26.56,4.49,4.49,0,0,0-1.18,1,4.61,4.61,0,0,0-.86,1.62,7.4,7.4,0,0,0-.33,2.35v8.52a20.57,20.57,0,0,1-.14,2.38,5.76,5.76,0,0,1-.61,2.07,3.82,3.82,0,0,1-1.37,1.48,4.43,4.43,0,0,1-2.41.56,4.21,4.21,0,0,1-2.35-.56,3.79,3.79,0,0,1-1.33-1.48,6,6,0,0,1-.59-2.07,20.57,20.57,0,0,1-.14-2.38V401.55a21.45,21.45,0,0,1,.14-2.43,6.26,6.26,0,0,1,.59-2.1,3.69,3.69,0,0,1,1.33-1.47A4.3,4.3,0,0,1,1133,395a3.6,3.6,0,0,1,2.34.67,3.89,3.89,0,0,1,1.2,1.73,7.73,7.73,0,0,1,.45,2.35q.06,1.29.06,2.52h.48a13.87,13.87,0,0,1,1.1-3,10.59,10.59,0,0,1,1.52-2.29,6.32,6.32,0,0,1,1.79-1.45,4.09,4.09,0,0,1,1.9-.5,5.8,5.8,0,0,1,1.89.25,2.4,2.4,0,0,1,1.15.79,3.06,3.06,0,0,1,.57,1.37A12.68,12.68,0,0,1,1147.59,399.41Z"/><path class="cls-5" d="M1175.35,418c0,.84,0,1.66-.08,2.46a6.13,6.13,0,0,1-.54,2.16,3.67,3.67,0,0,1-1.34,1.53,4.56,4.56,0,0,1-2.5.58,4.94,4.94,0,0,1-2.56-.55,3.53,3.53,0,0,1-1.37-1.34,4.37,4.37,0,0,1-.56-1.65,12.31,12.31,0,0,1-.1-1.46,9.46,9.46,0,0,1-.76,1.76,6.38,6.38,0,0,1-3.13,2.78,6.4,6.4,0,0,1-2.54.46,10.67,10.67,0,0,1-3.28-.53,7.79,7.79,0,0,1-2.95-1.79,9.32,9.32,0,0,1-2.13-3.26,13.09,13.09,0,0,1-.82-5v-8.64a13.22,13.22,0,0,1,.82-5,9.14,9.14,0,0,1,2.13-3.24,7.76,7.76,0,0,1,2.95-1.78,10.67,10.67,0,0,1,3.28-.53,6.78,6.78,0,0,1,2.54.44,6,6,0,0,1,1.86,1.17,6.27,6.27,0,0,1,1.27,1.6,9.41,9.41,0,0,1,.76,1.79V389.82a23.1,23.1,0,0,1,.13-2.52,6.46,6.46,0,0,1,.6-2.18,3.69,3.69,0,0,1,1.37-1.51,4.56,4.56,0,0,1,2.49-.59,4.3,4.3,0,0,1,2.38.59,3.64,3.64,0,0,1,1.35,1.51,6.46,6.46,0,0,1,.6,2.18,23.1,23.1,0,0,1,.13,2.52Zm-15.48-4.58c0,.53,0,1.06.06,1.57a4.05,4.05,0,0,0,.32,1.4,2.39,2.39,0,0,0,.79,1,2.45,2.45,0,0,0,1.45.37,3.17,3.17,0,0,0,1.89-.52,3.34,3.34,0,0,0,1.15-1.61,11,11,0,0,0,.58-2.74c.1-1.1.17-2.41.19-3.94a15.76,15.76,0,0,0-.16-2.13,9.78,9.78,0,0,0-.59-2.28,5,5,0,0,0-1.16-1.82,2.59,2.59,0,0,0-1.9-.74,2.45,2.45,0,0,0-1.45.37,2.43,2.43,0,0,0-.79,1,3.82,3.82,0,0,0-.32,1.35c0,.51-.06,1-.06,1.54Z"/><path class="cls-5" d="M1205.79,418c0,.84,0,1.66-.08,2.46a6.13,6.13,0,0,1-.54,2.16,3.67,3.67,0,0,1-1.34,1.53,4.56,4.56,0,0,1-2.5.58,4.94,4.94,0,0,1-2.56-.55,3.53,3.53,0,0,1-1.37-1.34,4.37,4.37,0,0,1-.56-1.65c-.06-.58-.1-1.06-.1-1.46a9.46,9.46,0,0,1-.76,1.76,6.38,6.38,0,0,1-3.13,2.78,6.4,6.4,0,0,1-2.54.46,10.67,10.67,0,0,1-3.28-.53,7.86,7.86,0,0,1-3-1.79,9.32,9.32,0,0,1-2.13-3.26,13.29,13.29,0,0,1-.82-5v-8.64a13.42,13.42,0,0,1,.82-5,9.14,9.14,0,0,1,2.13-3.24,7.84,7.84,0,0,1,3-1.78,10.67,10.67,0,0,1,3.28-.53,6.78,6.78,0,0,1,2.54.44,6,6,0,0,1,1.86,1.17,6.27,6.27,0,0,1,1.27,1.6,9.41,9.41,0,0,1,.76,1.79,6.3,6.3,0,0,1,.42-2.47,4.15,4.15,0,0,1,1.07-1.56,3.68,3.68,0,0,1,1.47-.81,6.15,6.15,0,0,1,1.63-.22,4.3,4.3,0,0,1,2.38.58,3.76,3.76,0,0,1,1.36,1.52,6.64,6.64,0,0,1,.59,2.17,23.36,23.36,0,0,1,.13,2.52Zm-15.48-4.58c0,.53,0,1.06.06,1.57a4.57,4.57,0,0,0,.32,1.4,2.39,2.39,0,0,0,.79,1,2.45,2.45,0,0,0,1.45.37,3.17,3.17,0,0,0,1.89-.52,3.34,3.34,0,0,0,1.15-1.61,11,11,0,0,0,.58-2.74c.11-1.1.17-2.41.19-3.94a15.76,15.76,0,0,0-.16-2.13,10.3,10.3,0,0,0-.58-2.28,5.19,5.19,0,0,0-1.17-1.82,2.59,2.59,0,0,0-1.9-.74,2.45,2.45,0,0,0-1.45.37,2.43,2.43,0,0,0-.79,1,4.31,4.31,0,0,0-.32,1.35c0,.51-.06,1-.06,1.54Z"/><path class="cls-5" d="M1237.78,417.93a20.35,20.35,0,0,1-.15,2.5,6.38,6.38,0,0,1-.63,2.18,3.92,3.92,0,0,1-1.41,1.53,4.46,4.46,0,0,1-2.45.58,4.38,4.38,0,0,1-2.42-.58,3.79,3.79,0,0,1-1.36-1.53,6.37,6.37,0,0,1-.62-2.18c-.08-.81-.13-1.64-.13-2.5V406.32c0-.56,0-1.11-.07-1.64a4.55,4.55,0,0,0-.35-1.42,2.17,2.17,0,0,0-2.2-1.35,2.58,2.58,0,0,0-2,.8,5.63,5.63,0,0,0-1.17,2.21,15.2,15.2,0,0,0-.58,3.29c-.1,1.26-.15,2.61-.15,4.06v5.66a20.35,20.35,0,0,1-.15,2.5,6.38,6.38,0,0,1-.64,2.18,4,4,0,0,1-1.4,1.53,4.52,4.52,0,0,1-2.46.58,4.34,4.34,0,0,1-2.41-.58,3.82,3.82,0,0,1-1.37-1.53,6.37,6.37,0,0,1-.61-2.18,22.57,22.57,0,0,1-.14-2.5V401.67q0-1.28.09-2.49a5.91,5.91,0,0,1,.54-2.14,3.66,3.66,0,0,1,1.35-1.52,4.72,4.72,0,0,1,2.55-.58,5,5,0,0,1,2.56.55,3.88,3.88,0,0,1,1.39,1.33,4.43,4.43,0,0,1,.58,1.63,11.19,11.19,0,0,1,.12,1.49,7.89,7.89,0,0,1,.74-1.76,6.52,6.52,0,0,1,3.19-2.78,6.54,6.54,0,0,1,2.56-.46,10.76,10.76,0,0,1,3.28.53,7.86,7.86,0,0,1,2.95,1.79,9.26,9.26,0,0,1,2.12,3.28,13.31,13.31,0,0,1,.82,5Z"/><path class="cls-5" d="M1289.07,424.72a4.36,4.36,0,0,1-2.41-.58,3.89,3.89,0,0,1-1.37-1.53,6.38,6.38,0,0,1-.61-2.16,22,22,0,0,1-.13-2.46V406.2c0-.54,0-1.07-.08-1.58a4.3,4.3,0,0,0-.34-1.37,2.35,2.35,0,0,0-.79-1,2.38,2.38,0,0,0-1.41-.37,2.54,2.54,0,0,0-1.94.8,5.69,5.69,0,0,0-1.18,2.19,16.29,16.29,0,0,0-.59,3.26c-.11,1.25-.17,2.6-.17,4V418a22,22,0,0,1-.13,2.46,6.62,6.62,0,0,1-.6,2.16,3.7,3.7,0,0,1-1.35,1.53,5.44,5.44,0,0,1-4.89,0,3.77,3.77,0,0,1-1.35-1.53,6.62,6.62,0,0,1-.6-2.16A22,22,0,0,1,1269,418V401.67c0-.83,0-1.65.1-2.46a6.59,6.59,0,0,1,.55-2.16,3.64,3.64,0,0,1,1.36-1.53,4.63,4.63,0,0,1,2.52-.58,4.86,4.86,0,0,1,2.54.55,3.72,3.72,0,0,1,1.36,1.34,4.2,4.2,0,0,1,.53,1.65,14.49,14.49,0,0,1,.09,1.46,7.64,7.64,0,0,1,.85-1.76,6.76,6.76,0,0,1,1.48-1.6,7.91,7.91,0,0,1,2-1.18,6.94,6.94,0,0,1,2.59-.46,8.34,8.34,0,0,1,3.82.95A8.12,8.12,0,0,1,1292,399a5,5,0,0,1,1.31-1.77,8.21,8.21,0,0,1,2-1.27,10.6,10.6,0,0,1,2.35-.76,12.4,12.4,0,0,1,2.47-.25,10.67,10.67,0,0,1,3.28.53,7.79,7.79,0,0,1,3,1.79,9.42,9.42,0,0,1,2.13,3.26,13.13,13.13,0,0,1,.82,5V418a19.82,19.82,0,0,1-.15,2.46,6.63,6.63,0,0,1-.63,2.16,3.77,3.77,0,0,1-1.38,1.53,4.46,4.46,0,0,1-2.43.58,4.52,4.52,0,0,1-2.46-.58,3.84,3.84,0,0,1-1.38-1.53,6.38,6.38,0,0,1-.61-2.16,22,22,0,0,1-.14-2.46V406.2c0-.54,0-1.07-.08-1.58a4.58,4.58,0,0,0-.36-1.37,2.32,2.32,0,0,0-.81-1,2.43,2.43,0,0,0-1.43-.37,2.39,2.39,0,0,0-1.62.59,4.61,4.61,0,0,0-1.12,1.64,11.44,11.44,0,0,0-.68,2.49,28.33,28.33,0,0,0-.33,3.14V418a22,22,0,0,1-.13,2.46,6.62,6.62,0,0,1-.61,2.16,3.79,3.79,0,0,1-1.39,1.53A4.48,4.48,0,0,1,1289.07,424.72Z"/><path class="cls-5" d="M1340,418q0,1.26-.09,2.46a6.13,6.13,0,0,1-.54,2.16,3.61,3.61,0,0,1-1.34,1.53,4.53,4.53,0,0,1-2.5.58,5,5,0,0,1-2.56-.55,3.6,3.6,0,0,1-1.37-1.34,4.35,4.35,0,0,1-.55-1.65,12.59,12.59,0,0,1-.11-1.46,9.46,9.46,0,0,1-.76,1.76,6.23,6.23,0,0,1-1.26,1.6,6.24,6.24,0,0,1-4.41,1.64,10.71,10.71,0,0,1-3.28-.53,7.86,7.86,0,0,1-3-1.79,9.32,9.32,0,0,1-2.13-3.26,13.31,13.31,0,0,1-.81-5v-8.64a13.44,13.44,0,0,1,.81-5,9.14,9.14,0,0,1,2.13-3.24,7.84,7.84,0,0,1,3-1.78,10.71,10.71,0,0,1,3.28-.53,6.88,6.88,0,0,1,2.55.44,6.22,6.22,0,0,1,3.12,2.77,9.41,9.41,0,0,1,.76,1.79,6.3,6.3,0,0,1,.42-2.47,4.27,4.27,0,0,1,1.07-1.56,3.65,3.65,0,0,1,1.48-.81,6,6,0,0,1,1.62-.22,4.28,4.28,0,0,1,2.38.58,3.76,3.76,0,0,1,1.36,1.52,6.4,6.4,0,0,1,.59,2.17,23.36,23.36,0,0,1,.14,2.52Zm-15.49-4.58c0,.53,0,1.06.06,1.57a4.29,4.29,0,0,0,.33,1.4,2.31,2.31,0,0,0,.79,1,2.4,2.4,0,0,0,1.44.37,3.17,3.17,0,0,0,1.89-.52,3.34,3.34,0,0,0,1.15-1.61,10.54,10.54,0,0,0,.58-2.74c.11-1.1.17-2.41.19-3.94a15.76,15.76,0,0,0-.16-2.13,9.77,9.77,0,0,0-.58-2.28,5.31,5.31,0,0,0-1.16-1.82,2.62,2.62,0,0,0-1.91-.74,2.4,2.4,0,0,0-1.44.37,2.35,2.35,0,0,0-.79,1,4.06,4.06,0,0,0-.33,1.35c0,.51-.06,1-.06,1.54Z"/><path class="cls-5" d="M1371.94,417.93a20.35,20.35,0,0,1-.15,2.5,6.61,6.61,0,0,1-.64,2.18,4,4,0,0,1-1.4,1.53,4.52,4.52,0,0,1-2.46.58,4.34,4.34,0,0,1-2.41-.58,3.82,3.82,0,0,1-1.37-1.53,6.37,6.37,0,0,1-.61-2.18,22.57,22.57,0,0,1-.14-2.5V406.32c0-.56,0-1.11-.07-1.64a4.85,4.85,0,0,0-.34-1.42,2.46,2.46,0,0,0-.79-1,2.39,2.39,0,0,0-1.42-.37,2.55,2.55,0,0,0-2,.8,5.64,5.64,0,0,0-1.18,2.21,15.2,15.2,0,0,0-.58,3.29c-.1,1.26-.15,2.61-.15,4.06v5.66a20.35,20.35,0,0,1-.15,2.5,6.38,6.38,0,0,1-.64,2.18,3.89,3.89,0,0,1-1.4,1.53,4.5,4.5,0,0,1-2.46.58,4.36,4.36,0,0,1-2.41-.58,3.89,3.89,0,0,1-1.37-1.53,6.37,6.37,0,0,1-.61-2.18,22.6,22.6,0,0,1-.13-2.5V401.67c0-.85,0-1.68.09-2.49a5.71,5.71,0,0,1,.53-2.14,3.62,3.62,0,0,1,1.36-1.52,4.66,4.66,0,0,1,2.54-.58,5,5,0,0,1,2.56.55,3.88,3.88,0,0,1,1.39,1.33,4.26,4.26,0,0,1,.58,1.63,11.19,11.19,0,0,1,.12,1.49,8.39,8.39,0,0,1,.74-1.76,6.39,6.39,0,0,1,1.3-1.6,6.66,6.66,0,0,1,1.89-1.18,6.57,6.57,0,0,1,2.56-.46,10.71,10.71,0,0,1,3.28.53,7.86,7.86,0,0,1,3,1.79,9.42,9.42,0,0,1,2.13,3.28,13.52,13.52,0,0,1,.82,5Z"/><path class="cls-5" d="M812.63,491.19q0,1.26-.09,2.46a6.35,6.35,0,0,1-.53,2.16,3.67,3.67,0,0,1-1.34,1.53,4.57,4.57,0,0,1-2.51.58,5,5,0,0,1-2.56-.55,3.68,3.68,0,0,1-1.37-1.34,4.3,4.3,0,0,1-.55-1.65,12.31,12.31,0,0,1-.1-1.46,10.17,10.17,0,0,1-.76,1.76,6.49,6.49,0,0,1-1.27,1.61,6.69,6.69,0,0,1-1.86,1.17,6.45,6.45,0,0,1-2.55.46,10.36,10.36,0,0,1-3.27-.53,7.71,7.71,0,0,1-3-1.79,9.06,9.06,0,0,1-2.13-3.26,13.09,13.09,0,0,1-.82-5v-8.64a13.22,13.22,0,0,1,.82-5,8.88,8.88,0,0,1,2.13-3.24,7.69,7.69,0,0,1,3-1.78,10.65,10.65,0,0,1,3.27-.53,6.84,6.84,0,0,1,2.55.44,6.26,6.26,0,0,1,1.86,1.17,6.15,6.15,0,0,1,1.27,1.61,9.72,9.72,0,0,1,.76,1.78V463a23.1,23.1,0,0,1,.13-2.52,6.46,6.46,0,0,1,.6-2.18,3.62,3.62,0,0,1,1.37-1.51,4.53,4.53,0,0,1,2.48-.59,4.31,4.31,0,0,1,2.39.59,3.78,3.78,0,0,1,1.35,1.51,6.46,6.46,0,0,1,.6,2.18,23.1,23.1,0,0,1,.13,2.52Zm-15.49-4.58c0,.53,0,1.06.06,1.57a4.29,4.29,0,0,0,.33,1.4,2.31,2.31,0,0,0,.79,1,2.44,2.44,0,0,0,1.44.37,3.19,3.19,0,0,0,1.9-.52,3.39,3.39,0,0,0,1.14-1.61,10.54,10.54,0,0,0,.58-2.74c.11-1.1.18-2.41.2-3.94a15.91,15.91,0,0,0-.17-2.13,9.77,9.77,0,0,0-.58-2.28,5.17,5.17,0,0,0-1.16-1.82,2.61,2.61,0,0,0-1.91-.74,2.44,2.44,0,0,0-1.44.37,2.35,2.35,0,0,0-.79,1,4.06,4.06,0,0,0-.33,1.35c0,.51-.06,1-.06,1.54Z"/><path class="cls-5" d="M843.79,481c0,.31,0,.69-.06,1.11a2.49,2.49,0,0,1-.47,1.22,3.13,3.13,0,0,1-1.26,1,5.72,5.72,0,0,1-2.44.42H827.7v2.86a6.58,6.58,0,0,0,.18,1.49,4.42,4.42,0,0,0,.61,1.43,3.48,3.48,0,0,0,1.15,1.07,3.4,3.4,0,0,0,1.76.42,4.66,4.66,0,0,0,1.83-.29,2.84,2.84,0,0,0,1-.7,5.92,5.92,0,0,0,.67-.89,3.64,3.64,0,0,1,.79-.89,4,4,0,0,1,1.37-.7,8.16,8.16,0,0,1,2.43-.29,8.48,8.48,0,0,1,1.44.12,3.46,3.46,0,0,1,1.24.45,2.43,2.43,0,0,1,.86.91,3,3,0,0,1,.33,1.5,4.54,4.54,0,0,1-1.22,3.23,8.75,8.75,0,0,1-3.07,2.07,16.78,16.78,0,0,1-4,1.11,28,28,0,0,1-4,.32,19,19,0,0,1-4.71-.62,11,11,0,0,1-3.94-1.91,9.09,9.09,0,0,1-2.73-3.42,11.89,11.89,0,0,1-1-5.19v-7a14.87,14.87,0,0,1,.67-4.79,10.5,10.5,0,0,1,1.74-3.28,8.25,8.25,0,0,1,2.41-2,12.06,12.06,0,0,1,2.71-1.08,14.59,14.59,0,0,1,2.61-.45q1.23-.09,2.13-.09a21.22,21.22,0,0,1,5.14.54,12.77,12.77,0,0,1,3.56,1.4,7.75,7.75,0,0,1,2.26,2,8.72,8.72,0,0,1,1.25,2.34,10.47,10.47,0,0,1,.54,2.44c.08.83.12,1.59.12,2.31Zm-16.09-.72h7.45c0-.93,0-1.76-.08-2.49a4.83,4.83,0,0,0-.44-1.83,2.54,2.54,0,0,0-1.16-1.13,5.22,5.22,0,0,0-2.25-.39,3.93,3.93,0,0,0-1.92.39,2.78,2.78,0,0,0-1.06,1,3.16,3.16,0,0,0-.45,1.23,8.77,8.77,0,0,0-.09,1.17Z"/><path class="cls-5" d="M850.46,462.84a21.83,21.83,0,0,1,.13-2.45,6,6,0,0,1,.61-2.11,3.85,3.85,0,0,1,1.37-1.49,4.47,4.47,0,0,1,2.42-.57,4.52,4.52,0,0,1,2.44.57,3.65,3.65,0,0,1,1.35,1.49,6.26,6.26,0,0,1,.6,2.11,21.83,21.83,0,0,1,.13,2.45v28.41a22,22,0,0,1-.13,2.46,6.36,6.36,0,0,1-.6,2.14,3.64,3.64,0,0,1-1.35,1.51,4.52,4.52,0,0,1-2.44.56,4.47,4.47,0,0,1-2.42-.56,3.83,3.83,0,0,1-1.37-1.51,6.14,6.14,0,0,1-.61-2.14,22,22,0,0,1-.13-2.46Z"/><path class="cls-5" d="M891.62,481c0,.31,0,.69-.06,1.11a2.48,2.48,0,0,1-.46,1.22,3.16,3.16,0,0,1-1.27,1,5.69,5.69,0,0,1-2.44.42H875.54v2.86a6.58,6.58,0,0,0,.18,1.49,4.21,4.21,0,0,0,.61,1.43,3.28,3.28,0,0,0,2.9,1.49,4.62,4.62,0,0,0,1.83-.29,2.79,2.79,0,0,0,1-.7,6.68,6.68,0,0,0,.67-.89,3.59,3.59,0,0,1,.78-.89,4.07,4.07,0,0,1,1.37-.7,8.2,8.2,0,0,1,2.43-.29,8.6,8.6,0,0,1,1.45.12,3.41,3.41,0,0,1,1.23.45,2.46,2.46,0,0,1,.87.91,3.15,3.15,0,0,1,.32,1.5,4.49,4.49,0,0,1-1.22,3.23,8.62,8.62,0,0,1-3.06,2.07,16.91,16.91,0,0,1-4,1.11,28.17,28.17,0,0,1-4,.32,18.91,18.91,0,0,1-4.7-.62,11.08,11.08,0,0,1-3.95-1.91A9.17,9.17,0,0,1,867.5,492a11.89,11.89,0,0,1-1-5.19v-7a15.15,15.15,0,0,1,.67-4.79,10.51,10.51,0,0,1,1.75-3.28,8.12,8.12,0,0,1,2.41-2,11.7,11.7,0,0,1,2.71-1.08,14.34,14.34,0,0,1,2.6-.45q1.25-.09,2.13-.09a21.16,21.16,0,0,1,5.14.54,12.65,12.65,0,0,1,3.56,1.4,7.63,7.63,0,0,1,2.26,2,8.76,8.76,0,0,1,1.26,2.34,11,11,0,0,1,.53,2.44c.08.83.12,1.59.12,2.31Zm-16.08-.72H883c0-.93,0-1.76-.07-2.49a4.82,4.82,0,0,0-.45-1.83,2.49,2.49,0,0,0-1.16-1.13,5.22,5.22,0,0,0-2.25-.39,4,4,0,0,0-1.92.39,2.78,2.78,0,0,0-1.06,1,3.14,3.14,0,0,0-.44,1.23,8.77,8.77,0,0,0-.09,1.17Z"/><path class="cls-5" d="M921.47,463a23.1,23.1,0,0,1,.13-2.52,6.46,6.46,0,0,1,.6-2.18,3.71,3.71,0,0,1,1.35-1.51,4.3,4.3,0,0,1,2.38-.59,4.6,4.6,0,0,1,2.48.59,3.71,3.71,0,0,1,1.38,1.51,6.46,6.46,0,0,1,.6,2.18,23.1,23.1,0,0,1,.13,2.52V473.2a9.07,9.07,0,0,1,.76-1.78,6.15,6.15,0,0,1,1.27-1.61,6,6,0,0,1,1.86-1.17,6.78,6.78,0,0,1,2.54-.44,10.67,10.67,0,0,1,3.28.53,7.76,7.76,0,0,1,2.95,1.78,9.14,9.14,0,0,1,2.13,3.24,13.42,13.42,0,0,1,.82,5v8.64a13.29,13.29,0,0,1-.82,5,9.32,9.32,0,0,1-2.13,3.26,7.79,7.79,0,0,1-2.95,1.79,10.37,10.37,0,0,1-3.28.53,6.29,6.29,0,0,1-4.4-1.63,6.49,6.49,0,0,1-1.27-1.61,9.46,9.46,0,0,1-.76-1.76,12.31,12.31,0,0,1-.1,1.46,4.47,4.47,0,0,1-.55,1.65,3.68,3.68,0,0,1-1.37,1.34,5,5,0,0,1-2.57.55,4.56,4.56,0,0,1-2.5-.58,3.67,3.67,0,0,1-1.34-1.53,5.92,5.92,0,0,1-.53-2.16q-.09-1.2-.09-2.46ZM937,479.4c0-.52,0-1-.06-1.54a4.05,4.05,0,0,0-.32-1.35,2.43,2.43,0,0,0-.79-1,2.45,2.45,0,0,0-1.45-.37,2.59,2.59,0,0,0-1.9.74,5,5,0,0,0-1.16,1.82,9.78,9.78,0,0,0-.59,2.28,17.58,17.58,0,0,0-.16,2.13c0,1.53.08,2.84.19,3.94a11,11,0,0,0,.58,2.74,3.41,3.41,0,0,0,1.15,1.61,3.17,3.17,0,0,0,1.89.52,2.45,2.45,0,0,0,1.45-.37,2.39,2.39,0,0,0,.79-1,4.29,4.29,0,0,0,.32-1.4c0-.51.06-1,.06-1.57Z"/><path class="cls-5" d="M953.51,474.81a21.62,21.62,0,0,1,.14-2.44,6.09,6.09,0,0,1,.61-2.13,3.86,3.86,0,0,1,1.37-1.52,5.32,5.32,0,0,1,4.83,0,3.83,3.83,0,0,1,1.36,1.52,6.09,6.09,0,0,1,.62,2.13,24.28,24.28,0,0,1,.13,2.44v16.44c0,.84-.05,1.66-.13,2.46a6.15,6.15,0,0,1-.62,2.14,3.74,3.74,0,0,1-1.36,1.51,5.49,5.49,0,0,1-4.83,0,3.76,3.76,0,0,1-1.37-1.51,6.14,6.14,0,0,1-.61-2.14,22,22,0,0,1-.14-2.46Zm9.12-14.06a4.47,4.47,0,0,1-1.19,3.41,5.53,5.53,0,0,1-6.67,0,5.5,5.5,0,0,1,0-6.86,5.8,5.8,0,0,1,6.74,0A4.57,4.57,0,0,1,962.63,460.75Z"/><path class="cls-5" d="M971.74,462.84a21.8,21.8,0,0,1,.14-2.45,6,6,0,0,1,.61-2.11,3.7,3.7,0,0,1,1.37-1.49,4.43,4.43,0,0,1,2.41-.57,4.49,4.49,0,0,1,2.44.57,3.68,3.68,0,0,1,1.36,1.49,6.25,6.25,0,0,1,.59,2.11,21.8,21.8,0,0,1,.14,2.45v28.41a22,22,0,0,1-.14,2.46,6.36,6.36,0,0,1-.59,2.14,3.67,3.67,0,0,1-1.36,1.51,4.5,4.5,0,0,1-2.44.56,4.43,4.43,0,0,1-2.41-.56,3.69,3.69,0,0,1-1.37-1.51,6.14,6.14,0,0,1-.61-2.14,22,22,0,0,1-.14-2.46Z"/><path class="cls-5" d="M989.2,462.84a21.83,21.83,0,0,1,.13-2.45,6,6,0,0,1,.61-2.11,3.85,3.85,0,0,1,1.37-1.49,4.45,4.45,0,0,1,2.41-.57,4.53,4.53,0,0,1,2.45.57,3.72,3.72,0,0,1,1.35,1.49,6.26,6.26,0,0,1,.6,2.11,21.83,21.83,0,0,1,.13,2.45v28.41a22,22,0,0,1-.13,2.46,6.36,6.36,0,0,1-.6,2.14,3.71,3.71,0,0,1-1.35,1.51,4.54,4.54,0,0,1-2.45.56,4.46,4.46,0,0,1-2.41-.56,3.83,3.83,0,0,1-1.37-1.51,6.14,6.14,0,0,1-.61-2.14,22,22,0,0,1-.13-2.46Z"/><path class="cls-5" d="M1030.36,481c0,.31,0,.69-.06,1.11a2.48,2.48,0,0,1-.46,1.22,3.16,3.16,0,0,1-1.27,1,5.69,5.69,0,0,1-2.44.42h-11.85v2.86a6.58,6.58,0,0,0,.18,1.49,4.21,4.21,0,0,0,.61,1.43A3.28,3.28,0,0,0,1018,492a4.62,4.62,0,0,0,1.83-.29,2.67,2.67,0,0,0,1-.7,5.32,5.32,0,0,0,.67-.89,3.86,3.86,0,0,1,.79-.89,4.07,4.07,0,0,1,1.37-.7,8.2,8.2,0,0,1,2.43-.29,8.6,8.6,0,0,1,1.45.12,3.48,3.48,0,0,1,1.23.45,2.46,2.46,0,0,1,.87.91,3.15,3.15,0,0,1,.32,1.5,4.49,4.49,0,0,1-1.22,3.23,8.66,8.66,0,0,1-3.07,2.07,16.7,16.7,0,0,1-4,1.11,28.17,28.17,0,0,1-4,.32,18.91,18.91,0,0,1-4.7-.62,11.08,11.08,0,0,1-3.95-1.91,9.29,9.29,0,0,1-2.73-3.42,12,12,0,0,1-1-5.19v-7a15.15,15.15,0,0,1,.67-4.79,10.71,10.71,0,0,1,1.74-3.28,8.28,8.28,0,0,1,2.42-2,11.7,11.7,0,0,1,2.71-1.08,14.34,14.34,0,0,1,2.6-.45q1.25-.09,2.13-.09a21.16,21.16,0,0,1,5.14.54,12.65,12.65,0,0,1,3.56,1.4,7.63,7.63,0,0,1,2.26,2,8.76,8.76,0,0,1,1.26,2.34,11,11,0,0,1,.53,2.44c.08.83.12,1.59.12,2.31Zm-16.08-.72h7.44c0-.93,0-1.76-.07-2.49a4.82,4.82,0,0,0-.45-1.83,2.49,2.49,0,0,0-1.16-1.13,5.22,5.22,0,0,0-2.25-.39,4,4,0,0,0-1.92.39,2.78,2.78,0,0,0-1.06,1,3.14,3.14,0,0,0-.44,1.23,8.77,8.77,0,0,0-.09,1.17Z"/><path class="cls-5" d="M1060,491.19q0,1.26-.09,2.46a6.13,6.13,0,0,1-.54,2.16,3.61,3.61,0,0,1-1.34,1.53,4.53,4.53,0,0,1-2.5.58,5,5,0,0,1-2.56-.55,3.6,3.6,0,0,1-1.37-1.34,4.3,4.3,0,0,1-.55-1.65,12.59,12.59,0,0,1-.11-1.46,9.46,9.46,0,0,1-.76,1.76,6.45,6.45,0,0,1-1.26,1.61,6.69,6.69,0,0,1-1.86,1.17,6.48,6.48,0,0,1-2.55.46,10.42,10.42,0,0,1-3.28-.53,7.86,7.86,0,0,1-3-1.79,9.32,9.32,0,0,1-2.13-3.26,13.29,13.29,0,0,1-.82-5v-8.64a13.42,13.42,0,0,1,.82-5,9.14,9.14,0,0,1,2.13-3.24,7.84,7.84,0,0,1,3-1.78,10.71,10.71,0,0,1,3.28-.53,6.88,6.88,0,0,1,2.55.44,6.26,6.26,0,0,1,1.86,1.17,6.11,6.11,0,0,1,1.26,1.61,9.07,9.07,0,0,1,.76,1.78V463a23.07,23.07,0,0,1,.14-2.52,6.46,6.46,0,0,1,.59-2.18,3.76,3.76,0,0,1,1.37-1.51,4.59,4.59,0,0,1,2.49-.59,4.28,4.28,0,0,1,2.38.59,3.73,3.73,0,0,1,1.36,1.51,6.7,6.7,0,0,1,.59,2.18A23.07,23.07,0,0,1,1060,463Zm-15.49-4.58c0,.53,0,1.06.06,1.57a4.29,4.29,0,0,0,.33,1.4,2.24,2.24,0,0,0,.79,1,2.4,2.4,0,0,0,1.44.37,3.17,3.17,0,0,0,1.89-.52,3.34,3.34,0,0,0,1.15-1.61,10.54,10.54,0,0,0,.58-2.74c.11-1.1.17-2.41.19-3.94a15.76,15.76,0,0,0-.16-2.13,9.77,9.77,0,0,0-.58-2.28,5.31,5.31,0,0,0-1.16-1.82,2.62,2.62,0,0,0-1.91-.74,2.4,2.4,0,0,0-1.44.37,2.27,2.27,0,0,0-.79,1,4.06,4.06,0,0,0-.33,1.35c0,.51-.06,1-.06,1.54Z"/><path class="cls-5" d="M1091.12,481c0,.31,0,.69-.06,1.11a2.48,2.48,0,0,1-.46,1.22,3.16,3.16,0,0,1-1.27,1,5.66,5.66,0,0,1-2.44.42H1075v2.86a6.58,6.58,0,0,0,.18,1.49,4.42,4.42,0,0,0,.61,1.43,3.55,3.55,0,0,0,1.14,1.07,3.45,3.45,0,0,0,1.76.42,4.59,4.59,0,0,0,1.83-.29,2.79,2.79,0,0,0,1-.7,6.68,6.68,0,0,0,.67-.89,3.45,3.45,0,0,1,.79-.89,3.89,3.89,0,0,1,1.37-.7,8.08,8.08,0,0,1,2.42-.29,8.6,8.6,0,0,1,1.45.12,3.41,3.41,0,0,1,1.23.45,2.46,2.46,0,0,1,.87.91,3,3,0,0,1,.33,1.5,4.5,4.5,0,0,1-1.23,3.23,8.62,8.62,0,0,1-3.06,2.07,16.91,16.91,0,0,1-4,1.11,28.17,28.17,0,0,1-4,.32,19,19,0,0,1-4.7-.62,11.08,11.08,0,0,1-4-1.91A9.17,9.17,0,0,1,1067,492a11.89,11.89,0,0,1-1-5.19v-7a15.15,15.15,0,0,1,.67-4.79,10.51,10.51,0,0,1,1.75-3.28,8.25,8.25,0,0,1,2.41-2,11.88,11.88,0,0,1,2.71-1.08,14.34,14.34,0,0,1,2.6-.45q1.25-.09,2.13-.09a21.16,21.16,0,0,1,5.14.54A12.65,12.65,0,0,1,1087,470a7.67,7.67,0,0,1,2.27,2,9,9,0,0,1,1.25,2.34,11,11,0,0,1,.53,2.44c.08.83.12,1.59.12,2.31Zm-16.08-.72h7.44c0-.93,0-1.76-.07-2.49a4.82,4.82,0,0,0-.45-1.83,2.49,2.49,0,0,0-1.16-1.13,5.16,5.16,0,0,0-2.25-.39,4,4,0,0,0-1.92.39,2.86,2.86,0,0,0-1.06,1,3.31,3.31,0,0,0-.44,1.23,8.77,8.77,0,0,0-.09,1.17Z"/><path class="cls-5" d="M1116.56,472.61a4.41,4.41,0,0,1-1.15,3.39,4.56,4.56,0,0,1-3.26,1.07c-.2,0-.48,0-.85.05a5.5,5.5,0,0,0-1.18.24,6.25,6.25,0,0,0-1.26.56,4.49,4.49,0,0,0-1.18,1,5,5,0,0,0-.86,1.62,7.4,7.4,0,0,0-.33,2.35v8.52a20.47,20.47,0,0,1-.13,2.38,6,6,0,0,1-.61,2.07,3.89,3.89,0,0,1-1.37,1.48,4.47,4.47,0,0,1-2.42.56,4.24,4.24,0,0,1-2.35-.56,3.76,3.76,0,0,1-1.32-1.48,6,6,0,0,1-.6-2.07,20.47,20.47,0,0,1-.13-2.38V474.75a21.47,21.47,0,0,1,.13-2.43,6.26,6.26,0,0,1,.6-2.1,3.67,3.67,0,0,1,1.32-1.47,4.33,4.33,0,0,1,2.35-.55,3.57,3.57,0,0,1,2.34.67,3.91,3.91,0,0,1,1.21,1.73A7.73,7.73,0,0,1,1106,473c0,.86,0,1.7,0,2.52h.48a15,15,0,0,1,1.1-3,11,11,0,0,1,1.52-2.29,6.24,6.24,0,0,1,1.79-1.44,4,4,0,0,1,1.91-.51,5.88,5.88,0,0,1,1.89.25,2.37,2.37,0,0,1,1.14.79,3.06,3.06,0,0,1,.57,1.37A11.49,11.49,0,0,1,1116.56,472.61Z"/><path class="cls-5" d="M1131,493a4.9,4.9,0,0,1-1.28,3.74,5.05,5.05,0,0,1-3.6,1.2,5.14,5.14,0,0,1-3.66-1.2,4.9,4.9,0,0,1-1.28-3.74,4.76,4.76,0,0,1,1.28-3.72,5.22,5.22,0,0,1,3.66-1.17,5.11,5.11,0,0,1,3.68,1.17A5,5,0,0,1,1131,493Z"/><image width="504" height="392" transform="translate(1444 731) scale(0.56 0.55)" xlink:href="../../../Documents/Studies/KEA/KEAs%20projekt/02-animation/02.04.%20Gruppeprojekt/Design/privat%20snak%20logo1.png"/><path class="cls-5" d="M906.8,839.9v30.8h-2.69l-19.8-25v25h-3.25V839.9h2.68l19.85,25v-25Z"/><path class="cls-5" d="M935.62,847.56l-11.57,25.92a11.1,11.1,0,0,1-3.26,4.62,7.32,7.32,0,0,1-4.44,1.36,9.14,9.14,0,0,1-3.13-.53,6.83,6.83,0,0,1-2.51-1.58l1.46-2.33a5.76,5.76,0,0,0,4.22,1.76,4.3,4.3,0,0,0,2.71-.88,8.18,8.18,0,0,0,2.09-3l1-2.24-10.34-23.1h3.25l8.72,19.67,8.71-19.67Z"/><path class="cls-5" d="M940.57,870.11a11.41,11.41,0,0,1-4-2.05L938,865.6a11.8,11.8,0,0,0,3.65,1.87,14.64,14.64,0,0,0,4.58.73,8.71,8.71,0,0,0,4.68-1,3.14,3.14,0,0,0,1.52-2.8,2.52,2.52,0,0,0-.83-2,5.68,5.68,0,0,0-2.12-1.1,31.26,31.26,0,0,0-3.38-.73,40.43,40.43,0,0,1-4.54-1.07,6.65,6.65,0,0,1-2.92-1.87,5.2,5.2,0,0,1-1.21-3.66,5.71,5.71,0,0,1,2.42-4.75,10.86,10.86,0,0,1,6.73-1.85,17.33,17.33,0,0,1,4.49.6,12.27,12.27,0,0,1,3.69,1.56l-1.36,2.51a11.69,11.69,0,0,0-6.82-2,7.93,7.93,0,0,0-4.51,1,3.25,3.25,0,0,0-1.52,2.78,2.74,2.74,0,0,0,.86,2.11,5.23,5.23,0,0,0,2.13,1.16,33.52,33.52,0,0,0,3.52.77,43.19,43.19,0,0,1,4.45,1.06,6.52,6.52,0,0,1,2.86,1.8,5,5,0,0,1,1.19,3.52,5.61,5.61,0,0,1-2.53,4.82,12,12,0,0,1-7,1.78A17.81,17.81,0,0,1,940.57,870.11Z"/><path class="cls-5" d="M982.7,847.56v20.33q0,5.9-2.88,8.73c-1.93,1.89-4.82,2.84-8.69,2.84a19.43,19.43,0,0,1-6.1-1,12.54,12.54,0,0,1-4.68-2.61l1.58-2.38a11.83,11.83,0,0,0,4.07,2.33,15.15,15.15,0,0,0,5,.84q4.4,0,6.47-2.05t2.06-6.36v-2.94a9.36,9.36,0,0,1-3.8,3.34,11.82,11.82,0,0,1-5.22,1.14,12.19,12.19,0,0,1-5.91-1.43,10.45,10.45,0,0,1-4.18-4,11.2,11.2,0,0,1-1.52-5.83,11.07,11.07,0,0,1,1.52-5.81,10.47,10.47,0,0,1,4.15-4,12.41,12.41,0,0,1,5.94-1.41,11.8,11.8,0,0,1,5.33,1.19,9.66,9.66,0,0,1,3.83,3.43v-4.44ZM975.39,866a7.74,7.74,0,0,0,3.15-3,8.6,8.6,0,0,0,1.12-4.4,8.5,8.5,0,0,0-1.12-4.38,8,8,0,0,0-3.12-3,10.15,10.15,0,0,0-9.07,0,7.68,7.68,0,0,0-3.12,3,9.2,9.2,0,0,0,0,8.8,7.79,7.79,0,0,0,3.12,3,9.37,9.37,0,0,0,4.51,1.08A9.47,9.47,0,0,0,975.39,866Z"/><path class="cls-5" d="M1011.61,860.1H992.25a8.24,8.24,0,0,0,2.77,5.83,9.19,9.19,0,0,0,6.33,2.22,9.85,9.85,0,0,0,4-.77,8.64,8.64,0,0,0,3.13-2.26l1.76,2a10,10,0,0,1-3.85,2.82,13.13,13.13,0,0,1-5.08,1,12.9,12.9,0,0,1-6.32-1.51,11.06,11.06,0,0,1-4.29-4.21,11.91,11.91,0,0,1-1.54-6.07,12.32,12.32,0,0,1,1.48-6.07,10.69,10.69,0,0,1,4-4.18,11.31,11.31,0,0,1,5.79-1.5,11.15,11.15,0,0,1,5.76,1.5,10.63,10.63,0,0,1,4,4.16,12.46,12.46,0,0,1,1.45,6.09Zm-16.79-7.9a8.36,8.36,0,0,0-2.57,5.57h16.41a8.41,8.41,0,0,0-2.58-5.57,8.51,8.51,0,0,0-11.26,0Z"/><path class="cls-5" d="M1024.3,848.57a11.16,11.16,0,0,1,5.39-1.19v3l-.75,0a7.38,7.38,0,0,0-5.72,2.24,8.93,8.93,0,0,0-2.07,6.29V870.7H1018V847.56h3v4.53A7.58,7.58,0,0,1,1024.3,848.57Z"/><path class="cls-5" d="M1041.59,848.57a11.16,11.16,0,0,1,5.39-1.19v3l-.75,0a7.38,7.38,0,0,0-5.72,2.24,8.93,8.93,0,0,0-2.06,6.29V870.7h-3.13V847.56h3v4.53A7.63,7.63,0,0,1,1041.59,848.57Z"/><path class="cls-5" d="M1052.57,841.84a2.16,2.16,0,0,1-.66-1.58,2.11,2.11,0,0,1,.66-1.54,2.21,2.21,0,0,1,1.63-.66,2.26,2.26,0,0,1,1.62.63,2.06,2.06,0,0,1,.66,1.52,2.3,2.3,0,0,1-3.91,1.63Zm0,5.72h3.13V870.7h-3.13Z"/><path class="cls-5" d="M1085.88,847.56v20.33q0,5.9-2.89,8.73c-1.92,1.89-4.81,2.84-8.69,2.84a19.41,19.41,0,0,1-6.09-1,12.54,12.54,0,0,1-4.68-2.61l1.58-2.38a11.83,11.83,0,0,0,4.07,2.33,15.15,15.15,0,0,0,5,.84c2.93,0,5.09-.68,6.46-2.05s2.07-3.48,2.07-6.36v-2.94a9.36,9.36,0,0,1-3.8,3.34,11.82,11.82,0,0,1-5.22,1.14,12.25,12.25,0,0,1-5.92-1.43,10.58,10.58,0,0,1-4.18-4,11.28,11.28,0,0,1-1.51-5.83,11.16,11.16,0,0,1,1.51-5.81,10.57,10.57,0,0,1,4.16-4,12.41,12.41,0,0,1,5.94-1.41,11.8,11.8,0,0,1,5.33,1.19,9.57,9.57,0,0,1,3.82,3.43v-4.44ZM1078.57,866a7.74,7.74,0,0,0,3.15-3,8.6,8.6,0,0,0,1.12-4.4,8.5,8.5,0,0,0-1.12-4.38,7.91,7.91,0,0,0-3.13-3,10.12,10.12,0,0,0-9.06,0,7.62,7.62,0,0,0-3.12,3,9.2,9.2,0,0,0,0,8.8,7.73,7.73,0,0,0,3.12,3,9.37,9.37,0,0,0,4.51,1.08A9.47,9.47,0,0,0,1078.57,866Z"/><path class="cls-5" d="M1101.65,858.3a8.8,8.8,0,0,1,1.47-2.34,31.63,31.63,0,0,1,2.29-2.2,19.58,19.58,0,0,0,2.8-2.92,5.13,5.13,0,0,0,.9-3.06,4.69,4.69,0,0,0-1.89-3.89,8.24,8.24,0,0,0-5.2-1.48c-3.63,0-6.44,1.19-8.4,3.57l-2.33-1.76q3.74-4.58,11-4.58a12,12,0,0,1,7.37,2.07,6.61,6.61,0,0,1,2.75,5.59,8,8,0,0,1-.59,3.19,8.75,8.75,0,0,1-1.45,2.35,28.61,28.61,0,0,1-2.27,2.24,18.81,18.81,0,0,0-2.81,3.06,5.7,5.7,0,0,0-.93,3.32h-3.25A7.78,7.78,0,0,1,1101.65,858.3Zm-.59,11.94a2.22,2.22,0,0,1-.66-1.6,2.15,2.15,0,0,1,.66-1.61,2.27,2.27,0,0,1,1.62-.64,2.34,2.34,0,0,1,1.68.64,2.15,2.15,0,0,1,.66,1.61,2.17,2.17,0,0,1-.69,1.6,2.21,2.21,0,0,1-1.65.68A2.15,2.15,0,0,1,1101.06,870.24Z"/><path class="cls-5" d="M1132.21,839.9h3.25v28h17.25v2.81h-20.5Z"/><path class="cls-5" d="M1194.47,860h-19.41a8.27,8.27,0,0,0,2.73,5.9,9.23,9.23,0,0,0,6.38,2.24,9,9,0,0,0,7.08-3l1.76,2a10.31,10.31,0,0,1-3.87,2.82,12.93,12.93,0,0,1-5.06,1,13.23,13.23,0,0,1-6-1.34,10.51,10.51,0,0,1-4.31-4,8.17,8.17,0,0,1-3.74,4,12.13,12.13,0,0,1-5.63,1.29,10,10,0,0,1-6.42-1.87,6,6,0,0,1-2.34-4.95,5.81,5.81,0,0,1,2.14-4.62q2.13-1.8,6.8-1.8h7.34v-1.45a5.93,5.93,0,0,0-1.67-4.56,6.89,6.89,0,0,0-4.88-1.56,12.3,12.3,0,0,0-4.23.73,10.57,10.57,0,0,0-3.47,2l-1.41-2.33a12.37,12.37,0,0,1,4.22-2.31,16.43,16.43,0,0,1,5.15-.82q6.69,0,8.49,4.76a10.35,10.35,0,0,1,3.9-3.5,11.85,11.85,0,0,1,11.09.24,10.67,10.67,0,0,1,4,4.14,12.1,12.1,0,0,1,1.45,5.94A8.63,8.63,0,0,1,1194.47,860Zm-24.56,6.67a6.17,6.17,0,0,0,2-4.82V860h-7.26a7.51,7.51,0,0,0-4.53,1.08,3.49,3.49,0,0,0-1.41,2.93,3.84,3.84,0,0,0,1.57,3.25,7,7,0,0,0,4.33,1.19A7.64,7.64,0,0,0,1169.91,866.68ZM1179.4,851a8,8,0,0,0-3,2.64,8.55,8.55,0,0,0-1.39,4h16.41a8.71,8.71,0,0,0-1.36-4,7.7,7.7,0,0,0-2.95-2.66,8.53,8.53,0,0,0-3.91-.92A8.28,8.28,0,0,0,1179.4,851Z"/><path class="cls-5" d="M1201.75,870.11a11.41,11.41,0,0,1-4-2.05l1.41-2.46a11.8,11.8,0,0,0,3.65,1.87,14.64,14.64,0,0,0,4.58.73,8.71,8.71,0,0,0,4.68-1,3.14,3.14,0,0,0,1.52-2.8,2.52,2.52,0,0,0-.83-2,5.68,5.68,0,0,0-2.12-1.1,31.26,31.26,0,0,0-3.38-.73,40.43,40.43,0,0,1-4.54-1.07,6.65,6.65,0,0,1-2.92-1.87,5.2,5.2,0,0,1-1.21-3.66,5.73,5.73,0,0,1,2.42-4.75,10.86,10.86,0,0,1,6.73-1.85,17.33,17.33,0,0,1,4.49.6,12.27,12.27,0,0,1,3.69,1.56l-1.36,2.51a11.69,11.69,0,0,0-6.82-2,7.93,7.93,0,0,0-4.51,1,3.25,3.25,0,0,0-1.52,2.78,2.74,2.74,0,0,0,.86,2.11,5.23,5.23,0,0,0,2.13,1.16,33.52,33.52,0,0,0,3.52.77,43.19,43.19,0,0,1,4.45,1.06,6.52,6.52,0,0,1,2.86,1.8,5,5,0,0,1,1.19,3.52,5.61,5.61,0,0,1-2.53,4.82,12,12,0,0,1-7,1.78A17.81,17.81,0,0,1,1201.75,870.11Z"/><path class="cls-5" d="M1269.68,849.89c1.66,1.67,2.49,4.14,2.49,7.39V870.7h-3.12V857.59a7.86,7.86,0,0,0-1.74-5.5,6.34,6.34,0,0,0-4.91-1.89,7.36,7.36,0,0,0-5.67,2.22,8.66,8.66,0,0,0-2.07,6.14V870.7h-3.13V857.59a7.86,7.86,0,0,0-1.73-5.5,6.39,6.39,0,0,0-5-1.89,7.4,7.4,0,0,0-5.66,2.22,8.62,8.62,0,0,0-2.09,6.14V870.7H1234V847.56h3v4.22a8.4,8.4,0,0,1,3.43-3.25,10.85,10.85,0,0,1,5.06-1.15,9.81,9.81,0,0,1,5,1.24,7.57,7.57,0,0,1,3.19,3.65,9.07,9.07,0,0,1,3.67-3.59,11.41,11.41,0,0,1,5.48-1.3A9.18,9.18,0,0,1,1269.68,849.89Z"/><path class="cls-5" d="M1300.9,860.1h-19.36a8.28,8.28,0,0,0,2.77,5.83,9.23,9.23,0,0,0,6.34,2.22,9.85,9.85,0,0,0,4-.77,8.69,8.69,0,0,0,3.12-2.26l1.76,2a9.94,9.94,0,0,1-3.85,2.82,13.1,13.1,0,0,1-5.08,1,12.86,12.86,0,0,1-6.31-1.51,10.93,10.93,0,0,1-4.29-4.21,11.91,11.91,0,0,1-1.54-6.07,12.42,12.42,0,0,1,1.47-6.07,10.65,10.65,0,0,1,4-4.18,11.28,11.28,0,0,1,5.79-1.5,11.15,11.15,0,0,1,5.76,1.5,10.54,10.54,0,0,1,4,4.16,12.47,12.47,0,0,1,1.46,6.09Zm-16.78-7.9a8.37,8.37,0,0,0-2.58,5.57H1298a8.36,8.36,0,0,0-2.57-5.57,8.51,8.51,0,0,0-11.26,0Z"/><path class="cls-5" d="M1313.6,848.57a11.13,11.13,0,0,1,5.39-1.19v3l-.75,0a7.37,7.37,0,0,0-5.72,2.24,8.93,8.93,0,0,0-2.07,6.29V870.7h-3.12V847.56h3v4.53A7.53,7.53,0,0,1,1313.6,848.57Z"/><path class="cls-5" d="M1344.55,860.1h-19.36a8.28,8.28,0,0,0,2.77,5.83,9.22,9.22,0,0,0,6.34,2.22,9.92,9.92,0,0,0,4-.77,8.69,8.69,0,0,0,3.12-2.26l1.76,2a10,10,0,0,1-3.85,2.82,13.1,13.1,0,0,1-5.08,1,12.83,12.83,0,0,1-6.31-1.51,10.93,10.93,0,0,1-4.29-4.21,11.91,11.91,0,0,1-1.54-6.07,12.42,12.42,0,0,1,1.47-6.07,10.65,10.65,0,0,1,4-4.18,11.87,11.87,0,0,1,11.55,0,10.61,10.61,0,0,1,4,4.16,12.46,12.46,0,0,1,1.45,6.09Zm-16.79-7.9a8.36,8.36,0,0,0-2.57,5.57h16.41a8.36,8.36,0,0,0-2.57-5.57,8.52,8.52,0,0,0-11.27,0Z"/><path class="cls-5" d="M1380.32,848.86a10.55,10.55,0,0,1,4.14,4.16,13.38,13.38,0,0,1,0,12.27,10.57,10.57,0,0,1-4.12,4.16,11.86,11.86,0,0,1-5.91,1.47,10.93,10.93,0,0,1-5.09-1.16,9.72,9.72,0,0,1-3.72-3.41v12.89h-3.12V847.56h3v4.58a9.59,9.59,0,0,1,3.72-3.52,10.82,10.82,0,0,1,5.22-1.24A11.9,11.9,0,0,1,1380.32,848.86ZM1378.61,867a7.94,7.94,0,0,0,3.1-3.19,9.7,9.7,0,0,0,1.12-4.71,9.53,9.53,0,0,0-1.12-4.68,8.07,8.07,0,0,0-3.1-3.19,9,9,0,0,0-8.83,0,8.15,8.15,0,0,0-3.08,3.19,9.64,9.64,0,0,0-1.12,4.68,9.81,9.81,0,0,0,1.12,4.71,8,8,0,0,0,3.08,3.19,9.26,9.26,0,0,0,8.83,0Z"/><path class="cls-5" d="M1407.25,849.65q2.41,2.26,2.42,6.71V870.7h-3v-3.6a7.19,7.19,0,0,1-3.1,2.81,10.83,10.83,0,0,1-4.87,1,9.54,9.54,0,0,1-6.16-1.84,6,6,0,0,1-2.28-4.89,5.92,5.92,0,0,1,2.13-4.75q2.13-1.8,6.8-1.8h7.35v-1.41a5.93,5.93,0,0,0-1.68-4.56,6.89,6.89,0,0,0-4.88-1.56,12.2,12.2,0,0,0-4.22.73,10.61,10.61,0,0,0-3.48,2l-1.41-2.33a12.32,12.32,0,0,1,4.23-2.31,16.49,16.49,0,0,1,5.19-.82Q1404.83,847.38,1407.25,849.65Zm-3.52,17.6a7.26,7.26,0,0,0,2.82-3.5V860h-7.26q-5.94,0-5.94,4.13a3.77,3.77,0,0,0,1.54,3.19,7,7,0,0,0,4.31,1.17A8.2,8.2,0,0,0,1403.73,867.25Zm-6.67-24.09a4.38,4.38,0,0,1-1.29-3.17,4.51,4.51,0,0,1,1.32-3.25,4.34,4.34,0,0,1,3.25-1.37,4.44,4.44,0,0,1,3.28,1.37A4.49,4.49,0,0,1,1405,840a4.33,4.33,0,0,1-1.32,3.17,4.48,4.48,0,0,1-3.3,1.32A4.42,4.42,0,0,1,1397.06,843.16Zm5.44-1.06a2.87,2.87,0,0,0,.83-2.11,3.07,3.07,0,0,0-.85-2.18,2.85,2.85,0,0,0-2.14-.9,2.81,2.81,0,0,0-2.11.88,3.07,3.07,0,0,0-.84,2.2,2.9,2.9,0,0,0,.82,2.11,2.82,2.82,0,0,0,2.13.84A2.92,2.92,0,0,0,1402.5,842.1Z"/></g></svg>
