<svg xmlns="http://www.w3.org/2000/svg" xmlns:xlink="http://www.w3.org/1999/xlink" width="1920" height="1080" viewBox="0 0 1920 1080"><defs><style>.cls-1{fill:#003c54;}.cls-2{fill:#f2eeb3;}.cls-3{fill:#f27457;}.cls-4{fill:#a63b32;}.cls-5{fill:#f29727;}.cls-6{opacity:0.5;}.cls-7{fill:#fff;}.cls-8{opacity:0.7;}</style></defs><title>Slutskærm</title><g id="Slutskærm"><g id="bg_copy" data-name="bg copy"><rect class="cls-1" width="1920" height="1080"/></g><g id="planet_and_stars_copy_2" data-name="planet and stars copy 2"><polygon id="star2-2" class="cls-2" points="347.23 971.31 282.21 964.49 240.2 1019 226.06 949.49 165.52 922.77 221.81 886.63 226.4 815.6 275.31 862.78 338.69 845.61 312.65 910.9 347.23 971.31"/><polygon id="star1-2" class="cls-2" points="1883 350 1819.28 352.68 1785.18 411.42 1763.16 346.17 1701.38 328.96 1751.49 285.97 1747.4 216.6 1800.4 255.26 1859.66 229.6 1842.29 296.49 1883 350"/><g id="planet_copy_2" data-name="planet copy 2"><path class="cls-3" d="M246.69,140c1,42.5-31.62,77-70.61,77s-70.6-34.46-70.6-77,31.62-75.84,70.6-77C214.12,61.92,245.64,96.29,246.69,140Z"/><path class="cls-4" d="M163.83,160.82S182.92,114,153.14,67.14c2.05,0,16.51-7.93,41-1.57C194.17,65.57,204.73,119.91,163.83,160.82Z"/><path class="cls-4" d="M211.85,128.9s-13.3,59.34-60.86,83c5.84,2.54,10.5,5.09,22.17,5.09C177.83,217,227.85,186.84,211.85,128.9Z"/><path class="cls-4" d="M145.81,138.3C143,156.82,131.75,172.53,116,180.08a75.82,75.82,0,0,0,7,10.18C125.64,190.26,154.92,171.31,145.81,138.3Z"/><path class="cls-5" d="M310.29,76c4.25,10.94-46.55,55.37-122,90.1S41.47,212.67,37.22,201.71c-3-7.77,25.18-28.66,68.76-52.56-.5.4,3,13.12,3,13.12,10.5,1.27,14,2.54,73.52-20.36,14.8-6.81,56-29.26,56-36.9,0,0-7-12.72-7.38-13.19C275.5,75.33,307.37,68.42,310.29,76Z"/><path class="cls-4" d="M282.26,88c2.46,5.34-40.85,35.2-22.39,25.1s31.37-22.62,28.91-28S269.39,83.63,251,93.73,279.79,82.65,282.26,88Z"/><path class="cls-4" d="M66.62,186.61c-1.9-5.61,44.25-29.84,24.89-22.11S58,183,59.83,188.67s19.11,3.89,38.52-3.82S68.49,192.22,66.62,186.61Z"/></g></g><g id="gennemsigtig_lag" data-name="gennemsigtig lag" class="cls-6"><rect x="0.5" y="0.5" width="1919" height="1079"/><path class="cls-7" d="M1919,1V1079H1V1H1919m1-1H0V1080H1920V0Z"/></g><g class="cls-8"><rect x="174.5" y="115.5" width="1600" height="872"/><path class="cls-7" d="M1774,116V987H175V116H1774m1-1H174V988H1775V115Z"/></g><path class="cls-5" d="M244.87,150.62c.64,0,1.28,0,1.94.07a5.74,5.74,0,0,1,1.77.41,3.06,3.06,0,0,1,1.29,1,3.16,3.16,0,0,1,.5,1.9,2.85,2.85,0,0,1-1.79,2.92,5.47,5.47,0,0,1-1.77.4c-.66,0-1.3.08-1.94.08h-5.7v6.5h3c.64,0,1.28,0,1.93.06a5.05,5.05,0,0,1,1.72.39,2.88,2.88,0,0,1,1.23,1,3.75,3.75,0,0,1,0,3.67,3,3,0,0,1-1.23,1,5.3,5.3,0,0,1-1.72.38c-.65,0-1.29.06-1.93.06h-3v6.89h5.7c.64,0,1.28,0,1.94.07a5.74,5.74,0,0,1,1.77.4,3,3,0,0,1,1.29,1,3.15,3.15,0,0,1,.5,1.88,2.89,2.89,0,0,1-1.82,3,5.35,5.35,0,0,1-1.77.4c-.65.05-1.29.08-1.91.08h-9.38a3.77,3.77,0,0,1-2.07-.48,2.76,2.76,0,0,1-1.06-1.26,5.05,5.05,0,0,1-.4-1.76q-.06-1-.06-2V156.12q0-1,.06-2a5.11,5.11,0,0,1,.4-1.76,2.78,2.78,0,0,1,1.06-1.25,3.77,3.77,0,0,1,2.07-.48Z"/><path class="cls-5" d="M256.35,165.55a18.56,18.56,0,0,1,.11-2,5.07,5.07,0,0,1,.49-1.72,3.05,3.05,0,0,1,1.11-1.2,3.87,3.87,0,0,1,2-.44,3.65,3.65,0,0,1,1.91.44,2.93,2.93,0,0,1,1.09,1.2,5.07,5.07,0,0,1,.48,1.72,18.56,18.56,0,0,1,.11,2V183.4c0,1.48-.06,2.85-.17,4.11a8.54,8.54,0,0,1-.89,3.26,5,5,0,0,1-2.17,2.14,8.7,8.7,0,0,1-4,.78,9.38,9.38,0,0,1-2-.22,5.31,5.31,0,0,1-1.67-.67,3.51,3.51,0,0,1-1.15-1.15,3,3,0,0,1-.43-1.65,5,5,0,0,1,.18-1.46,2,2,0,0,1,.57-.92,2.39,2.39,0,0,1,1-.49,6.92,6.92,0,0,1,1.49-.14,1.9,1.9,0,0,0,1.15-.3,1.79,1.79,0,0,0,.6-.8,4,4,0,0,0,.23-1.15c0-.43,0-.88,0-1.34Zm7.28-11.34a3.54,3.54,0,0,1-.95,2.69,3.67,3.67,0,0,1-2.64.9,3.87,3.87,0,0,1-2.71-.9,3.48,3.48,0,0,1-1-2.69,3.53,3.53,0,0,1,1-2.75,3.92,3.92,0,0,1,2.71-.89,3.65,3.65,0,0,1,2.71.89A3.74,3.74,0,0,1,263.63,154.21Z"/><path class="cls-5" d="M279.23,169.57a11.88,11.88,0,0,1-.09,1.48,3.61,3.61,0,0,1-.37,1.28,2.25,2.25,0,0,1-.82.91,3.18,3.18,0,0,1-2.9,0,2.25,2.25,0,0,1-.82-.91,3.42,3.42,0,0,1-.37-1.28,11.88,11.88,0,0,1-.09-1.48l-1.24-7.75V156a11.52,11.52,0,0,1,.16-2,5.43,5.43,0,0,1,.6-1.7,3.32,3.32,0,0,1,1.21-1.2,4,4,0,0,1,2-.45,3.77,3.77,0,0,1,2,.46,3.42,3.42,0,0,1,1.2,1.22,5.22,5.22,0,0,1,.59,1.72,12.55,12.55,0,0,1,.15,2v5.88Zm1.19,10.62a4,4,0,0,1-1,3,4.07,4.07,0,0,1-2.89,1,4.13,4.13,0,0,1-2.94-1,4,4,0,0,1-1-3,3.84,3.84,0,0,1,1-3,4.22,4.22,0,0,1,2.94-.93,4.11,4.11,0,0,1,2.95.93A4,4,0,0,1,280.42,180.19Z"/><path class="cls-5" d="M242.33,209.42a14.28,14.28,0,0,1,4.06.55,9.81,9.81,0,0,1,3.28,1.64,7.77,7.77,0,0,1,2.2,2.71,8.62,8.62,0,0,1,.8,3.81V233a12,12,0,0,1-.41,3.29,9.48,9.48,0,0,1-1.06,2.47,8.16,8.16,0,0,1-1.5,1.77,9,9,0,0,1-1.7,1.18,11,11,0,0,1-4.66,1.25h-8a4,4,0,0,1-2.1-.47,2.75,2.75,0,0,1-1.08-1.24,5.34,5.34,0,0,1-.39-1.76c0-.66-.06-1.33-.06-2V214.88q0-1,.06-2a5.17,5.17,0,0,1,.39-1.75,2.73,2.73,0,0,1,1.08-1.23,4,4,0,0,1,2.1-.47ZM239,215v22.2h3.11a4.21,4.21,0,0,0,1.84-.48,3.35,3.35,0,0,0,1.27-1.13,3.18,3.18,0,0,0,.42-1,4.84,4.84,0,0,0,.16-1.27V219.28a5.8,5.8,0,0,0-.16-1.4,4,4,0,0,0-.42-1.07,2.88,2.88,0,0,0-.6-.76,3.4,3.4,0,0,0-.67-.51,4.38,4.38,0,0,0-1.84-.52Z"/><path class="cls-5" d="M277.12,229.28c0,.25,0,.55-.05.9a2,2,0,0,1-.37,1,2.56,2.56,0,0,1-1,.8,4.73,4.73,0,0,1-2,.33H264.2v2.3a5.75,5.75,0,0,0,.14,1.2,3.61,3.61,0,0,0,.49,1.14,2.64,2.64,0,0,0,2.34,1.2,3.58,3.58,0,0,0,1.47-.23,2.37,2.37,0,0,0,.81-.56,4.83,4.83,0,0,0,.54-.72,3.19,3.19,0,0,1,.63-.71,3.38,3.38,0,0,1,1.11-.57,6.7,6.7,0,0,1,1.95-.22,7.46,7.46,0,0,1,1.16.09,3.07,3.07,0,0,1,1,.36,1.94,1.94,0,0,1,.69.73,2.38,2.38,0,0,1,.27,1.21,3.63,3.63,0,0,1-1,2.59,7.18,7.18,0,0,1-2.47,1.67,13.49,13.49,0,0,1-3.22.88,21,21,0,0,1-3.24.27,15.53,15.53,0,0,1-3.78-.51,9,9,0,0,1-3.17-1.53,7.39,7.39,0,0,1-2.19-2.75,9.61,9.61,0,0,1-.81-4.16v-5.6a12,12,0,0,1,.54-3.85,8.35,8.35,0,0,1,1.4-2.64,6.56,6.56,0,0,1,1.93-1.63,9.77,9.77,0,0,1,2.18-.88,11.9,11.9,0,0,1,2.09-.36c.67,0,1.24-.07,1.72-.07a17.43,17.43,0,0,1,4.12.43,10.59,10.59,0,0,1,2.86,1.13,6.09,6.09,0,0,1,1.82,1.6,6.85,6.85,0,0,1,1,1.88,8.41,8.41,0,0,1,.44,2c.06.66.09,1.28.09,1.85Zm-12.92-.58h6c0-.75,0-1.41-.06-2a3.88,3.88,0,0,0-.36-1.48,2,2,0,0,0-.93-.9A4.13,4.13,0,0,0,267,224a3.18,3.18,0,0,0-1.54.32,2.2,2.2,0,0,0-.85.77,2.62,2.62,0,0,0-.36,1,8.53,8.53,0,0,0-.07.93Z"/><path class="cls-5" d="M285.3,219v-4.21a18,18,0,0,1,.11-2,5,5,0,0,1,.49-1.71,3.08,3.08,0,0,1,1.1-1.22,3.55,3.55,0,0,1,1.94-.47,3.44,3.44,0,0,1,1.91.47,2.92,2.92,0,0,1,1.09,1.22,5,5,0,0,1,.48,1.71,18,18,0,0,1,.11,2V219h2c.42,0,.83,0,1.25.06a2.73,2.73,0,0,1,1.11.35,2.13,2.13,0,0,1,.79.86,3.51,3.51,0,0,1,.3,1.6,3.41,3.41,0,0,1-.3,1.56,2.13,2.13,0,0,1-.79.86,3.1,3.1,0,0,1-1.11.37,8.75,8.75,0,0,1-1.25.08h-2v8.38c0,.32,0,.65,0,1a2.59,2.59,0,0,0,.25,1,1.92,1.92,0,0,0,.64.75,2.14,2.14,0,0,0,1.22.3,6.85,6.85,0,0,1,1.47.13,2.2,2.2,0,0,1,1,.47,2,2,0,0,1,.59.93,5.39,5.39,0,0,1,.19,1.53,3,3,0,0,1-.45,1.65,3.61,3.61,0,0,1-1.18,1.15,5.61,5.61,0,0,1-1.72.67,9.85,9.85,0,0,1-2.06.22,10.33,10.33,0,0,1-2.91-.36,5.76,5.76,0,0,1-2-1,5,5,0,0,1-1.27-1.58,7.87,7.87,0,0,1-.69-2.07,16.73,16.73,0,0,1-.29-2.47q-.06-1.33-.06-2.79v-7.9H284a8.47,8.47,0,0,1-1.23-.08,3,3,0,0,1-1.09-.37,2,2,0,0,1-.77-.86,3.41,3.41,0,0,1-.3-1.56,3.51,3.51,0,0,1,.3-1.6,2,2,0,0,1,.77-.86,2.64,2.64,0,0,1,1.09-.35q.61-.06,1.23-.06Z"/><path class="cls-5" d="M333.35,239.18a14.25,14.25,0,0,1-1,2.15,4.56,4.56,0,0,1-.89,1.11,1.72,1.72,0,0,1-.86.42,6.62,6.62,0,0,1-.91.06,7.47,7.47,0,0,1-1-.06,1.94,1.94,0,0,1-.91-.41,4.32,4.32,0,0,1-.93-1.1,11.88,11.88,0,0,1-1-2.17L320.47,225q-.21-.57-.39-1.23a5,5,0,0,1-.18-1.31,4.78,4.78,0,0,1,.18-1.32,2.81,2.81,0,0,1,.59-1.12,2.85,2.85,0,0,1,1.05-.76,3.91,3.91,0,0,1,1.58-.29,2.69,2.69,0,0,1,1.23.29,3.68,3.68,0,0,1,1,.76,5.53,5.53,0,0,1,.77,1.1,6.34,6.34,0,0,1,.53,1.3l2.68,8.7h.38l2.49-8.7a6.78,6.78,0,0,1,.48-1.23,5.41,5.41,0,0,1,.75-1.11,4,4,0,0,1,1.05-.8,3,3,0,0,1,1.4-.31,3.22,3.22,0,0,1,1.46.3,2.74,2.74,0,0,1,1,.79,3.05,3.05,0,0,1,.55,1.13,4.93,4.93,0,0,1,.17,1.32,5.34,5.34,0,0,1-.15,1.25,10.66,10.66,0,0,1-.42,1.24Z"/><path class="cls-5" d="M361.82,237.51c0,.67,0,1.33-.07,2a5,5,0,0,1-.43,1.74,2.92,2.92,0,0,1-1.08,1.23,3.69,3.69,0,0,1-2,.47,4,4,0,0,1-2.06-.45,3,3,0,0,1-1.1-1.07,3.48,3.48,0,0,1-.44-1.33,9.28,9.28,0,0,1-.09-1.17,7.08,7.08,0,0,1-.61,1.41,5,5,0,0,1-1,1.29,5.15,5.15,0,0,1-3.54,1.32,8.57,8.57,0,0,1-2.63-.43,6.21,6.21,0,0,1-2.37-1.44,7.19,7.19,0,0,1-1.71-2.62,10.55,10.55,0,0,1-.66-4v-6.94a10.64,10.64,0,0,1,.66-4,7.06,7.06,0,0,1,1.71-2.61,6.28,6.28,0,0,1,2.37-1.42,8.28,8.28,0,0,1,2.63-.43,5.31,5.31,0,0,1,2,.36,5.14,5.14,0,0,1,1.5.93,5,5,0,0,1,1,1.29,6.83,6.83,0,0,1,.61,1.44,5.19,5.19,0,0,1,.34-2,3.34,3.34,0,0,1,.86-1.25,2.84,2.84,0,0,1,1.19-.65,4.85,4.85,0,0,1,1.3-.18,3.44,3.44,0,0,1,1.91.47,3,3,0,0,1,1.09,1.22,5.06,5.06,0,0,1,.48,1.74,19.42,19.42,0,0,1,.11,2Zm-12.44-3.69c0,.43,0,.86,0,1.27a3.6,3.6,0,0,0,.27,1.13,1.85,1.85,0,0,0,.63.8,2,2,0,0,0,1.16.3,2.55,2.55,0,0,0,1.52-.42,2.72,2.72,0,0,0,.92-1.29,8.52,8.52,0,0,0,.47-2.2c.09-.89.14-1.95.15-3.17a12.6,12.6,0,0,0-.13-1.72,7.92,7.92,0,0,0-.46-1.83,4.32,4.32,0,0,0-.94-1.46,2.1,2.1,0,0,0-1.53-.59,2,2,0,0,0-1.16.3,1.82,1.82,0,0,0-.63.77,3.36,3.36,0,0,0-.27,1.09c0,.41,0,.82,0,1.23Z"/><path class="cls-5" d="M382.83,222.58a3.58,3.58,0,0,1-.93,2.73,3.69,3.69,0,0,1-2.62.86l-.68,0a4.41,4.41,0,0,0-.94.2,4.54,4.54,0,0,0-1,.45,3.56,3.56,0,0,0-.94.81A4.07,4.07,0,0,0,375,229a6.12,6.12,0,0,0-.26,1.89v6.84a17,17,0,0,1-.11,1.91,4.59,4.59,0,0,1-.49,1.67,3.11,3.11,0,0,1-1.1,1.18,3.61,3.61,0,0,1-1.94.46,3.43,3.43,0,0,1-1.89-.46,3,3,0,0,1-1.06-1.18,4.79,4.79,0,0,1-.48-1.67,17,17,0,0,1-.11-1.91V224.3a17.64,17.64,0,0,1,.11-2,4.84,4.84,0,0,1,.48-1.68,2.9,2.9,0,0,1,1.06-1.19,3.52,3.52,0,0,1,1.89-.44,2.89,2.89,0,0,1,1.88.54,3.18,3.18,0,0,1,1,1.38,6.22,6.22,0,0,1,.36,1.89c0,.7.05,1.37.05,2h.38a11.56,11.56,0,0,1,.88-2.43,8.77,8.77,0,0,1,1.22-1.84,5.11,5.11,0,0,1,1.44-1.16,3.14,3.14,0,0,1,1.53-.41,4.91,4.91,0,0,1,1.52.2,1.94,1.94,0,0,1,.92.64,2.46,2.46,0,0,1,.46,1.1A9.16,9.16,0,0,1,382.83,222.58Z"/><path class="cls-5" d="M424.84,229.28c0,.25,0,.55,0,.9a2,2,0,0,1-.37,1,2.53,2.53,0,0,1-1,.8,4.65,4.65,0,0,1-2,.33h-9.52v2.3a5.75,5.75,0,0,0,.14,1.2,3.61,3.61,0,0,0,.49,1.14,2.74,2.74,0,0,0,.92.87,2.84,2.84,0,0,0,1.42.33,3.64,3.64,0,0,0,1.47-.23,2.37,2.37,0,0,0,.81-.56,4.83,4.83,0,0,0,.54-.72,3.19,3.19,0,0,1,.63-.71,3.32,3.32,0,0,1,1.1-.57,6.7,6.7,0,0,1,1.95-.22,7.27,7.27,0,0,1,1.16.09,3,3,0,0,1,1,.36,2.11,2.11,0,0,1,.69.73,2.39,2.39,0,0,1,.26,1.21,3.59,3.59,0,0,1-1,2.59,7,7,0,0,1-2.46,1.67,13.49,13.49,0,0,1-3.22.88,21.21,21.21,0,0,1-3.24.27,15.4,15.4,0,0,1-3.78-.51,9,9,0,0,1-3.17-1.53,7.39,7.39,0,0,1-2.19-2.75,9.61,9.61,0,0,1-.81-4.16v-5.6a12.25,12.25,0,0,1,.53-3.85,8.56,8.56,0,0,1,1.4-2.64,6.59,6.59,0,0,1,1.94-1.63,9.58,9.58,0,0,1,2.18-.88,11.9,11.9,0,0,1,2.09-.36c.66,0,1.23-.07,1.71-.07a17.52,17.52,0,0,1,4.13.43,10.72,10.72,0,0,1,2.86,1.13,6.22,6.22,0,0,1,1.82,1.6,7.13,7.13,0,0,1,1,1.88,7.91,7.91,0,0,1,.43,2,17.58,17.58,0,0,1,.1,1.85Zm-12.92-.58h6c0-.75,0-1.41-.06-2a3.88,3.88,0,0,0-.36-1.48,2,2,0,0,0-.93-.9,4.16,4.16,0,0,0-1.81-.32,3.15,3.15,0,0,0-1.54.32,2.13,2.13,0,0,0-.85.77,2.62,2.62,0,0,0-.36,1,6.59,6.59,0,0,0-.07.93Z"/><path class="cls-5" d="M433,219v-4.21a18,18,0,0,1,.11-2,4.8,4.8,0,0,1,.49-1.71,3,3,0,0,1,1.1-1.22,3.52,3.52,0,0,1,1.94-.47,3.46,3.46,0,0,1,1.91.47,3,3,0,0,1,1.09,1.22,5,5,0,0,1,.48,1.71,18,18,0,0,1,.11,2V219h2c.41,0,.83,0,1.24.06a2.73,2.73,0,0,1,1.12.35,2.13,2.13,0,0,1,.79.86,3.66,3.66,0,0,1,.29,1.6,3.56,3.56,0,0,1-.29,1.56,2.13,2.13,0,0,1-.79.86,3.08,3.08,0,0,1-1.12.37,8.61,8.61,0,0,1-1.24.08h-2v8.38c0,.32,0,.65,0,1a3,3,0,0,0,.25,1,2,2,0,0,0,.65.75,2.11,2.11,0,0,0,1.22.3,7,7,0,0,1,1.47.13,2.25,2.25,0,0,1,1,.47,2,2,0,0,1,.58.93,5.06,5.06,0,0,1,.19,1.53,3,3,0,0,1-.44,1.65A3.61,3.61,0,0,1,444,242a5.57,5.57,0,0,1-1.73.67,9.76,9.76,0,0,1-2.05.22,10.28,10.28,0,0,1-2.91-.36,5.59,5.59,0,0,1-2-1,4.87,4.87,0,0,1-1.27-1.58,7.87,7.87,0,0,1-.69-2.07,16.73,16.73,0,0,1-.29-2.47q-.06-1.33-.06-2.79v-7.9h-1.34a8.47,8.47,0,0,1-1.23-.08,2.93,2.93,0,0,1-1.09-.37,2.11,2.11,0,0,1-.78-.86,3.41,3.41,0,0,1-.3-1.56,3.51,3.51,0,0,1,.3-1.6,2.11,2.11,0,0,1,.78-.86,2.6,2.6,0,0,1,1.09-.35q.62-.06,1.23-.06Z"/><path class="cls-5" d="M480.25,219a10.1,10.1,0,0,1,1.22.07,2.8,2.8,0,0,1,1.11.36,2.14,2.14,0,0,1,.81.89,3.7,3.7,0,0,1,.31,1.65,3.28,3.28,0,0,1-.31,1.54,2.24,2.24,0,0,1-.81.86,2.66,2.66,0,0,1-1.11.38,8.45,8.45,0,0,1-1.22.09h-1.43v12.68a18.79,18.79,0,0,1-.11,2,4.8,4.8,0,0,1-.5,1.72,3,3,0,0,1-1.15,1.21,4,4,0,0,1-2,.46,3.55,3.55,0,0,1-1.93-.46,2.85,2.85,0,0,1-1.07-1.21,5.23,5.23,0,0,1-.45-1.72c-.06-.65-.1-1.32-.1-2V224.83h-1.34a8.87,8.87,0,0,1-1.28-.09,2.54,2.54,0,0,1-1.07-.38,2.21,2.21,0,0,1-.76-.86,3.45,3.45,0,0,1-.28-1.54,3.89,3.89,0,0,1,.28-1.65,2.11,2.11,0,0,1,.76-.89,2.66,2.66,0,0,1,1.07-.36,10.63,10.63,0,0,1,1.28-.07h1.34a35.61,35.61,0,0,1,.2-3.88,7.21,7.21,0,0,1,.93-3,5,5,0,0,1,2.2-2,9.3,9.3,0,0,1,4-.71,10.21,10.21,0,0,1,2,.19,5.57,5.57,0,0,1,1.67.6,3.23,3.23,0,0,1,1.14,1.06,2.91,2.91,0,0,1,.42,1.6,3.06,3.06,0,0,1-.3,1.43,3,3,0,0,1-.73.93,2.62,2.62,0,0,1-.94.51,3.83,3.83,0,0,1-.95.14,1.42,1.42,0,0,1-.67-.17,1.53,1.53,0,0,0-.72-.17.64.64,0,0,0-.51.22,1.61,1.61,0,0,0-.29.57,3.26,3.26,0,0,0-.13.79c0,.29,0,.58,0,.87v1Z"/><path class="cls-5" d="M486.57,228a10.29,10.29,0,0,1,.6-3.74,8,8,0,0,1,1.54-2.56,7.24,7.24,0,0,1,2.1-1.6,11.94,11.94,0,0,1,2.29-.86,12.56,12.56,0,0,1,2.09-.36c.65-.05,1.15-.07,1.52-.07s.87,0,1.51.07a11.55,11.55,0,0,1,2,.36,11.06,11.06,0,0,1,2.21.86,6.89,6.89,0,0,1,2,1.6,8.64,8.64,0,0,1,1.47,2.56,10.78,10.78,0,0,1,.57,3.74v5.93a10.72,10.72,0,0,1-.57,3.73,8.52,8.52,0,0,1-1.47,2.56,6.93,6.93,0,0,1-2,1.61,11.06,11.06,0,0,1-2.21.86,11.55,11.55,0,0,1-2,.36c-.64,0-1.14.07-1.51.07s-.87,0-1.52-.07a12.56,12.56,0,0,1-2.09-.36,11.94,11.94,0,0,1-2.29-.86,7.28,7.28,0,0,1-2.1-1.61,7.87,7.87,0,0,1-1.54-2.56,10.23,10.23,0,0,1-.6-3.73Zm7.37,7.6a2.43,2.43,0,0,0,1.16,2.07,2.88,2.88,0,0,0,1.61.38,2.65,2.65,0,0,0,1.54-.38,2.51,2.51,0,0,0,.81-.85,2.9,2.9,0,0,0,.33-1.22v-8.66a3.56,3.56,0,0,0-.33-1.31,3.06,3.06,0,0,0-.81-.9,2.44,2.44,0,0,0-1.54-.42,2.64,2.64,0,0,0-1.61.42,2.89,2.89,0,0,0-.83.9,2.92,2.92,0,0,0-.33,1.31Z"/><path class="cls-5" d="M526.81,222.58a3.61,3.61,0,0,1-.92,2.73,3.71,3.71,0,0,1-2.62.86l-.68,0a4.49,4.49,0,0,0-1,.2,4.68,4.68,0,0,0-1,.45,3.6,3.6,0,0,0-1,.81A3.87,3.87,0,0,0,519,229a5.81,5.81,0,0,0-.27,1.89v6.84a17.07,17.07,0,0,1-.1,1.91,5,5,0,0,1-.49,1.67,3.14,3.14,0,0,1-1.11,1.18,3.58,3.58,0,0,1-1.93.46,3.43,3.43,0,0,1-1.89-.46,3,3,0,0,1-1.07-1.18,5,5,0,0,1-.48-1.67,17.07,17.07,0,0,1-.1-1.91V224.3a17.67,17.67,0,0,1,.1-2,5.07,5.07,0,0,1,.48-1.68,2.93,2.93,0,0,1,1.07-1.19,3.52,3.52,0,0,1,1.89-.44,2.86,2.86,0,0,1,1.87.54,3.1,3.1,0,0,1,1,1.38,6.22,6.22,0,0,1,.36,1.89c0,.7.05,1.37.05,2h.38a11.57,11.57,0,0,1,.89-2.43,8.4,8.4,0,0,1,1.22-1.84,5.07,5.07,0,0,1,1.43-1.16,3.18,3.18,0,0,1,1.54-.41,5,5,0,0,1,1.52.2,2,2,0,0,1,.92.64,2.45,2.45,0,0,1,.45,1.1A9.16,9.16,0,0,1,526.81,222.58Z"/><path class="cls-5" d="M530.93,214.73c0-.67,0-1.32.07-2a5.17,5.17,0,0,1,.4-1.7,2.87,2.87,0,0,1,1-1.19,3.36,3.36,0,0,1,1.9-.46,3.42,3.42,0,0,1,1.93.46,2.69,2.69,0,0,1,1,1.19,5.17,5.17,0,0,1,.4,1.7c.05.64.07,1.29.07,2v9.43h.38l4.93-5.79a2.47,2.47,0,0,1,1-.73,3.23,3.23,0,0,1,1.19-.23,3.36,3.36,0,0,1,3,1.88,2.86,2.86,0,0,1,.3,1.33,2.72,2.72,0,0,1-.67,1.77l-4.3,5.07,4.69,8.95a17.29,17.29,0,0,1,.74,1.73,5.2,5.2,0,0,1,.31,1.67,2.67,2.67,0,0,1-.34,1.36,3,3,0,0,1-.87,1,4,4,0,0,1-1.2.6,4.11,4.11,0,0,1-1.28.2,2.62,2.62,0,0,1-1.41-.38,4.45,4.45,0,0,1-1.09-.94,8.3,8.3,0,0,1-.82-1.21,13.39,13.39,0,0,1-.6-1.2l-2.68-5.69h-1.34v4c0,.67,0,1.32-.07,2a5.24,5.24,0,0,1-.4,1.72,2.64,2.64,0,0,1-1,1.21,3.51,3.51,0,0,1-1.93.46,3.44,3.44,0,0,1-1.9-.46,2.81,2.81,0,0,1-1-1.21,5.24,5.24,0,0,1-.4-1.72c0-.65-.07-1.3-.07-2Z"/><path class="cls-5" d="M574,229.28a7.82,7.82,0,0,1,0,.9,2,2,0,0,1-.37,1,2.56,2.56,0,0,1-1,.8,4.73,4.73,0,0,1-2,.33h-9.52v2.3a5.18,5.18,0,0,0,.15,1.2,3.4,3.4,0,0,0,.49,1.14,2.65,2.65,0,0,0,.92.87,2.78,2.78,0,0,0,1.41.33,3.58,3.58,0,0,0,1.47-.23,2.37,2.37,0,0,0,.81-.56,4.83,4.83,0,0,0,.54-.72,3,3,0,0,1,.64-.71,3.22,3.22,0,0,1,1.1-.57,6.7,6.7,0,0,1,1.95-.22,7.36,7.36,0,0,1,1.16.09,3.07,3.07,0,0,1,1,.36,1.94,1.94,0,0,1,.69.73,2.38,2.38,0,0,1,.27,1.21,3.63,3.63,0,0,1-1,2.59,7.18,7.18,0,0,1-2.47,1.67,13.49,13.49,0,0,1-3.22.88,21,21,0,0,1-3.24.27,15.53,15.53,0,0,1-3.78-.51,9.07,9.07,0,0,1-3.17-1.53,7.39,7.39,0,0,1-2.19-2.75,9.61,9.61,0,0,1-.81-4.16v-5.6a12,12,0,0,1,.54-3.85,8.35,8.35,0,0,1,1.4-2.64,6.56,6.56,0,0,1,1.93-1.63,9.77,9.77,0,0,1,2.18-.88A12,12,0,0,1,562,219c.66,0,1.23-.07,1.71-.07a17.43,17.43,0,0,1,4.12.43,10.59,10.59,0,0,1,2.86,1.13,6.09,6.09,0,0,1,1.82,1.6,7.17,7.17,0,0,1,1,1.88,8.93,8.93,0,0,1,.43,2c.06.66.09,1.28.09,1.85Zm-12.92-.58h6c0-.75,0-1.41-.06-2a3.88,3.88,0,0,0-.36-1.48,1.94,1.94,0,0,0-.93-.9,4.11,4.11,0,0,0-1.8-.32,3.2,3.2,0,0,0-1.55.32,2.2,2.2,0,0,0-.85.77,2.62,2.62,0,0,0-.36,1,8.53,8.53,0,0,0-.07.93Z"/><path class="cls-5" d="M594.42,222.58a3.58,3.58,0,0,1-.92,2.73,3.69,3.69,0,0,1-2.62.86l-.68,0a4.41,4.41,0,0,0-.94.2,4.54,4.54,0,0,0-1,.45,3.76,3.76,0,0,0-1,.81,4.26,4.26,0,0,0-.69,1.31,6.12,6.12,0,0,0-.26,1.89v6.84a17,17,0,0,1-.11,1.91,4.79,4.79,0,0,1-.49,1.67,3.11,3.11,0,0,1-1.1,1.18,3.64,3.64,0,0,1-1.94.46,3.43,3.43,0,0,1-1.89-.46,3,3,0,0,1-1.06-1.18,4.79,4.79,0,0,1-.48-1.67,17,17,0,0,1-.11-1.91V224.3a17.64,17.64,0,0,1,.11-2,4.84,4.84,0,0,1,.48-1.68,2.9,2.9,0,0,1,1.06-1.19,3.52,3.52,0,0,1,1.89-.44,2.9,2.9,0,0,1,1.88.54,3.18,3.18,0,0,1,1,1.38,6.22,6.22,0,0,1,.36,1.89c0,.7.05,1.37.05,2h.38a11.56,11.56,0,0,1,.88-2.43,8.77,8.77,0,0,1,1.22-1.84,5.11,5.11,0,0,1,1.44-1.16,3.14,3.14,0,0,1,1.53-.41,4.91,4.91,0,0,1,1.52.2,1.94,1.94,0,0,1,.92.64,2.46,2.46,0,0,1,.46,1.1A10.38,10.38,0,0,1,594.42,222.58Z"/><path class="cls-5" d="M601.12,219v-4.21a18,18,0,0,1,.11-2,5,5,0,0,1,.49-1.71,3.08,3.08,0,0,1,1.1-1.22,3.55,3.55,0,0,1,1.94-.47,3.44,3.44,0,0,1,1.91.47,2.92,2.92,0,0,1,1.09,1.22,5,5,0,0,1,.48,1.71,18,18,0,0,1,.11,2V219h2c.42,0,.83,0,1.25.06a2.73,2.73,0,0,1,1.11.35,2.07,2.07,0,0,1,.79.86,3.51,3.51,0,0,1,.3,1.6,3.41,3.41,0,0,1-.3,1.56,2.07,2.07,0,0,1-.79.86,3.1,3.1,0,0,1-1.11.37,8.75,8.75,0,0,1-1.25.08h-2v8.38c0,.32,0,.65,0,1a2.59,2.59,0,0,0,.25,1,1.92,1.92,0,0,0,.64.75,2.14,2.14,0,0,0,1.22.3,6.85,6.85,0,0,1,1.47.13,2.2,2.2,0,0,1,1,.47,2,2,0,0,1,.59.93,5.39,5.39,0,0,1,.19,1.53,3,3,0,0,1-.45,1.65,3.61,3.61,0,0,1-1.18,1.15,5.51,5.51,0,0,1-1.72.67,9.85,9.85,0,0,1-2.06.22,10.33,10.33,0,0,1-2.91-.36,5.76,5.76,0,0,1-2-1,4.84,4.84,0,0,1-1.26-1.58,7.53,7.53,0,0,1-.7-2.07,16.73,16.73,0,0,1-.29-2.47q-.06-1.33-.06-2.79v-7.9h-1.34a8.47,8.47,0,0,1-1.23-.08,3,3,0,0,1-1.09-.37,2.09,2.09,0,0,1-.77-.86,3.41,3.41,0,0,1-.3-1.56,3.51,3.51,0,0,1,.3-1.6,2.09,2.09,0,0,1,.77-.86,2.64,2.64,0,0,1,1.09-.35q.62-.06,1.23-.06Z"/><path class="cls-5" d="M644.09,225.26a1.4,1.4,0,0,0,.32.88,3.54,3.54,0,0,0,.84.78,10.88,10.88,0,0,0,1.25.73l1.47.72c.78.38,1.58.79,2.39,1.23a11.77,11.77,0,0,1,2.23,1.54,7.72,7.72,0,0,1,1.64,2.05,5.66,5.66,0,0,1,.63,2.74,7.12,7.12,0,0,1-.42,2.54,6.47,6.47,0,0,1-1.11,1.9,6.33,6.33,0,0,1-1.62,1.33,8.92,8.92,0,0,1-1.93.83,12.33,12.33,0,0,1-2.07.45,17.76,17.76,0,0,1-2,.13,14.89,14.89,0,0,1-3.2-.31,9.9,9.9,0,0,1-2.35-.83,6.14,6.14,0,0,1-1.61-1.17,5.49,5.49,0,0,1-1-1.38,5.89,5.89,0,0,1-.5-1.42,6.27,6.27,0,0,1-.14-1.3,2.58,2.58,0,0,1,.8-2.11,3.73,3.73,0,0,1,2.45-.67,2.88,2.88,0,0,1,2,.65,2.73,2.73,0,0,1,.82,2.08,1.15,1.15,0,0,0,.27.76,1.88,1.88,0,0,0,.65.47,2.93,2.93,0,0,0,.87.24,7.5,7.5,0,0,0,.93.06,2.26,2.26,0,0,0,1.52-.49,1.61,1.61,0,0,0,.59-1.28,2.17,2.17,0,0,0-.4-1.26,4.83,4.83,0,0,0-1-1.09,13.88,13.88,0,0,0-1.47-1l-1.68-.94c-.72-.38-1.44-.79-2.17-1.22a12.18,12.18,0,0,1-2-1.44,6.79,6.79,0,0,1-1.44-1.78,4.53,4.53,0,0,1-.55-2.26,7.08,7.08,0,0,1,.61-3.12,5.09,5.09,0,0,1,1.78-2,8.22,8.22,0,0,1,2.86-1.11,22.68,22.68,0,0,1,3.84-.38h.39a14.15,14.15,0,0,1,3.29.33,8.24,8.24,0,0,1,2.24.88,5.2,5.2,0,0,1,1.42,1.2,5.3,5.3,0,0,1,.76,1.36,5.1,5.1,0,0,1,.31,1.3q.06.63.06,1a2.05,2.05,0,0,1-1.09,1.93,3.38,3.38,0,0,1-1.11.38,8.8,8.8,0,0,1-1.29.13,2.68,2.68,0,0,1-1-.19,2.75,2.75,0,0,1-.8-.48,2,2,0,0,1-.52-.64,1.55,1.55,0,0,1-.18-.7,1.68,1.68,0,0,0-.73-1.38,2.81,2.81,0,0,0-1.66-.48,4,4,0,0,0-.78.08,2,2,0,0,0-.67.29,1.48,1.48,0,0,0-.48.54A1.8,1.8,0,0,0,644.09,225.26Z"/><path class="cls-5" d="M670.94,239.18a14.25,14.25,0,0,1-1,2.15,4.33,4.33,0,0,1-.89,1.11,1.69,1.69,0,0,1-.86.42,6.62,6.62,0,0,1-.91.06,7.47,7.47,0,0,1-1-.06,2,2,0,0,1-.91-.41,4.32,4.32,0,0,1-.93-1.1,12.59,12.59,0,0,1-1-2.17L658.07,225a11.84,11.84,0,0,1-.4-1.23,5,5,0,0,1-.18-1.31,4.78,4.78,0,0,1,.18-1.32,2.94,2.94,0,0,1,.59-1.12,2.85,2.85,0,0,1,1-.76,3.91,3.91,0,0,1,1.58-.29,2.66,2.66,0,0,1,1.23.29,3.53,3.53,0,0,1,1,.76,6,6,0,0,1,.78,1.1,6.92,6.92,0,0,1,.52,1.3l2.68,8.7h.38l2.49-8.7a6.78,6.78,0,0,1,.48-1.23,5.41,5.41,0,0,1,.75-1.11,3.84,3.84,0,0,1,1.06-.8,3,3,0,0,1,1.4-.31,3.25,3.25,0,0,1,1.46.3,2.92,2.92,0,0,1,1,.79,3.22,3.22,0,0,1,.55,1.13,5.09,5.09,0,0,1,0,2.57,7.88,7.88,0,0,1-.42,1.24Z"/><path class="cls-5" d="M699.41,237.51c0,.67,0,1.33-.07,2a5,5,0,0,1-.43,1.74,2.92,2.92,0,0,1-1.08,1.23,3.69,3.69,0,0,1-2,.47,4,4,0,0,1-2.06-.45,3,3,0,0,1-1.1-1.07,3.66,3.66,0,0,1-.44-1.33,11.28,11.28,0,0,1-.08-1.17,8.47,8.47,0,0,1-.61,1.41,5.05,5.05,0,0,1-1,1.29,5,5,0,0,1-1.49.94,5.21,5.21,0,0,1-2,.38,8.57,8.57,0,0,1-2.63-.43,6.21,6.21,0,0,1-2.37-1.44,7.45,7.45,0,0,1-1.71-2.62,10.55,10.55,0,0,1-.66-4v-6.94a10.64,10.64,0,0,1,.66-4,7.32,7.32,0,0,1,1.71-2.61,6.28,6.28,0,0,1,2.37-1.42A8.28,8.28,0,0,1,687,219a5.4,5.4,0,0,1,2,.36,5,5,0,0,1,1.49.93,5.05,5.05,0,0,1,1,1.29,8.06,8.06,0,0,1,.61,1.44,5.2,5.2,0,0,1,.33-2,3.46,3.46,0,0,1,.86-1.25,2.84,2.84,0,0,1,1.19-.65,4.91,4.91,0,0,1,1.3-.18,3.5,3.5,0,0,1,1.92.47,3.06,3.06,0,0,1,1.09,1.22,5.29,5.29,0,0,1,.47,1.74,17,17,0,0,1,.11,2ZM687,233.82c0,.43,0,.86,0,1.27a3.6,3.6,0,0,0,.26,1.13,1.87,1.87,0,0,0,.64.8,1.93,1.93,0,0,0,1.16.3,2.52,2.52,0,0,0,1.51-.42,2.74,2.74,0,0,0,.93-1.29,9,9,0,0,0,.46-2.2c.09-.89.14-1.95.16-3.17a14.43,14.43,0,0,0-.13-1.72,8.47,8.47,0,0,0-.47-1.83,4.3,4.3,0,0,0-.93-1.46,2.1,2.1,0,0,0-1.53-.59,1.93,1.93,0,0,0-1.16.3,1.85,1.85,0,0,0-.64.77,3.35,3.35,0,0,0-.26,1.09c0,.41,0,.82,0,1.23Z"/><path class="cls-5" d="M720.42,222.58a3.61,3.61,0,0,1-.92,2.73,3.73,3.73,0,0,1-2.62.86l-.68,0a4.37,4.37,0,0,0-1,.2,5,5,0,0,0-1,.45,3.72,3.72,0,0,0-.94.81,4.07,4.07,0,0,0-.7,1.31,6.12,6.12,0,0,0-.26,1.89v6.84a17,17,0,0,1-.11,1.91,4.59,4.59,0,0,1-.49,1.67,3,3,0,0,1-1.1,1.18,3.61,3.61,0,0,1-1.94.46,3.48,3.48,0,0,1-1.89-.46,3.08,3.08,0,0,1-1.06-1.18,4.79,4.79,0,0,1-.48-1.67,17,17,0,0,1-.11-1.91V224.3a17.64,17.64,0,0,1,.11-2,4.84,4.84,0,0,1,.48-1.68,3,3,0,0,1,1.06-1.19,3.57,3.57,0,0,1,1.89-.44,2.89,2.89,0,0,1,1.88.54,3.18,3.18,0,0,1,1,1.38,6.22,6.22,0,0,1,.36,1.89c0,.7.05,1.37.05,2h.38a11,11,0,0,1,.89-2.43,8.06,8.06,0,0,1,1.22-1.84,4.94,4.94,0,0,1,1.43-1.16,3.14,3.14,0,0,1,1.53-.41,4.86,4.86,0,0,1,1.52.2,1.94,1.94,0,0,1,.92.64,2.35,2.35,0,0,1,.46,1.1A9.16,9.16,0,0,1,720.42,222.58Z"/><path class="cls-5" d="M732.05,238.94a4,4,0,0,1-1,3,4.1,4.1,0,0,1-2.9,1,4.15,4.15,0,0,1-2.94-1,4,4,0,0,1-1-3,3.86,3.86,0,0,1,1-3,4.23,4.23,0,0,1,2.94-.93,4.14,4.14,0,0,1,3,.93A4,4,0,0,1,732.05,238.94Z"/><path class="cls-5" d="M765,229.71v7.75q0,1-.06,2a5,5,0,0,1-.41,1.75,2.81,2.81,0,0,1-1.09,1.23,4,4,0,0,1-2.13.47,3.87,3.87,0,0,1-2.07-.47,2.69,2.69,0,0,1-1.06-1.23,5,5,0,0,1-.4-1.75q-.06-1-.06-2V214.88q0-1,.06-2a4.94,4.94,0,0,1,.4-1.75,2.69,2.69,0,0,1,1.06-1.23,3.87,3.87,0,0,1,2.07-.47h7.9a14.19,14.19,0,0,1,5.31,1.24,11.14,11.14,0,0,1,2,1.2,8.39,8.39,0,0,1,1.7,1.76,8.82,8.82,0,0,1,1.21,2.46,11,11,0,0,1,.45,3.29,11.69,11.69,0,0,1-.8,4.49,8.61,8.61,0,0,1-2.32,3.23,10.12,10.12,0,0,1-3.71,2,17.12,17.12,0,0,1-4.94.66Zm3.25-5.7a5,5,0,0,0,2.15-.57,4,4,0,0,0,.79-.55,3.62,3.62,0,0,0,.7-.83,4.26,4.26,0,0,0,.49-1.16,5.84,5.84,0,0,0,.18-1.53,5.05,5.05,0,0,0-.18-1.42,3.92,3.92,0,0,0-.47-1,3.47,3.47,0,0,0-.65-.76,4.51,4.51,0,0,0-.74-.52,5.3,5.3,0,0,0-2-.55H765V224Z"/><path class="cls-5" d="M798.66,222.58a3.58,3.58,0,0,1-.93,2.73,3.69,3.69,0,0,1-2.62.86l-.68,0a4.41,4.41,0,0,0-.94.2,4.54,4.54,0,0,0-1,.45,3.56,3.56,0,0,0-.94.81,4.07,4.07,0,0,0-.7,1.31,6.12,6.12,0,0,0-.26,1.89v6.84a17,17,0,0,1-.11,1.91,4.59,4.59,0,0,1-.49,1.67,3.11,3.11,0,0,1-1.1,1.18,3.61,3.61,0,0,1-1.94.46,3.43,3.43,0,0,1-1.89-.46,3,3,0,0,1-1.06-1.18,4.79,4.79,0,0,1-.48-1.67,17,17,0,0,1-.11-1.91V224.3a17.64,17.64,0,0,1,.11-2,4.84,4.84,0,0,1,.48-1.68,2.9,2.9,0,0,1,1.06-1.19,3.52,3.52,0,0,1,1.89-.44,2.89,2.89,0,0,1,1.88.54,3.18,3.18,0,0,1,1,1.38,6.22,6.22,0,0,1,.36,1.89c0,.7.05,1.37.05,2h.38a11.56,11.56,0,0,1,.88-2.43,8.77,8.77,0,0,1,1.22-1.84,5.11,5.11,0,0,1,1.44-1.16,3.14,3.14,0,0,1,1.53-.41,4.91,4.91,0,0,1,1.52.2,1.94,1.94,0,0,1,.92.64,2.46,2.46,0,0,1,.46,1.1A9.16,9.16,0,0,1,798.66,222.58Z"/><path class="cls-5" d="M801.1,228a10.3,10.3,0,0,1,.59-3.74,8.18,8.18,0,0,1,1.55-2.56,7.24,7.24,0,0,1,2.1-1.6,11.94,11.94,0,0,1,2.29-.86,12.56,12.56,0,0,1,2.09-.36c.65-.05,1.15-.07,1.52-.07s.89,0,1.52.07a11.6,11.6,0,0,1,2,.36,10.76,10.76,0,0,1,2.2.86,6.64,6.64,0,0,1,2,1.6,8.45,8.45,0,0,1,1.48,2.56,10.78,10.78,0,0,1,.57,3.74v5.93a10.72,10.72,0,0,1-.57,3.73,8.33,8.33,0,0,1-1.48,2.56,6.68,6.68,0,0,1-2,1.61,10.76,10.76,0,0,1-2.2.86,11.55,11.55,0,0,1-2,.36c-.64,0-1.14.07-1.51.07s-.87,0-1.52-.07a12.56,12.56,0,0,1-2.09-.36,11.94,11.94,0,0,1-2.29-.86,7.28,7.28,0,0,1-2.1-1.61,8.06,8.06,0,0,1-1.55-2.56,10.24,10.24,0,0,1-.59-3.73Zm12-3a2.44,2.44,0,0,0-.73-.48,3.08,3.08,0,0,0-1.14-.19,2.69,2.69,0,0,0-1.62.42,3,3,0,0,0-.82.9,3.07,3.07,0,0,0-.34,1.31v5.94Zm-3.93,12.3a2.93,2.93,0,0,0,.79.53,3,3,0,0,0,1.27.24,2.67,2.67,0,0,0,1.54-.38,2.38,2.38,0,0,0,.8-.85,2.76,2.76,0,0,0,.34-1.22v-6.46Z"/><path class="cls-5" d="M837.42,239.18a14.13,14.13,0,0,1-1,2.15,4.33,4.33,0,0,1-.88,1.11,1.76,1.76,0,0,1-.86.42,6.62,6.62,0,0,1-.91.06,7.47,7.47,0,0,1-1-.06,1.9,1.9,0,0,1-.91-.41,4,4,0,0,1-.93-1.1,11.88,11.88,0,0,1-1-2.17L824.54,225q-.21-.57-.39-1.23a5,5,0,0,1-.18-1.31,4.78,4.78,0,0,1,.18-1.32,2.92,2.92,0,0,1,.58-1.12,3,3,0,0,1,1.06-.76,3.88,3.88,0,0,1,1.58-.29,2.72,2.72,0,0,1,1.23.29,3.49,3.49,0,0,1,1,.76,5.19,5.19,0,0,1,.78,1.1,7,7,0,0,1,.53,1.3l2.68,8.7H834l2.49-8.7a6.78,6.78,0,0,1,.48-1.23,5,5,0,0,1,.75-1.11,4,4,0,0,1,1-.8,3,3,0,0,1,1.4-.31,3.22,3.22,0,0,1,1.46.3,2.74,2.74,0,0,1,1,.79,3.05,3.05,0,0,1,.55,1.13,5.25,5.25,0,0,1,0,2.57,10.66,10.66,0,0,1-.42,1.24Z"/><path class="cls-5" d="M866.84,224.35a18,18,0,0,1,.11-2,5,5,0,0,1,.49-1.71,3.08,3.08,0,0,1,1.1-1.22,4.24,4.24,0,0,1,3.88,0,3.08,3.08,0,0,1,1.1,1.22,5,5,0,0,1,.49,1.71,18,18,0,0,1,.11,2v13.21a18.29,18.29,0,0,1-.11,2,5,5,0,0,1-.49,1.72,3,3,0,0,1-1.1,1.21,4.32,4.32,0,0,1-3.88,0,3,3,0,0,1-1.1-1.21,5,5,0,0,1-.49-1.72,18.29,18.29,0,0,1-.11-2Zm7.33-11.29a3.58,3.58,0,0,1-1,2.74,4.48,4.48,0,0,1-5.36,0,4.45,4.45,0,0,1,0-5.52,3.89,3.89,0,0,1,2.68-.86,3.85,3.85,0,0,1,2.74.86A3.72,3.72,0,0,1,874.17,213.06Z"/><path class="cls-5" d="M900.2,243.63a10,10,0,0,1-.59,3.64,7.64,7.64,0,0,1-1.5,2.46,6.87,6.87,0,0,1-2,1.54,11.39,11.39,0,0,1-2.17.82,11.12,11.12,0,0,1-1.95.34c-.59,0-1,.06-1.34.06a24.19,24.19,0,0,1-3.4-.24,11.07,11.07,0,0,1-3.1-.89,6.57,6.57,0,0,1-2.32-1.74,4.85,4.85,0,0,1-1-2.83,2.59,2.59,0,0,1,.09-.64,1.62,1.62,0,0,1,.43-.69,3,3,0,0,1,1-.55,5.93,5.93,0,0,1,1.82-.22,7.83,7.83,0,0,1,2.13.22,3.2,3.2,0,0,1,1.1.55,1.5,1.5,0,0,1,.46.7c.08.25.15.47.23.68a1.22,1.22,0,0,0,.76.71,4.78,4.78,0,0,0,1.54.2,2.2,2.2,0,0,0,1.4-.41,2.7,2.7,0,0,0,.78-1,3.88,3.88,0,0,0,.33-1.15,7.69,7.69,0,0,0,.07-1V238.9a6.76,6.76,0,0,1-.61,1.43,4.94,4.94,0,0,1-2.51,2.23,5.33,5.33,0,0,1-2,.36,8.67,8.67,0,0,1-2.63-.43,6.51,6.51,0,0,1-2.38-1.43,7.18,7.18,0,0,1-1.73-2.62,10.56,10.56,0,0,1-.67-4v-6.94a10.31,10.31,0,0,1,.67-4,7.35,7.35,0,0,1,1.73-2.62,6.4,6.4,0,0,1,2.38-1.44,8.37,8.37,0,0,1,2.63-.43,5,5,0,0,1,3.55,1.32,5,5,0,0,1,1,1.29,7.08,7.08,0,0,1,.61,1.41,9.28,9.28,0,0,1,.09-1.17,3.43,3.43,0,0,1,.44-1.33,3.08,3.08,0,0,1,1.1-1.08,4.07,4.07,0,0,1,2.06-.44,3.69,3.69,0,0,1,2,.47,2.89,2.89,0,0,1,1.07,1.23,4.74,4.74,0,0,1,.43,1.73c0,.65.08,1.31.08,2Zm-12.45-9.76c0,.42,0,.83,0,1.25a3.23,3.23,0,0,0,.27,1.11,1.82,1.82,0,0,0,.63.79,2,2,0,0,0,1.16.3,2.07,2.07,0,0,0,1.53-.6,4.11,4.11,0,0,0,.93-1.47,8,8,0,0,0,.47-1.84,12.76,12.76,0,0,0,.13-1.74c0-1.21-.07-2.26-.15-3.16a8.84,8.84,0,0,0-.47-2.21,2.72,2.72,0,0,0-.92-1.29,2.55,2.55,0,0,0-1.52-.42,2,2,0,0,0-1.16.3,1.79,1.79,0,0,0-.63.8,3.29,3.29,0,0,0-.27,1.12c0,.42,0,.84,0,1.27Z"/><path class="cls-5" d="M925.46,229.28a7.82,7.82,0,0,1-.05.9,2,2,0,0,1-.37,1,2.56,2.56,0,0,1-1,.8,4.73,4.73,0,0,1-2,.33h-9.52v2.3a5.18,5.18,0,0,0,.15,1.2,3.21,3.21,0,0,0,.49,1.14,2.65,2.65,0,0,0,.92.87,2.78,2.78,0,0,0,1.41.33,3.58,3.58,0,0,0,1.47-.23,2.37,2.37,0,0,0,.81-.56,4.83,4.83,0,0,0,.54-.72,3,3,0,0,1,.64-.71,3.22,3.22,0,0,1,1.1-.57,6.7,6.7,0,0,1,1.95-.22,7.36,7.36,0,0,1,1.16.09,3.07,3.07,0,0,1,1,.36,1.94,1.94,0,0,1,.69.73,2.38,2.38,0,0,1,.27,1.21,3.63,3.63,0,0,1-1,2.59,7.18,7.18,0,0,1-2.47,1.67,13.49,13.49,0,0,1-3.22.88,21,21,0,0,1-3.24.27,15.53,15.53,0,0,1-3.78-.51,9.07,9.07,0,0,1-3.17-1.53,7.39,7.39,0,0,1-2.19-2.75,9.61,9.61,0,0,1-.81-4.16v-5.6a12,12,0,0,1,.54-3.85,8.35,8.35,0,0,1,1.4-2.64,6.56,6.56,0,0,1,1.93-1.63,9.77,9.77,0,0,1,2.18-.88,12,12,0,0,1,2.1-.36c.66,0,1.23-.07,1.71-.07a17.43,17.43,0,0,1,4.12.43,10.59,10.59,0,0,1,2.86,1.13,6.09,6.09,0,0,1,1.82,1.6,7.17,7.17,0,0,1,1,1.88,8.93,8.93,0,0,1,.43,2c.06.66.09,1.28.09,1.85Zm-12.92-.58h6c0-.75,0-1.41-.06-2a3.88,3.88,0,0,0-.36-1.48,1.94,1.94,0,0,0-.93-.9,4.11,4.11,0,0,0-1.8-.32,3.2,3.2,0,0,0-1.55.32,2.2,2.2,0,0,0-.85.77,2.62,2.62,0,0,0-.36,1,8.53,8.53,0,0,0-.07.93Z"/><path class="cls-5" d="M950.58,237.46a16.45,16.45,0,0,1-.12,2,5.26,5.26,0,0,1-.51,1.75,3.16,3.16,0,0,1-1.12,1.23,3.67,3.67,0,0,1-2,.47,3.55,3.55,0,0,1-1.94-.47,3.19,3.19,0,0,1-1.1-1.23,5.25,5.25,0,0,1-.49-1.75,18.75,18.75,0,0,1-.11-2v-9.33c0-.45,0-.89-.05-1.32a3.67,3.67,0,0,0-.28-1.13,1.9,1.9,0,0,0-.63-.79,1.93,1.93,0,0,0-1.14-.3,2.06,2.06,0,0,0-1.58.64,4.75,4.75,0,0,0-.95,1.78,12.31,12.31,0,0,0-.46,2.64q-.12,1.51-.12,3.27v4.54a16.45,16.45,0,0,1-.12,2,5.26,5.26,0,0,1-.51,1.75,3.18,3.18,0,0,1-1.13,1.23,3.63,3.63,0,0,1-2,.47,3.52,3.52,0,0,1-1.94-.47,3,3,0,0,1-1.1-1.23,5,5,0,0,1-.49-1.75,18.75,18.75,0,0,1-.11-2V224.4c0-.69,0-1.35.07-2a4.78,4.78,0,0,1,.43-1.72,2.85,2.85,0,0,1,1.09-1.22,3.82,3.82,0,0,1,2-.47,4.05,4.05,0,0,1,2.05.44,3.12,3.12,0,0,1,1.12,1.07,3.48,3.48,0,0,1,.46,1.31,8.15,8.15,0,0,1,.1,1.2,6.48,6.48,0,0,1,.6-1.41,5.19,5.19,0,0,1,2.56-2.24,5.21,5.21,0,0,1,2.05-.37,8.38,8.38,0,0,1,2.64.43,6.36,6.36,0,0,1,2.37,1.44,7.41,7.41,0,0,1,1.71,2.63,10.92,10.92,0,0,1,.65,4Z"/><path class="cls-5" d="M977.57,218.8a5.74,5.74,0,0,1-.44,2.27A7.86,7.86,0,0,1,976,223a11,11,0,0,1-1.54,1.58q-.86.72-1.65,1.32L971.32,227a4.81,4.81,0,0,0-1,1,3.71,3.71,0,0,0-.34.58,2.2,2.2,0,0,0-.19.9,3,3,0,0,1-.8,2.13,3.31,3.31,0,0,1-2.5.84,4,4,0,0,1-1.69-.32,3.13,3.13,0,0,1-1-.81,2.75,2.75,0,0,1-.55-1,3.92,3.92,0,0,1-.15-1,6.07,6.07,0,0,1,.55-2.73,7,7,0,0,1,1.38-1.9,11.45,11.45,0,0,1,1.8-1.4c.64-.4,1.23-.81,1.79-1.24a6.55,6.55,0,0,0,1.39-1.45,3.42,3.42,0,0,0,.55-2,3.88,3.88,0,0,0-.42-2,2.77,2.77,0,0,0-1-1.06,3.32,3.32,0,0,0-1.27-.44,10.11,10.11,0,0,0-1.11-.08,4.43,4.43,0,0,0-1.91.35,2.65,2.65,0,0,0-1.57,2,7.45,7.45,0,0,0-.11,1.21,3.28,3.28,0,0,1-.36,1.59,3.21,3.21,0,0,1-.89,1.06,3.38,3.38,0,0,1-1.18.6,4,4,0,0,1-1.16.19,3.79,3.79,0,0,1-2.63-.89,3,3,0,0,1-1-2.31,12.21,12.21,0,0,1,.14-1.6,10.37,10.37,0,0,1,1.7-4.29,8.07,8.07,0,0,1,1.94-2,10.08,10.08,0,0,1,2.92-1.44,13.5,13.5,0,0,1,4.11-.55,14,14,0,0,1,4.75.73,9.45,9.45,0,0,1,3.41,2,8.27,8.27,0,0,1,2.06,3.11A11,11,0,0,1,977.57,218.8Zm-7,20.14a4,4,0,0,1-1,3,4.1,4.1,0,0,1-2.9,1,4.17,4.17,0,0,1-2.94-1,4,4,0,0,1-1-3,3.86,3.86,0,0,1,1-3,4.25,4.25,0,0,1,2.94-.93,4.14,4.14,0,0,1,3,.93A4,4,0,0,1,970.59,238.94Z"/><path class="cls-5" d="M244.87,327a18.27,18.27,0,0,1,1.94.1,5.48,5.48,0,0,1,1.77.45,3,3,0,0,1,1.79,3,3.3,3.3,0,0,1-.5,1.93,3.24,3.24,0,0,1-1.29,1.06,5.76,5.76,0,0,1-1.77.46c-.66.06-1.3.09-1.94.09h-5.7v6.22h3c.62,0,1.26,0,1.91.08a5.35,5.35,0,0,1,1.77.4,3.19,3.19,0,0,1,1.31,1.05,3.43,3.43,0,0,1,.51,2,3.47,3.47,0,0,1-.5,2,3.08,3.08,0,0,1-1.29,1.06,5.47,5.47,0,0,1-1.77.4c-.66.05-1.3.08-1.94.08h-3V355c0,.71,0,1.38,0,2a5.11,5.11,0,0,1-.41,1.76,2.84,2.84,0,0,1-1.09,1.24,3.93,3.93,0,0,1-2.08.47,4,4,0,0,1-2.11-.47,2.73,2.73,0,0,1-1.07-1.24,5.11,5.11,0,0,1-.4-1.76c0-.66-.06-1.33-.06-2V332.52q0-1,.06-2a5.11,5.11,0,0,1,.4-1.76,2.81,2.81,0,0,1,1.07-1.25,3.9,3.9,0,0,1,2.11-.48Z"/><path class="cls-5" d="M252.86,345.59a10.33,10.33,0,0,1,.6-3.74,8.16,8.16,0,0,1,1.54-2.56,7.15,7.15,0,0,1,2.11-1.6,11.62,11.62,0,0,1,2.28-.86,12.5,12.5,0,0,1,2.1-.36c.64-.05,1.15-.07,1.51-.07s.87,0,1.51.07a11.81,11.81,0,0,1,2.05.36,11,11,0,0,1,2.2.86,6.89,6.89,0,0,1,2,1.6,8.23,8.23,0,0,1,1.47,2.56,10.82,10.82,0,0,1,.57,3.74v5.93a10.72,10.72,0,0,1-.57,3.73,8.12,8.12,0,0,1-1.47,2.56,6.93,6.93,0,0,1-2,1.61,11,11,0,0,1-2.2.86,11.81,11.81,0,0,1-2.05.36c-.64,0-1.14.07-1.51.07s-.87,0-1.51-.07a12.5,12.5,0,0,1-2.1-.36,11.62,11.62,0,0,1-2.28-.86,7.19,7.19,0,0,1-2.11-1.61,8,8,0,0,1-1.54-2.56,10.23,10.23,0,0,1-.6-3.73Zm7.37,7.61a2.7,2.7,0,0,0,.33,1.22,2.55,2.55,0,0,0,.83.84,2.88,2.88,0,0,0,1.61.38,2.71,2.71,0,0,0,1.55-.38,2.54,2.54,0,0,0,.8-.84,3,3,0,0,0,.33-1.22v-8.67a3.56,3.56,0,0,0-.33-1.31,3,3,0,0,0-.8-.9,2.49,2.49,0,0,0-1.55-.42,2.64,2.64,0,0,0-1.61.42,3,3,0,0,0-.83.9,3.21,3.21,0,0,0-.33,1.31Z"/><path class="cls-5" d="M293.1,340.18a3.58,3.58,0,0,1-.92,2.73,3.71,3.71,0,0,1-2.62.86l-.68,0a4.41,4.41,0,0,0-.94.2,4.54,4.54,0,0,0-1,.45,3.76,3.76,0,0,0-.95.81,4.26,4.26,0,0,0-.69,1.31,5.83,5.83,0,0,0-.26,1.89v6.84a16.91,16.91,0,0,1-.11,1.91,4.79,4.79,0,0,1-.49,1.67,3.11,3.11,0,0,1-1.1,1.18,3.55,3.55,0,0,1-1.94.46,3.35,3.35,0,0,1-1.89-.46,3.11,3.11,0,0,1-1.07-1.18,5,5,0,0,1-.47-1.67,16.91,16.91,0,0,1-.11-1.91V341.9A17.64,17.64,0,0,1,278,340a5.07,5.07,0,0,1,.47-1.68,3,3,0,0,1,1.07-1.19,3.52,3.52,0,0,1,1.89-.44,2.9,2.9,0,0,1,1.88.54,3.18,3.18,0,0,1,1,1.38,6.9,6.9,0,0,1,.36,1.9c0,.69,0,1.36,0,2H285a11,11,0,0,1,.88-2.43,8.77,8.77,0,0,1,1.22-1.84,5.11,5.11,0,0,1,1.44-1.16,3.14,3.14,0,0,1,1.53-.41,4.91,4.91,0,0,1,1.52.2,1.94,1.94,0,0,1,.92.64,2.45,2.45,0,0,1,.45,1.1A9.16,9.16,0,0,1,293.1,340.18Z"/><path class="cls-5" d="M334.54,355.11c0,.67,0,1.33-.07,2a5,5,0,0,1-.43,1.74,2.92,2.92,0,0,1-1.08,1.23,3.64,3.64,0,0,1-2,.47,4,4,0,0,1-2.05-.45,2.91,2.91,0,0,1-1.1-1.07,3.62,3.62,0,0,1-.45-1.33,11.28,11.28,0,0,1-.08-1.17,7.71,7.71,0,0,1-.61,1.41,4.84,4.84,0,0,1-1,1.29,5.21,5.21,0,0,1-1.49.95,5.4,5.4,0,0,1-2,.37,8.62,8.62,0,0,1-2.63-.43,6.21,6.21,0,0,1-2.37-1.44,7.45,7.45,0,0,1-1.71-2.62,10.55,10.55,0,0,1-.66-4v-6.94a10.64,10.64,0,0,1,.66-4,7.41,7.41,0,0,1,1.71-2.61,6.28,6.28,0,0,1,2.37-1.42,8.32,8.32,0,0,1,2.63-.43,5.4,5.4,0,0,1,2,.36,5,5,0,0,1,1.49.93,4.84,4.84,0,0,1,1,1.29,7.4,7.4,0,0,1,.61,1.44,5.2,5.2,0,0,1,.33-2,3.45,3.45,0,0,1,.87-1.25,2.92,2.92,0,0,1,1.18-.65,4.91,4.91,0,0,1,1.3-.18,3.5,3.5,0,0,1,1.92.47,3,3,0,0,1,1.09,1.22,5.54,5.54,0,0,1,.48,1.74,19.43,19.43,0,0,1,.1,2Zm-12.44-3.69c0,.44,0,.86,0,1.27a3.6,3.6,0,0,0,.26,1.13,1.76,1.76,0,0,0,1.8,1.1,2.55,2.55,0,0,0,1.52-.42,2.79,2.79,0,0,0,.92-1.29,8.55,8.55,0,0,0,.46-2.2c.09-.89.14-1.95.16-3.17a12.6,12.6,0,0,0-.13-1.72,8.47,8.47,0,0,0-.47-1.83,4.15,4.15,0,0,0-.93-1.46,2.1,2.1,0,0,0-1.53-.59,2,2,0,0,0-1.16.3,2,2,0,0,0-.64.77,3.35,3.35,0,0,0-.26,1.09c0,.41,0,.82,0,1.23Z"/><path class="cls-5" d="M343.3,336.59v-4.21a18,18,0,0,1,.11-2,4.8,4.8,0,0,1,.49-1.71,3.07,3.07,0,0,1,1.1-1.22,3.52,3.52,0,0,1,1.94-.47,3.48,3.48,0,0,1,1.91.47,3,3,0,0,1,1.09,1.22,5,5,0,0,1,.48,1.71,18,18,0,0,1,.11,2v4.21h2c.41,0,.83,0,1.24.06a2.64,2.64,0,0,1,1.11.35,2.07,2.07,0,0,1,.79.86,3.51,3.51,0,0,1,.3,1.6,3.41,3.41,0,0,1-.3,1.56,2.07,2.07,0,0,1-.79.86,3,3,0,0,1-1.11.37,8.61,8.61,0,0,1-1.24.08h-2v8.38c0,.32,0,.66,0,1a2.78,2.78,0,0,0,.25,1,2,2,0,0,0,.65.75,2.11,2.11,0,0,0,1.22.3,7,7,0,0,1,1.47.13,2.25,2.25,0,0,1,1,.47,2,2,0,0,1,.58.93,5.06,5.06,0,0,1,.19,1.53,3,3,0,0,1-.44,1.65,3.61,3.61,0,0,1-1.18,1.15,5.57,5.57,0,0,1-1.73.67,9.76,9.76,0,0,1-2.05.22,10.23,10.23,0,0,1-2.91-.36,5.59,5.59,0,0,1-2-1,4.75,4.75,0,0,1-1.27-1.58,7.87,7.87,0,0,1-.69-2.07,16.73,16.73,0,0,1-.29-2.47q-.06-1.33-.06-2.79v-7.9H342a8.29,8.29,0,0,1-1.23-.08,2.93,2.93,0,0,1-1.09-.37,2.11,2.11,0,0,1-.78-.86,3.41,3.41,0,0,1-.3-1.56,3.51,3.51,0,0,1,.3-1.6,2.11,2.11,0,0,1,.78-.86,2.6,2.6,0,0,1,1.09-.35q.6-.06,1.23-.06Z"/><path class="cls-5" d="M391.34,356.78a14.25,14.25,0,0,1-1,2.15,4.55,4.55,0,0,1-.88,1.11,1.76,1.76,0,0,1-.86.42,6.73,6.73,0,0,1-.91.06,7.37,7.37,0,0,1-1-.06,1.9,1.9,0,0,1-.91-.41,4.14,4.14,0,0,1-.94-1.1,11.64,11.64,0,0,1-1-2.17l-5.41-14.16q-.21-.57-.39-1.23a5,5,0,0,1-.18-1.31,4.78,4.78,0,0,1,.18-1.32,2.92,2.92,0,0,1,.58-1.12,2.85,2.85,0,0,1,1-.76,4,4,0,0,1,1.58-.29,2.73,2.73,0,0,1,1.24.29,3.49,3.49,0,0,1,1,.76,5.57,5.57,0,0,1,.78,1.1,6.3,6.3,0,0,1,.52,1.3l2.68,8.71h.39l2.49-8.71a7.1,7.1,0,0,1,.47-1.22,4.91,4.91,0,0,1,.76-1.12,3.65,3.65,0,0,1,1.05-.8,3,3,0,0,1,1.4-.31,3.25,3.25,0,0,1,1.46.3,2.74,2.74,0,0,1,1,.79,3,3,0,0,1,.55,1.14,5.29,5.29,0,0,1,.17,1.31,4.87,4.87,0,0,1-.16,1.25,7.55,7.55,0,0,1-.42,1.24Z"/><path class="cls-5" d="M401.68,342a15.76,15.76,0,0,1,.11-2,4.8,4.8,0,0,1,.49-1.71,3.07,3.07,0,0,1,1.1-1.22,4.22,4.22,0,0,1,3.87,0,3.07,3.07,0,0,1,1.1,1.22,4.8,4.8,0,0,1,.49,1.71,15.76,15.76,0,0,1,.11,2v13.21a15.93,15.93,0,0,1-.11,2,4.8,4.8,0,0,1-.49,1.72,2.92,2.92,0,0,1-1.1,1.21,4.3,4.3,0,0,1-3.87,0,2.92,2.92,0,0,1-1.1-1.21,4.8,4.8,0,0,1-.49-1.72,15.93,15.93,0,0,1-.11-2ZM409,330.66a3.58,3.58,0,0,1-1,2.74,4.48,4.48,0,0,1-5.36,0,4.48,4.48,0,0,1,0-5.52,3.89,3.89,0,0,1,2.68-.86,3.85,3.85,0,0,1,2.74.86A3.72,3.72,0,0,1,409,330.66Z"/><path class="cls-5" d="M436.08,355.06a16.45,16.45,0,0,1-.12,2,5.19,5.19,0,0,1-.51,1.75,3.16,3.16,0,0,1-1.12,1.23,3.67,3.67,0,0,1-2,.47,3.55,3.55,0,0,1-1.94-.47,3.19,3.19,0,0,1-1.1-1.23,5.18,5.18,0,0,1-.49-1.75,18.75,18.75,0,0,1-.11-2v-9.33c0-.45,0-.89,0-1.31a3.74,3.74,0,0,0-.28-1.14,1.9,1.9,0,0,0-.63-.79,1.93,1.93,0,0,0-1.14-.3,2.09,2.09,0,0,0-1.58.64,4.75,4.75,0,0,0-.95,1.78,12.43,12.43,0,0,0-.46,2.64q-.12,1.51-.12,3.27v4.54a16.45,16.45,0,0,1-.12,2,5.19,5.19,0,0,1-.51,1.75,3.18,3.18,0,0,1-1.13,1.23,3.63,3.63,0,0,1-2,.47,3.52,3.52,0,0,1-1.94-.47,3,3,0,0,1-1.1-1.23,5,5,0,0,1-.49-1.75,18.75,18.75,0,0,1-.11-2V342c0-.69,0-1.35.07-2a4.78,4.78,0,0,1,.43-1.72,2.91,2.91,0,0,1,1.09-1.22,3.82,3.82,0,0,1,2-.47,4.05,4.05,0,0,1,2.05.44,3.12,3.12,0,0,1,1.12,1.07,3.48,3.48,0,0,1,.46,1.31,8.26,8.26,0,0,1,.1,1.2,6.48,6.48,0,0,1,.6-1.41,5.19,5.19,0,0,1,2.56-2.24,5.21,5.21,0,0,1,2-.37,8.38,8.38,0,0,1,2.64.43,6.36,6.36,0,0,1,2.37,1.44,7.41,7.41,0,0,1,1.71,2.63,10.92,10.92,0,0,1,.65,4Z"/><path class="cls-5" d="M460.63,355.11c0,.67,0,1.33-.07,2a5,5,0,0,1-.43,1.74,2.92,2.92,0,0,1-1.08,1.23,3.69,3.69,0,0,1-2,.47,4,4,0,0,1-2.05-.45,2.94,2.94,0,0,1-1.11-1.07,3.79,3.79,0,0,1-.44-1.33,11.28,11.28,0,0,1-.08-1.17,8.47,8.47,0,0,1-.61,1.41,4.84,4.84,0,0,1-1,1.29,5.21,5.21,0,0,1-1.49.95,5.4,5.4,0,0,1-2.05.37,8.62,8.62,0,0,1-2.63-.43,6.21,6.21,0,0,1-2.37-1.44,7.45,7.45,0,0,1-1.71-2.62,10.55,10.55,0,0,1-.66-4v-6.94a10.64,10.64,0,0,1,.66-4,7.41,7.41,0,0,1,1.71-2.61,6.28,6.28,0,0,1,2.37-1.42,8.32,8.32,0,0,1,2.63-.43,5.4,5.4,0,0,1,2.05.36,5,5,0,0,1,1.49.93,4.84,4.84,0,0,1,1,1.29,8.06,8.06,0,0,1,.61,1.44v-8.18a17,17,0,0,1,.11-2,5.29,5.29,0,0,1,.47-1.74,3.07,3.07,0,0,1,1.1-1.22,3.72,3.72,0,0,1,2-.47,3.5,3.5,0,0,1,1.92.47,3,3,0,0,1,1.09,1.22,5.29,5.29,0,0,1,.47,1.74,17,17,0,0,1,.11,2Zm-12.44-3.69c0,.44,0,.86.05,1.27a3.6,3.6,0,0,0,.26,1.13,1.76,1.76,0,0,0,1.8,1.1,2.57,2.57,0,0,0,1.52-.42,2.79,2.79,0,0,0,.92-1.29,8.55,8.55,0,0,0,.46-2.2c.09-.89.14-1.95.16-3.17a14.43,14.43,0,0,0-.13-1.72,8.47,8.47,0,0,0-.47-1.83,4.15,4.15,0,0,0-.93-1.46,2.1,2.1,0,0,0-1.53-.59,1.93,1.93,0,0,0-1.16.3,2,2,0,0,0-.64.77,3.35,3.35,0,0,0-.26,1.09c0,.41-.05.82-.05,1.23Z"/><path class="cls-5" d="M485.66,346.88c0,.25,0,.55-.05.9a2,2,0,0,1-.37,1,2.6,2.6,0,0,1-1,.8,4.65,4.65,0,0,1-2,.33h-9.52v2.3a5.75,5.75,0,0,0,.14,1.2,3.77,3.77,0,0,0,.49,1.15,2.63,2.63,0,0,0,2.34,1.19,3.64,3.64,0,0,0,1.47-.23,2.24,2.24,0,0,0,.81-.56,4.83,4.83,0,0,0,.54-.72,3.19,3.19,0,0,1,.63-.71,3.32,3.32,0,0,1,1.1-.57,6.7,6.7,0,0,1,1.95-.22,7.27,7.27,0,0,1,1.16.09,3,3,0,0,1,1,.36,2.11,2.11,0,0,1,.69.73,2.41,2.41,0,0,1,.26,1.21,3.63,3.63,0,0,1-1,2.6,7.16,7.16,0,0,1-2.46,1.66,13.49,13.49,0,0,1-3.22.88,21.21,21.21,0,0,1-3.24.27,15.4,15.4,0,0,1-3.78-.51,8.74,8.74,0,0,1-3.17-1.53,7.39,7.39,0,0,1-2.19-2.75,9.61,9.61,0,0,1-.82-4.16V346a12,12,0,0,1,.54-3.85,8.5,8.5,0,0,1,1.4-2.63,6.48,6.48,0,0,1,1.94-1.64,10.06,10.06,0,0,1,2.18-.88,11.9,11.9,0,0,1,2.09-.36c.66,0,1.23-.07,1.71-.07a17.52,17.52,0,0,1,4.13.43,10.72,10.72,0,0,1,2.86,1.13,6.22,6.22,0,0,1,1.82,1.6,7.13,7.13,0,0,1,1,1.88,8.5,8.5,0,0,1,.43,2,17.62,17.62,0,0,1,.1,1.86Zm-12.92-.58h6c0-.75,0-1.41-.06-2a3.88,3.88,0,0,0-.36-1.48,2,2,0,0,0-.93-.9,4.18,4.18,0,0,0-1.81-.31,3.16,3.16,0,0,0-1.54.31,2.13,2.13,0,0,0-.85.77,2.62,2.62,0,0,0-.36,1,6.59,6.59,0,0,0-.07.93Z"/><path class="cls-5" d="M529.87,355.06a16.45,16.45,0,0,1-.12,2,5.19,5.19,0,0,1-.51,1.75,3.11,3.11,0,0,1-1.13,1.23,3.61,3.61,0,0,1-2,.47,3.55,3.55,0,0,1-1.94-.47,3.11,3.11,0,0,1-1.1-1.23,5.18,5.18,0,0,1-.49-1.75,18.75,18.75,0,0,1-.11-2v-9.33c0-.45,0-.89-.06-1.31a3.74,3.74,0,0,0-.27-1.14,1.9,1.9,0,0,0-.63-.79,1.93,1.93,0,0,0-1.14-.3,2.08,2.08,0,0,0-1.58.64,4.75,4.75,0,0,0-1,1.78,12.43,12.43,0,0,0-.46,2.64q-.12,1.51-.12,3.27v4.54a16.45,16.45,0,0,1-.12,2,5,5,0,0,1-.52,1.75,3.08,3.08,0,0,1-1.12,1.23,3.66,3.66,0,0,1-2,.47,3.52,3.52,0,0,1-1.94-.47,3,3,0,0,1-1.1-1.23,5,5,0,0,1-.49-1.75,18.75,18.75,0,0,1-.11-2V342c0-.69,0-1.35.07-2a4.78,4.78,0,0,1,.43-1.72,2.91,2.91,0,0,1,1.09-1.22,3.82,3.82,0,0,1,2-.47,4.05,4.05,0,0,1,2.05.44,3.12,3.12,0,0,1,1.12,1.07,3.48,3.48,0,0,1,.46,1.31,8.26,8.26,0,0,1,.1,1.2,6,6,0,0,1,.6-1.41,4.92,4.92,0,0,1,1-1.29,5.13,5.13,0,0,1,3.57-1.32,8.38,8.38,0,0,1,2.64.43,6.25,6.25,0,0,1,2.36,1.44,7.15,7.15,0,0,1,1.71,2.63,10.7,10.7,0,0,1,.66,4Z"/><path class="cls-5" d="M533.17,354.54a5.9,5.9,0,0,1,1-3.43,8.2,8.2,0,0,1,2.59-2.4,14.3,14.3,0,0,1,3.65-1.53,28.89,28.89,0,0,1,4.16-.83l1.34-.14v-2.92a2.07,2.07,0,0,0-.52-1.44,2.49,2.49,0,0,0-1.87-.57,3.33,3.33,0,0,0-2.1.51,1.84,1.84,0,0,0-.63,1.5,2.76,2.76,0,0,1-.1.72,1.63,1.63,0,0,1-.52.73,3.17,3.17,0,0,1-1.21.57,8.36,8.36,0,0,1-2.19.23,5.37,5.37,0,0,1-1.86-.26,2.58,2.58,0,0,1-1-.64,1.54,1.54,0,0,1-.38-.78,5,5,0,0,1-.06-.71,5.5,5.5,0,0,1,.95-3.33,6.6,6.6,0,0,1,2.39-2,10.24,10.24,0,0,1,3.16-1,21,21,0,0,1,3.26-.27c.59,0,1.25,0,2,.11a11.08,11.08,0,0,1,2.08.4,7.14,7.14,0,0,1,1.85.8,3.74,3.74,0,0,1,1.33,1.32,4.33,4.33,0,0,1,1.14-1.16,8.1,8.1,0,0,1,1.51-.81,10.13,10.13,0,0,1,1.66-.49,7.86,7.86,0,0,1,1.53-.17,17,17,0,0,1,3.67.35,10.61,10.61,0,0,1,2.63.92,6.11,6.11,0,0,1,1.75,1.31,6.23,6.23,0,0,1,1,1.51,6.49,6.49,0,0,1,.5,1.57,8.32,8.32,0,0,1,.13,1.42v1.11a3.51,3.51,0,0,1-.54,1.91,4.45,4.45,0,0,1-2,1.52,16.74,16.74,0,0,1-3.92,1.1,52.42,52.42,0,0,1-6.4.63v2.3a5.15,5.15,0,0,0,.14,1.2,3.77,3.77,0,0,0,.49,1.15,2.82,2.82,0,0,0,.92.86,2.78,2.78,0,0,0,1.41.33,4.17,4.17,0,0,0,1-.12,2.47,2.47,0,0,0,.84-.37,1.87,1.87,0,0,0,.57-.62,1.71,1.71,0,0,0,.22-.85,2.81,2.81,0,0,1,.1-.71,1.6,1.6,0,0,1,.52-.74,3.17,3.17,0,0,1,1.21-.57,8.33,8.33,0,0,1,2.18-.23,5.44,5.44,0,0,1,1.87.26,2.46,2.46,0,0,1,1,.64,1.48,1.48,0,0,1,.39.78,5,5,0,0,1,.06.71,5.49,5.49,0,0,1-.49,2.38,6,6,0,0,1-1.27,1.76,6.65,6.65,0,0,1-1.76,1.21,13.12,13.12,0,0,1-2,.75,10.75,10.75,0,0,1-1.88.4,13.53,13.53,0,0,1-1.5.11,15.51,15.51,0,0,1-1.9-.12,10.41,10.41,0,0,1-1.9-.42,8.29,8.29,0,0,1-1.79-.83,6.31,6.31,0,0,1-1.58-1.36,4.92,4.92,0,0,1-1.42,1.45,6.42,6.42,0,0,1-1.78.82,9.58,9.58,0,0,1-2.09.37c-.75.06-1.52.09-2.32.09a18.83,18.83,0,0,1-4.32-.43,8.56,8.56,0,0,1-2.87-1.22,4.62,4.62,0,0,1-1.6-1.89A5.91,5.91,0,0,1,533.17,354.54Zm12.73-4.22a9.12,9.12,0,0,0-2,.33,6.52,6.52,0,0,0-1.78.77,4.43,4.43,0,0,0-1.3,1.25,3.1,3.1,0,0,0-.5,1.77,1,1,0,0,0,.53,1,2.94,2.94,0,0,0,1.29.25,5.77,5.77,0,0,0,1.8-.24,2.75,2.75,0,0,0,1.14-.69,2.55,2.55,0,0,0,.61-1.09,5.2,5.2,0,0,0,.18-1.42Zm13.26-6.46a2.47,2.47,0,0,0-.25-1.12,2.37,2.37,0,0,0-.67-.8,3,3,0,0,0-1-.49,3.49,3.49,0,0,0-1-.17,3,3,0,0,0-1.75.43,2.62,2.62,0,0,0-.91,1.08,4.24,4.24,0,0,0-.34,1.38c0,.5-.06.95-.06,1.37V346l2.44-.18a18.82,18.82,0,0,0,1.89-.23,3.72,3.72,0,0,0,1.22-.39.81.81,0,0,0,.43-.73Z"/><path class="cls-5" d="M576.53,342.86a1.44,1.44,0,0,0,.31.89,3.58,3.58,0,0,0,.85.77,10.7,10.7,0,0,0,1.24.73l1.47.72c.79.38,1.58.79,2.4,1.23a12.07,12.07,0,0,1,2.22,1.55,7.33,7.33,0,0,1,1.64,2,5.66,5.66,0,0,1,.63,2.74,7.12,7.12,0,0,1-.41,2.54,6.21,6.21,0,0,1-2.73,3.23,9.22,9.22,0,0,1-1.94.83,12.33,12.33,0,0,1-2.07.45,17.59,17.59,0,0,1-2,.13,15.05,15.05,0,0,1-3.21-.31,9.63,9.63,0,0,1-2.35-.83A6.14,6.14,0,0,1,571,358.4a5.7,5.7,0,0,1-1-1.38,5.93,5.93,0,0,1-.51-1.42,7,7,0,0,1-.14-1.3,2.62,2.62,0,0,1,.8-2.11,3.75,3.75,0,0,1,2.45-.67,3,3,0,0,1,2,.65,2.69,2.69,0,0,1,.81,2.08,1.21,1.21,0,0,0,.28.76,1.72,1.72,0,0,0,.64.47,2.93,2.93,0,0,0,.87.24,7.54,7.54,0,0,0,.94.06,2.28,2.28,0,0,0,1.52-.49,1.59,1.59,0,0,0,.58-1.28,2.23,2.23,0,0,0-.39-1.26,5.06,5.06,0,0,0-1-1.09,12.47,12.47,0,0,0-1.47-1c-.55-.32-1.12-.63-1.69-.95s-1.44-.79-2.17-1.22a12.63,12.63,0,0,1-2-1.44,6.79,6.79,0,0,1-1.44-1.78,4.64,4.64,0,0,1-.55-2.26,7.23,7.23,0,0,1,.61-3.12,5,5,0,0,1,1.79-2,8.14,8.14,0,0,1,2.86-1.11,22.47,22.47,0,0,1,3.84-.38H579a14.09,14.09,0,0,1,3.29.33,8.45,8.45,0,0,1,2.25.88,4.91,4.91,0,0,1,2.17,2.56,5.14,5.14,0,0,1,.32,1.3q.06.63.06,1a2.17,2.17,0,0,1-.3,1.19,2.24,2.24,0,0,1-.79.74,3.53,3.53,0,0,1-1.12.38,7.62,7.62,0,0,1-1.29.13,2.68,2.68,0,0,1-1-.19,2.54,2.54,0,0,1-.8-.48,2.06,2.06,0,0,1-.51-.64A1.54,1.54,0,0,1,581,343a1.74,1.74,0,0,0-.73-1.39,2.84,2.84,0,0,0-1.67-.48,3.79,3.79,0,0,0-.77.08,1.92,1.92,0,0,0-.67.29,1.48,1.48,0,0,0-.48.54A1.8,1.8,0,0,0,576.53,342.86Z"/><path class="cls-5" d="M595.24,336.59v-4.21a15.76,15.76,0,0,1,.11-2,4.8,4.8,0,0,1,.49-1.71,3.07,3.07,0,0,1,1.1-1.22,3.52,3.52,0,0,1,1.94-.47,3.48,3.48,0,0,1,1.91.47,3,3,0,0,1,1.09,1.22,5.51,5.51,0,0,1,.48,1.71,18,18,0,0,1,.1,2v4.21h2c.41,0,.82,0,1.24.06a2.68,2.68,0,0,1,1.11.35,2.07,2.07,0,0,1,.79.86,3.51,3.51,0,0,1,.3,1.6,3.41,3.41,0,0,1-.3,1.56,2.07,2.07,0,0,1-.79.86,3,3,0,0,1-1.11.37,8.7,8.7,0,0,1-1.24.08h-2v8.38c0,.32,0,.66,0,1a2.78,2.78,0,0,0,.25,1,1.87,1.87,0,0,0,.65.75,2.09,2.09,0,0,0,1.22.3,7,7,0,0,1,1.47.13,2.17,2.17,0,0,1,1,.47,1.92,1.92,0,0,1,.59.93,5.06,5.06,0,0,1,.19,1.53,3,3,0,0,1-.44,1.65,3.54,3.54,0,0,1-1.19,1.15,5.42,5.42,0,0,1-1.72.67,9.78,9.78,0,0,1-2.06.22,10.2,10.2,0,0,1-2.9-.36,5.59,5.59,0,0,1-2-1,4.75,4.75,0,0,1-1.27-1.58,8.26,8.26,0,0,1-.7-2.07,16.78,16.78,0,0,1-.28-2.47q-.06-1.33-.06-2.79v-7.9H593.9a8.29,8.29,0,0,1-1.23-.08,2.93,2.93,0,0,1-1.09-.37,2.11,2.11,0,0,1-.78-.86,3.41,3.41,0,0,1-.3-1.56,3.51,3.51,0,0,1,.3-1.6,2.11,2.11,0,0,1,.78-.86,2.6,2.6,0,0,1,1.09-.35q.6-.06,1.23-.06Z"/><path class="cls-5" d="M632.28,346.88c0,.25,0,.55,0,.9a2.08,2.08,0,0,1-.37,1,2.68,2.68,0,0,1-1,.8,4.68,4.68,0,0,1-2,.33h-9.52v2.3a5.15,5.15,0,0,0,.14,1.2,3.54,3.54,0,0,0,.49,1.15,2.82,2.82,0,0,0,.92.86,2.78,2.78,0,0,0,1.41.33,3.58,3.58,0,0,0,1.47-.23,2.2,2.2,0,0,0,.82-.56,4.83,4.83,0,0,0,.54-.72,3,3,0,0,1,.63-.71,3.22,3.22,0,0,1,1.1-.57,6.7,6.7,0,0,1,2-.22,7.27,7.27,0,0,1,1.16.09,2.91,2.91,0,0,1,1,.36,2,2,0,0,1,.7.73,2.52,2.52,0,0,1,.26,1.21,3.67,3.67,0,0,1-1,2.6,7.26,7.26,0,0,1-2.46,1.66,13.62,13.62,0,0,1-3.22.88,21.21,21.21,0,0,1-3.24.27,15.55,15.55,0,0,1-3.79-.51,8.9,8.9,0,0,1-3.17-1.53,7.47,7.47,0,0,1-2.18-2.75,9.46,9.46,0,0,1-.82-4.16V346a12,12,0,0,1,.54-3.85,8.5,8.5,0,0,1,1.4-2.63,6.36,6.36,0,0,1,1.94-1.64,10.06,10.06,0,0,1,2.18-.88,11.9,11.9,0,0,1,2.09-.36c.66,0,1.23-.07,1.71-.07a17.52,17.52,0,0,1,4.13.43,10.72,10.72,0,0,1,2.86,1.13,6,6,0,0,1,1.81,1.6,6.89,6.89,0,0,1,1,1.88,8.5,8.5,0,0,1,.43,2c.06.66.1,1.28.1,1.86Zm-12.92-.58h6c0-.75,0-1.41-.06-2a3.88,3.88,0,0,0-.36-1.48,2,2,0,0,0-.93-.9,4.21,4.21,0,0,0-1.81-.31,3.14,3.14,0,0,0-1.54.31,2.13,2.13,0,0,0-.85.77,2.46,2.46,0,0,0-.36,1,6.59,6.59,0,0,0-.07.93Z"/><path class="cls-5" d="M675.44,361.23a10,10,0,0,1-.59,3.64,7.8,7.8,0,0,1-1.49,2.46,6.91,6.91,0,0,1-2,1.54,11.39,11.39,0,0,1-2.17.82,10.26,10.26,0,0,1-1.95.34c-.59,0-1,.06-1.34.06a24.19,24.19,0,0,1-3.4-.24,11.07,11.07,0,0,1-3.1-.89,6.57,6.57,0,0,1-2.32-1.74,4.85,4.85,0,0,1-1-2.83,2.28,2.28,0,0,1,.1-.64,1.45,1.45,0,0,1,.43-.69,2.8,2.8,0,0,1,1-.55,5.93,5.93,0,0,1,1.82-.22,7.83,7.83,0,0,1,2.13.22,3.2,3.2,0,0,1,1.1.55,1.61,1.61,0,0,1,.47.7c.07.25.14.47.22.68a1.2,1.2,0,0,0,.76.71,4.83,4.83,0,0,0,1.54.2,2.2,2.2,0,0,0,1.4-.41,2.7,2.7,0,0,0,.78-1,3.91,3.91,0,0,0,.33-1.14,8,8,0,0,0,.07-1V356.5a6.76,6.76,0,0,1-.61,1.43,4.94,4.94,0,0,1-2.51,2.23,5.31,5.31,0,0,1-2,.36,8.68,8.68,0,0,1-2.64-.43,6.51,6.51,0,0,1-2.38-1.43,7.31,7.31,0,0,1-1.73-2.62,10.56,10.56,0,0,1-.67-4v-6.94a10.31,10.31,0,0,1,.67-4,7.49,7.49,0,0,1,1.73-2.62,6.4,6.4,0,0,1,2.38-1.44,8.38,8.38,0,0,1,2.64-.43,5.12,5.12,0,0,1,2,.37,5.19,5.19,0,0,1,1.5,1,5,5,0,0,1,1,1.29,7.08,7.08,0,0,1,.61,1.41,9.28,9.28,0,0,1,.09-1.17,3.43,3.43,0,0,1,.44-1.33,3.08,3.08,0,0,1,1.1-1.08,4.09,4.09,0,0,1,2.06-.44,3.69,3.69,0,0,1,2,.47,2.92,2.92,0,0,1,1.08,1.23,5.17,5.17,0,0,1,.43,1.73c0,.65.07,1.31.07,2ZM663,351.47c0,.42,0,.83,0,1.25a3.48,3.48,0,0,0,.27,1.11,1.82,1.82,0,0,0,.63.79,2,2,0,0,0,1.16.3,2.07,2.07,0,0,0,1.53-.6,4.27,4.27,0,0,0,.94-1.47A8.55,8.55,0,0,0,668,351a12.76,12.76,0,0,0,.13-1.74c0-1.21-.06-2.26-.15-3.16a8.42,8.42,0,0,0-.47-2.21,2.72,2.72,0,0,0-.92-1.29,2.55,2.55,0,0,0-1.52-.42,2,2,0,0,0-1.16.3,1.85,1.85,0,0,0-.63.8,3.54,3.54,0,0,0-.27,1.13c0,.41,0,.83,0,1.26Z"/><path class="cls-5" d="M700.13,355.11c0,.67,0,1.33-.07,2a5,5,0,0,1-.43,1.74,2.92,2.92,0,0,1-1.08,1.23,3.69,3.69,0,0,1-2,.47,4,4,0,0,1-2.06-.45,3,3,0,0,1-1.1-1.07,3.6,3.6,0,0,1-.44-1.33,9,9,0,0,1-.08-1.17,8.47,8.47,0,0,1-.61,1.41,5,5,0,0,1-4.56,2.61,8.57,8.57,0,0,1-2.63-.43,6.21,6.21,0,0,1-2.37-1.44A7.32,7.32,0,0,1,681,356a10.55,10.55,0,0,1-.66-4v-6.94a10.64,10.64,0,0,1,.66-4,7.27,7.27,0,0,1,1.71-2.61,6.28,6.28,0,0,1,2.37-1.42,8.28,8.28,0,0,1,2.63-.43,5.31,5.31,0,0,1,2,.36,5,5,0,0,1,1.5.93,5.28,5.28,0,0,1,1,1.29,8.06,8.06,0,0,1,.61,1.44,5.2,5.2,0,0,1,.33-2,3.43,3.43,0,0,1,.86-1.25,3,3,0,0,1,1.19-.65,4.85,4.85,0,0,1,1.3-.18,3.44,3.44,0,0,1,1.91.47,3,3,0,0,1,1.09,1.22A5.06,5.06,0,0,1,700,340a19.42,19.42,0,0,1,.11,2Zm-12.44-3.69c0,.44,0,.86,0,1.27a3.34,3.34,0,0,0,.26,1.13,1.85,1.85,0,0,0,.63.8,2,2,0,0,0,1.16.3,2.53,2.53,0,0,0,1.52-.42,2.72,2.72,0,0,0,.92-1.29,8.52,8.52,0,0,0,.47-2.2c.09-.89.14-1.95.16-3.17a12.76,12.76,0,0,0-.14-1.72,7.92,7.92,0,0,0-.46-1.83,4.32,4.32,0,0,0-.94-1.46,2.07,2.07,0,0,0-1.53-.59,2,2,0,0,0-1.16.3,1.89,1.89,0,0,0-.63.77,3.12,3.12,0,0,0-.26,1.09c0,.41,0,.82,0,1.23Z"/><path class="cls-5" d="M725.83,355.06a16.45,16.45,0,0,1-.12,2,5.19,5.19,0,0,1-.52,1.75,3.16,3.16,0,0,1-1.12,1.23,3.67,3.67,0,0,1-2,.47,3.55,3.55,0,0,1-1.94-.47,3.19,3.19,0,0,1-1.1-1.23,5.42,5.42,0,0,1-.49-1.75,18.79,18.79,0,0,1-.1-2v-9.33c0-.45,0-.89-.06-1.31a3.74,3.74,0,0,0-.28-1.14,1.82,1.82,0,0,0-.63-.79,1.93,1.93,0,0,0-1.14-.3,2.09,2.09,0,0,0-1.58.64,4.61,4.61,0,0,0-.94,1.78,12.39,12.39,0,0,0-.47,2.64q-.12,1.51-.12,3.27v4.54a16.45,16.45,0,0,1-.12,2,5.19,5.19,0,0,1-.51,1.75,3.18,3.18,0,0,1-1.13,1.23,3.61,3.61,0,0,1-2,.47,3.52,3.52,0,0,1-1.94-.47,3,3,0,0,1-1.1-1.23,5,5,0,0,1-.49-1.75,18.75,18.75,0,0,1-.11-2V342c0-.69,0-1.35.07-2a4.78,4.78,0,0,1,.43-1.72,3,3,0,0,1,1.09-1.22,3.82,3.82,0,0,1,2-.47,4.12,4.12,0,0,1,2.06.44,3.17,3.17,0,0,1,1.11,1.07,3.32,3.32,0,0,1,.46,1.31,8.26,8.26,0,0,1,.1,1.2,6.48,6.48,0,0,1,.6-1.41A5.19,5.19,0,0,1,716.4,337a5.23,5.23,0,0,1,2.06-.37,8.37,8.37,0,0,1,2.63.43,6.36,6.36,0,0,1,2.37,1.44,7.41,7.41,0,0,1,1.71,2.63,10.7,10.7,0,0,1,.66,4Z"/><path class="cls-5" d="M750.66,361.23a10,10,0,0,1-.59,3.64,7.8,7.8,0,0,1-1.49,2.46,7,7,0,0,1-2,1.54,11.47,11.47,0,0,1-2.18.82,10.26,10.26,0,0,1-2,.34c-.59,0-1,.06-1.34.06a24.29,24.29,0,0,1-3.4-.24,11.17,11.17,0,0,1-3.1-.89,6.66,6.66,0,0,1-2.32-1.74,4.85,4.85,0,0,1-1-2.83,2.28,2.28,0,0,1,.1-.64,1.53,1.53,0,0,1,.43-.69,2.89,2.89,0,0,1,1-.55,6,6,0,0,1,1.82-.22,7.73,7.73,0,0,1,2.13.22,3.11,3.11,0,0,1,1.1.55,1.53,1.53,0,0,1,.47.7c.07.25.15.47.23.68a1.16,1.16,0,0,0,.75.71,4.83,4.83,0,0,0,1.54.2,2.2,2.2,0,0,0,1.4-.41,2.6,2.6,0,0,0,.78-1,3.38,3.38,0,0,0,.33-1.14,8.31,8.31,0,0,0,.08-1V356.5a8,8,0,0,1-.61,1.43,5.28,5.28,0,0,1-1,1.29,4.84,4.84,0,0,1-1.5.94,5.31,5.31,0,0,1-2,.36,8.57,8.57,0,0,1-2.63-.43,6.42,6.42,0,0,1-2.38-1.43,7.32,7.32,0,0,1-1.74-2.62,10.56,10.56,0,0,1-.67-4v-6.94a10.31,10.31,0,0,1,.67-4,7.5,7.5,0,0,1,1.74-2.62,6.32,6.32,0,0,1,2.38-1.44,8.28,8.28,0,0,1,2.63-.43,5.12,5.12,0,0,1,2,.37,5.06,5.06,0,0,1,1.5,1,5.28,5.28,0,0,1,1,1.29,8.47,8.47,0,0,1,.61,1.41,9,9,0,0,1,.08-1.17,3.6,3.6,0,0,1,.44-1.33A3.08,3.08,0,0,1,745,337a4.09,4.09,0,0,1,2.06-.44,3.69,3.69,0,0,1,2,.47,2.92,2.92,0,0,1,1.08,1.23,4.94,4.94,0,0,1,.43,1.73c0,.65.07,1.31.07,2Zm-12.44-9.76c0,.42,0,.83,0,1.25a3.48,3.48,0,0,0,.26,1.11,1.82,1.82,0,0,0,.63.79,2,2,0,0,0,1.16.3,2.08,2.08,0,0,0,1.54-.6,4.4,4.4,0,0,0,.93-1.47,8,8,0,0,0,.46-1.84,12.91,12.91,0,0,0,.14-1.74c0-1.21-.07-2.26-.16-3.16a8.42,8.42,0,0,0-.47-2.21,2.72,2.72,0,0,0-.92-1.29,2.53,2.53,0,0,0-1.52-.42,2,2,0,0,0-1.16.3,1.85,1.85,0,0,0-.63.8,3.54,3.54,0,0,0-.26,1.13c0,.41,0,.83,0,1.26Z"/><path class="cls-5" d="M764.63,356.54a14,14,0,0,1-.26,2.55,11.42,11.42,0,0,1-.8,2.56,6.57,6.57,0,0,1-1.37,2,2.69,2.69,0,0,1-1.92.8,1.28,1.28,0,0,1-.78-.29,1.06,1.06,0,0,1-.37-.91v-.19a1.58,1.58,0,0,1,.14-.49,4.67,4.67,0,0,1,.27-.49c.09-.16.18-.32.25-.48a1.22,1.22,0,0,0,.11-.5.51.51,0,0,0-.24-.43c-.16-.11-.36-.23-.59-.36s-.48-.27-.75-.44a3,3,0,0,1-.76-.67,3.73,3.73,0,0,1-.58-1.05,4.61,4.61,0,0,1-.24-1.6,3.86,3.86,0,0,1,1-3,4.22,4.22,0,0,1,2.94-.93,4.11,4.11,0,0,1,2.95.93A4,4,0,0,1,764.63,356.54Z"/><path class="cls-5" d="M790.28,332.33a18,18,0,0,1,.11-2,4.75,4.75,0,0,1,.49-1.7,3,3,0,0,1,1.1-1.19,3.53,3.53,0,0,1,1.94-.46,3.58,3.58,0,0,1,2,.46,3,3,0,0,1,1.09,1.19,5,5,0,0,1,.48,1.7,18,18,0,0,1,.1,2v22.83a18.17,18.17,0,0,1-.1,2,5,5,0,0,1-.48,1.72,2.9,2.9,0,0,1-1.09,1.21,3.58,3.58,0,0,1-2,.46,3.53,3.53,0,0,1-1.94-.46,2.92,2.92,0,0,1-1.1-1.21,4.8,4.8,0,0,1-.49-1.72,18.14,18.14,0,0,1-.11-2Z"/><path class="cls-5" d="M801.48,354.54a6,6,0,0,1,1-3.43,8.24,8.24,0,0,1,2.6-2.4,14.23,14.23,0,0,1,3.64-1.53,29,29,0,0,1,4.17-.83l1.34-.14v-2.92a2.08,2.08,0,0,0-.53-1.44,2.47,2.47,0,0,0-1.87-.57,3.35,3.35,0,0,0-2.1.51,1.84,1.84,0,0,0-.62,1.5,2.8,2.8,0,0,1-.11.72,1.49,1.49,0,0,1-.52.73,3.19,3.19,0,0,1-1.2.57,8.46,8.46,0,0,1-2.19.23,5.44,5.44,0,0,1-1.87-.26,2.46,2.46,0,0,1-1-.64,1.46,1.46,0,0,1-.38-.78,5,5,0,0,1-.06-.71,5.49,5.49,0,0,1,.94-3.33,6.68,6.68,0,0,1,2.39-2,10.33,10.33,0,0,1,3.16-1,21,21,0,0,1,3.27-.27c.59,0,1.24,0,2,.11a10.93,10.93,0,0,1,2.08.4,7.14,7.14,0,0,1,1.85.8,3.74,3.74,0,0,1,1.33,1.32,4.33,4.33,0,0,1,1.14-1.16,8.18,8.18,0,0,1,1.52-.81,9.74,9.74,0,0,1,1.65-.49,8,8,0,0,1,1.53-.17,17,17,0,0,1,3.67.35,10.84,10.84,0,0,1,2.64.92,6.16,6.16,0,0,1,2.77,2.82,5.72,5.72,0,0,1,.5,1.57,8.32,8.32,0,0,1,.13,1.42v1.11a3.59,3.59,0,0,1-.53,1.91,4.48,4.48,0,0,1-2,1.52,16.46,16.46,0,0,1-3.92,1.1,52.42,52.42,0,0,1-6.4.63v2.3a5.75,5.75,0,0,0,.14,1.2,3.77,3.77,0,0,0,.49,1.15,2.85,2.85,0,0,0,.93.86,2.78,2.78,0,0,0,1.41.33,4.09,4.09,0,0,0,1-.12,2.47,2.47,0,0,0,.84-.37,1.87,1.87,0,0,0,.57-.62,1.61,1.61,0,0,0,.22-.85,2.86,2.86,0,0,1,.11-.71,1.51,1.51,0,0,1,.51-.74,3.25,3.25,0,0,1,1.21-.57,8.36,8.36,0,0,1,2.19-.23,5.34,5.34,0,0,1,1.86.26,2.58,2.58,0,0,1,1,.64,1.54,1.54,0,0,1,.38.78,5,5,0,0,1,.06.71,5.35,5.35,0,0,1-.49,2.38,6,6,0,0,1-1.27,1.76,6.49,6.49,0,0,1-1.76,1.21,12.71,12.71,0,0,1-2,.75,10.56,10.56,0,0,1-1.88.4,13.21,13.21,0,0,1-1.49.11,15.39,15.39,0,0,1-1.9-.12,10.52,10.52,0,0,1-1.91-.42,8.29,8.29,0,0,1-1.79-.83,6.69,6.69,0,0,1-1.58-1.36,5,5,0,0,1-1.41,1.45,6.56,6.56,0,0,1-1.78.82,9.79,9.79,0,0,1-2.1.37c-.75.06-1.52.09-2.32.09a18.9,18.9,0,0,1-4.32-.43,8.56,8.56,0,0,1-2.87-1.22A4.7,4.7,0,0,1,802,357,5.91,5.91,0,0,1,801.48,354.54Zm12.73-4.22a9.21,9.21,0,0,0-2,.33,6.66,6.66,0,0,0-1.78.77,4.28,4.28,0,0,0-1.29,1.25,3,3,0,0,0-.5,1.77,1,1,0,0,0,.52,1,2.94,2.94,0,0,0,1.29.25,5.77,5.77,0,0,0,1.8-.24,2.79,2.79,0,0,0,1.15-.69,2.66,2.66,0,0,0,.61-1.09,5.2,5.2,0,0,0,.18-1.42Zm13.25-6.46a2.34,2.34,0,0,0-.25-1.12,2.37,2.37,0,0,0-.67-.8,2.91,2.91,0,0,0-.94-.49,3.61,3.61,0,0,0-1.06-.17,3,3,0,0,0-1.74.43,2.55,2.55,0,0,0-.91,1.08,4.25,4.25,0,0,0-.35,1.38c0,.5-.06.95-.06,1.37V346l2.44-.18a18.82,18.82,0,0,0,1.89-.23,3.64,3.64,0,0,0,1.22-.39.79.79,0,0,0,.43-.73Z"/><path class="cls-5" d="M844.83,342.86a1.5,1.5,0,0,0,.31.89,3.58,3.58,0,0,0,.85.77,10.88,10.88,0,0,0,1.25.73l1.47.72c.78.38,1.58.79,2.39,1.23a12.14,12.14,0,0,1,2.23,1.55,7.3,7.3,0,0,1,1.63,2,5.55,5.55,0,0,1,.64,2.74,7.12,7.12,0,0,1-.42,2.54,6.47,6.47,0,0,1-1.11,1.9,6.29,6.29,0,0,1-1.62,1.33,9,9,0,0,1-1.94.83,11.92,11.92,0,0,1-2.07.45,17.59,17.59,0,0,1-2,.13,15.05,15.05,0,0,1-3.21-.31,9.4,9.4,0,0,1-2.34-.83,6.2,6.2,0,0,1-1.62-1.17,5.7,5.7,0,0,1-1-1.38,5.49,5.49,0,0,1-.5-1.42,6.33,6.33,0,0,1-.15-1.3,2.59,2.59,0,0,1,.81-2.11,3.73,3.73,0,0,1,2.45-.67,2.93,2.93,0,0,1,2,.65,2.69,2.69,0,0,1,.81,2.08,1.21,1.21,0,0,0,.28.76,1.81,1.81,0,0,0,.64.47,3.09,3.09,0,0,0,.88.24,7.5,7.5,0,0,0,.93.06,2.28,2.28,0,0,0,1.52-.49,1.59,1.59,0,0,0,.59-1.28,2.24,2.24,0,0,0-.4-1.26,4.83,4.83,0,0,0-1-1.09,12.47,12.47,0,0,0-1.47-1c-.55-.32-1.11-.63-1.69-.95s-1.44-.79-2.16-1.22a12.27,12.27,0,0,1-2-1.44,6.56,6.56,0,0,1-1.43-1.78,4.53,4.53,0,0,1-.55-2.26,7.08,7.08,0,0,1,.61-3.12,5,5,0,0,1,1.78-2,8.14,8.14,0,0,1,2.86-1.11,22.47,22.47,0,0,1,3.84-.38h.38a14.09,14.09,0,0,1,3.29.33,8.45,8.45,0,0,1,2.25.88,5,5,0,0,1,2.18,2.56,5.1,5.1,0,0,1,.31,1.3q.06.63.06,1a2.05,2.05,0,0,1-1.09,1.93,3.55,3.55,0,0,1-1.11.38,7.83,7.83,0,0,1-1.29.13,2.64,2.64,0,0,1-1-.19,2.6,2.6,0,0,1-.81-.48,2.06,2.06,0,0,1-.51-.64,1.54,1.54,0,0,1-.18-.69,1.72,1.72,0,0,0-.73-1.39,2.81,2.81,0,0,0-1.66-.48,4,4,0,0,0-.78.08,1.92,1.92,0,0,0-.67.29,1.48,1.48,0,0,0-.48.54A1.8,1.8,0,0,0,844.83,342.86Z"/><path class="cls-5" d="M895.79,360.52a3.49,3.49,0,0,1-1.93-.47,3,3,0,0,1-1.1-1.23,5.2,5.2,0,0,1-.5-1.74,18.17,18.17,0,0,1-.1-2v-9.48q0-.64-.06-1.26a3.23,3.23,0,0,0-.28-1.1,1.85,1.85,0,0,0-.63-.78,1.93,1.93,0,0,0-1.14-.3,2,2,0,0,0-1.55.64,4.6,4.6,0,0,0-1,1.76,12.92,12.92,0,0,0-.48,2.62c-.08,1-.13,2.09-.13,3.26v4.64a15.93,15.93,0,0,1-.11,2,5.43,5.43,0,0,1-.47,1.74,3,3,0,0,1-1.09,1.23,4.34,4.34,0,0,1-3.93,0,3,3,0,0,1-1.09-1.23,5.43,5.43,0,0,1-.47-1.74,15.93,15.93,0,0,1-.11-2V342c0-.67,0-1.33.08-2a5.43,5.43,0,0,1,.44-1.73,2.94,2.94,0,0,1,1.09-1.23,3.75,3.75,0,0,1,2-.47,4,4,0,0,1,2.05.44,3,3,0,0,1,1.09,1.08,3.41,3.41,0,0,1,.43,1.33,10.94,10.94,0,0,1,.07,1.17,5.67,5.67,0,0,1,.68-1.41,5.36,5.36,0,0,1,1.19-1.29,6.35,6.35,0,0,1,1.65-1,5.51,5.51,0,0,1,2.08-.37,6.61,6.61,0,0,1,3.06.77,6.54,6.54,0,0,1,2.54,2.48,4.14,4.14,0,0,1,1.05-1.42,6.59,6.59,0,0,1,1.58-1,8.89,8.89,0,0,1,1.89-.61,10.41,10.41,0,0,1,2-.2,8.37,8.37,0,0,1,2.63.43,6.28,6.28,0,0,1,2.37,1.44,7.45,7.45,0,0,1,1.71,2.62,10.51,10.51,0,0,1,.66,4v10.05a15.91,15.91,0,0,1-.12,2,5.2,5.2,0,0,1-.51,1.74,3,3,0,0,1-1.11,1.23,4.32,4.32,0,0,1-3.92,0,3.08,3.08,0,0,1-1.12-1.23,5.43,5.43,0,0,1-.49-1.74,18.17,18.17,0,0,1-.1-2v-9.48a10.39,10.39,0,0,0-.08-1.26,3.48,3.48,0,0,0-.28-1.1,1.9,1.9,0,0,0-.65-.78,2,2,0,0,0-1.15-.3,1.88,1.88,0,0,0-1.3.48,3.71,3.71,0,0,0-.9,1.31,8.86,8.86,0,0,0-.55,2,23.2,23.2,0,0,0-.26,2.53v6.6a18.14,18.14,0,0,1-.11,2,5,5,0,0,1-.49,1.74,3.13,3.13,0,0,1-1.11,1.23A3.67,3.67,0,0,1,895.79,360.52Z"/><path class="cls-5" d="M937.23,346.88c0,.25,0,.55,0,.9a2.09,2.09,0,0,1-.38,1,2.56,2.56,0,0,1-1,.8,4.71,4.71,0,0,1-2,.33h-9.53v2.3a5.18,5.18,0,0,0,.15,1.2,3.54,3.54,0,0,0,.49,1.15,2.82,2.82,0,0,0,.92.86,2.78,2.78,0,0,0,1.41.33,3.58,3.58,0,0,0,1.47-.23,2.29,2.29,0,0,0,.82-.56,5.57,5.57,0,0,0,.53-.72,3,3,0,0,1,.64-.71,3.22,3.22,0,0,1,1.1-.57,6.7,6.7,0,0,1,1.95-.22,7.36,7.36,0,0,1,1.16.09,3.07,3.07,0,0,1,1,.36,2,2,0,0,1,.7.73,2.52,2.52,0,0,1,.26,1.21,3.67,3.67,0,0,1-1,2.6,7.3,7.3,0,0,1-2.47,1.66,13.53,13.53,0,0,1-3.21.88,21.23,21.23,0,0,1-3.25.27,15.53,15.53,0,0,1-3.78-.51,8.9,8.9,0,0,1-3.17-1.53,7.6,7.6,0,0,1-2.19-2.75,9.61,9.61,0,0,1-.81-4.16V346a12,12,0,0,1,.54-3.85,8.3,8.3,0,0,1,1.4-2.63,6.36,6.36,0,0,1,1.94-1.64,10,10,0,0,1,2.17-.88,12,12,0,0,1,2.1-.36c.66,0,1.23-.07,1.71-.07A17.43,17.43,0,0,1,931,337a10.46,10.46,0,0,1,2.86,1.13,6,6,0,0,1,1.82,1.6,7.17,7.17,0,0,1,1,1.88,9.06,9.06,0,0,1,.43,2q.09,1,.09,1.86Zm-12.92-.58h6c0-.75,0-1.41,0-2a3.88,3.88,0,0,0-.36-1.48,2,2,0,0,0-.94-.9,4.13,4.13,0,0,0-1.8-.31,3.2,3.2,0,0,0-1.55.31,2.28,2.28,0,0,0-.85.77,2.45,2.45,0,0,0-.35,1,6.74,6.74,0,0,0-.08.93Z"/><path class="cls-5" d="M957.67,340.18a3.61,3.61,0,0,1-.92,2.73,3.74,3.74,0,0,1-2.63.86l-.68,0a4.41,4.41,0,0,0-.94.2,4.54,4.54,0,0,0-1,.45,3.56,3.56,0,0,0-.94.81,4.07,4.07,0,0,0-.7,1.31,6.12,6.12,0,0,0-.26,1.89v6.84a16.91,16.91,0,0,1-.11,1.91,4.59,4.59,0,0,1-.49,1.67,3,3,0,0,1-1.1,1.18,3.53,3.53,0,0,1-1.94.46,3.35,3.35,0,0,1-1.89-.46,3,3,0,0,1-1.06-1.18,4.79,4.79,0,0,1-.48-1.67,16.91,16.91,0,0,1-.11-1.91V341.9a17.64,17.64,0,0,1,.11-1.95,4.84,4.84,0,0,1,.48-1.68,2.9,2.9,0,0,1,1.06-1.19,3.52,3.52,0,0,1,1.89-.44,2.89,2.89,0,0,1,1.88.54,3.18,3.18,0,0,1,1,1.38,6.23,6.23,0,0,1,.36,1.9c0,.69.05,1.36.05,2h.38a11.56,11.56,0,0,1,.88-2.43,8.77,8.77,0,0,1,1.22-1.84,5.11,5.11,0,0,1,1.44-1.16,3.14,3.14,0,0,1,1.53-.41,4.91,4.91,0,0,1,1.52.2,1.94,1.94,0,0,1,.92.64,2.35,2.35,0,0,1,.46,1.1A9.16,9.16,0,0,1,957.67,340.18Z"/><path class="cls-5" d="M980.59,346.88c0,.25,0,.55-.05.9a2.08,2.08,0,0,1-.37,1,2.68,2.68,0,0,1-1,.8,4.65,4.65,0,0,1-2,.33h-9.52v2.3a5.15,5.15,0,0,0,.14,1.2,3.77,3.77,0,0,0,.49,1.15,2.62,2.62,0,0,0,2.33,1.19,3.67,3.67,0,0,0,1.48-.23,2.24,2.24,0,0,0,.81-.56,4.83,4.83,0,0,0,.54-.72,3.19,3.19,0,0,1,.63-.71,3.22,3.22,0,0,1,1.1-.57,6.7,6.7,0,0,1,1.95-.22,7.27,7.27,0,0,1,1.16.09,2.91,2.91,0,0,1,1,.36,2,2,0,0,1,.7.73,2.52,2.52,0,0,1,.26,1.21,3.67,3.67,0,0,1-1,2.6,7.16,7.16,0,0,1-2.46,1.66,13.49,13.49,0,0,1-3.22.88,21.21,21.21,0,0,1-3.24.27,15.4,15.4,0,0,1-3.78-.51,8.74,8.74,0,0,1-3.17-1.53,7.39,7.39,0,0,1-2.19-2.75,9.61,9.61,0,0,1-.82-4.16V346a12,12,0,0,1,.54-3.85,8.5,8.5,0,0,1,1.4-2.63,6.48,6.48,0,0,1,1.94-1.64,10.06,10.06,0,0,1,2.18-.88,11.9,11.9,0,0,1,2.09-.36c.66,0,1.23-.07,1.71-.07a17.52,17.52,0,0,1,4.13.43,10.72,10.72,0,0,1,2.86,1.13,6.22,6.22,0,0,1,1.82,1.6,7.13,7.13,0,0,1,1,1.88,8.5,8.5,0,0,1,.43,2c.06.66.1,1.28.1,1.86Zm-12.92-.58h6c0-.75,0-1.41-.06-2a3.88,3.88,0,0,0-.36-1.48,2,2,0,0,0-.93-.9,4.21,4.21,0,0,0-1.81-.31,3.16,3.16,0,0,0-1.54.31,2.13,2.13,0,0,0-.85.77,2.62,2.62,0,0,0-.36,1,6.59,6.59,0,0,0-.07.93Z"/><path class="cls-5" d="M1004.85,342c0-.67,0-1.33.07-2a4.94,4.94,0,0,1,.43-1.73,2.92,2.92,0,0,1,1.08-1.23,3.69,3.69,0,0,1,2-.47,4.05,4.05,0,0,1,2,.44,2.93,2.93,0,0,1,1.1,1.08,3.62,3.62,0,0,1,.45,1.33,11.28,11.28,0,0,1,.08,1.17,7.71,7.71,0,0,1,.61-1.41,4.84,4.84,0,0,1,1-1.29,5,5,0,0,1,1.49-1,5.21,5.21,0,0,1,2-.37,8.32,8.32,0,0,1,2.63.43,6.21,6.21,0,0,1,2.37,1.44,7.45,7.45,0,0,1,1.71,2.62,10.51,10.51,0,0,1,.66,4V352a10.68,10.68,0,0,1-.66,4,7.36,7.36,0,0,1-1.71,2.6,6.18,6.18,0,0,1-2.37,1.43,8.32,8.32,0,0,1-2.63.43,5.4,5.4,0,0,1-2-.36,5,5,0,0,1-1.49-.93,5,5,0,0,1-1-1.3,7.07,7.07,0,0,1-.61-1.43v8.18a19.32,19.32,0,0,1-.11,2,5.3,5.3,0,0,1-.47,1.73,3,3,0,0,1-1.12,1.22,3.67,3.67,0,0,1-2,.47,3.5,3.5,0,0,1-1.92-.47,3,3,0,0,1-1.09-1.22,5.3,5.3,0,0,1-.47-1.73,17,17,0,0,1-.11-2Zm12.44,3.68c0-.43,0-.85,0-1.26a3.54,3.54,0,0,0-.26-1.13,1.76,1.76,0,0,0-1.8-1.1,2.55,2.55,0,0,0-1.52.42,2.79,2.79,0,0,0-.92,1.29,8.45,8.45,0,0,0-.46,2.21c-.09.9-.14,1.95-.16,3.16a14.59,14.59,0,0,0,.13,1.74,8.47,8.47,0,0,0,.47,1.83,4,4,0,0,0,.93,1.44,2.1,2.1,0,0,0,1.53.59,1.78,1.78,0,0,0,1.8-1.08,3.29,3.29,0,0,0,.26-1.08c0-.41,0-.82,0-1.24Z"/><path class="cls-5" d="M1048.92,355.11c0,.67,0,1.33-.07,2a5,5,0,0,1-.43,1.74,2.92,2.92,0,0,1-1.08,1.23,3.69,3.69,0,0,1-2,.47,4,4,0,0,1-2.06-.45,3,3,0,0,1-1.1-1.07,3.6,3.6,0,0,1-.44-1.33,9,9,0,0,1-.08-1.17,8.47,8.47,0,0,1-.61,1.41,5,5,0,0,1-4.56,2.61,8.57,8.57,0,0,1-2.63-.43,6.21,6.21,0,0,1-2.37-1.44,7.45,7.45,0,0,1-1.71-2.62,10.55,10.55,0,0,1-.66-4v-6.94a10.64,10.64,0,0,1,.66-4,7.41,7.41,0,0,1,1.71-2.61,6.28,6.28,0,0,1,2.37-1.42,8.28,8.28,0,0,1,2.63-.43,5.31,5.31,0,0,1,2,.36,5,5,0,0,1,1.5.93,5.28,5.28,0,0,1,1,1.29,8.06,8.06,0,0,1,.61,1.44,5.2,5.2,0,0,1,.33-2,3.43,3.43,0,0,1,.86-1.25,3,3,0,0,1,1.19-.65,4.85,4.85,0,0,1,1.3-.18,3.44,3.44,0,0,1,1.91.47,3,3,0,0,1,1.09,1.22,5.06,5.06,0,0,1,.48,1.74,19.42,19.42,0,0,1,.11,2Zm-4.21-26.41a5.51,5.51,0,0,1-1.41,4.16,5.67,5.67,0,0,1-4,1.34,5.73,5.73,0,0,1-4.06-1.34,5.44,5.44,0,0,1-1.44-4.16,5.37,5.37,0,0,1,1.44-4.16,5.81,5.81,0,0,1,4.06-1.3,5.72,5.72,0,0,1,4.12,1.3A5.62,5.62,0,0,1,1044.71,328.7Zm-8.23,22.72c0,.44,0,.86,0,1.27a3.6,3.6,0,0,0,.26,1.13,1.85,1.85,0,0,0,.63.8,2,2,0,0,0,1.16.3,2.53,2.53,0,0,0,1.52-.42,2.72,2.72,0,0,0,.92-1.29,8.52,8.52,0,0,0,.47-2.2c.09-.89.14-1.95.16-3.17a12.76,12.76,0,0,0-.14-1.72,7.92,7.92,0,0,0-.46-1.83,4.32,4.32,0,0,0-.94-1.46,2.07,2.07,0,0,0-1.53-.59,2,2,0,0,0-1.16.3,1.89,1.89,0,0,0-.63.77,3.35,3.35,0,0,0-.26,1.09c0,.41,0,.82,0,1.23Zm5.5-22.72a2.79,2.79,0,0,0-.68-2.09,3.54,3.54,0,0,0-4.06,0,3.36,3.36,0,0,0,0,4.13,3.31,3.31,0,0,0,4,0A2.68,2.68,0,0,0,1042,328.7Z"/><path class="cls-5" d="M234.58,413.73a47.3,47.3,0,0,1-1.35-11.54,47.83,47.83,0,0,1,1.35-11.59,32.75,32.75,0,0,1,3.87-9.47h3.06a35.27,35.27,0,0,0-3.89,9.76,52.06,52.06,0,0,0,0,22.59,35.33,35.33,0,0,0,3.89,9.77h-3.06A34.29,34.29,0,0,1,234.58,413.73Z"/><path class="cls-5" d="M266,392.17a10.83,10.83,0,0,1,4.23,4.26,13.63,13.63,0,0,1,0,12.55,10.82,10.82,0,0,1-4.21,4.25,12.07,12.07,0,0,1-6.05,1.51,11.25,11.25,0,0,1-5.2-1.19,9.85,9.85,0,0,1-3.8-3.49v13.19h-3.2v-32.4h3.06v4.68a9.87,9.87,0,0,1,3.8-3.6,11.2,11.2,0,0,1,5.34-1.26A12.2,12.2,0,0,1,266,392.17Zm-1.76,18.59a8.09,8.09,0,0,0,3.17-3.26,9.9,9.9,0,0,0,1.15-4.82,9.73,9.73,0,0,0-1.15-4.79,8.22,8.22,0,0,0-3.17-3.26,9.28,9.28,0,0,0-9,0,8.24,8.24,0,0,0-3.15,3.26,9.73,9.73,0,0,0-1.15,4.79,9.9,9.9,0,0,0,1.15,4.82,8.11,8.11,0,0,0,3.15,3.26,9.42,9.42,0,0,0,9,0Z"/><path class="cls-5" d="M284.73,391.88a11.44,11.44,0,0,1,5.52-1.21v3.1l-.77,0a7.56,7.56,0,0,0-5.85,2.29,9.15,9.15,0,0,0-2.11,6.44v12.06h-3.2V390.85h3.06v4.63A7.76,7.76,0,0,1,284.73,391.88Z"/><path class="cls-5" d="M296,385a2.2,2.2,0,0,1-.67-1.62,2.16,2.16,0,0,1,.67-1.58,2.43,2.43,0,0,1,3.33,0,2.08,2.08,0,0,1,.68,1.55,2.28,2.28,0,0,1-.68,1.67,2.25,2.25,0,0,1-1.66.67A2.27,2.27,0,0,1,296,385Zm.05,5.85h3.19v23.67H296Z"/><path class="cls-5" d="M328,390.85l-10.53,23.67h-3.28L303.7,390.85H307L315.9,411l9-20.16Z"/><path class="cls-5" d="M347.17,393q2.47,2.32,2.48,6.87v14.67h-3.06v-3.69a7.32,7.32,0,0,1-3.18,2.88,11.08,11.08,0,0,1-5,1,9.74,9.74,0,0,1-6.3-1.89A6.5,6.5,0,0,1,332,403q2.19-1.85,7-1.85h7.51v-1.44a6.08,6.08,0,0,0-1.71-4.66,7.07,7.07,0,0,0-5-1.59,12.58,12.58,0,0,0-4.32.74,10.83,10.83,0,0,0-3.56,2.05l-1.44-2.39a12.68,12.68,0,0,1,4.32-2.36,16.68,16.68,0,0,1,5.31-.83Q344.69,390.67,347.17,393Zm-3.6,18a7.35,7.35,0,0,0,2.88-3.57v-3.87H339q-6.07,0-6.08,4.23a3.88,3.88,0,0,0,1.58,3.26,7.2,7.2,0,0,0,4.41,1.19A8.36,8.36,0,0,0,343.57,411Z"/><path class="cls-5" d="M370.8,413.08a6.1,6.1,0,0,1-2.23,1.23,8.87,8.87,0,0,1-2.77.43,6.94,6.94,0,0,1-5.13-1.8,6.86,6.86,0,0,1-1.8-5.08V393.55h-4.23v-2.7h4.23v-5.18h3.2v5.18h7.2v2.7h-7.2v14.13a4.46,4.46,0,0,0,1.05,3.21,4,4,0,0,0,3,1.11,5.84,5.84,0,0,0,1.91-.32,4.72,4.72,0,0,0,1.6-.9Z"/><path class="cls-5" d="M377.43,413.91a12.1,12.1,0,0,1-4.12-2.09l1.44-2.52a12.38,12.38,0,0,0,3.74,1.91,15,15,0,0,0,4.68.74,9,9,0,0,0,4.79-1,3.23,3.23,0,0,0,1.56-2.86,2.59,2.59,0,0,0-.86-2.05,5.67,5.67,0,0,0-2.16-1.12,29.69,29.69,0,0,0-3.46-.74,38.18,38.18,0,0,1-4.64-1.11,6.73,6.73,0,0,1-3-1.91,5.28,5.28,0,0,1-1.24-3.73,5.83,5.83,0,0,1,2.48-4.86,11.08,11.08,0,0,1,6.88-1.89,18.08,18.08,0,0,1,4.59.6,12.76,12.76,0,0,1,3.78,1.6l-1.4,2.57a11.93,11.93,0,0,0-7-2,8.07,8.07,0,0,0-4.61,1.08,3.3,3.3,0,0,0-1.55,2.84,2.81,2.81,0,0,0,.87,2.16,5.48,5.48,0,0,0,2.18,1.19c.87.25,2.08.52,3.6.79a41,41,0,0,1,4.55,1.08,6.68,6.68,0,0,1,2.93,1.84,5.08,5.08,0,0,1,1.21,3.6,5.73,5.73,0,0,1-2.59,4.93,12.34,12.34,0,0,1-7.18,1.82A18.34,18.34,0,0,1,377.43,413.91Z"/><path class="cls-5" d="M417.75,393.25c1.76,1.73,2.63,4.24,2.63,7.54v13.73h-3.19V401.11a7.86,7.86,0,0,0-1.85-5.63,6.92,6.92,0,0,0-5.26-1.93,8.05,8.05,0,0,0-6.05,2.27,8.56,8.56,0,0,0-2.23,6.28v12.42h-3.2V390.85h3.07v4.36a8.75,8.75,0,0,1,3.62-3.35,11.5,11.5,0,0,1,5.38-1.19A9.68,9.68,0,0,1,417.75,393.25Z"/><path class="cls-5" d="M444.46,393q2.48,2.32,2.47,6.87v14.67h-3.06v-3.69a7.29,7.29,0,0,1-3.17,2.88,11.08,11.08,0,0,1-5,1,9.74,9.74,0,0,1-6.3-1.89,6.5,6.5,0,0,1-.16-9.85c1.46-1.23,3.77-1.85,7-1.85h7.52v-1.44a6.08,6.08,0,0,0-1.71-4.66,7.1,7.1,0,0,0-5-1.59,12.58,12.58,0,0,0-4.32.74,10.78,10.78,0,0,0-3.55,2.05l-1.44-2.39A12.68,12.68,0,0,1,432,391.5a16.68,16.68,0,0,1,5.31-.83Q442,390.67,444.46,393Zm-3.6,18a7.35,7.35,0,0,0,2.88-3.57v-3.87h-7.43q-6.07,0-6.07,4.23a3.87,3.87,0,0,0,1.57,3.26,7.2,7.2,0,0,0,4.41,1.19A8.4,8.4,0,0,0,440.86,411Z"/><path class="cls-5" d="M464.39,402.64l-5.58,5.13v6.75h-3.19V381.13h3.19v22.63l14.13-12.91h4l-10.12,9.67,11.07,14h-3.92Z"/><path class="cls-5" d="M482.78,413.91a11.91,11.91,0,0,1-4.12-2.09l1.44-2.52a12.2,12.2,0,0,0,3.73,1.91,15,15,0,0,0,4.68.74,9,9,0,0,0,4.8-1,3.24,3.24,0,0,0,1.55-2.86A2.59,2.59,0,0,0,494,406a5.67,5.67,0,0,0-2.16-1.12,29.69,29.69,0,0,0-3.46-.74,38.65,38.65,0,0,1-4.64-1.11,6.78,6.78,0,0,1-3-1.91,5.33,5.33,0,0,1-1.24-3.73,5.86,5.86,0,0,1,2.48-4.86,11.1,11.1,0,0,1,6.88-1.89,18.08,18.08,0,0,1,4.59.6,12.76,12.76,0,0,1,3.78,1.6l-1.39,2.57a12,12,0,0,0-7-2,8.09,8.09,0,0,0-4.61,1.08,3.32,3.32,0,0,0-1.55,2.84,2.78,2.78,0,0,0,.88,2.16,5.41,5.41,0,0,0,2.18,1.19,36.51,36.51,0,0,0,3.6.79,41.28,41.28,0,0,1,4.54,1.08,6.68,6.68,0,0,1,2.93,1.84,5.08,5.08,0,0,1,1.21,3.6,5.74,5.74,0,0,1-2.58,4.93,12.36,12.36,0,0,1-7.18,1.82A18.29,18.29,0,0,1,482.78,413.91Z"/><path class="cls-5" d="M515.74,381.13h3.19v33.39h-3.19Z"/><path class="cls-5" d="M527.8,385a2.21,2.21,0,0,1-.68-1.62,2.17,2.17,0,0,1,.68-1.58,2.25,2.25,0,0,1,1.66-.67,2.29,2.29,0,0,1,1.67.65,2.07,2.07,0,0,1,.67,1.55,2.29,2.29,0,0,1-2.34,2.34A2.25,2.25,0,0,1,527.8,385Zm0,5.85H531v23.67h-3.2Z"/><path class="cls-5" d="M559.1,393.25q2.63,2.6,2.63,7.54v13.73h-3.2V401.11a7.86,7.86,0,0,0-1.84-5.63,6.94,6.94,0,0,0-5.27-1.93,8.07,8.07,0,0,0-6,2.27,8.6,8.6,0,0,0-2.23,6.28v12.42H540V390.85H543v4.36a8.87,8.87,0,0,1,3.62-3.35,11.56,11.56,0,0,1,5.38-1.19A9.7,9.7,0,0,1,559.1,393.25Z"/><path class="cls-5" d="M579.19,402.64l-5.58,5.13v6.75h-3.2V381.13h3.2v22.63l14.13-12.91h4l-10.13,9.67,11.07,14h-3.91Z"/><path class="cls-5" d="M617.12,403.67h-19.8a8.45,8.45,0,0,0,2.84,6,9.39,9.39,0,0,0,6.48,2.28,10.3,10.3,0,0,0,4.05-.79,8.9,8.9,0,0,0,3.19-2.32l1.8,2.07a10.15,10.15,0,0,1-3.93,2.88,14.2,14.2,0,0,1-11.66-.56,11.27,11.27,0,0,1-4.39-4.3,12.25,12.25,0,0,1-1.57-6.21,12.63,12.63,0,0,1,1.51-6.21,10.83,10.83,0,0,1,4.14-4.27,12.16,12.16,0,0,1,11.81,0,10.79,10.79,0,0,1,4.09,4.25,12.78,12.78,0,0,1,1.49,6.23ZM600,395.59a8.59,8.59,0,0,0-2.64,5.7h16.79a8.62,8.62,0,0,0-2.63-5.7,8.15,8.15,0,0,0-5.79-2.18A8,8,0,0,0,600,395.59Z"/><path class="cls-5" d="M636.16,413.08a5.94,5.94,0,0,1-2.23,1.23,8.82,8.82,0,0,1-2.77.43,6.94,6.94,0,0,1-5.13-1.8,6.86,6.86,0,0,1-1.8-5.08V393.55H620v-2.7h4.23v-5.18h3.2v5.18h7.2v2.7h-7.2v14.13a4.42,4.42,0,0,0,1.06,3.21,4,4,0,0,0,3,1.11,6,6,0,0,0,1.92-.32,4.77,4.77,0,0,0,1.59-.9Z"/><path class="cls-5" d="M639.31,423.25a36,36,0,0,0,3.91-9.75,51.44,51.44,0,0,0,0-22.63,36,36,0,0,0-3.91-9.74h3.06a33.33,33.33,0,0,1,3.89,9.47,46.85,46.85,0,0,1,1.37,11.59,47.52,47.52,0,0,1-1.35,11.56,32.73,32.73,0,0,1-3.91,9.5Z"/><image width="504" height="392" transform="translate(1262 151) scale(0.87 0.89)" xlink:href="../../../../../Documents/Studies/KEA/KEAs%20projekt/02-animation/02.04.%20Gruppeprojekt/Design/privat%20snak%20logo1.png"/></g></svg>
