<svg xmlns="http://www.w3.org/2000/svg" width="279" height="279" viewBox="0 0 279 279"><defs><style>.cls-1{fill:#a63b32;stroke:#f2eeb3;stroke-miterlimit:10;}.cls-2{fill:#f2eeb3;}</style></defs><title>Spil-igen knap</title><g id="Spilskærm"><g id="spil-igen_knap" data-name="spil-igen knap"><circle id="bg_knap" data-name="bg knap" class="cls-1" cx="139.5" cy="139.5" r="139"/><g id="pil"><path class="cls-2" d="M93.34,232.28A103.28,103.28,0,0,1,37.67,107.56c16-51.14,69.22-81.67,121.44-69.67,57.44,13.2,91.76,72,76.15,128.77l-34.35-9.44c10.33-37.56-12.43-76.44-50.44-84.76a67.51,67.51,0,0,0-44.39,126.43,15.71,15.71,0,0,1,8.34,18.23l-1.66,6A14.11,14.11,0,0,1,93.34,232.28Z"/><path class="cls-2" d="M217.87,195l33.33-42a6.89,6.89,0,0,0-4.3-11.08l-51.74-8.35a6.89,6.89,0,0,0-7.57,9.17L206,193.12A6.88,6.88,0,0,0,217.87,195Z"/></g></g></g></svg>
