<svg xmlns="http://www.w3.org/2000/svg" xmlns:xlink="http://www.w3.org/1999/xlink" width="1920" height="1080" viewBox="0 0 1920 1080"><defs><style>.cls-1{fill:#003c54;}.cls-2{fill:url(#Ikke-navngivet_forløb_13);}.cls-13,.cls-3{fill:#f2eeb3;}.cls-4{fill:#f27457;}.cls-5{fill:#a63b32;}.cls-6{fill:#f29727;}.cls-7{fill:url(#Ikke-navngivet_forløb_26);}.cls-8{fill:#337a8e;}.cls-9{fill:#c5d7d9;stroke:#000;}.cls-10,.cls-11,.cls-12,.cls-13,.cls-9{stroke-miterlimit:10;}.cls-10,.cls-11,.cls-12,.cls-13{stroke:#636363;}.cls-10{stroke-width:7px;}.cls-11{stroke-width:4px;}.cls-12{stroke-width:3px;}.cls-14{fill:url(#Ikke-navngivet_forløb_13-2);}.cls-15{fill:#123747;}.cls-16{fill:#89d9d9;}</style><linearGradient id="Ikke-navngivet_forløb_13" x1="1623.08" y1="1065.95" x2="2020.75" y2="671.24" gradientTransform="matrix(1.22, -0.47, 0.65, 0.88, -1271.39, 497.61)" gradientUnits="userSpaceOnUse"><stop offset="0" stop-color="#fff"/><stop offset="0.01" stop-color="#f8fafa"/><stop offset="0.1" stop-color="#c5d7d7"/><stop offset="0.18" stop-color="#98b8b8"/><stop offset="0.27" stop-color="#749f9f"/><stop offset="0.35" stop-color="#588c8c"/><stop offset="0.44" stop-color="#447e7e"/><stop offset="0.53" stop-color="#387676"/><stop offset="0.61" stop-color="#347373"/></linearGradient><linearGradient id="Ikke-navngivet_forløb_26" x1="237.41" y1="1247.32" x2="1054.59" y2="436.22" gradientTransform="matrix(1.5, -0.19, 0.58, 1.01, -1124.43, 317.39)" gradientUnits="userSpaceOnUse"><stop offset="0" stop-color="#fff"/><stop offset="0.09" stop-color="#d6e3e3"/><stop offset="0.19" stop-color="#abc5c5"/><stop offset="0.3" stop-color="#87acac"/><stop offset="0.42" stop-color="#699797"/><stop offset="0.54" stop-color="#518787"/><stop offset="0.67" stop-color="#417c7c"/><stop offset="0.81" stop-color="#377575"/><stop offset="1" stop-color="#347373"/></linearGradient><linearGradient id="Ikke-navngivet_forløb_13-2" x1="1705.09" y1="1534.19" x2="2023.69" y2="1217.97" xlink:href="#Ikke-navngivet_forløb_13"/></defs><title>Spilskærm</title><g id="Spilskærm"><g id="bg_copy" data-name="bg copy"><rect class="cls-1" width="1920" height="1080"/></g><path class="cls-2" d="M1494.2,340c327,0,592.05,54.34,592.05,121.37S1821,521.83,1494,521.83,902,528,902,461,1167.21,340,1494.2,340Z"/><g id="planet_and_stars_copy_2" data-name="planet and stars copy 2"><polygon id="star2-2" class="cls-3" points="1510 201.28 1466.98 197.46 1439.18 228 1429.83 189.06 1389.77 174.09 1427.02 153.84 1430.06 114.05 1462.42 140.48 1504.36 130.86 1487.12 167.44 1510 201.28"/><polygon id="star1-2" class="cls-3" points="250 480.83 196.57 482.62 167.97 521.89 149.5 478.28 97.7 466.77 139.72 438.03 136.29 391.67 180.73 417.51 230.43 400.36 215.87 445.07 250 480.83"/><g id="planet_copy_2" data-name="planet copy 2"><path class="cls-4" d="M453.8,152c1.37,50.22-42.19,91-94.21,91s-94.22-40.74-94.22-91,42.21-89.65,94.22-91C410.34,59.72,452.4,100.34,453.8,152Z"/><path class="cls-5" d="M343.24,176.62S368.71,121.22,329,65.89c2.74,0,22-9.37,54.74-1.85C383.72,64,397.82,128.27,343.24,176.62Z"/><path class="cls-5" d="M407.32,138.89S389.56,209,326.11,237c7.78,3,14,6,29.58,6C361.92,243,428.67,207.37,407.32,138.89Z"/><path class="cls-5" d="M319.19,150c-3.8,21.89-18.76,40.46-39.8,49.39a89.48,89.48,0,0,0,9.34,12C292.28,211.42,331.35,189,319.19,150Z"/><path class="cls-6" d="M538.67,76.36c5.67,12.93-62.12,65.44-162.73,106.48S180,237.9,174.29,225c-4-9.19,33.61-33.88,91.75-62.12-.67.46,4,15.5,4,15.5,14,1.51,18.68,3,98.1-24.06,19.75-8,74.75-34.59,74.75-43.61,0,0-9.34-15-9.84-15.6C492.25,75.57,534.78,67.41,538.67,76.36Z"/><path class="cls-5" d="M501.26,90.52c3.29,6.32-54.5,41.61-29.86,29.67S513.26,93.45,510,87.11s-25.88-1.73-50.47,10.21S498,84.22,501.26,90.52Z"/><path class="cls-5" d="M213.52,207.1c-2.52-6.63,59-35.26,33.21-26.13S202,202.86,204.47,209.54s25.49,4.6,51.39-4.51S216,213.73,213.52,207.1Z"/></g></g><path class="cls-7" d="M681.46,1425.57C741.76,1104.31,557.07,800,268.93,745.94s-570.6,162.5-630.9,483.77Z"/><path class="cls-8" d="M798.9,837c-35.1,105.68-156.38,357.13-259.8,322.78S389.26,818.25,424.36,712.57s147.39-163.5,250.82-129.15S834,731.29,798.9,837Z"/><g id="mobiltelefone"><rect x="670" width="579" height="1182" rx="47.54"/><rect class="cls-9" x="708.5" y="114.5" width="503" height="866" rx="22.38"/><circle class="cls-10" cx="958.5" cy="1081.5" r="62"/><rect class="cls-11" x="877" y="56" width="165" height="20" rx="10"/><circle class="cls-12" cx="959" cy="27" r="11"/><circle class="cls-12" cx="846.5" cy="65.5" r="8"/><path class="cls-13" d="M712.18,831.5h495.63a3.68,3.68,0,0,1,3.68,3.68V957.11a23.39,23.39,0,0,1-23.39,23.39H731.89a23.39,23.39,0,0,1-23.39-23.39V835.18A3.68,3.68,0,0,1,712.18,831.5Z"/></g><path class="cls-14" d="M1875.54,765C2095.05,765,2273,819.3,2273,886.33s-178.08,60.5-397.59,60.5S1478,953,1478,886,1656,765,1875.54,765Z"/><path class="cls-8" d="M549,901c-34.18-10.45-113.35-129.27-75.67-252.46S660.4,358.56,694.58,369,672.73,515.61,670,635"/><path class="cls-15" d="M472,770c-18.29-45,100.52-296.43,80-272-21,25-119.08,180.45-115,280S537.06,948.33,569.45,947C569.45,947,496,829,472,770Z"/><path class="cls-8" d="M1572,573.58c119,128.46,365.79,472.52,320,514s-200.73,104.21-314.31-25.24-340.11-606.54-294.28-648S1455,447.26,1572,573.58Z"/><path class="cls-8" d="M1443.76,764.73c103.16,33.33,289.41,106,277,145.71s-58.94,124.62-162.1,91.3S1222.05,816,1234.48,776.27,1340.6,731.41,1443.76,764.73Z"/><path class="cls-15" d="M1608,673.44c-23.38-59.21-228.39-249.17-215-248.44,37,2,169.28,124.2,255,235,82,106,163.14,226.17,166,252C1814,912,1638.63,751.13,1608,673.44Z"/><path class="cls-15" d="M1429.43,928.42c96.1,52.34,111.68,55.86,108.57,61.58s-83.42-24-173.44-86.14c-90.58-62.49-115.29-91.94-112.18-97.65S1333.33,876.08,1429.43,928.42Z"/><path class="cls-15" d="M1571,838.91c96,52.27,81.74,77.21,84,73.09s-41.64-67.23-141-111.9c-100-44.94-136.19-53.14-138.44-49S1475,786.65,1571,838.91Z"/><g id="planet_copy_2-2" data-name="planet copy 2"><path class="cls-16" d="M1848,124c-41,.6-73.84-30.25-73.41-66.76s34-65.81,75-65.46S1922.33,22,1923,58.53C1923.64,94.15,1890.17,123.38,1848,124Z"/><path class="cls-5" d="M1828.87,46.23s45,18.28,90.41-9.21c0,1.92,7.46,15.52,1.06,38.42C1920.34,75.45,1867.85,84.88,1828.87,46.23Z"/><path class="cls-5" d="M1852.51,97.69s-53.29-21.8-65.59-69.29c-3.64,5-7,8.82-9.5,19.54C1776.43,52.23,1794.34,103,1852.51,97.69Z"/></g></g></svg>
