<svg id="Startskærm" xmlns="http://www.w3.org/2000/svg" width="1920" height="1080" viewBox="0 0 1920 1080"><defs><style>.cls-1{fill:#fbb03b;}.cls-2{fill:#f15a24;}.cls-3{fill:#c1272d;}.cls-4{fill:#ed1e79;}.cls-5{fill:#f0f;}.cls-6{fill:#003c54;}.cls-7{fill:#f2eeb3;}.cls-8{fill:#f27457;}.cls-9{fill:#a63b32;}.cls-10{fill:#f29727;}.cls-11{fill:#337a8e;}.cls-12{fill:#123747;}.cls-13{fill:#082326;}.cls-14,.cls-15{fill:#fff;}.cls-14{stroke:#000;stroke-miterlimit:10;}</style></defs><title>Tegnebræt 1</title><g id="night_in_the_woods_colors" data-name="night in the woods colors"><g id="planet_and_stars_copy" data-name="planet and stars copy"><polygon id="star2" class="cls-1" points="355.35 812.39 299.64 807.03 263.64 849.88 251.53 795.25 199.65 774.25 247.88 745.84 251.82 690.01 293.73 727.1 348.04 713.6 325.72 764.91 355.35 812.39"/><polygon id="star1" class="cls-1" points="1671.33 324.07 1616.73 326.18 1587.51 372.35 1568.64 321.06 1515.7 307.54 1558.64 273.75 1555.14 219.22 1600.55 249.62 1651.33 229.44 1636.45 282.01 1671.33 324.07"/><g id="planet_copy" data-name="planet copy"><path class="cls-2" d="M348.2,299c.88,33.4-27.09,60.5-60.5,60.5A60.5,60.5,0,0,1,227.2,299c0-33.41,27.1-59.61,60.5-60.5C320.29,237.65,347.3,264.66,348.2,299Z"/><path class="cls-3" d="M277.2,315.38s16.36-36.84-9.16-73.63c1.76,0,14.15-6.23,35.15-1.23C303.2,240.52,312.25,283.23,277.2,315.38Z"/><path class="cls-3" d="M318.35,290.29S307,336.93,266.2,355.52c5,2,9,4,19,4C289.2,359.52,332.06,335.83,318.35,290.29Z"/><path class="cls-3" d="M261.76,297.68a43.76,43.76,0,0,1-25.56,32.84,58.59,58.59,0,0,0,6,8C244.48,338.52,269.57,323.63,261.76,297.68Z"/><path class="cls-4" d="M402.7,248.71c3.64,8.6-39.89,43.52-104.5,70.81s-125.85,36.61-129.49,28c-2.57-6.11,21.58-22.53,58.92-41.31-.43.31,2.57,10.31,2.57,10.31,9,1,12,2,63-16,12.68-5.35,48-23,48-29,0,0-6-10-6.32-10.37C372.89,248.19,400.2,242.76,402.7,248.71Z"/><path class="cls-5" d="M378.68,258.13c2.11,4.2-35,27.67-19.18,19.73s26.88-17.78,24.77-22-16.62-1.15-32.41,6.79S376.57,253.94,378.68,258.13Z"/><path class="cls-5" d="M193.9,335.65c-1.62-4.41,37.92-23.45,21.33-17.38s-28.75,14.56-27.14,19,16.37,3.06,33-3S195.51,340.06,193.9,335.65Z"/></g></g><g id="bg_copy" data-name="bg copy"><rect class="cls-6" width="1920" height="1080"/></g><g id="Layer_2_copy" data-name="Layer 2 copy"><g id="planet_and_stars_copy_2" data-name="planet and stars copy 2"><polygon id="star2-2" class="cls-7" points="355.35 812.39 299.64 807.03 263.64 849.88 251.53 795.25 199.65 774.25 247.88 745.84 251.82 690.01 293.73 727.1 348.04 713.6 325.72 764.91 355.35 812.39"/><polygon id="star1-2" class="cls-7" points="1671.33 324.07 1616.73 326.18 1587.51 372.35 1568.64 321.06 1515.7 307.54 1558.64 273.75 1555.14 219.22 1600.55 249.62 1651.33 229.44 1636.45 282.01 1671.33 324.07"/><g id="planet_copy_2" data-name="planet copy 2"><path class="cls-8" d="M348.2,299c.88,33.4-27.09,60.5-60.5,60.5A60.5,60.5,0,0,1,227.2,299c0-33.41,27.1-59.61,60.5-60.5C320.29,237.65,347.3,264.66,348.2,299Z"/><path class="cls-9" d="M277.2,315.38s16.36-36.84-9.16-73.63c1.76,0,14.15-6.23,35.15-1.23C303.2,240.52,312.25,283.23,277.2,315.38Z"/><path class="cls-9" d="M318.35,290.29S307,336.93,266.2,355.52c5,2,9,4,19,4C289.2,359.52,332.06,335.83,318.35,290.29Z"/><path class="cls-9" d="M261.76,297.68a43.76,43.76,0,0,1-25.56,32.84,58.59,58.59,0,0,0,6,8C244.48,338.52,269.57,323.63,261.76,297.68Z"/><path class="cls-10" d="M402.7,248.71c3.64,8.6-39.89,43.52-104.5,70.81s-125.85,36.61-129.49,28c-2.57-6.11,21.58-22.53,58.92-41.31-.43.31,2.57,10.31,2.57,10.31,9,1,12,2,63-16,12.68-5.35,48-23,48-29,0,0-6-10-6.32-10.37C372.89,248.19,400.2,242.76,402.7,248.71Z"/><path class="cls-9" d="M378.68,258.13c2.11,4.2-35,27.67-19.18,19.73s26.88-17.78,24.77-22-16.62-1.15-32.41,6.79S376.57,253.94,378.68,258.13Z"/><path class="cls-9" d="M193.9,335.65c-1.62-4.41,37.92-23.45,21.33-17.38s-28.75,14.56-27.14,19,16.37,3.06,33-3S195.51,340.06,193.9,335.65Z"/></g></g><path id="alien" class="cls-11" d="M1357.2,499.52c-5.84,8.18,24.26,56.63,47.19,40,24.81-18,91.81,0,15.81,42-40.8,22.55-63,13-84,1-3,1.49-22,28-22,28,31-25,105,4-2,47-27,13-83-28-83-28s-88,100,14,125c8.27,2,31-23,27-49,0,0,24,30,48-20,0,0,29,30,62.24,9.15-.24-.15-6.24,36.85,52.76,49.85,0,0-50,12-39,47-55-27-75,24-75,24-26-43-84.27-34.35-92.1-35.37-21-2.76-45.69-9.52-71.9-22.63-68.22-34.11,47-156-12.78-202.42-23.58-18.31-28.86-51.17-33.22-83.08-11-80.5,62.49-89.11,49-106.5-83-107-55-157-55-157,7,14,34,30,34,30-3-36,31-74,51-95l23,47c28-47,120-16,166-23-27,37-7,57-33,84,16,4,53,12,82,55,0,0-43,18-64,31,0,0,34,33,35,35,0,0-31,23-62,28C1335.2,400.52,1392.2,450.52,1357.2,499.52Z"/><g id="shade_copy" data-name="shade copy"><path class="cls-12" d="M1168.2,374.52s63,49,112,8c1,1,78.74,13,117-10,.52,0-45,44-103,29,1,0,10,46-20,75C1277.2,479.52,1226.2,416.52,1168.2,374.52Z"/><path class="cls-12" d="M1312.2,414.52s13,5,13,14c1,1-11,9-4,23,2,1-21,41,32,40,1,1-58,22-41-34,0-1-8-23,9-32C1324.2,424.52,1315.2,415.52,1312.2,414.52Z"/><path class="cls-12" d="M1181.2,450.52s-31,31-13,43c2,1,39-33,63-10-1,0,11,3-21,24,0,0,7,9,26,5,7-3,46,16-18,49,2,0-34.15,15.7-65,2,33.15,9.3,133-35,80-44-15,0-46-5-28-15,1,0,38-23,9-25,0,0-26,2-46,20C1168.2,499.52,1136.2,484.52,1181.2,450.52Z"/><path class="cls-12" d="M1314.2,610.52l22-28s35.85,26.8,75.42,3.4c.16-.8,51.29-17.87,42.94-42.64.28.48-52.36,75.24-109.36,16.24,0,1,12-25,13-36-1,0-45,69-64,68C1296.2,593.52,1301.2,610.52,1314.2,610.52Z"/><path class="cls-12" d="M1231.2,630.52s-55.41,55.78-29,99c7,11,29,23,42,25-12,6-56,1-65-51-1-7-3-24,12-47,11-17,15-37-14-70C1178.2,587.52,1231.2,630.52,1231.2,630.52Z"/><path class="cls-12" d="M1265.2,760.52s23-19,14-37c0,0,12,17,6,27,0-1,32-11,31-40,0,0,11,9,3,25,1,0,31,2,50-25,1,0-6,22-30,27,1,0,49-11,69,7,1,0-29-11-63-2,1,0,40,10,41,34,1,2-29-48-92-22,1,1,30,3,24,39C1319.2,794.52,1311.2,746.52,1265.2,760.52Z"/><path class="cls-12" d="M1177.2,348.52s4,19,43,14C1221.2,362.52,1184.2,382.52,1177.2,348.52Z"/><path class="cls-12" d="M1137.2,238.52s-11-35,51-95c0,0-48,73-44,100Z"/><path class="cls-12" d="M1344.2,253.52s-20,0-24,12c1,0-19-35,17-68,20-15,27-10,40-30,0,0-14,21-15,36C1363.2,204.52,1363.2,231.52,1344.2,253.52Z"/><path class="cls-12" d="M1334,334.67a41.5,41.5,0,0,1,28.83,3.68,456.78,456.78,0,0,1,63.33-31.83s-65.86,7.53-92.63,27.14a.57.57,0,0,0-.11.8A.57.57,0,0,0,1334,334.67Z"/></g><g id="eyes_copy" data-name="eyes copy"><ellipse class="cls-7" cx="1173.19" cy="292.97" rx="9" ry="20.5" transform="translate(-1.33 580.56) rotate(-27.78)"/><ellipse class="cls-7" cx="1242.19" cy="321.1" rx="20.5" ry="9" transform="translate(-30.25 156.67) rotate(-7.13)"/><ellipse class="cls-7" cx="1261.74" cy="280.86" rx="15.79" ry="6.93" transform="translate(-30.83 291.93) rotate(-13.04)"/><ellipse class="cls-7" cx="1204.7" cy="253.12" rx="6.9" ry="15.71" transform="translate(-22.1 151.49) rotate(-7.13)"/></g></g><rect class="cls-10" x="497" y="556" width="601" height="248"/><rect class="cls-13" x="686.81" y="80.46" width="259.4" height="623" transform="translate(117.51 967.9) rotate(-65.13)"/><path class="cls-14" d="M614.82,248a15.36,15.36,0,0,0-1.16,8.75,32.57,32.57,0,0,0,3.05,9.22,83.54,83.54,0,0,0,5.75,9.86q3.43,5.08,6.95,10.58T636,297.9a57.71,57.71,0,0,1,4.61,12.46,45.49,45.49,0,0,1,1.15,13.57A44.24,44.24,0,0,1,638,338.68l-.37.81A53.33,53.33,0,0,1,629,353.08a41,41,0,0,1-10.07,8.27A32.52,32.52,0,0,1,608,365.24a45.15,45.15,0,0,1-11.11.46,52.61,52.61,0,0,1-10.64-2,82.32,82.32,0,0,1-9.45-3.38l-1-.45a60,60,0,0,1-13.67-8.41,42.3,42.3,0,0,1-8.55-9.55,33.29,33.29,0,0,1-4.36-10.07,38.78,38.78,0,0,1-1.13-9.93,43,43,0,0,1,3.79-16.88,16.87,16.87,0,0,1,4-5.64,13.06,13.06,0,0,1,10.56-3.36,18.13,18.13,0,0,1,5.57,1.59,19.85,19.85,0,0,1,4.82,3.21,16.65,16.65,0,0,1,3.71,4.73,14.33,14.33,0,0,1,.35,12.64q-3.33,7.69-1.5,11.91t7.64,6.92a26.63,26.63,0,0,0,5.74,1.73,10.54,10.54,0,0,0,5.31-.38,12.78,12.78,0,0,0,4.82-3.18,22.9,22.9,0,0,0,4.28-6.58,21.89,21.89,0,0,0,2.12-10.58,36.66,36.66,0,0,0-2.32-10.66,70.19,70.19,0,0,0-5.24-10.85q-3.24-5.49-6.67-11.07t-6.48-11.36a67,67,0,0,1-4.87-11.78,39.69,39.69,0,0,1-1.71-12.23,33.1,33.1,0,0,1,3-12.86l.75-1.62Q591,224.85,597,218.89a28.9,28.9,0,0,1,13.15-7.82,34.08,34.08,0,0,1,15.56-.13,84.05,84.05,0,0,1,18.2,6.26l2.52,1.16a54.13,54.13,0,0,1,14.22,9,38.55,38.55,0,0,1,8,9.94,28.2,28.2,0,0,1,3.23,10.1,39.12,39.12,0,0,1-.06,9.45,39.87,39.87,0,0,1-1.87,7.87q-1.26,3.48-2.19,5.5a14.68,14.68,0,0,1-3.67,5,13.94,13.94,0,0,1-5,2.82,15.15,15.15,0,0,1-5.7.62,17.27,17.27,0,0,1-6-1.62,13.34,13.34,0,0,1-4.22-3.11,18.21,18.21,0,0,1-3-4.42,14.6,14.6,0,0,1-1.39-4.88,8.66,8.66,0,0,1,.68-4.55q3.84-8.31,2.48-12.87t-6.9-7.13a46.08,46.08,0,0,0-5.24-2.05,10.29,10.29,0,0,0-5.14-.35,10.07,10.07,0,0,0-5,2.82A24.87,24.87,0,0,0,614.82,248Z"/><path class="cls-14" d="M662.35,322.14a49.8,49.8,0,0,1,9.74-14.69,37.82,37.82,0,0,1,11.27-7.95A32.29,32.29,0,0,1,695,296.66a51.23,51.23,0,0,1,11,.63,52.53,52.53,0,0,1,9.2,2.41c2.72,1,4.82,1.85,6.31,2.54s3.48,1.73,6,3.13a49,49,0,0,1,7.6,5.36,47.19,47.19,0,0,1,7.25,7.77,30.74,30.74,0,0,1,5,10.56,38.82,38.82,0,0,1,1,13.61,51.78,51.78,0,0,1-5,16.89l-11.62,25.13a51.82,51.82,0,0,1-9.63,14.74,39,39,0,0,1-11,8.08,30.79,30.79,0,0,1-11.3,3,47.26,47.26,0,0,1-10.62-.48,48.38,48.38,0,0,1-9-2.32c-2.69-1-4.77-1.83-6.26-2.52s-3.5-1.74-6-3.15a52.9,52.9,0,0,1-7.79-5.45,51,51,0,0,1-7.59-7.93A32.42,32.42,0,0,1,647.11,378a38.18,38.18,0,0,1-1.25-13.74,50,50,0,0,1,4.88-16.93Zm15,46.05a12.27,12.27,0,0,0-1,5.8,11.22,11.22,0,0,0,1.69,5.14c1,1.75,3,3.29,5.83,4.6s5,1.7,7,1.32a11.53,11.53,0,0,0,4.91-2.09,14.19,14.19,0,0,0,3.75-4.54l17-36.69a17.31,17.31,0,0,0,1.22-6.21,13.77,13.77,0,0,0-1.5-5.3c-.91-1.85-2.73-3.41-5.44-4.67s-5.31-1.73-7.38-1.25a13.17,13.17,0,0,0-5.1,2.25,14.53,14.53,0,0,0-3.94,4.95Z"/><path class="cls-14" d="M775.57,408.64a41.59,41.59,0,0,0-1.61,4.24,18.18,18.18,0,0,0-.88,5.49,12.12,12.12,0,0,0,1.26,5.56,9.53,9.53,0,0,0,4.88,4.35,19.56,19.56,0,0,0,7.17,2.08,8.41,8.41,0,0,0,4.88-1.12,10.67,10.67,0,0,0,3.38-3.49,45.5,45.5,0,0,0,2.6-4.88,13.59,13.59,0,0,1,1.82-2.79,7.12,7.12,0,0,1,3.54-2.17,14,14,0,0,1,6-.17,36,36,0,0,1,9.33,3.14,22.84,22.84,0,0,1,7.4,4.9,11.33,11.33,0,0,1,2.79,4.79,7.5,7.5,0,0,1-.08,4.14,29.25,29.25,0,0,1-1.1,2.88,34.75,34.75,0,0,1-7.16,10.53,30.67,30.67,0,0,1-9,6.16,33.3,33.3,0,0,1-10.17,2.62,45.36,45.36,0,0,1-10.66-.26,63.4,63.4,0,0,1-10.5-2.39,81,81,0,0,1-9.6-3.7,57.32,57.32,0,0,1-13.88-9A40,40,0,0,1,746.3,427a36.56,36.56,0,0,1-3.57-15.85q-.11-8.73,4.54-18.75l11-23.72A58.06,58.06,0,0,1,768,353.34a39.87,39.87,0,0,1,10.83-8.53,30,30,0,0,1,11.07-3.31,42.29,42.29,0,0,1,10.55.39,49.59,49.59,0,0,1,9.2,2.4q4.17,1.56,7.08,2.91a73.37,73.37,0,0,1,14.4,8.49,49,49,0,0,1,9.24,9.19,32.83,32.83,0,0,1,5,9.4,30.62,30.62,0,0,1,1.6,9.16,34.42,34.42,0,0,1-.89,8.44,38.89,38.89,0,0,1-2.41,7.13c-.5,1.08-1.15,2.32-1.95,3.71a9.79,9.79,0,0,1-3.43,3.46,11.4,11.4,0,0,1-5.69,1.49q-3.48.12-8.62-2.26c-1.23-.57-2.75-1.33-4.54-2.28a21.48,21.48,0,0,1-4.9-3.56,12.28,12.28,0,0,1-3.16-4.9,8.31,8.31,0,0,1,.69-6.32,48.1,48.1,0,0,0,1.93-4.83,9.48,9.48,0,0,0,.44-4.65,9,9,0,0,0-2.25-4.43,18.46,18.46,0,0,0-6.16-4.13,12.4,12.4,0,0,0-6.25-1.41,9.32,9.32,0,0,0-4.56,1.58,11.72,11.72,0,0,0-3.14,3.22,27.72,27.72,0,0,0-2,3.52Z"/><path class="cls-14" d="M870.09,399.42a85.09,85.09,0,0,1,4.27-8.11A24.34,24.34,0,0,1,879.7,385a14.36,14.36,0,0,1,6.86-3.1q3.83-.63,8.78,1.65t6.95,5.62a14.32,14.32,0,0,1,2.08,7.23,23.91,23.91,0,0,1-1.36,8.16,86.34,86.34,0,0,1-3.4,8.52L873.76,469a86.41,86.41,0,0,1-4.3,8.16,24.12,24.12,0,0,1-5.36,6.37,14,14,0,0,1-6.83,3.06q-3.81.58-8.76-1.71a15.53,15.53,0,0,1-7-5.56,14,14,0,0,1-2.1-7.18,24.2,24.2,0,0,1,1.38-8.22,89.34,89.34,0,0,1,3.43-8.56Zm51.81-34.11q-3.6,7.8-9.24,9.81T900,373.89c-4.66-2.15-7.71-5.09-9.12-8.82s-.93-8.2,1.47-13.4q3.75-8.12,9.32-10t12.56,1.37q7.49,3.45,9.43,8.79T921.9,365.31Z"/><path class="cls-14" d="M978.73,517.25q-2,4.26-4.16,8.23a23.64,23.64,0,0,1-5.14,6.54,13.43,13.43,0,0,1-6.78,3.2q-3.82.63-9.07-1.79t-7.49-5.73a13.68,13.68,0,0,1-2.36-6.62,17.06,17.06,0,0,1,.81-6.46,48.19,48.19,0,0,1,2-5.12,36.07,36.07,0,0,1-5.24,4.83,23.56,23.56,0,0,1-6.65,3.57,23.16,23.16,0,0,1-7.92,1.2,22.43,22.43,0,0,1-9-2.27,36.16,36.16,0,0,1-9.84-6.76,27.39,27.39,0,0,1-6.8-10.52,34.74,34.74,0,0,1-1.82-14.3q.49-8.08,5.13-18.11l13.58-29.4q4.68-10.12,10.51-15.74a34.26,34.26,0,0,1,12.05-7.84,27.72,27.72,0,0,1,12.4-1.59,36.09,36.09,0,0,1,11.52,3.11A22.89,22.89,0,0,1,972,421a21.76,21.76,0,0,1,4.24,6.75,23.42,23.42,0,0,1,1.6,7.38,35,35,0,0,1-.33,7.23,24.71,24.71,0,0,1,5.25-7.79,16,16,0,0,1,6-3.7,12.87,12.87,0,0,1,6.07-.52,21.12,21.12,0,0,1,5.64,1.69,15,15,0,0,1,6.86,5.56,14,14,0,0,1,2,7.21,25,25,0,0,1-1.48,8.3,88.65,88.65,0,0,1-3.52,8.77Zm-43.29-38.93q-1.26,2.73-2.28,5.46A17.07,17.07,0,0,0,932,489a8.59,8.59,0,0,0,1,4.58,8.43,8.43,0,0,0,4.12,3.44,11.06,11.06,0,0,0,7,1.08,12.71,12.71,0,0,0,6.26-3.75,41.21,41.21,0,0,0,6.21-8.45q3.12-5.37,6.83-13.14a62.28,62.28,0,0,0,2.82-7.49,38.7,38.7,0,0,0,1.68-8.63,19.5,19.5,0,0,0-.93-7.93,9.09,9.09,0,0,0-5-5.41,8.51,8.51,0,0,0-5.3-.9,8.77,8.77,0,0,0-4.09,2.1,15.81,15.81,0,0,0-3.2,4.12c-.93,1.66-1.79,3.37-2.61,5.13Z"/><path class="cls-14" d="M1047.39,431.89a85.09,85.09,0,0,1,4.27-8.11,23.36,23.36,0,0,1,5.32-6.28,14.09,14.09,0,0,1,6.81-3q3.8-.58,8.75,1.71t7.08,5.6a13.66,13.66,0,0,1,2.07,7.11,24,24,0,0,1-1.38,8.09,86.34,86.34,0,0,1-3.4,8.52l-44.68,96.69a85.2,85.2,0,0,1-4.3,8.16,24.69,24.69,0,0,1-5.31,6.4,13.57,13.57,0,0,1-6.78,3.08c-2.54.39-5.49-.2-8.85-1.75s-5.63-3.38-7-5.56a13.92,13.92,0,0,1-2.1-7.19,23.7,23.7,0,0,1,1.38-8.21,86.87,86.87,0,0,1,3.42-8.57Z"/><path class="cls-15" d="M677.52,688.47q.21,7.14.52,14.59t.32,14.39v3.15q0,4-.26,7.71a19.4,19.4,0,0,1-1.63,6.72,10.69,10.69,0,0,1-4.31,4.78q-2.94,1.79-8.29,1.78t-8.4-1.78a11.06,11.06,0,0,1-4.35-4.73,18.06,18.06,0,0,1-1.68-6.71q-.27-3.78-.27-7.77V705.9h-42v14.7q0,4-.26,7.77a18.45,18.45,0,0,1-1.68,6.71,11.14,11.14,0,0,1-4.36,4.73q-2.94,1.79-8.4,1.78t-8.39-1.78a10.69,10.69,0,0,1-4.31-4.78,18.52,18.52,0,0,1-1.57-6.72q-.21-3.72-.21-7.71v-3.15c0-2.17,0-4.48,0-6.93s.09-4.94.16-7.46.14-5,.21-7.5.14-4.85.21-7.09q5.25-18.27,11-37t11-37.11a64.87,64.87,0,0,1,2.52-7.51,21.36,21.36,0,0,1,3.89-6.3,17.49,17.49,0,0,1,6.19-4.3,24.51,24.51,0,0,1,9.66-1.63h10.5a24.56,24.56,0,0,1,9.6,1.63,17.39,17.39,0,0,1,6.25,4.3,20.42,20.42,0,0,1,3.83,6.3c.95,2.41,1.8,4.92,2.57,7.51Zm-65.93-10.29H645l-15.53-56.26h-2.31Z"/><path class="cls-15" d="M799,744.74a43.47,43.47,0,0,1-2.57,16,34.07,34.07,0,0,1-6.56,10.81,30.58,30.58,0,0,1-8.87,6.72,49.21,49.21,0,0,1-9.55,3.62,46.44,46.44,0,0,1-8.56,1.47c-2.59.18-4.55.26-5.88.26a108.31,108.31,0,0,1-14.91-1,48.61,48.61,0,0,1-13.59-3.89A28.76,28.76,0,0,1,718.37,771a21,21,0,0,1-4.57-12.39,11.22,11.22,0,0,1,.42-2.84,6.61,6.61,0,0,1,1.89-3,11.76,11.76,0,0,1,4.41-2.41,25.48,25.48,0,0,1,8-1,33.37,33.37,0,0,1,9.34,1,12.89,12.89,0,0,1,4.83,2.41,6.69,6.69,0,0,1,2.05,3.05c.31,1.08.64,2.08,1,3a5.24,5.24,0,0,0,3.31,3.1,20.67,20.67,0,0,0,6.77.89,9.63,9.63,0,0,0,6.14-1.79,11.73,11.73,0,0,0,3.42-4.25,16.77,16.77,0,0,0,1.46-5,36.29,36.29,0,0,0,.32-4.25V724a31.78,31.78,0,0,1-2.68,6.29,22.21,22.21,0,0,1-4.46,5.67,21.81,21.81,0,0,1-6.56,4.1,23.54,23.54,0,0,1-9,1.57,36.84,36.84,0,0,1-11.54-1.89,28,28,0,0,1-10.45-6.24,32.31,32.31,0,0,1-7.61-11.5q-2.94-7.14-2.94-17.74V673.78q0-10.39,2.94-17.48a32.85,32.85,0,0,1,7.61-11.5,27.59,27.59,0,0,1,10.45-6.3,36.84,36.84,0,0,1,11.54-1.89A22.1,22.1,0,0,1,760,642.39a22.34,22.34,0,0,1,4.46,5.66,33.21,33.21,0,0,1,2.68,6.2,43,43,0,0,1,.37-5.14,15.4,15.4,0,0,1,1.94-5.83,13.07,13.07,0,0,1,4.83-4.73q3.26-1.93,9-1.94t8.82,2a12.87,12.87,0,0,1,4.72,5.41,21.5,21.5,0,0,1,1.89,7.61q.32,4.25.31,8.66Zm-54.59-42.83q0,2.73.21,5.46a14.88,14.88,0,0,0,1.16,4.88,8.19,8.19,0,0,0,2.78,3.46,8.58,8.58,0,0,0,5.09,1.32,9.1,9.1,0,0,0,6.72-2.63,18.38,18.38,0,0,0,4.1-6.45,36.34,36.34,0,0,0,2-8.09,56.29,56.29,0,0,0,.58-7.61q-.11-8-.68-13.86a38.19,38.19,0,0,0-2.05-9.71,12.07,12.07,0,0,0-4-5.67,11.26,11.26,0,0,0-6.67-1.83,8.65,8.65,0,0,0-5.09,1.31,8.25,8.25,0,0,0-2.78,3.52,15.43,15.43,0,0,0-1.16,4.93c-.14,1.82-.21,3.68-.21,5.56Z"/><path class="cls-15" d="M896.42,636.61a43.07,43.07,0,0,1,6.41.53,21.58,21.58,0,0,1,6.35,1.94,13.32,13.32,0,0,1,4.83,4,10.6,10.6,0,0,1,1.94,6.56,11.4,11.4,0,0,1-.58,3.57,32.1,32.1,0,0,1-1.41,3.62c-.57,1.23-1.18,2.43-1.84,3.62s-1.28,2.35-1.84,3.47l-36.53,51h23.09a70.84,70.84,0,0,1,7.2.36,18.16,18.16,0,0,1,6.24,1.74,11,11,0,0,1,4.41,4,15.89,15.89,0,0,1,0,14.22,11.27,11.27,0,0,1-4.41,4.1,18.2,18.2,0,0,1-6.24,1.83,60.81,60.81,0,0,1-7.2.42H855.48a55,55,0,0,1-6.61-.42,21.18,21.18,0,0,1-6.41-1.78,12.54,12.54,0,0,1-4.83-3.89,11,11,0,0,1-1.88-6.71,17.22,17.22,0,0,1,1.83-7.56,51.26,51.26,0,0,1,4-6.93L878,663.07h-23.1a66.36,66.36,0,0,1-7.14-.37,18.31,18.31,0,0,1-6.24-1.73A11,11,0,0,1,837,657a12.63,12.63,0,0,1-1.67-7,13.15,13.15,0,0,1,1.67-7.14,11.24,11.24,0,0,1,4.47-4,18.39,18.39,0,0,1,6.24-1.84,59.31,59.31,0,0,1,7.14-.42Z"/><path class="cls-15" d="M956.22,660.13a78.19,78.19,0,0,1,.47-8.61,22,22,0,0,1,2.16-7.51,13.56,13.56,0,0,1,4.82-5.35q3.15-2.05,8.51-2t8.5,2a13.66,13.66,0,0,1,4.83,5.35,21.77,21.77,0,0,1,2.15,7.51,75.81,75.81,0,0,1,.47,8.61v58a77.21,77.21,0,0,1-.47,8.66,21.86,21.86,0,0,1-2.15,7.56,13.33,13.33,0,0,1-4.83,5.3,19.17,19.17,0,0,1-17,0,13.23,13.23,0,0,1-4.82-5.3,22.08,22.08,0,0,1-2.16-7.56,79.66,79.66,0,0,1-.47-8.66Zm32.12-49.55q0,8.08-4.19,12t-11.76,3.93q-7.56,0-11.76-3.93t-4.2-12q0-8.4,4.2-12.18t11.76-3.78q8.08,0,12,3.78T988.34,610.58Z"/></g></svg>
