<svg xmlns="http://www.w3.org/2000/svg" viewBox="0 0 1920 1080"><defs><style>.cls-1{fill:#fbb03b;}.cls-2{fill:#f15a24;}.cls-3{fill:#c1272d;}.cls-4{fill:#ed1e79;}.cls-5{fill:#f0f;}.cls-6{fill:#003c54;}.cls-7{fill:#f2eeb3;}.cls-8{fill:#f27457;}.cls-9{fill:#a63b32;}.cls-10{fill:#f29727;}.cls-11{fill:#337a8e;}.cls-12{fill:#123747;}.cls-13{fill:#082326;}</style></defs><title>startscreen2</title><g id="night_in_the_woods_colors" data-name="night in the woods colors"><g id="planet_and_stars_copy" data-name="planet and stars copy"><polygon id="star2" class="cls-1" points="355.15 812.87 299.44 807.51 263.44 850.35 251.33 795.72 199.45 774.72 247.68 746.31 251.62 690.49 293.53 727.57 347.84 714.07 325.52 765.39 355.15 812.87"/><polygon id="star1" class="cls-1" points="1671.13 324.55 1616.53 326.65 1587.31 372.82 1568.44 321.54 1515.5 308.01 1558.44 274.22 1554.94 219.7 1600.35 250.09 1651.13 229.92 1636.25 282.49 1671.13 324.55"/><g id="planet_copy" data-name="planet copy"><path class="cls-2" d="M348,299.5c.88,33.4-27.09,60.5-60.5,60.5A60.5,60.5,0,0,1,227,299.5c0-33.41,27.1-59.61,60.5-60.5C320.09,238.13,347.1,265.14,348,299.5Z"/><path class="cls-3" d="M277,315.86s16.36-36.84-9.16-73.63c1.76,0,14.15-6.23,35.15-1.23C303,241,312.05,283.71,277,315.86Z"/><path class="cls-3" d="M318.15,290.77S306.75,337.41,266,356c5,2,9,4,19,4C289,360,331.86,336.31,318.15,290.77Z"/><path class="cls-3" d="M261.56,298.16A43.77,43.77,0,0,1,236,331a59.17,59.17,0,0,0,6,8C244.28,339,269.37,324.11,261.56,298.16Z"/><path class="cls-4" d="M402.5,249.19c3.64,8.6-39.89,43.52-104.5,70.81s-125.85,36.61-129.49,28c-2.57-6.11,21.58-22.53,58.92-41.31C227,307,230,317,230,317c9,1,12,2,63-16,12.68-5.35,48-23,48-29,0,0-6-10-6.32-10.37C372.69,248.67,400,243.24,402.5,249.19Z"/><path class="cls-5" d="M378.48,258.61c2.11,4.2-35,27.67-19.18,19.73s26.88-17.78,24.77-22-16.62-1.15-32.41,6.79S376.37,254.42,378.48,258.61Z"/><path class="cls-5" d="M193.7,336.13c-1.62-4.41,37.92-23.45,21.33-17.38s-28.75,14.56-27.14,19,16.37,3.06,33-3S195.31,340.54,193.7,336.13Z"/></g></g><g id="bg_copy" data-name="bg copy"><rect class="cls-6" width="1920" height="1080"/></g><g id="Layer_2_copy" data-name="Layer 2 copy"><g id="planet_and_stars_copy_2" data-name="planet and stars copy 2"><polygon id="star2-2" data-name="star2" class="cls-7" points="355.15 812.87 299.44 807.51 263.44 850.35 251.33 795.72 199.45 774.72 247.68 746.31 251.62 690.49 293.53 727.57 347.84 714.07 325.52 765.39 355.15 812.87"/><polygon id="star1-2" data-name="star1" class="cls-7" points="1671.13 324.55 1616.53 326.65 1587.31 372.82 1568.44 321.54 1515.5 308.01 1558.44 274.22 1554.94 219.7 1600.35 250.09 1651.13 229.92 1636.25 282.49 1671.13 324.55"/><g id="planet_copy_2" data-name="planet copy 2"><path class="cls-8" d="M348,299.5c.88,33.4-27.09,60.5-60.5,60.5A60.5,60.5,0,0,1,227,299.5c0-33.41,27.1-59.61,60.5-60.5C320.09,238.13,347.1,265.14,348,299.5Z"/><path class="cls-9" d="M277,315.86s16.36-36.84-9.16-73.63c1.76,0,14.15-6.23,35.15-1.23C303,241,312.05,283.71,277,315.86Z"/><path class="cls-9" d="M318.15,290.77S306.75,337.41,266,356c5,2,9,4,19,4C289,360,331.86,336.31,318.15,290.77Z"/><path class="cls-9" d="M261.56,298.16A43.77,43.77,0,0,1,236,331a59.17,59.17,0,0,0,6,8C244.28,339,269.37,324.11,261.56,298.16Z"/><path class="cls-10" d="M402.5,249.19c3.64,8.6-39.89,43.52-104.5,70.81s-125.85,36.61-129.49,28c-2.57-6.11,21.58-22.53,58.92-41.31C227,307,230,317,230,317c9,1,12,2,63-16,12.68-5.35,48-23,48-29,0,0-6-10-6.32-10.37C372.69,248.67,400,243.24,402.5,249.19Z"/><path class="cls-9" d="M378.48,258.61c2.11,4.2-35,27.67-19.18,19.73s26.88-17.78,24.77-22-16.62-1.15-32.41,6.79S376.37,254.42,378.48,258.61Z"/><path class="cls-9" d="M193.7,336.13c-1.62-4.41,37.92-23.45,21.33-17.38s-28.75,14.56-27.14,19,16.37,3.06,33-3S195.31,340.54,193.7,336.13Z"/></g></g><path id="alien" class="cls-11" d="M1381,500c-5.84,8.18,24.26,56.63,47.19,40,24.81-18,91.81,0,15.81,42-40.8,22.55-63,13-84,1-3,1.49-22,28-22,28,31-25,105,4-2,47-27,13-83-28-83-28s-88,100,14,125c8.27,2,31-23,27-49,0,0,24,30,48-20,0,0,29,30,62.24,9.15C1404,695,1398,732,1457,745c0,0-50,12-39,47-55-27-75,24-75,24-26-43-84.27-34.35-92.1-35.37-21-2.76-45.69-9.52-71.9-22.63-68.22-34.11,47-156-12.78-202.42-23.58-18.31-28.86-51.17-33.22-83.08-11-80.5,62.49-89.11,49-106.5-83-107-55-157-55-157,7,14,34,30,34,30-3-36,31-74,51-95l23,47c28-47,120-16,166-23-27,37-7,57-33,84,16,4,53,12,82,55,0,0-43,18-64,31,0,0,34,33,35,35,0,0-31,23-62,28C1359,401,1416,451,1381,500Z"/><g id="shade_copy" data-name="shade copy"><path class="cls-12" d="M1192,375s63,49,112,8c1,1,78.74,13,117-10,.52,0-45,44-103,29,1,0,10,46-20,75C1301,480,1250,417,1192,375Z"/><path class="cls-12" d="M1336,415s13,5,13,14c1,1-11,9-4,23,2,1-21,41,32,40,1,1-58,22-41-34,0-1-8-23,9-32C1348,425,1339,416,1336,415Z"/><path class="cls-12" d="M1205,451s-31,31-13,43c2,1,39-33,63-10-1,0,11,3-21,24,0,0,7,9,26,5,7-3,46,16-18,49,2,0-34.15,15.7-65,2,33.15,9.3,133-35,80-44-15,0-46-5-28-15,1,0,38-23,9-25,0,0-26,2-46,20C1192,500,1160,485,1205,451Z"/><path class="cls-12" d="M1338,611l22-28s35.85,26.8,75.42,3.4c.16-.8,51.29-17.87,42.94-42.64.28.48-52.36,75.24-109.36,16.24,0,1,12-25,13-36-1,0-45,69-64,68C1320,594,1325,611,1338,611Z"/><path class="cls-12" d="M1255,631s-55.41,55.78-29,99c7,11,29,23,42,25-12,6-56,1-65-51-1-7-3-24,12-47,11-17,15-37-14-70C1202,588,1255,631,1255,631Z"/><path class="cls-12" d="M1289,761s23-19,14-37c0,0,12,17,6,27,0-1,32-11,31-40,0,0,11,9,3,25,1,0,31,2,50-25,1,0-6,22-30,27,1,0,49-11,69,7,1,0-29-11-63-2,1,0,40,10,41,34,1,2-29-48-92-22,1,1,30,3,24,39C1343,795,1335,747,1289,761Z"/><path class="cls-12" d="M1201,349s4,19,43,14C1245,363,1208,383,1201,349Z"/><path class="cls-12" d="M1161,239s-11-35,51-95c0,0-48,73-44,100Z"/><path class="cls-12" d="M1368,254s-20,0-24,12c1,0-19-35,17-68,20-15,27-10,40-30,0,0-14,21-15,36C1387,205,1387,232,1368,254Z"/><path class="cls-12" d="M1357.84,335.15a41.44,41.44,0,0,1,28.83,3.68A455.52,455.52,0,0,1,1450,307s-65.86,7.53-92.63,27.14A.57.57,0,0,0,1357.84,335.15Z"/></g><g id="eyes_copy" data-name="eyes copy"><ellipse class="cls-7" cx="1197" cy="293.5" rx="9" ry="20.5" transform="translate(1.15 591.66) rotate(-27.78)"/><ellipse class="cls-7" cx="1266" cy="321.5" rx="20.5" ry="9" transform="translate(-30.12 159.7) rotate(-7.13)"/><ellipse class="cls-7" cx="1285.54" cy="281.31" rx="15.79" ry="6.93" transform="translate(-30.32 297.34) rotate(-13.04)"/><ellipse class="cls-7" cx="1228.51" cy="253.52" rx="6.9" ry="15.71" transform="translate(-21.97 154.52) rotate(-7.13)"/></g></g><g id="sign_copy" data-name="sign copy"><rect class="cls-10" x="373" y="509.66" width="786" height="324.34"/><rect class="cls-13" x="394.14" y="189.5" width="725.41" height="302.04" transform="translate(140.02 -214.72) rotate(17.77)"/></g></g></svg>
