<svg xmlns="http://www.w3.org/2000/svg" viewBox="0 0 1920 1080"><defs><style>.cls-1{fill:blue;opacity:0.64;}.cls-2{fill:#fbb03b;}.cls-3{fill:#f15a24;}.cls-4{fill:#c1272d;}.cls-5{fill:#ed1e79;}.cls-6{fill:#f0f;}.cls-7{fill:#7ac943;}.cls-8{fill:#00a99d;}.cls-9{fill:#f7931e;}</style></defs><title>startscreen</title><g id="bg"><rect class="cls-1" width="1920" height="1080"/></g><g id="Layer_2" data-name="Layer 2"><g id="planet_and_stars" data-name="planet and stars"><polygon id="star2" class="cls-2" points="355.15 812.87 299.44 807.51 263.44 850.35 251.33 795.72 199.45 774.72 247.68 746.31 251.62 690.49 293.53 727.57 347.84 714.07 325.52 765.39 355.15 812.87"/><polygon id="star1" class="cls-2" points="1671.13 324.55 1616.53 326.65 1587.31 372.82 1568.44 321.54 1515.5 308.01 1558.44 274.22 1554.94 219.7 1600.35 250.09 1651.13 229.92 1636.25 282.49 1671.13 324.55"/><g id="planet"><path class="cls-3" d="M348,299.5c.88,33.4-27.09,60.5-60.5,60.5A60.5,60.5,0,0,1,227,299.5c0-33.41,27.1-59.61,60.5-60.5C320.09,238.13,347.1,265.14,348,299.5Z"/><path class="cls-4" d="M277,315.86s16.36-36.84-9.16-73.63c1.76,0,14.15-6.23,35.15-1.23C303,241,312.05,283.71,277,315.86Z"/><path class="cls-4" d="M318.15,290.77S306.75,337.41,266,356c5,2,9,4,19,4C289,360,331.86,336.31,318.15,290.77Z"/><path class="cls-4" d="M261.56,298.16A43.77,43.77,0,0,1,236,331a59.17,59.17,0,0,0,6,8C244.28,339,269.37,324.11,261.56,298.16Z"/><path class="cls-5" d="M402.5,249.19c3.64,8.6-39.89,43.52-104.5,70.81s-125.85,36.61-129.49,28c-2.57-6.11,21.58-22.53,58.92-41.31C227,307,230,317,230,317c9,1,12,2,63-16,12.68-5.35,48-23,48-29,0,0-6-10-6.32-10.37C372.69,248.67,400,243.24,402.5,249.19Z"/><path class="cls-6" d="M378.48,258.61c2.11,4.2-35,27.67-19.18,19.73s26.88-17.78,24.77-22-16.62-1.15-32.41,6.79S376.37,254.42,378.48,258.61Z"/><path class="cls-6" d="M193.7,336.13c-1.62-4.41,37.92-23.45,21.33-17.38s-28.75,14.56-27.14,19,16.37,3.06,33-3S195.31,340.54,193.7,336.13Z"/></g></g><path id="alien" class="cls-7" d="M1357,500c-5.84,8.18,24.26,56.63,47.19,40,24.81-18,91.81,0,15.81,42-40.8,22.55-63,13-84,1-3,1.49-22,28-22,28,31-25,105,4-2,47-27,13-83-28-83-28s-88,100,14,125c8.27,2,31-23,27-49,0,0,24,30,48-20,0,0,29,30,62.24,9.15C1380,695,1374,732,1433,745c0,0-50,12-39,47-55-27-75,24-75,24-26-43-84.27-34.35-92.1-35.37-21-2.76-45.69-9.52-71.9-22.63-68.22-34.11,47-156-12.78-202.42-23.58-18.31-28.86-51.17-33.22-83.08-11-80.5,62.49-89.11,49-106.5-83-107-55-157-55-157,7,14,34,30,34,30-3-36,31-74,51-95l23,47c28-47,120-16,166-23-27,37-7,57-33,84,16,4,53,12,82,55,0,0-43,18-64,31,0,0,34,33,35,35,0,0-31,23-62,28C1335,401,1392,451,1357,500Z"/><g id="shade"><path class="cls-8" d="M1168,375s63,49,112,8c1,1,78.74,13,117-10,.52,0-45,44-103,29,1,0,10,46-20,75C1277,480,1226,417,1168,375Z"/><path class="cls-8" d="M1312,415s13,5,13,14c1,1-11,9-4,23,2,1-21,41,32,40,1,1-58,22-41-34,0-1-8-23,9-32C1324,425,1315,416,1312,415Z"/><path class="cls-8" d="M1181,451s-31,31-13,43c2,1,39-33,63-10-1,0,11,3-21,24,0,0,7,9,26,5,7-3,46,16-18,49,2,0-34.15,15.7-65,2,33.15,9.3,133-35,80-44-15,0-46-5-28-15,1,0,38-23,9-25,0,0-26,2-46,20C1168,500,1136,485,1181,451Z"/><path class="cls-8" d="M1314,611l22-28s35.85,26.8,75.42,3.4c.16-.8,51.29-17.87,42.94-42.64.28.48-52.36,75.24-109.36,16.24,0,1,12-25,13-36-1,0-45,69-64,68C1296,594,1301,611,1314,611Z"/><path class="cls-8" d="M1231,631s-55.41,55.78-29,99c7,11,29,23,42,25-12,6-56,1-65-51-1-7-3-24,12-47,11-17,15-37-14-70C1178,588,1231,631,1231,631Z"/><path class="cls-8" d="M1265,761s23-19,14-37c0,0,12,17,6,27,0-1,32-11,31-40,0,0,11,9,3,25,1,0,31,2,50-25,1,0-6,22-30,27,1,0,49-11,69,7,1,0-29-11-63-2,1,0,40,10,41,34,1,2-29-48-92-22,1,1,30,3,24,39C1319,795,1311,747,1265,761Z"/><path class="cls-8" d="M1177,349s4,19,43,14C1221,363,1184,383,1177,349Z"/><path class="cls-8" d="M1137,239s-11-35,51-95c0,0-48,73-44,100Z"/><path class="cls-8" d="M1344,254s-20,0-24,12c1,0-19-35,17-68,20-15,27-10,40-30,0,0-14,21-15,36C1363,205,1363,232,1344,254Z"/><path class="cls-8" d="M1333.84,335.15a41.44,41.44,0,0,1,28.83,3.68A455.52,455.52,0,0,1,1426,307s-65.86,7.53-92.63,27.14A.57.57,0,0,0,1333.84,335.15Z"/></g><g id="eyes"><ellipse class="cls-9" cx="1173" cy="293.5" rx="9" ry="20.5" transform="translate(-1.61 580.48) rotate(-27.78)"/><ellipse class="cls-9" cx="1242" cy="321.5" rx="20.5" ry="9" transform="translate(-30.31 156.72) rotate(-7.13)"/><ellipse class="cls-9" cx="1261.54" cy="281.31" rx="15.79" ry="6.93" transform="translate(-30.94 291.92) rotate(-13.04)"/><ellipse class="cls-9" cx="1204.51" cy="253.52" rx="6.9" ry="15.71" transform="translate(-22.16 151.54) rotate(-7.13)"/></g></g><g id="sign"><rect x="504.84" y="262.7" width="623" height="259.4" transform="translate(240.7 -306.9) rotate(24.87)"/><rect class="cls-9" x="497" y="556" width="601" height="248"/></g></svg>
