<svg xmlns="http://www.w3.org/2000/svg" width="356.75" height="672" viewBox="0 0 356.75 672"><defs><style>.cls-1{fill:#337a8e;}.cls-2{fill:#123747;}.cls-3{fill:#f2eeb3;}</style></defs><title>Uzi alien</title><g id="Alien"><path id="alien-2" data-name="alien" class="cls-1" d="M258.54,356c-5.84,8.18,24.26,56.63,47.19,40,24.81-18,91.81,0,15.81,42-40.8,22.55-63,13-84,1-3,1.49-22,28-22,28,31-25,105,4-2,47-27,13-83-28-83-28s-88,100,14,125c8.27,2,31-23,27-49,0,0,24,30,48-20,0,0,29,30,62.24,9.15-.24-.15-6.24,36.85,52.76,49.85,0,0-50,12-39,47-55-27-75,24-75,24-26-43-84.27-34.35-92.1-35.37-21-2.76-45.69-9.52-71.9-22.63-68.22-34.11,47-156-12.78-202.42C20.18,393.27,14.9,360.41,10.54,328.5-.46,248,73,239.39,59.54,222c-83-107-55-157-55-157,7,14,34,30,34,30-3-36,31-74,51-95l23,47c28-47,120-16,166-23-27,37-7,57-33,84,16,4,53,12,82,55,0,0-43,18-64,31,0,0,34,33,35,35,0,0-31,23-62,28C236.54,257,293.54,307,258.54,356Z"/><g id="shade_copy" data-name="shade copy"><path class="cls-2" d="M68.2,230.52s63,49,112,8c1,1,78.74,13,117-10,.52,0-45,44-103,29,1,0,10,46-20,75C177.2,335.52,126.2,272.52,68.2,230.52Z"/><path class="cls-2" d="M212.2,270.52s13,5,13,14c1,1-11,9-4,23,2,1-21,41,32,40,1,1-58,22-41-34,0-1-8-23,9-32C224.2,280.52,215.2,271.52,212.2,270.52Z"/><path class="cls-2" d="M81.2,306.52s-31,31-13,43c2,1,39-33,63-10-1,0,11,3-21,24,0,0,7,9,26,5,7-3,46,16-18,49,2,0-34.15,15.7-65,2,33.15,9.3,133-35,80-44-15,0-46-5-28-15,1,0,38-23,9-25,0,0-26,2-46,20C68.2,355.52,36.2,340.52,81.2,306.52Z"/><path class="cls-2" d="M214.2,466.52l22-28s35.85,26.8,75.42,3.4c.16-.8,51.29-17.87,42.94-42.64.28.48-52.36,75.24-109.36,16.24,0,1,12-25,13-36-1,0-45,69-64,68C196.2,449.52,201.2,466.52,214.2,466.52Z"/><path class="cls-2" d="M131.2,486.52s-55.41,55.78-29,99c7,11,29,23,42,25-12,6-56,1-65-51-1-7-3-24,12-47,11-17,15-37-14-70C78.2,443.52,131.2,486.52,131.2,486.52Z"/><path class="cls-2" d="M165.2,616.52s23-19,14-37c0,0,12,17,6,27,0-1,32-11,31-40,0,0,11,9,3,25,1,0,31,2,50-25,1,0-6,22-30,27,1,0,49-11,69,7,1,0-29-11-63-2,1,0,40,10,41,34,1,2-29-48-92-22,1,1,30,3,24,39C219.2,650.52,211.2,602.52,165.2,616.52Z"/><path class="cls-2" d="M77.2,204.52s4,19,43,14C121.2,218.52,84.2,238.52,77.2,204.52Z"/><path class="cls-2" d="M37.2,94.52s-11-35,51-95c0,0-48,73-44,100Z"/><path class="cls-2" d="M244.2,109.52s-20,0-24,12c1,0-19-35,17-68,20-15,27-10,40-30,0,0-14,21-15,36C263.2,60.52,263.2,87.52,244.2,109.52Z"/><path class="cls-2" d="M234,190.67a41.5,41.5,0,0,1,28.83,3.68,456.78,456.78,0,0,1,63.33-31.83s-65.86,7.53-92.63,27.14a.57.57,0,0,0-.11.8A.57.57,0,0,0,234,190.67Z"/></g><g id="eyes_copy" data-name="eyes copy"><ellipse class="cls-3" cx="84.19" cy="158.97" rx="9" ry="20.5" transform="translate(-64.39 57.56) rotate(-27.78)"/><ellipse class="cls-3" cx="153.19" cy="187.1" rx="20.5" ry="9" transform="translate(-22.04 20.46) rotate(-7.13)"/><ellipse class="cls-3" cx="172.74" cy="146.86" rx="15.79" ry="6.93" transform="translate(-28.68 42.76) rotate(-13.04)"/><ellipse class="cls-3" cx="115.7" cy="119.12" rx="6.9" ry="15.71" transform="translate(-13.89 15.28) rotate(-7.13)"/></g></g></svg>